<svg width="53" height="24" viewBox="0 0 53 24" fill="none" xmlns="http://www.w3.org/2000/svg">
<g clip-path="url(#clip0_44_728)">
<path fill-rule="evenodd" clip-rule="evenodd" d="M39.4698 9.77997L52.7098 9.71997V12.09H43.9198V13.68H52.5398V16.27H43.9198V18.07H52.7098V20.67L39.4698 20.73L39.4198 9.76997L39.4698 9.78997V9.77997ZM37.1098 9.77997H32.4698L27.4598 17.27L21.4298 9.82997H17.5098L27.5898 23.96L37.0998 9.77997H37.1098Z" fill="#427B73"/>
<path fill-rule="evenodd" clip-rule="evenodd" d="M14.43 3.44994C14.29 3.31994 14.56 3.06994 15.04 3.17994C15.35 3.25994 15.68 3.17994 16 3.32994C16.32 3.47994 16.81 3.58994 17.24 3.78994C17.66 3.98994 18.25 4.01994 18.89 4.30994C19.42 4.54994 19.93 4.81994 20.42 5.12994C22.23 6.17994 23.54 7.66994 24.34 9.59994C24.34 9.65994 24.34 9.79994 24.45 9.72994C24.58 9.33994 24.77 8.97994 25.02 8.64994C25.33 8.38994 25.56 8.06994 25.7 7.69994C25.89 7.13994 26.92 6.34994 27.83 5.65994C28.2 5.37994 28.52 4.78994 28.89 4.51994C29.85 3.81994 30.81 3.46994 31.82 2.67994C31.97 2.57994 32.13 2.50994 32.3 2.45994C32.94 2.23994 33.43 1.80994 34.08 1.50994C35.03 1.14994 36.01 0.959941 37.03 0.939941C37.08 0.939941 37.14 1.05994 37.12 1.11994C37.06 1.42994 36.9 1.65994 36.63 1.82994C36.41 1.92994 36.48 2.10994 36.25 2.20994C35.65 2.44994 35.45 2.41994 35.23 2.75994C35.23 2.82994 35.16 2.91994 35.09 2.96994C34.68 3.17994 34.36 3.47994 34.13 3.86994C34.04 4.04994 33.93 4.20994 33.79 4.34994C33.27 4.84994 32.68 5.25994 32.03 5.56994C31.36 5.97994 30.85 6.53994 30.53 7.24994C30.45 7.36994 30.27 7.24994 30.16 7.64994C30.05 7.92994 29.88 8.15994 29.64 8.33994C29.51 8.44994 29.45 8.65994 29.3 8.73994C29.16 8.82994 28.98 8.73994 28.88 8.87994C28.81 8.94994 28.74 9.01994 28.66 9.08994C28.38 9.27994 27.95 9.08994 27.77 9.56994C27.6 9.97994 27.35 10.3299 27.01 10.6199C26.67 11.0599 26.35 11.5299 26.05 11.9999C25.73 12.5399 25.38 12.7999 25.03 13.4299C24.57 14.2599 24.07 14.0599 23.86 13.7099C23.65 13.3599 23.63 13.8599 23.42 13.1199C23.34 12.9499 23.25 12.7899 23.15 12.6399C23.03 12.3099 22.87 11.9899 22.69 11.6899C22.51 11.4199 22.27 11.2299 22.06 10.8899C21.84 10.4499 21.6 10.0299 21.32 9.62994C20.91 9.09994 20.71 9.30994 20.45 9.07994C20.11 8.72994 19.79 8.34994 19.49 7.95994C19.26 7.70994 18.99 7.50994 18.75 7.26994C18.62 7.14994 18.52 7.00994 18.44 6.84994C18.11 5.89994 17.94 6.33994 17.71 6.09994C17.48 5.84994 17.46 5.64994 17.2 5.55994C16.94 5.45994 16.95 5.33994 16.86 5.26994C16.76 5.19994 16.48 5.13994 16.22 4.97994C15.96 4.83994 15.76 4.63994 15.63 4.37994C15.53 4.24994 15.47 4.25994 15.2 4.17994C14.74 4.05994 14.78 3.76994 14.48 3.49994L14.45 3.45994L14.43 3.44994Z" fill="#709892"/>
<path fill-rule="evenodd" clip-rule="evenodd" d="M21.3999 11.2998C21.3999 10.9898 21.8699 11.0498 22.0699 11.0498C22.2399 11.2698 22.4099 11.4298 22.5599 11.6398C22.7499 11.9398 22.8999 12.2598 23.0199 12.5898C23.1199 12.7398 23.2099 12.8998 23.2899 13.0698C23.4999 13.8098 23.6199 13.4398 23.7299 13.6598C23.8399 13.8798 24.4399 14.2098 24.8999 13.3898C25.2399 12.7498 25.5999 12.4898 25.9199 11.9498C26.1799 11.5098 26.4799 11.0898 26.7999 10.6998H26.8799C27.0499 10.6398 27.2199 10.5898 27.3999 10.5598C28.4199 10.0298 27.6699 11.3098 27.1099 11.9598C26.9399 12.1798 26.7899 12.3998 26.6699 12.6498C26.4599 13.2698 26.2099 13.8598 25.8899 14.4298C25.8099 14.5398 25.7599 14.6698 25.7299 14.7998C25.2799 15.5898 25.4199 16.0098 24.6699 15.9198C24.4699 15.9198 24.2699 15.9498 24.0699 15.9798C23.4199 15.9798 22.9899 15.1598 22.9399 14.4998C22.7599 13.9298 22.5399 13.3798 22.2799 12.8498L21.7699 11.9898C21.7299 11.8798 21.6799 11.7798 21.6299 11.6698C21.5199 11.5698 21.4399 11.4498 21.3799 11.3198L21.4199 11.2998H21.3999Z" fill="#BDD0CD"/>
<path fill-rule="evenodd" clip-rule="evenodd" d="M10.9 13.5099L8.55996 16.7599H13.28L10.9 13.5299V13.5099ZM6.71996 19.3099L5.58996 20.8699H0.959961L8.89996 9.86987H12.95V9.92987L20.94 20.8099H16.31L15.17 19.2499L6.70996 19.3199L6.71996 19.3099Z" fill="#427B73"/>
</g>
<defs>
<clipPath id="clip0_44_728">
<rect width="52.2" height="23.09" fill="white" transform="translate(0.75 0.909912)"/>
</clipPath>
</defs>
</svg>
