<svg width="73" height="72" viewBox="0 0 73 72" fill="none" xmlns="http://www.w3.org/2000/svg">
<g clip-path="url(#clip0_44_2159)">
<path d="M1.79349 21.0953H3.43667C5.48413 21.1734 7.46638 20.8482 9.38342 20.1199C10.3224 19.6647 11.2874 19.2615 12.2785 18.9104C13.6348 18.5072 14.9911 18.5072 16.3474 18.9104C17.3385 19.2615 18.3035 19.6647 19.2555 20.1199C21.1726 20.8352 23.1418 21.1604 25.1893 21.0953H25.6327C25.8152 21.0953 25.9587 21.0303 26.0891 20.9133C26.2195 20.7832 26.2717 20.6401 26.2717 20.4581C26.2717 20.276 26.2065 20.1329 26.0891 20.0029C25.9587 19.8728 25.8152 19.8208 25.6327 19.8208H25.1893C23.3244 19.8858 21.5247 19.5997 19.7772 18.9624C18.7861 18.4812 17.7819 18.065 16.7517 17.6878C15.1346 17.2196 13.5175 17.2196 11.9004 17.6878C10.8701 18.065 9.8529 18.4812 8.87482 18.9624C7.12731 19.5997 5.31459 19.8858 3.44971 19.8208H1.89782C1.72829 19.8208 1.57179 19.8598 1.44138 19.9768C1.31097 20.0939 1.23272 20.237 1.21968 20.406C1.20664 20.5751 1.24576 20.7312 1.36313 20.8742C1.4805 21.0043 1.62396 21.0823 1.79349 21.0953Z" fill="#01352C" stroke="#02352C" stroke-width="0.3" stroke-miterlimit="10"/>
<path d="M48.2333 19.8859H47.7899C45.925 19.951 44.1253 19.6649 42.3778 19.0276C41.3867 18.5464 40.3695 18.1172 39.3392 17.753C37.7221 17.2718 36.1181 17.2718 34.501 17.753C33.4707 18.1172 32.4535 18.5464 31.4754 19.0276C29.7279 19.6649 27.9282 19.951 26.0634 19.8859H25.62C25.4374 19.8859 25.2939 19.951 25.1635 20.068C25.0331 20.1981 24.981 20.3412 24.981 20.5232C24.981 20.7053 25.0462 20.8484 25.1635 20.9784C25.2939 21.1085 25.4374 21.1605 25.62 21.1605H26.0634C28.1108 21.2386 30.08 20.9134 31.9971 20.1851C32.936 19.7299 33.9011 19.3267 34.8922 18.9755C36.2485 18.5724 37.6048 18.5724 38.961 18.9755C39.9522 19.3267 40.9172 19.7299 41.8692 20.1851C43.7862 20.9004 45.7555 21.2255 47.8029 21.1605H48.2463C48.4289 21.1605 48.5723 21.0955 48.7027 20.9784C48.8332 20.8484 48.8853 20.7053 48.8853 20.5232C48.8853 20.3412 48.8201 20.1981 48.7027 20.068C48.5723 19.938 48.4289 19.8859 48.2463 19.8859" fill="#01352C"/>
<path d="M48.2333 19.8859H47.7899C45.925 19.951 44.1253 19.6649 42.3778 19.0276C41.3867 18.5464 40.3695 18.1172 39.3392 17.753C37.7221 17.2718 36.1181 17.2718 34.501 17.753C33.4707 18.1172 32.4535 18.5464 31.4754 19.0276C29.7279 19.6649 27.9282 19.951 26.0634 19.8859H25.62C25.4374 19.8859 25.2939 19.951 25.1635 20.068C25.0331 20.1981 24.981 20.3412 24.981 20.5232C24.981 20.7053 25.0462 20.8484 25.1635 20.9784C25.2939 21.1085 25.4374 21.1605 25.62 21.1605H26.0634C28.1108 21.2386 30.08 20.9134 31.9971 20.1851C32.936 19.7299 33.9011 19.3267 34.8922 18.9755C36.2485 18.5724 37.6048 18.5724 38.961 18.9755C39.9522 19.3267 40.9172 19.7299 41.8692 20.1851C43.7862 20.9004 45.7555 21.2255 47.8029 21.1605H48.2463C48.4289 21.1605 48.5723 21.0955 48.7027 20.9784C48.8332 20.8484 48.8853 20.7053 48.8853 20.5232C48.8853 20.3412 48.8201 20.1981 48.7027 20.068C48.5723 19.938 48.4289 19.8859 48.2463 19.8859" stroke="#02352C" stroke-width="0.3" stroke-miterlimit="10"/>
<path d="M48.2202 21.1473H48.6636C50.7111 21.2254 52.6803 20.9002 54.5973 20.1719C55.5363 19.7167 56.5013 19.3135 57.4924 18.9624C58.8487 18.5592 60.205 18.5592 61.5613 18.9624C62.5524 19.3135 63.5044 19.7167 64.4564 20.1719C66.3734 20.8872 68.3557 21.2124 70.4031 21.1473H72.0463C72.2159 21.1473 72.3593 21.0693 72.4767 20.9263C72.5941 20.7962 72.6332 20.6401 72.6201 20.471C72.6071 20.302 72.5289 20.1589 72.3984 20.0419C72.268 19.9248 72.1115 19.8728 71.942 19.8858H70.3901C68.5252 19.9508 66.7256 19.6647 64.978 19.0274C63.6218 18.4161 62.735 18.026 61.9395 17.7528C61.157 17.5057 60.3484 17.3887 59.5269 17.4147C58.6922 17.4017 57.8837 17.5057 57.1012 17.7528C56.3057 18.026 55.4319 18.4161 54.0887 19.0274C52.3412 19.6647 50.5415 19.9508 48.6766 19.8858H48.2333C48.0507 19.8858 47.9072 19.9508 47.7768 20.0679C47.6464 20.1979 47.5942 20.341 47.5942 20.5231C47.5942 20.7052 47.6594 20.8482 47.7768 20.9783C47.9072 21.1083 48.0507 21.1604 48.2333 21.1604L48.2202 21.1473Z" fill="#01352C" stroke="#02352C" stroke-width="0.3" stroke-miterlimit="10"/>
<path d="M1.8328 31.4088H3.4499C5.37999 31.4349 7.29703 31.3438 9.21407 31.1357C12.6178 30.5375 16.0346 30.5375 19.4383 31.1357C21.3554 31.3308 23.2724 31.4218 25.1894 31.4088H25.6328C25.8024 31.4088 25.9589 31.3438 26.0762 31.2268C26.2066 31.1097 26.2588 30.9536 26.2719 30.7846C26.2719 30.6155 26.2066 30.4594 26.0762 30.3424C25.9589 30.2253 25.8024 30.1603 25.6328 30.1473H25.1894C23.3246 30.1733 21.4597 30.0823 19.5948 29.8872C16.0737 29.2759 12.5656 29.2759 9.04454 29.8872C7.17966 30.0823 5.31478 30.1603 3.4499 30.1473H1.87192C1.70239 30.1473 1.5459 30.2123 1.42853 30.3294C1.29812 30.4464 1.24595 30.6025 1.23291 30.7716C1.23291 30.9406 1.28507 31.0837 1.40244 31.2138C1.51981 31.3438 1.66327 31.4088 1.8328 31.4088Z" fill="#01352C" stroke="#02352C" stroke-width="0.3" stroke-miterlimit="10"/>
<path d="M48.2329 30.1604H47.7895C45.9246 30.1864 44.0598 30.0954 42.2079 29.9003C40.4604 29.6141 38.6999 29.4581 36.9263 29.4451C35.1527 29.4451 33.4052 29.6141 31.6577 29.9003C29.7928 30.0954 27.9279 30.1734 26.063 30.1604H25.6327C25.4501 30.1604 25.3066 30.2254 25.1762 30.3425C25.0458 30.4725 24.9937 30.6156 24.9937 30.7977C24.9937 30.9798 25.0589 31.1228 25.1762 31.2529C25.3066 31.3829 25.4501 31.435 25.6327 31.435H26.063C27.9931 31.461 29.9102 31.3699 31.8272 31.1618C35.2309 30.5636 38.6477 30.5636 42.0514 31.1618C43.9685 31.3569 45.8855 31.448 47.8026 31.435H48.246C48.4285 31.435 48.572 31.3699 48.7024 31.2529C48.8328 31.1228 48.885 30.9798 48.885 30.7977C48.885 30.6156 48.8198 30.4725 48.7024 30.3425C48.572 30.2124 48.4285 30.1604 48.246 30.1604" fill="#01352C"/>
<path d="M48.2329 30.1604H47.7895C45.9246 30.1864 44.0598 30.0954 42.2079 29.9003C40.4604 29.6141 38.6999 29.4581 36.9263 29.4451C35.1527 29.4451 33.4052 29.6141 31.6577 29.9003C29.7928 30.0954 27.9279 30.1734 26.063 30.1604H25.6327C25.4501 30.1604 25.3066 30.2254 25.1762 30.3425C25.0458 30.4725 24.9937 30.6156 24.9937 30.7977C24.9937 30.9798 25.0589 31.1228 25.1762 31.2529C25.3066 31.3829 25.4501 31.435 25.6327 31.435H26.063C27.9931 31.461 29.9102 31.3699 31.8272 31.1618C35.2309 30.5636 38.6477 30.5636 42.0514 31.1618C43.9685 31.3569 45.8855 31.448 47.8026 31.435H48.246C48.4285 31.435 48.572 31.3699 48.7024 31.2529C48.8328 31.1228 48.885 30.9798 48.885 30.7977C48.885 30.6156 48.8198 30.4725 48.7024 30.3425C48.572 30.2124 48.4285 30.1604 48.246 30.1604" stroke="#02352C" stroke-width="0.3" stroke-miterlimit="10"/>
<path d="M48.2202 31.4219H48.6505C50.5806 31.4479 52.5107 31.3699 54.4408 31.1748C57.8445 30.5765 61.2613 30.5765 64.665 31.1748C66.582 31.3699 68.4991 31.4609 70.4292 31.4479H72.0463C72.2288 31.4479 72.3723 31.3829 72.4897 31.2528C72.607 31.1228 72.6722 30.9797 72.6722 30.7976C72.6722 30.6285 72.594 30.4855 72.4636 30.3684C72.3332 30.2514 72.1897 30.1863 72.0202 30.1863H70.4292C68.5513 30.2124 66.6864 30.1213 64.8345 29.9262C61.3265 29.315 57.8054 29.315 54.2973 29.9262C52.4324 30.1213 50.5676 30.1993 48.7027 30.1863H48.2723C48.0897 30.1863 47.9463 30.2514 47.8159 30.3684C47.6855 30.4985 47.6333 30.6415 47.6333 30.8236C47.6333 31.0057 47.6985 31.1488 47.8159 31.2788C47.9463 31.4089 48.0897 31.4609 48.2723 31.4609L48.2202 31.4219Z" fill="#01352C" stroke="#02352C" stroke-width="0.3" stroke-miterlimit="10"/>
<path d="M1.8328 44.0636H3.4499C5.37999 44.0896 7.29703 43.9986 9.21407 43.7775C12.6178 43.1792 16.0346 43.1792 19.4383 43.7775C21.3554 43.9856 23.2724 44.0766 25.1894 44.0636H25.6328C25.8024 44.0636 25.9589 43.9986 26.0762 43.8685C26.2066 43.7515 26.2588 43.5954 26.2719 43.4263C26.2719 43.2572 26.2066 43.1012 26.0762 42.9841C25.9458 42.8671 25.8024 42.802 25.6328 42.802H25.1894C23.3246 42.815 21.4597 42.737 19.5948 42.5419C16.0737 41.9046 12.5656 41.9046 9.04454 42.5419C7.17966 42.724 5.31478 42.815 3.4499 42.802H1.87192C1.70239 42.802 1.5459 42.8541 1.42853 42.9711C1.29812 43.0882 1.24595 43.2312 1.23291 43.4133C1.23291 43.5824 1.28507 43.7385 1.40244 43.8555C1.51981 43.9856 1.66327 44.0506 1.8328 44.0636Z" fill="#01352C" stroke="#02352C" stroke-width="0.3" stroke-miterlimit="10"/>
<path d="M48.2333 42.815H47.7768C45.9119 42.828 44.0601 42.737 42.1952 42.5419C40.4477 42.2557 38.6872 42.0997 36.9136 42.0867C35.14 42.0867 33.3925 42.2557 31.645 42.5419C29.7931 42.737 27.9282 42.828 26.0634 42.815H25.62C25.4374 42.815 25.2939 42.88 25.1635 42.9971C25.0331 43.1141 24.981 43.2702 24.981 43.4523C24.981 43.6344 25.0462 43.7774 25.1635 43.9075C25.2939 44.0375 25.4374 44.0896 25.62 44.0896H26.0634C27.9804 44.1156 29.9105 44.0245 31.8145 43.8164C35.2182 43.1922 38.635 43.1922 42.0387 43.8164C43.9427 44.0115 45.8598 44.1026 47.7768 44.0896H48.2333C48.4158 44.0896 48.5593 44.0245 48.6897 43.9075C48.8201 43.7774 48.8723 43.6344 48.8723 43.4523C48.8723 43.2702 48.8071 43.1271 48.6897 42.9971C48.5723 42.867 48.4158 42.815 48.2333 42.815Z" fill="#01352C" stroke="#02352C" stroke-width="0.3" stroke-miterlimit="10"/>
<path d="M48.2199 44.0766H48.6633C50.5803 44.1026 52.5104 44.0115 54.4144 43.8034C56.1097 43.5043 57.8051 43.3482 59.5265 43.3482C61.2479 43.3612 62.9433 43.5173 64.6386 43.8034C66.5557 43.9985 68.4727 44.0896 70.4028 44.0766H72.0199C72.1894 44.0766 72.3459 44.0115 72.4633 43.8945C72.5807 43.7644 72.6459 43.6214 72.6459 43.4393C72.6459 43.2702 72.5676 43.1141 72.4503 42.9971C72.3198 42.88 72.1764 42.815 71.9938 42.828H70.4028C68.5249 42.841 66.66 42.75 64.8082 42.5549C61.3001 41.9436 57.779 41.9436 54.2709 42.5549C52.4191 42.75 50.5542 42.841 48.6893 42.828H48.246C48.0634 42.828 47.9199 42.893 47.7895 43.0101C47.6591 43.1401 47.6069 43.2832 47.6069 43.4653C47.6069 43.6474 47.6721 43.7904 47.7895 43.9205C47.9199 44.0506 48.0634 44.1026 48.246 44.1026" fill="#01352C"/>
<path d="M48.2199 44.0766H48.6633C50.5803 44.1026 52.5104 44.0115 54.4144 43.8034C56.1097 43.5043 57.8051 43.3482 59.5265 43.3482C61.2479 43.3612 62.9433 43.5173 64.6386 43.8034C66.5557 43.9985 68.4727 44.0896 70.4028 44.0766H72.0199C72.1894 44.0766 72.3459 44.0115 72.4633 43.8945C72.5807 43.7644 72.6459 43.6214 72.6459 43.4393C72.6459 43.2702 72.5676 43.1141 72.4503 42.9971C72.3198 42.88 72.1764 42.815 71.9938 42.828H70.4028C68.5249 42.841 66.66 42.75 64.8082 42.5549C61.3001 41.9436 57.779 41.9436 54.2709 42.5549C52.4191 42.75 50.5542 42.841 48.6893 42.828H48.246C48.0634 42.828 47.9199 42.893 47.7895 43.0101C47.6591 43.1401 47.6069 43.2832 47.6069 43.4653C47.6069 43.6474 47.6721 43.7904 47.7895 43.9205C47.9199 44.0506 48.0634 44.1026 48.246 44.1026" stroke="#02352C" stroke-width="0.3" stroke-miterlimit="10"/>
<path d="M1.8328 56.6921H3.4499C5.37999 56.7181 7.29703 56.6271 9.21407 56.419C12.6178 55.8207 16.0346 55.8207 19.4383 56.419C21.3554 56.6141 23.2724 56.7051 25.1894 56.6921H25.6328C25.8154 56.6921 25.9589 56.6271 26.0893 56.51C26.2197 56.38 26.2719 56.2369 26.2719 56.0548C26.2719 55.8727 26.2066 55.7297 26.0893 55.5996C25.9589 55.4696 25.8154 55.4175 25.6328 55.4175H25.1894C23.3246 55.4436 21.4597 55.3525 19.5948 55.1574C16.0737 54.5462 12.5656 54.5462 9.04454 55.1574C7.17966 55.3525 5.31478 55.4306 3.4499 55.4175H1.87192C1.68935 55.4175 1.5459 55.4826 1.41549 55.5996C1.28507 55.7297 1.23291 55.8727 1.23291 56.0548C1.23291 56.2369 1.29812 56.38 1.41549 56.51C1.5459 56.6401 1.68935 56.6921 1.87192 56.6921H1.8328Z" fill="#01352C" stroke="#02352C" stroke-width="0.3" stroke-miterlimit="10"/>
<path d="M48.2329 55.4045H47.7895C45.9246 55.4305 44.0598 55.3395 42.2079 55.1444C40.4604 54.8583 38.6999 54.7022 36.9263 54.6892C35.1527 54.6892 33.4052 54.8583 31.6577 55.1444C29.8058 55.3395 27.9409 55.4175 26.0761 55.4045H25.6327C25.4501 55.4045 25.3066 55.4696 25.1762 55.5866C25.0458 55.7167 24.9937 55.8597 24.9937 56.0418C24.9937 56.2239 25.0589 56.367 25.1762 56.497C25.3066 56.6271 25.4501 56.6791 25.6327 56.6791H26.0761C27.9931 56.7051 29.9232 56.6141 31.8272 56.406C35.2309 55.8077 38.6477 55.8077 42.0514 56.406C43.9685 56.6011 45.8855 56.6921 47.8026 56.6791H48.246C48.4285 56.6791 48.572 56.6141 48.7024 56.497C48.8328 56.367 48.885 56.2239 48.885 56.0418C48.885 55.8597 48.8198 55.7167 48.7024 55.5866C48.572 55.4566 48.4285 55.4045 48.246 55.4045" fill="#01352C"/>
<path d="M48.2329 55.4045H47.7895C45.9246 55.4305 44.0598 55.3395 42.2079 55.1444C40.4604 54.8583 38.6999 54.7022 36.9263 54.6892C35.1527 54.6892 33.4052 54.8583 31.6577 55.1444C29.8058 55.3395 27.9409 55.4175 26.0761 55.4045H25.6327C25.4501 55.4045 25.3066 55.4696 25.1762 55.5866C25.0458 55.7167 24.9937 55.8597 24.9937 56.0418C24.9937 56.2239 25.0589 56.367 25.1762 56.497C25.3066 56.6271 25.4501 56.6791 25.6327 56.6791H26.0761C27.9931 56.7051 29.9232 56.6141 31.8272 56.406C35.2309 55.8077 38.6477 55.8077 42.0514 56.406C43.9685 56.6011 45.8855 56.6921 47.8026 56.6791H48.246C48.4285 56.6791 48.572 56.6141 48.7024 56.497C48.8328 56.367 48.885 56.2239 48.885 56.0418C48.885 55.8597 48.8198 55.7167 48.7024 55.5866C48.572 55.4566 48.4285 55.4045 48.246 55.4045" stroke="#02352C" stroke-width="0.3" stroke-miterlimit="10"/>
<path d="M48.22 56.6921H48.6634C50.5804 56.7181 52.5105 56.6271 54.4145 56.419C57.8183 55.8207 61.235 55.8207 64.6388 56.419C66.5558 56.6141 68.4729 56.7051 70.4029 56.6921H72.02C72.2026 56.6921 72.3461 56.6271 72.4765 56.51C72.6069 56.38 72.6591 56.2369 72.6591 56.0548C72.6591 55.8727 72.5939 55.7297 72.4765 55.5996C72.3461 55.4696 72.2026 55.4175 72.02 55.4175H70.429C68.5511 55.4436 66.6862 55.3525 64.8344 55.1574C61.3263 54.5462 57.8052 54.5462 54.2972 55.1574C52.4453 55.3525 50.5804 55.4306 48.7025 55.4175H48.2591C48.0766 55.4175 47.9331 55.4826 47.8027 55.5996C47.6723 55.7297 47.6201 55.8727 47.6201 56.0548C47.6201 56.2369 47.6853 56.38 47.8027 56.51C47.9331 56.6401 48.0766 56.6921 48.2591 56.6921" fill="#01352C"/>
<path d="M48.22 56.6921H48.6634C50.5804 56.7181 52.5105 56.6271 54.4145 56.419C57.8183 55.8207 61.235 55.8207 64.6388 56.419C66.5558 56.6141 68.4729 56.7051 70.4029 56.6921H72.02C72.2026 56.6921 72.3461 56.6271 72.4765 56.51C72.6069 56.38 72.6591 56.2369 72.6591 56.0548C72.6591 55.8727 72.5939 55.7297 72.4765 55.5996C72.3461 55.4696 72.2026 55.4175 72.02 55.4175H70.429C68.5511 55.4436 66.6862 55.3525 64.8344 55.1574C61.3263 54.5462 57.8052 54.5462 54.2972 55.1574C52.4453 55.3525 50.5804 55.4306 48.7025 55.4175H48.2591C48.0766 55.4175 47.9331 55.4826 47.8027 55.5996C47.6723 55.7297 47.6201 55.8727 47.6201 56.0548C47.6201 56.2369 47.6853 56.38 47.8027 56.51C47.9331 56.6401 48.0766 56.6921 48.2591 56.6921" stroke="#02352C" stroke-width="0.3" stroke-miterlimit="10"/>
<path d="M1.22007 20.523V71.1805L1.40265 71.6357L1.84605 71.8178H71.9942L72.4376 71.6357L72.6332 71.1805V20.523C72.6332 20.3409 72.568 20.1979 72.4506 20.0678C72.3202 19.9378 72.1768 19.8857 71.9942 19.8857C71.8116 19.8857 71.6682 19.9508 71.5378 20.0678C71.4074 20.1979 71.3552 20.3409 71.3552 20.523V70.5563H2.48506V20.523C2.48506 20.3409 2.41985 20.1979 2.30248 20.0678C2.17207 19.9378 2.02862 19.8857 1.84605 19.8857C1.66347 19.8857 1.52002 19.9508 1.38961 20.0678C1.2592 20.1979 1.20703 20.3409 1.20703 20.523H1.22007Z" fill="#01352C" stroke="#02352C" stroke-width="0.3" stroke-miterlimit="10"/>
<path d="M17.117 27.7673V27.13H12.1483V22.9162H11.5223L11.9266 23.3844L11.7962 23.2283L11.9266 23.3974L11.7962 23.2413L11.9266 23.4104C12.6439 22.9162 13.4524 22.7081 14.3131 22.7601C14.9521 22.7601 15.5781 22.8641 16.165 23.0982C16.3214 23.1633 16.4649 23.2413 16.5953 23.3323L16.6866 23.3974L16.817 23.2283L16.6736 23.3844L16.804 23.2153L16.6605 23.3714L17.0778 22.9032H16.4388V27.7543H17.7168V22.9032C17.7168 22.7211 17.6386 22.552 17.4951 22.435C16.5171 21.8107 15.4607 21.4985 14.3001 21.4985C13.1394 21.4985 12.07 21.8107 11.105 22.435C10.9615 22.552 10.8833 22.7211 10.8833 22.9032V27.7543L11.0789 28.1965L11.5223 28.3916H17.117L17.5604 28.1965L17.756 27.7543H17.0909L17.117 27.7673Z" fill="#01352C" stroke="#02352C" stroke-width="0.3" stroke-miterlimit="10"/>
<path d="M13.687 22.1099V27.7544C13.687 27.9365 13.7522 28.0796 13.8696 28.2097C14 28.3397 14.1435 28.3917 14.326 28.3917C14.5086 28.3917 14.6521 28.3267 14.7825 28.2097C14.9129 28.0796 14.965 27.9365 14.965 27.7544V22.1099C14.965 21.9279 14.8998 21.7848 14.7825 21.6547C14.6521 21.5247 14.5086 21.4727 14.326 21.4727C14.1435 21.4727 14 21.5377 13.8696 21.6547C13.7392 21.7848 13.687 21.9279 13.687 22.1099Z" fill="#01352C" stroke="#02352C" stroke-width="0.3" stroke-miterlimit="10"/>
<path d="M7.66224 27.7674V27.1301H5.49741V24.2298H7.02322V27.7674H7.66224V27.1301V27.7674H8.30125V23.5925L8.10563 23.1503L7.66224 22.9683H4.87144L4.42804 23.1503L4.23242 23.5925V27.7674L4.42804 28.2096L4.87144 28.3917H7.66224L8.10563 28.2096L8.30125 27.7674H7.66224Z" fill="#01352C"/>
<path d="M7.66224 27.7674V27.1301H5.49741V24.2298H7.02322V27.7674H7.66224ZM7.66224 27.7674V27.1301V27.7674ZM7.66224 27.7674H8.30125V23.5925L8.10563 23.1503L7.66224 22.9683H4.87144L4.42804 23.1503L4.23242 23.5925V27.7674L4.42804 28.2096L4.87144 28.3917H7.66224L8.10563 28.2096L8.30125 27.7674H7.66224Z" stroke="#02352C" stroke-width="0.3" stroke-miterlimit="10"/>
<path d="M23.7682 27.7674V27.1301H21.6294V24.2298H23.1292V27.7674H23.7682V27.1301V27.7674H24.4072V23.5925L24.2246 23.1503L23.7682 22.9683H20.9774L20.534 23.1503L20.3384 23.5925V27.7674L20.534 28.2096L20.9774 28.3917H23.7682L24.2246 28.2096L24.4072 27.7674H23.7682Z" fill="#01352C"/>
<path d="M23.7682 27.7674V27.1301H21.6294V24.2298H23.1292V27.7674H23.7682ZM23.7682 27.7674V27.1301V27.7674ZM23.7682 27.7674H24.4072V23.5925L24.2246 23.1503L23.7682 22.9683H20.9774L20.534 23.1503L20.3384 23.5925V27.7674L20.534 28.2096L20.9774 28.3917H23.7682L24.2246 28.2096L24.4072 27.7674H23.7682Z" stroke="#02352C" stroke-width="0.3" stroke-miterlimit="10"/>
<path d="M39.7302 27.7674V27.1301H34.7615V22.9162H34.1225L34.5398 23.3844L34.3964 23.2284L34.5268 23.3974L34.3833 23.2414L34.5137 23.4105C35.231 22.9162 36.0395 22.7081 36.9003 22.7602C37.5523 22.7602 38.1652 22.8642 38.7651 23.0983C38.9086 23.1633 39.052 23.2414 39.1824 23.3324L39.2737 23.3974L39.4172 23.2284L39.2737 23.3844L39.4172 23.2154L39.2737 23.3714L39.6911 22.9032H39.0912V27.7544H40.3692V22.9032C40.3692 22.7081 40.304 22.5521 40.1475 22.435C39.1694 21.8107 38.1131 21.4856 36.9524 21.4856C35.7918 21.4856 34.7224 21.7977 33.7573 22.435C33.6139 22.5521 33.5356 22.7211 33.5356 22.9032V27.7544L33.7182 28.1966L34.1616 28.3917H39.7693L40.2127 28.1966L40.3953 27.7544H39.7041L39.7302 27.7674Z" fill="#01352C" stroke="#02352C" stroke-width="0.3" stroke-miterlimit="10"/>
<path d="M36.2876 22.1099V27.7544C36.2876 27.9365 36.3528 28.0796 36.4702 28.2097C36.6006 28.3397 36.744 28.3917 36.9266 28.3917C37.1092 28.3917 37.2526 28.3267 37.383 28.2097C37.5135 28.0796 37.5656 27.9365 37.5656 27.7544V22.1099C37.5656 21.9279 37.5004 21.7848 37.383 21.6547C37.2526 21.5247 37.1092 21.4727 36.9266 21.4727C36.744 21.4727 36.6006 21.5377 36.4702 21.6547C36.3398 21.7848 36.2876 21.9279 36.2876 22.1099Z" fill="#01352C" stroke="#02352C" stroke-width="0.3" stroke-miterlimit="10"/>
<path d="M30.2494 27.7674V27.1301H28.1107V24.2298H29.6235V27.7674H30.2494V27.1301V27.7674H30.8884V23.5925L30.7189 23.1503L30.2494 22.9683H27.4717L27.0152 23.1503L26.8457 23.5925V27.7674L27.0152 28.2096L27.4717 28.3917H30.2494L30.7189 28.2096L30.8884 27.7674H30.2494Z" fill="#01352C"/>
<path d="M30.2494 27.7674V27.1301H28.1107V24.2298H29.6235V27.7674H30.2494ZM30.2494 27.7674V27.1301V27.7674ZM30.2494 27.7674H30.8884V23.5925L30.7189 23.1503L30.2494 22.9683H27.4717L27.0152 23.1503L26.8457 23.5925V27.7674L27.0152 28.2096L27.4717 28.3917H30.2494L30.7189 28.2096L30.8884 27.7674H30.2494Z" stroke="#02352C" stroke-width="0.3" stroke-miterlimit="10"/>
<path d="M46.3815 27.7674V27.1301H44.2167V24.2298H45.7425V27.7674H46.3815V27.1301V27.7674H47.0074V23.5925L46.8249 23.1503L46.3815 22.9683H43.5776L43.1342 23.1503L42.9517 23.5925V27.7674L43.1473 28.2096L43.5776 28.3917H46.3815L46.8249 28.2096L47.0074 27.7674H46.3815Z" fill="#01352C"/>
<path d="M46.3815 27.7674V27.1301H44.2167V24.2298H45.7425V27.7674H46.3815ZM46.3815 27.7674V27.1301V27.7674ZM46.3815 27.7674H47.0074V23.5925L46.8249 23.1503L46.3815 22.9683H43.5776L43.1342 23.1503L42.9517 23.5925V27.7674L43.1473 28.2096L43.5776 28.3917H46.3815L46.8249 28.2096L47.0074 27.7674H46.3815Z" stroke="#02352C" stroke-width="0.3" stroke-miterlimit="10"/>
<path d="M62.3307 27.7673V27.13H57.362V22.9162H56.736L57.1403 23.3844L57.0099 23.2283L57.1403 23.3974L57.0099 23.2413L57.1403 23.4104C57.8576 22.9162 58.6661 22.7081 59.5268 22.7601C60.1659 22.7601 60.7918 22.8641 61.3787 23.0982C61.5352 23.1633 61.6786 23.2413 61.809 23.3323L61.8873 23.3974L62.0177 23.2283L61.8742 23.3844L62.0047 23.2153L61.8612 23.3714L62.2785 22.9032H61.6395V27.7543H62.9175V22.9032C62.9175 22.7211 62.8393 22.552 62.6958 22.435C61.7177 21.8107 60.6614 21.4985 59.5008 21.4985C58.3401 21.4985 57.2707 21.8107 56.3057 22.435C56.1622 22.552 56.084 22.7211 56.084 22.9032V27.7543L56.2796 28.1965L56.723 28.3916H62.3176L62.761 28.1965L62.9567 27.7543H62.3046L62.3307 27.7673Z" fill="#01352C" stroke="#02352C" stroke-width="0.3" stroke-miterlimit="10"/>
<path d="M58.8877 22.1099V27.7544C58.8877 27.9365 58.9529 28.0796 59.0703 28.2097C59.2007 28.3397 59.3441 28.3917 59.5267 28.3917C59.7093 28.3917 59.8527 28.3267 59.9831 28.2097C60.1136 28.0796 60.1657 27.9365 60.1657 27.7544V22.1099C60.1657 21.9279 60.1005 21.7848 59.9831 21.6547C59.8527 21.5247 59.7093 21.4727 59.5267 21.4727C59.3441 21.4727 59.2007 21.5377 59.0703 21.6547C58.9399 21.7848 58.8877 21.9279 58.8877 22.1099Z" fill="#01352C" stroke="#02352C" stroke-width="0.3" stroke-miterlimit="10"/>
<path d="M52.8629 27.7674V27.1301H50.6981V24.2298H52.2239V27.7674H52.8629V27.1301V27.7674H53.4889V23.5925L53.3063 23.1503L52.8629 22.9683H50.0721L49.6287 23.1503L49.4331 23.5925V27.7674L49.6287 28.2096L50.0721 28.3917H52.8629L53.3063 28.2096L53.4889 27.7674H52.8629Z" fill="#01352C"/>
<path d="M52.8629 27.7674V27.1301H50.6981V24.2298H52.2239V27.7674H52.8629ZM52.8629 27.7674V27.1301V27.7674ZM52.8629 27.7674H53.4889V23.5925L53.3063 23.1503L52.8629 22.9683H50.0721L49.6287 23.1503L49.4331 23.5925V27.7674L49.6287 28.2096L50.0721 28.3917H52.8629L53.3063 28.2096L53.4889 27.7674H52.8629Z" stroke="#02352C" stroke-width="0.3" stroke-miterlimit="10"/>
<path d="M68.9816 27.7674V27.1301H66.8298V24.2298H68.3295V27.7674H68.9816V27.1301V27.7674H69.6206V23.5925L69.425 23.1503L68.9816 22.9683H66.1908L65.7343 23.1503L65.5518 23.5925V27.7674L65.7343 28.2096L66.1908 28.3917H68.9816L69.425 28.2096L69.6206 27.7674H68.9816Z" fill="#01352C"/>
<path d="M68.9816 27.7674V27.1301H66.8298V24.2298H68.3295V27.7674H68.9816ZM68.9816 27.7674V27.1301V27.7674ZM68.9816 27.7674H69.6206V23.5925L69.425 23.1503L68.9816 22.9683H66.1908L65.7343 23.1503L65.5518 23.5925V27.7674L65.7343 28.2096L66.1908 28.3917H68.9816L69.425 28.2096L69.6206 27.7674H68.9816Z" stroke="#02352C" stroke-width="0.3" stroke-miterlimit="10"/>
<path d="M17.117 39.5897V38.9524H12.1483V34.7385H11.5223L11.9266 35.2067C12.6569 34.7385 13.4524 34.5174 14.3131 34.5694C14.9521 34.5694 15.5781 34.6735 16.165 34.9076C16.3214 34.9726 16.4649 35.0377 16.5953 35.1287H16.6866L16.817 34.9596L16.6736 35.1287L16.804 34.9596L16.6605 35.1287L17.0778 34.6605H16.4388V39.5116H17.7168V34.6605C17.7168 34.4654 17.6386 34.3093 17.4951 34.1793C16.5171 33.555 15.4477 33.2559 14.3001 33.2559C13.1525 33.2559 12.0831 33.568 11.105 34.1793C10.9615 34.3093 10.8833 34.4654 10.8833 34.6605V39.5116L11.0789 39.9538L11.5223 40.1359H17.117L17.5604 39.9538L17.756 39.5116L17.0909 39.5897H17.117Z" fill="#01352C"/>
<path d="M11.9266 35.2067L11.5223 34.7385H12.1483V38.9524H17.117V39.5897H17.0909L17.756 39.5116L17.5604 39.9538L17.117 40.1359H11.5223L11.0789 39.9538L10.8833 39.5116V34.6605C10.8833 34.4654 10.9615 34.3093 11.105 34.1793C12.0831 33.568 13.1525 33.2559 14.3001 33.2559C15.4477 33.2559 16.5171 33.555 17.4951 34.1793C17.6386 34.3093 17.7168 34.4654 17.7168 34.6605V39.5116H16.4388V34.6605H17.0778L16.6605 35.1287L16.804 34.9596L16.6736 35.1287L16.817 34.9596L16.6866 35.1287H16.5953C16.4649 35.0377 16.3214 34.9726 16.165 34.9076C15.5781 34.6735 14.9521 34.5694 14.3131 34.5694C13.4524 34.5174 12.6569 34.7385 11.9266 35.2067ZM11.9266 35.2067L11.7831 35.0377" stroke="#02352C" stroke-width="0.3" stroke-miterlimit="10"/>
<path d="M13.687 33.932V39.5765C13.687 39.7586 13.7522 39.9016 13.8696 40.0317C14 40.1617 14.1435 40.2138 14.326 40.2138C14.5086 40.2138 14.6521 40.1487 14.7825 40.0317C14.9129 39.9016 14.965 39.7586 14.965 39.5765V33.932C14.965 33.7499 14.8998 33.6068 14.7825 33.4768C14.6521 33.3467 14.5086 33.2947 14.326 33.2947C14.1435 33.2947 14 33.3597 13.8696 33.4768C13.7392 33.6068 13.687 33.7499 13.687 33.932Z" fill="#01352C" stroke="#02352C" stroke-width="0.3" stroke-miterlimit="10"/>
<path d="M7.66224 39.5765V38.9522H5.49741V36.0389H7.02322V39.5765H7.66224V38.9522V39.5765H8.30125V35.4146L8.10563 34.9724L7.66224 34.7773H4.87144L4.42804 34.9724L4.23242 35.4146V39.5765L4.42804 40.0187L4.87144 40.2138H7.66224L8.10563 40.0187L8.30125 39.5765H7.66224Z" fill="#01352C"/>
<path d="M7.66224 39.5765V38.9522H5.49741V36.0389H7.02322V39.5765H7.66224ZM7.66224 39.5765V38.9522V39.5765ZM7.66224 39.5765H8.30125V35.4146L8.10563 34.9724L7.66224 34.7773H4.87144L4.42804 34.9724L4.23242 35.4146V39.5765L4.42804 40.0187L4.87144 40.2138H7.66224L8.10563 40.0187L8.30125 39.5765H7.66224Z" stroke="#02352C" stroke-width="0.3" stroke-miterlimit="10"/>
<path d="M23.7682 39.5765V38.9522H21.6294V36.0389H23.1292V39.5765H23.7682V38.9522V39.5765H24.4072V35.4146L24.2246 34.9724L23.7682 34.7773H20.9774L20.534 34.9724L20.3384 35.4146V39.5765L20.534 40.0187L20.9774 40.2138H23.7682L24.2246 40.0187L24.4072 39.5765H23.7682Z" fill="#01352C"/>
<path d="M23.7682 39.5765V38.9522H21.6294V36.0389H23.1292V39.5765H23.7682ZM23.7682 39.5765V38.9522V39.5765ZM23.7682 39.5765H24.4072V35.4146L24.2246 34.9724L23.7682 34.7773H20.9774L20.534 34.9724L20.3384 35.4146V39.5765L20.534 40.0187L20.9774 40.2138H23.7682L24.2246 40.0187L24.4072 39.5765H23.7682Z" stroke="#02352C" stroke-width="0.3" stroke-miterlimit="10"/>
<path d="M39.7302 39.5895V38.9522H34.7615V34.7383H34.1225L34.5398 35.2065L34.3964 35.0505L34.5268 35.2065L34.3833 35.0505L34.5137 35.2065C35.244 34.7383 36.0395 34.5302 36.9003 34.5693C37.5523 34.5693 38.1652 34.6733 38.7651 34.9074C38.9086 34.9724 39.052 35.0375 39.1824 35.1285H39.2737L39.6911 34.6603H39.0912V39.5115H40.3692V34.6603C40.3692 34.4652 40.2909 34.3092 40.1475 34.1791C39.1694 33.5548 38.1131 33.2427 36.9524 33.2427C35.7918 33.2427 34.7354 33.5548 33.7573 34.1791C33.6139 34.3092 33.5356 34.4652 33.5356 34.6603V39.5115L33.7182 39.9537L34.1616 40.1357H39.7693L40.2127 39.9537L40.3953 39.5115L39.7041 39.5895H39.7302Z" fill="#01352C"/>
<path d="M39.2737 35.1285H39.1824C39.052 35.0375 38.9086 34.9724 38.7651 34.9074C38.1652 34.6733 37.5523 34.5693 36.9003 34.5693C36.0395 34.5302 35.244 34.7383 34.5137 35.2065L34.3833 35.0505L34.5268 35.2065L34.3964 35.0505L34.5398 35.2065L34.1225 34.7383H34.7615V38.9522H39.7302V39.5895H39.7041L40.3953 39.5115L40.2127 39.9537L39.7693 40.1357H34.1616L33.7182 39.9537L33.5356 39.5115V34.6603C33.5356 34.4652 33.6139 34.3092 33.7573 34.1791C34.7354 33.5548 35.7918 33.2427 36.9524 33.2427C38.1131 33.2427 39.1694 33.5548 40.1475 34.1791C40.2909 34.3092 40.3692 34.4652 40.3692 34.6603V39.5115H39.0912V34.6603H39.6911L39.2737 35.1285ZM39.2737 35.1285L39.4172 34.9594" stroke="#02352C" stroke-width="0.3" stroke-miterlimit="10"/>
<path d="M36.2876 33.932V39.5765C36.2876 39.7586 36.3528 39.9016 36.4702 40.0317C36.6006 40.1617 36.744 40.2138 36.9266 40.2138C37.1092 40.2138 37.2526 40.1487 37.383 40.0317C37.5135 39.9016 37.5656 39.7586 37.5656 39.5765V33.932C37.5656 33.7499 37.5004 33.6068 37.383 33.4768C37.2526 33.3467 37.1092 33.2947 36.9266 33.2947C36.744 33.2947 36.6006 33.3597 36.4702 33.4768C36.3398 33.6068 36.2876 33.7499 36.2876 33.932Z" fill="#01352C" stroke="#02352C" stroke-width="0.3" stroke-miterlimit="10"/>
<path d="M30.2494 39.5765V38.9522H28.1107V36.0389H29.6235V39.5765H30.2494V38.9522V39.5765H30.8884V35.4146L30.7189 34.9724L30.2494 34.7773H27.4717L27.0152 34.9724L26.8457 35.4146V39.5765L27.0152 40.0187L27.4717 40.2138H30.2494L30.7189 40.0187L30.8884 39.5765H30.2494Z" fill="#01352C"/>
<path d="M30.2494 39.5765V38.9522H28.1107V36.0389H29.6235V39.5765H30.2494ZM30.2494 39.5765V38.9522V39.5765ZM30.2494 39.5765H30.8884V35.4146L30.7189 34.9724L30.2494 34.7773H27.4717L27.0152 34.9724L26.8457 35.4146V39.5765L27.0152 40.0187L27.4717 40.2138H30.2494L30.7189 40.0187L30.8884 39.5765H30.2494Z" stroke="#02352C" stroke-width="0.3" stroke-miterlimit="10"/>
<path d="M46.3815 39.5765V38.9522H44.2167V36.0389H45.7425V39.5765H46.3815V38.9522V39.5765H47.0074V35.4146L46.8249 34.9724L46.3815 34.7773H43.5776L43.1342 34.9724L42.9517 35.4146V39.5765L43.1473 40.0187L43.5776 40.2138H46.3815L46.8249 40.0187L47.0074 39.5765H46.3815Z" fill="#01352C"/>
<path d="M46.3815 39.5765V38.9522H44.2167V36.0389H45.7425V39.5765H46.3815ZM46.3815 39.5765V38.9522V39.5765ZM46.3815 39.5765H47.0074V35.4146L46.8249 34.9724L46.3815 34.7773H43.5776L43.1342 34.9724L42.9517 35.4146V39.5765L43.1473 40.0187L43.5776 40.2138H46.3815L46.8249 40.0187L47.0074 39.5765H46.3815Z" stroke="#02352C" stroke-width="0.3" stroke-miterlimit="10"/>
<path d="M62.3307 39.5897V38.9524H57.362V34.7385H56.736L57.1403 35.2067L57.0099 34.9987L57.1403 35.1547C57.8706 34.6865 58.6661 34.4654 59.5268 34.5174C60.1659 34.5174 60.7918 34.6215 61.3787 34.8556C61.5352 34.9206 61.6786 34.9856 61.809 35.0767H61.8873L62.0177 34.9076L61.8742 35.0767L62.0047 34.9076L61.8612 35.0767L62.2785 34.6085H61.6395V39.4596H62.9175V34.6085C62.9175 34.4134 62.8393 34.2573 62.6958 34.1273C61.7177 33.503 60.6484 33.2039 59.5008 33.2039C58.3531 33.2039 57.2838 33.516 56.3057 34.1273C56.1622 34.2573 56.084 34.4134 56.084 34.6085V39.4596L56.2796 39.9018L56.723 40.0839H62.3176L62.761 39.9018L62.9567 39.4596L62.3046 39.5897H62.3307Z" fill="#01352C" stroke="#02352C" stroke-width="0.3" stroke-miterlimit="10"/>
<path d="M58.8877 33.932V39.5765C58.8877 39.7586 58.9529 39.9016 59.0703 40.0317C59.1876 40.1617 59.3441 40.2138 59.5267 40.2138C59.7093 40.2138 59.8527 40.1487 59.9831 40.0317C60.1136 39.9146 60.1657 39.7586 60.1657 39.5765V33.932C60.1657 33.7499 60.1005 33.6068 59.9831 33.4768C59.8658 33.3467 59.7093 33.2947 59.5267 33.2947C59.3441 33.2947 59.2007 33.3597 59.0703 33.4768C58.9399 33.5938 58.8877 33.7499 58.8877 33.932Z" fill="#01352C" stroke="#02352C" stroke-width="0.3" stroke-miterlimit="10"/>
<path d="M52.8629 39.5765V38.9522H50.6981V36.0389H52.2239V39.5765H52.8629V38.9522V39.5765H53.4889V35.4146L53.3063 34.9724L52.8629 34.7773H50.0721L49.6287 34.9724L49.4331 35.4146V39.5765L49.6287 40.0187L50.0721 40.2138H52.8629L53.3063 40.0187L53.4889 39.5765H52.8629Z" fill="#01352C"/>
<path d="M52.8629 39.5765V38.9522H50.6981V36.0389H52.2239V39.5765H52.8629ZM52.8629 39.5765V38.9522V39.5765ZM52.8629 39.5765H53.4889V35.4146L53.3063 34.9724L52.8629 34.7773H50.0721L49.6287 34.9724L49.4331 35.4146V39.5765L49.6287 40.0187L50.0721 40.2138H52.8629L53.3063 40.0187L53.4889 39.5765H52.8629Z" stroke="#02352C" stroke-width="0.3" stroke-miterlimit="10"/>
<path d="M68.9816 39.5765V38.9522H66.8298V36.0389H68.3295V39.5765H68.9816V38.9522V39.5765H69.6206V35.4146L69.425 34.9724L68.9816 34.7773H66.1908L65.7343 34.9724L65.5518 35.4146V39.5765L65.7343 40.0187L66.1908 40.2138H68.9816L69.425 40.0187L69.6206 39.5765H68.9816Z" fill="#01352C"/>
<path d="M68.9816 39.5765V38.9522H66.8298V36.0389H68.3295V39.5765H68.9816ZM68.9816 39.5765V38.9522V39.5765ZM68.9816 39.5765H69.6206V35.4146L69.425 34.9724L68.9816 34.7773H66.1908L65.7343 34.9724L65.5518 35.4146V39.5765L65.7343 40.0187L66.1908 40.2138H68.9816L69.425 40.0187L69.6206 39.5765H68.9816Z" stroke="#02352C" stroke-width="0.3" stroke-miterlimit="10"/>
<path d="M17.117 52.1923V51.581H12.1483V47.3542H11.5223L11.9266 47.8224L11.7962 47.6663L11.9266 47.8354L11.7962 47.6793L11.9266 47.8484C12.6439 47.3542 13.4524 47.1461 14.3131 47.1981C14.9521 47.1981 15.5781 47.3021 16.165 47.5362C16.3214 47.6013 16.4649 47.6793 16.5953 47.7703L16.6866 47.8354L16.817 47.6663L16.6736 47.8224L16.804 47.6533L16.6605 47.8094L17.0778 47.3412H16.4388V52.1923H17.7168V47.3412C17.7168 47.1591 17.6386 47.003 17.4951 46.8729C16.5171 46.2487 15.4607 45.9365 14.3001 45.9365C13.1394 45.9365 12.07 46.2487 11.105 46.8729C10.9615 46.99 10.8833 47.1591 10.8833 47.3412V52.1923L11.0789 52.6345L11.5223 52.8296H17.117L17.5604 52.6345L17.756 52.1923H17.0909H17.117Z" fill="#01352C" stroke="#02352C" stroke-width="0.3" stroke-miterlimit="10"/>
<path d="M13.687 46.5606V52.1921C13.687 52.3742 13.7522 52.5173 13.8696 52.6473C14 52.7774 14.1435 52.8294 14.326 52.8294C14.5086 52.8294 14.6521 52.7644 14.7825 52.6473C14.9129 52.5173 14.965 52.3742 14.965 52.1921V46.5606C14.965 46.3785 14.8998 46.2355 14.7825 46.1054C14.6521 45.9754 14.5086 45.9233 14.326 45.9233C14.1435 45.9233 14 45.9884 13.8696 46.1054C13.7392 46.2355 13.687 46.3785 13.687 46.5606Z" fill="#01352C" stroke="#02352C" stroke-width="0.3" stroke-miterlimit="10"/>
<path d="M7.66224 52.1921V51.5548H5.49741V48.6676H7.02322V52.1921H7.66224V51.5548V52.1921H8.30125V48.0303L8.10563 47.5751L7.66224 47.406H4.87144L4.42804 47.5751L4.23242 48.0303V52.1921L4.42804 52.6473L4.87144 52.8164H7.66224L8.10563 52.6473L8.30125 52.1921H7.66224Z" fill="#01352C"/>
<path d="M7.66224 52.1921V51.5548H5.49741V48.6676H7.02322V52.1921H7.66224ZM7.66224 52.1921V51.5548V52.1921ZM7.66224 52.1921H8.30125V48.0303L8.10563 47.5751L7.66224 47.406H4.87144L4.42804 47.5751L4.23242 48.0303V52.1921L4.42804 52.6473L4.87144 52.8164H7.66224L8.10563 52.6473L8.30125 52.1921H7.66224Z" stroke="#02352C" stroke-width="0.3" stroke-miterlimit="10"/>
<path d="M23.7682 52.1921V51.5548H21.6294V48.6676H23.1292V52.1921H23.7682V51.5548V52.1921H24.4072V48.0303L24.2246 47.5751L23.7682 47.406H20.9774L20.534 47.5751L20.3384 48.0303V52.1921L20.534 52.6473L20.9774 52.8164H23.7682L24.2246 52.6473L24.4072 52.1921H23.7682Z" fill="#01352C"/>
<path d="M23.7682 52.1921V51.5548H21.6294V48.6676H23.1292V52.1921H23.7682ZM23.7682 52.1921V51.5548V52.1921ZM23.7682 52.1921H24.4072V48.0303L24.2246 47.5751L23.7682 47.406H20.9774L20.534 47.5751L20.3384 48.0303V52.1921L20.534 52.6473L20.9774 52.8164H23.7682L24.2246 52.6473L24.4072 52.1921H23.7682Z" stroke="#02352C" stroke-width="0.3" stroke-miterlimit="10"/>
<path d="M39.7302 52.1921V51.5809H34.7616V47.354H34.1226L34.5399 47.8222L34.3964 47.6661L34.5268 47.8352L34.3834 47.6791L34.5138 47.8482C35.2311 47.354 36.0396 47.1459 36.9003 47.1979C37.5524 47.1979 38.1653 47.302 38.7652 47.5361C38.9086 47.6011 39.0521 47.6791 39.1825 47.7702L39.2738 47.8352L39.4172 47.6661L39.2738 47.8222L39.4172 47.6531L39.2738 47.8092L39.6911 47.341H39.0912V52.1921H40.3693V47.341C40.3693 47.1459 40.291 46.9898 40.1476 46.8728C39.1825 46.1705 38.1131 45.8583 36.9264 45.9103C35.7397 45.8583 34.6703 46.1705 33.7052 46.8728C33.5748 47.0028 33.4966 47.1589 33.4966 47.341V52.1921L33.6792 52.6343L34.1226 52.8294H39.7302L40.1736 52.6343L40.3562 52.1921H39.7042H39.7302Z" fill="#01352C" stroke="#02352C" stroke-width="0.3" stroke-miterlimit="10"/>
<path d="M36.2876 46.5606V52.1921C36.2876 52.3742 36.3528 52.5173 36.4702 52.6473C36.6006 52.7774 36.744 52.8294 36.9266 52.8294C37.1092 52.8294 37.2526 52.7644 37.383 52.6473C37.5135 52.5173 37.5656 52.3742 37.5656 52.1921V46.5606C37.5656 46.3785 37.5004 46.2355 37.383 46.1054C37.2526 45.9754 37.1092 45.9233 36.9266 45.9233C36.744 45.9233 36.6006 45.9884 36.4702 46.1054C36.3398 46.2355 36.2876 46.3785 36.2876 46.5606Z" fill="#01352C" stroke="#02352C" stroke-width="0.3" stroke-miterlimit="10"/>
<path d="M30.2494 52.1921V51.5548H28.1107V48.6676H29.6235V52.1921H30.2494V51.5548V52.1921H30.8884V48.0303L30.7189 47.5751L30.2494 47.406H27.4717L27.0152 47.5751L26.8457 48.0303V52.1921L27.0152 52.6473L27.4717 52.8164H30.2494L30.7189 52.6473L30.8884 52.1921H30.2494Z" fill="#01352C"/>
<path d="M30.2494 52.1921V51.5548H28.1107V48.6676H29.6235V52.1921H30.2494ZM30.2494 52.1921V51.5548V52.1921ZM30.2494 52.1921H30.8884V48.0303L30.7189 47.5751L30.2494 47.406H27.4717L27.0152 47.5751L26.8457 48.0303V52.1921L27.0152 52.6473L27.4717 52.8164H30.2494L30.7189 52.6473L30.8884 52.1921H30.2494Z" stroke="#02352C" stroke-width="0.3" stroke-miterlimit="10"/>
<path d="M46.3815 52.1921V51.5548H44.2167V48.6676H45.7425V52.1921H46.3815V51.5548V52.1921H47.0074V48.0303L46.8249 47.5751L46.3815 47.406H43.5776L43.1342 47.5751L42.9517 48.0303V52.1921L43.1473 52.6473L43.5776 52.8164H46.3815L46.8249 52.6473L47.0074 52.1921H46.3815Z" fill="#01352C"/>
<path d="M46.3815 52.1921V51.5548H44.2167V48.6676H45.7425V52.1921H46.3815ZM46.3815 52.1921V51.5548V52.1921ZM46.3815 52.1921H47.0074V48.0303L46.8249 47.5751L46.3815 47.406H43.5776L43.1342 47.5751L42.9517 48.0303V52.1921L43.1473 52.6473L43.5776 52.8164H46.3815L46.8249 52.6473L47.0074 52.1921H46.3815Z" stroke="#02352C" stroke-width="0.3" stroke-miterlimit="10"/>
<path d="M62.3307 52.1923V51.581H57.362V47.3542H56.736L57.1403 47.8224L57.0099 47.6793L57.1403 47.8354L57.0099 47.6923L57.1403 47.8484C57.8576 47.3542 58.6661 47.1461 59.5268 47.1981C60.1659 47.1981 60.7918 47.3021 61.3787 47.5362C61.5352 47.6013 61.6786 47.6793 61.809 47.7703L61.8873 47.8354L62.0177 47.6663L61.8742 47.8224L62.0047 47.6533L61.8612 47.8094L62.2785 47.3412H61.6395V52.1923H62.9175V47.3412C62.9175 47.1591 62.8393 47.003 62.6958 46.8729C61.7177 46.2487 60.6614 45.9365 59.5008 45.9365C58.3401 45.9365 57.2707 46.2487 56.3057 46.8729C56.1622 46.99 56.084 47.1591 56.084 47.3412V52.1923L56.2796 52.6345L56.723 52.8296H62.3176L62.761 52.6345L62.9567 52.1923H62.3046H62.3307Z" fill="#01352C" stroke="#02352C" stroke-width="0.3" stroke-miterlimit="10"/>
<path d="M58.8877 46.5606V52.1921C58.8877 52.3742 58.9529 52.5173 59.0703 52.6473C59.2007 52.7774 59.3441 52.8294 59.5267 52.8294C59.7093 52.8294 59.8527 52.7644 59.9831 52.6473C60.1136 52.5173 60.1657 52.3742 60.1657 52.1921V46.5606C60.1657 46.3785 60.1005 46.2355 59.9831 46.1054C59.8527 45.9754 59.7093 45.9233 59.5267 45.9233C59.3441 45.9233 59.2007 45.9884 59.0703 46.1054C58.9399 46.2355 58.8877 46.3785 58.8877 46.5606Z" fill="#01352C" stroke="#02352C" stroke-width="0.3" stroke-miterlimit="10"/>
<path d="M52.8629 52.1921V51.5548H50.6981V48.6676H52.2239V52.1921H52.8629V51.5548V52.1921H53.4889V48.0303L53.3063 47.5751L52.8629 47.406H50.0721L49.6287 47.5751L49.4331 48.0303V52.1921L49.6287 52.6473L50.0721 52.8164H52.8629L53.3063 52.6473L53.4889 52.1921H52.8629Z" fill="#01352C"/>
<path d="M52.8629 52.1921V51.5548H50.6981V48.6676H52.2239V52.1921H52.8629ZM52.8629 52.1921V51.5548V52.1921ZM52.8629 52.1921H53.4889V48.0303L53.3063 47.5751L52.8629 47.406H50.0721L49.6287 47.5751L49.4331 48.0303V52.1921L49.6287 52.6473L50.0721 52.8164H52.8629L53.3063 52.6473L53.4889 52.1921H52.8629Z" stroke="#02352C" stroke-width="0.3" stroke-miterlimit="10"/>
<path d="M68.9816 52.1921V51.5548H66.8298V48.6676H68.3295V52.1921H68.9816V51.5548V52.1921H69.6206V48.0303L69.425 47.5751L68.9816 47.406H66.1908L65.7343 47.5751L65.5518 48.0303V52.1921L65.7343 52.6473L66.1908 52.8164H68.9816L69.425 52.6473L69.6206 52.1921H68.9816Z" fill="#01352C"/>
<path d="M68.9816 52.1921V51.5548H66.8298V48.6676H68.3295V52.1921H68.9816ZM68.9816 52.1921V51.5548V52.1921ZM68.9816 52.1921H69.6206V48.0303L69.425 47.5751L68.9816 47.406H66.1908L65.7343 47.5751L65.5518 48.0303V52.1921L65.7343 52.6473L66.1908 52.8164H68.9816L69.425 52.6473L69.6206 52.1921H68.9816Z" stroke="#02352C" stroke-width="0.3" stroke-miterlimit="10"/>
<path d="M36.548 10.6126H10.1006C9.83982 10.6126 9.6442 10.7297 9.52683 10.9638L5.10589 20.1849C5.02765 20.3409 5.02765 20.497 5.07981 20.6661C5.13198 20.8352 5.24935 20.9522 5.3928 21.0302C5.54929 21.1083 5.70579 21.1213 5.87532 21.0563C6.04485 21.0042 6.16222 20.8872 6.24047 20.7311L10.5049 11.8742H36.548C36.7306 11.8742 36.8741 11.8091 37.0045 11.6921C37.1349 11.562 37.187 11.419 37.187 11.2369C37.187 11.0548 37.1218 10.9117 37.0045 10.7817C36.8741 10.6516 36.7306 10.5996 36.548 10.5996V10.6126Z" fill="#01352C" stroke="#02352C" stroke-width="0.3" stroke-miterlimit="10"/>
<path d="M35.27 11.8744H63.3997L67.6772 20.7313C67.7554 20.8874 67.8728 20.9914 68.0423 21.0564C68.2119 21.1085 68.3684 21.1085 68.5249 21.0304C68.6814 20.9524 68.7857 20.8353 68.8509 20.6663C68.9031 20.4972 68.9031 20.3411 68.8248 20.185L64.3908 10.9639C64.2735 10.7298 64.0909 10.6128 63.8301 10.6128H35.2831C35.1005 10.6128 34.957 10.6778 34.8266 10.7949C34.6962 10.9249 34.644 11.068 34.644 11.2501C34.644 11.4322 34.7092 11.5752 34.8266 11.7053C34.957 11.8353 35.1005 11.8874 35.2831 11.8874" fill="#01352C"/>
<path d="M35.27 11.8744H63.3997L67.6772 20.7313C67.7554 20.8874 67.8728 20.9914 68.0423 21.0564C68.2119 21.1085 68.3684 21.1085 68.5249 21.0304C68.6814 20.9524 68.7857 20.8353 68.8509 20.6663C68.9031 20.4972 68.9031 20.3411 68.8248 20.185L64.3908 10.9639C64.2735 10.7298 64.0909 10.6128 63.8301 10.6128H35.2831C35.1005 10.6128 34.957 10.6778 34.8266 10.7949C34.6962 10.9249 34.644 11.068 34.644 11.2501C34.644 11.4322 34.7092 11.5752 34.8266 11.7053C34.957 11.8353 35.1005 11.8874 35.2831 11.8874" stroke="#02352C" stroke-width="0.3" stroke-miterlimit="10"/>
<path d="M40.2651 61.9075V61.2832H33.5751L33.1317 61.4523L32.936 61.9075V71.1676L33.1317 71.6228L33.5751 71.8049H40.2651L40.7085 71.6228L40.8911 71.1676V61.9075L40.7085 61.4523L40.2651 61.2832V61.9075H39.6261V70.5303H34.201V62.5448H40.2651V61.9075H39.6261H40.2651Z" fill="#01352C"/>
<path d="M40.2651 61.9075V61.2832H33.5751L33.1317 61.4523L32.936 61.9075V71.1676L33.1317 71.6228L33.5751 71.8049H40.2651L40.7085 71.6228L40.8911 71.1676V61.9075L40.7085 61.4523L40.2651 61.2832V61.9075ZM40.2651 61.9075H39.6261V70.5303H34.201V62.5448H40.2651V61.9075ZM40.2651 61.9075H39.6261H40.2651Z" stroke="#02352C" stroke-width="0.3" stroke-miterlimit="10"/>
<path d="M52.5234 61.9075V61.2832H45.8333L45.3769 61.4523L45.1943 61.9075V71.1676L45.3769 71.6228L45.8333 71.8049H52.5234L52.9668 71.6228L53.1494 71.1676V61.9075L52.9668 61.4523L52.5234 61.2832V61.9075H51.8844V70.5303H46.4593V62.5448H52.5234V61.9075H51.8844H52.5234Z" fill="#01352C"/>
<path d="M52.5234 61.9075V61.2832H45.8333L45.3769 61.4523L45.1943 61.9075V71.1676L45.3769 71.6228L45.8333 71.8049H52.5234L52.9668 71.6228L53.1494 71.1676V61.9075L52.9668 61.4523L52.5234 61.2832V61.9075ZM52.5234 61.9075H51.8844V70.5303H46.4593V62.5448H52.5234V61.9075ZM52.5234 61.9075H51.8844H52.5234Z" stroke="#02352C" stroke-width="0.3" stroke-miterlimit="10"/>
<path d="M28.0195 61.9075V61.2832H21.3294L20.886 61.4523L20.6904 61.9075V71.1676L20.886 71.6228L21.3294 71.8049H28.0195L28.4629 71.6228L28.6455 71.1676V61.9075L28.4629 61.4523L28.0195 61.2832V61.9075H27.3805V70.5303H21.9685V62.5448H28.0195V61.9075H27.3805H28.0195Z" fill="#01352C"/>
<path d="M28.0195 61.9075V61.2832H21.3294L20.886 61.4523L20.6904 61.9075V71.1676L20.886 71.6228L21.3294 71.8049H28.0195L28.4629 71.6228L28.6455 71.1676V61.9075L28.4629 61.4523L28.0195 61.2832V61.9075ZM28.0195 61.9075H27.3805V70.5303H21.9685V62.5448H28.0195V61.9075ZM28.0195 61.9075H27.3805H28.0195Z" stroke="#02352C" stroke-width="0.3" stroke-miterlimit="10"/>
<path d="M15.7605 61.9075V61.2832H9.08349L8.62705 61.4523L8.45752 61.9075V71.1676L8.62705 71.6228L9.08349 71.8049H15.7605L16.217 71.6228L16.3996 71.1676V61.9075L16.217 61.4523L15.7605 61.2832V61.9075H15.1215V70.5303H9.72251V62.5448H15.7605V61.9075H15.1215H15.7605Z" fill="#01352C"/>
<path d="M15.7605 61.9075V61.2832H9.08349L8.62705 61.4523L8.45752 61.9075V71.1676L8.62705 71.6228L9.08349 71.8049H15.7605L16.217 71.6228L16.3996 71.1676V61.9075L16.217 61.4523L15.7605 61.2832V61.9075ZM15.7605 61.9075H15.1215V70.5303H9.72251V62.5448H15.7605V61.9075ZM15.7605 61.9075H15.1215H15.7605Z" stroke="#02352C" stroke-width="0.3" stroke-miterlimit="10"/>
<path d="M64.756 61.9075V61.2832H58.079L57.6225 61.4523L57.4399 61.9075V71.1676L57.6225 71.6228L58.079 71.8049H64.756L65.2124 71.6228L65.395 71.1676V61.9075L65.2124 61.4523L64.756 61.2832V61.9075H64.13V70.5303H58.7049V62.5448H64.756V61.9075H64.13H64.756Z" fill="#01352C"/>
<path d="M64.756 61.9075V61.2832H58.079L57.6225 61.4523L57.4399 61.9075V71.1676L57.6225 71.6228L58.079 71.8049H64.756L65.2124 71.6228L65.395 71.1676V61.9075L65.2124 61.4523L64.756 61.2832V61.9075ZM64.756 61.9075H64.13V70.5303H58.7049V62.5448H64.756V61.9075ZM64.756 61.9075H64.13H64.756Z" stroke="#02352C" stroke-width="0.3" stroke-miterlimit="10"/>
<path d="M26.4023 11.0419L24.0419 4.07079L23.7159 3.70663L20.5729 2.302H20.0643L16.9214 3.70663L16.5824 4.07079L14.2219 11.0419C14.1567 11.211 14.1698 11.367 14.248 11.5231C14.3263 11.6792 14.4436 11.7832 14.6132 11.8352C14.7827 11.8873 14.9392 11.8743 15.0957 11.7962C15.2522 11.7182 15.3565 11.6011 15.4217 11.4321L17.7039 4.72108L20.3382 3.56356L22.9595 4.72108L25.2547 11.4321C25.3069 11.6011 25.4112 11.7182 25.5677 11.7962C25.7242 11.8743 25.8807 11.8873 26.0502 11.8352C26.2198 11.7832 26.3371 11.6792 26.4154 11.5231C26.4936 11.367 26.5067 11.211 26.4545 11.0419H26.4023Z" fill="#01352C" stroke="#02352C" stroke-width="0.3" stroke-miterlimit="10"/>
<path d="M59.6571 11.0419L57.2836 4.07079L56.9576 3.70663L53.8147 2.302H53.306L50.1631 3.70663L49.8241 4.07079L47.4636 11.0419C47.3984 11.211 47.4115 11.367 47.4897 11.5231C47.568 11.6792 47.6853 11.7832 47.8549 11.8352C48.0244 11.8873 48.1809 11.8743 48.3374 11.7962C48.4939 11.7182 48.5982 11.6011 48.6634 11.4321L50.9456 4.72108L53.5799 3.56356L56.136 4.72108L58.4312 11.4321C58.4834 11.6011 58.5877 11.7182 58.7442 11.7962C58.9007 11.8743 59.0572 11.8873 59.2267 11.8352C59.3962 11.7832 59.5136 11.6792 59.5919 11.5231C59.6701 11.367 59.6832 11.211 59.631 11.0419H59.6962H59.6571Z" fill="#01352C" stroke="#02352C" stroke-width="0.3" stroke-miterlimit="10"/>
</g>
<defs>
<clipPath id="clip0_44_2159">
<rect width="72" height="72" fill="white" transform="translate(0.919922)"/>
</clipPath>
</defs>
</svg>
