<svg width="74" height="73" viewBox="0 0 74 73" fill="none" xmlns="http://www.w3.org/2000/svg">
<g clip-path="url(#clip0_44_2219)">
<path fill-rule="evenodd" clip-rule="evenodd" d="M11.7001 10.0957H10.4635H8.87744V13.8448H9.97963H12.184H20.0069H29.4427H50.5053H54.8334H62.6563H64.8472H65.8553V10.0957H64.3768H63.1402H54.363H50.5053H44.2013H40.4109H34.5504H31.8218H29.4427H20.4773H11.7001Z" fill="#CBDAD8" stroke="#02352C" stroke-width="0.3" stroke-miterlimit="10"/>
<path fill-rule="evenodd" clip-rule="evenodd" d="M11.767 10.5241H9.30728V13.4163H65.4115V10.5241H11.6998H11.767ZM10.4632 9.65381H65.8551C66.1373 9.65381 66.2852 9.81448 66.2852 10.0957V13.8447C66.2852 14.1259 66.1373 14.2732 65.8551 14.2866H8.87716C8.58145 14.2866 8.43359 14.1393 8.43359 13.8447V10.0957C8.43359 9.80109 8.58145 9.65381 8.87716 9.65381H10.4632Z" fill="#01352C" stroke="#02352C" stroke-width="0.3" stroke-miterlimit="10"/>
<path fill-rule="evenodd" clip-rule="evenodd" d="M40.6526 10.0956C40.8946 9.84122 41.1365 9.58682 41.4054 9.3592C41.7011 9.07802 41.8355 8.38176 40.9618 8.06041C40.0881 7.73906 39.7252 8.70311 39.5908 8.93073C39.4564 9.14496 39.201 8.54243 39.2279 8.31481C39.2279 7.79262 39.3085 7.2972 39.4564 6.80179C39.6445 6.46705 38.3676 6.31976 38.2601 6.03858C38.045 5.63689 37.7762 5.26199 37.4805 4.92725C37.1848 5.27538 36.9294 5.65028 36.7009 6.03858C36.6068 6.31976 35.3164 6.46705 35.5046 6.80179C35.6525 7.2972 35.7331 7.80601 35.7465 8.31481C35.7465 8.54243 35.5046 9.15835 35.3702 8.93073C35.2358 8.7165 34.8863 7.69889 33.9992 8.06041C33.112 8.42193 33.2599 9.09141 33.5556 9.3592C33.8244 9.58682 34.0664 9.84122 34.3083 10.0956H40.6392H40.6526Z" fill="#CBDAD8" stroke="#02352C" stroke-width="0.3" stroke-miterlimit="10"/>
<path fill-rule="evenodd" clip-rule="evenodd" d="M40.451 9.65381L40.7601 9.35924L41.1096 9.03789V8.79687L41.029 8.6362L40.7064 8.43535C40.3166 8.26129 40.0746 8.7567 39.9671 8.98433L39.8865 9.13161L39.5907 9.37263L39.0934 9.23873L38.959 9.05128C38.8246 8.81026 38.7439 8.54247 38.7439 8.26129V8.14078C38.7708 7.69893 38.8246 7.27046 38.9321 6.84199L38.6767 6.73488C38.3004 6.58759 37.924 6.46709 37.803 6.11896L37.4401 5.58337L37.0772 6.13235C36.9697 6.4537 36.5933 6.58759 36.217 6.73488L35.975 6.84199C36.0825 7.27046 36.1363 7.69893 36.1498 8.14078V8.27468C36.1498 8.55586 36.0691 8.82365 35.9347 9.06466L35.76 9.2789L35.2626 9.3994L34.9669 9.15839L34.8997 9.03789C34.7787 8.81026 34.5502 8.35502 34.1604 8.5023L33.8513 8.70315L33.7572 8.86382V9.10483L34.1067 9.42618L34.4158 9.72075L40.4644 9.64042L40.451 9.65381ZM41.365 9.97516L40.9886 10.3635L40.6526 10.5241H34.3217L34.0126 10.3768L33.6093 9.97516L33.2733 9.6672L32.991 9.26551L32.9238 8.66298L33.2195 8.03367C33.3943 7.84621 33.6093 7.69893 33.8513 7.61859C34.0932 7.49808 34.3486 7.45792 34.6174 7.51147C34.8863 7.56503 35.1013 7.69893 35.2895 7.89977C35.2761 7.57842 35.2223 7.25707 35.1282 6.94911C34.9266 6.54742 35.1282 6.29302 35.4911 6.09218L35.9616 5.89133L36.2976 5.811C36.5396 5.38253 36.8218 4.96745 37.1444 4.59254L37.2116 4.51221L37.8299 4.59254C38.1525 4.96745 38.4348 5.36914 38.6767 5.79761L39.0128 5.86456L39.4967 6.0654C39.8596 6.26624 40.0612 6.53403 39.8461 6.92233C39.7386 7.23029 39.6848 7.55164 39.6714 7.87299C39.8461 7.65876 40.0746 7.53825 40.3435 7.48469C40.6123 7.43114 40.8677 7.4713 41.1096 7.59181C41.3516 7.67215 41.5666 7.81943 41.7414 8.00689L42.0505 8.62281L41.9699 9.22534L41.6876 9.62703L41.365 9.96177V9.97516Z" fill="#01352C" stroke="#02352C" stroke-width="0.3" stroke-miterlimit="10"/>
<path fill-rule="evenodd" clip-rule="evenodd" d="M9.21323 15.5452H12.9499H19.227H27.8833H28.7301H55.5993H61.8899H65.6266H68.1401V13.8447H28.7301H27.8833H6.95508V15.5452H9.21323Z" fill="#CBDAD8" stroke="#02352C" stroke-width="0.3" stroke-miterlimit="10"/>
<path fill-rule="evenodd" clip-rule="evenodd" d="M9.21317 15.1169H67.7099V14.2868H7.39859V15.1169H9.21317ZM12.9499 15.9873H6.96847C6.67276 15.9873 6.5249 15.84 6.5249 15.5454V13.8449C6.5249 13.5504 6.67276 13.4031 6.96847 13.4031H68.167C68.4627 13.4031 68.6105 13.5504 68.6105 13.8449V15.532C68.6105 15.8266 68.4627 15.9739 68.167 15.9739H12.9499V15.9873Z" fill="#01352C" stroke="#02352C" stroke-width="0.3" stroke-miterlimit="10"/>
<path fill-rule="evenodd" clip-rule="evenodd" d="M9.57612 22.5348H12.587H19.5899H55.2498H62.2528H63.113H63.2878H65.2637H66.7556V15.5454H63.2878H63.113H8.17822V22.5348H9.57612Z" fill="#CBDAD8" stroke="#02352C" stroke-width="0.3" stroke-miterlimit="10"/>
<path fill-rule="evenodd" clip-rule="evenodd" d="M9.57633 22.1063H66.3123V15.9872H8.60855V22.1063H9.58977H9.57633ZM12.5872 22.9766H8.17843C7.88272 22.9766 7.73486 22.8293 7.73486 22.5347V15.5454C7.73486 15.2508 7.88272 15.1035 8.17843 15.1035H66.7693C66.8903 15.1035 66.9978 15.1437 67.0784 15.2374C67.1591 15.3311 67.1994 15.4249 67.1994 15.5454V22.5347C67.1994 22.8293 67.0516 22.9766 66.7559 22.9766H12.5872Z" fill="#01352C" stroke="#02352C" stroke-width="0.3" stroke-miterlimit="10"/>
<path fill-rule="evenodd" clip-rule="evenodd" d="M24.7378 46.4753C24.9394 42.1371 26.0416 38.6959 29.2003 35.7368C29.7379 35.2013 30.3294 34.7326 30.9611 34.3175C31.5929 33.9025 32.2649 33.5543 32.9773 33.2598C33.6763 32.9786 34.4021 32.751 35.1548 32.6037C35.9075 32.4564 36.6602 32.3894 37.413 32.3894C38.1657 32.3894 38.9318 32.4564 39.6711 32.6037C40.4238 32.751 41.1497 32.9652 41.8486 33.2598C42.5476 33.5409 43.2196 33.9025 43.8648 34.3175C44.4966 34.7326 45.088 35.2146 45.6256 35.7368C48.8112 38.6558 49.9 42.1504 50.1016 46.4753H68.2743L67.5619 22.5481H6.6457L5.97363 46.4753H24.7378Z" fill="#CBDAD8"/>
<path fill-rule="evenodd" clip-rule="evenodd" d="M24.3214 45.9799C24.4155 44.0518 24.7918 42.1773 25.4505 40.3697C26.2032 38.4282 27.3591 36.7679 28.9049 35.362C29.577 34.7327 30.3162 34.1837 31.1093 33.7017C31.862 33.2464 32.655 32.8715 33.4884 32.5903C34.5503 32.2288 35.639 32.0146 36.7681 31.9476C37.8972 31.8807 38.9993 31.9744 40.1015 32.2154C41.2037 32.4564 42.2387 32.8447 43.2334 33.3803C44.228 33.9159 45.1152 34.572 45.9216 35.362C47.4674 36.7679 48.6234 38.4282 49.3895 40.3697C50.0616 42.1773 50.4379 44.0518 50.5051 45.9799H67.7907L67.1052 22.9364H7.08957L6.43094 45.9799H24.3214ZM26.2569 40.7178C25.5849 42.5789 25.2085 44.4937 25.1682 46.4753C25.1682 46.7565 25.0203 46.8904 24.7381 46.8904H5.96049C5.67822 46.8904 5.53037 46.7297 5.54381 46.4485L6.20244 22.5615C6.20244 22.2803 6.36373 22.1331 6.646 22.1331H67.5353C67.8176 22.1331 67.952 22.267 67.9655 22.5481L68.6779 46.4351C68.6779 46.7163 68.53 46.8636 68.2477 46.877H50.0616C49.7793 46.877 49.6315 46.7431 49.618 46.4619C49.5642 44.4803 49.2013 42.5656 48.5293 40.7044C47.8303 38.8968 46.7416 37.3302 45.3033 36.0314C44.5506 35.3084 43.7173 34.6925 42.8032 34.1971C41.8892 33.7017 40.908 33.3401 39.8865 33.1125C38.8649 32.8849 37.8299 32.7912 36.7815 32.8581C35.7331 32.9117 34.725 33.1125 33.7303 33.4473C32.9507 33.715 32.2115 34.0632 31.5125 34.4916C30.7732 34.9335 30.0877 35.4557 29.456 36.0314L26.2569 40.7178ZM29.4829 36.0582L26.2569 40.7312C26.9693 38.9236 28.0446 37.3704 29.4829 36.0582Z" fill="#01352C" stroke="#02352C" stroke-width="0.3" stroke-miterlimit="10"/>
<path fill-rule="evenodd" clip-rule="evenodd" d="M8.90398 50.1039H24.3481V48.2026H24.6707V46.4753H6.80713V47.5197H7.58673L7.18349 47.7072L6.99531 50.1173H8.89054L8.90398 50.1039ZM50.0614 46.6896V46.4753H67.3067L66.5808 50.1039H50.4378V48.2026H50.1017V46.703" fill="#CBDAD8"/>
<path fill-rule="evenodd" clip-rule="evenodd" d="M8.93081 49.6217H23.9314V48.1622L24.2674 47.7338V46.8634H7.25064V47.0375H7.58668C7.88239 47.0375 8.03024 47.1848 8.03024 47.4794L7.74797 47.8811L7.61356 47.948L7.4657 49.6351H8.93081V49.6217ZM13.232 50.492H6.95493C6.67266 50.4652 6.53825 50.3046 6.55169 50.0234L6.72643 47.8944L6.37695 47.466V46.435C6.37695 46.1538 6.52481 46.0065 6.80708 45.9931H24.7513C25.0336 46.0065 25.1814 46.1672 25.1814 46.4484V48.1622L24.8454 48.5773V50.0502C24.8454 50.3314 24.6975 50.4786 24.4153 50.4786H13.2455L13.232 50.492ZM49.685 46.7028V46.4885C49.6716 46.368 49.685 46.2609 49.7656 46.1538C49.8329 46.0601 49.9404 45.9931 50.0614 45.9797H67.3335C67.6158 45.9797 67.7636 46.1404 67.7636 46.4216V46.5555L67.0378 50.1305L66.6211 50.4786H50.478C50.1958 50.4786 50.0479 50.3314 50.0345 50.0502V48.5773L49.7119 48.1622V46.676M55.29 46.8902H50.5452V47.7605L50.8678 48.189V49.6485H66.2179L66.7824 46.8902H55.2632H55.29Z" fill="#01352C"/>
<path fill-rule="evenodd" clip-rule="evenodd" d="M9.81807 69.3178H24.3751V50.0903H8.17822V69.3178H9.81807ZM50.4782 50.1037H67.5352V69.3312H50.4782V50.1037Z" fill="#CBDAD8"/>
<path d="M67.5355 69.7999H50.4784C50.1961 69.7597 50.0617 69.599 50.0617 69.3179V50.077C50.0617 49.9431 50.1155 49.836 50.2096 49.7423C50.3037 49.6486 50.4112 49.6084 50.5456 49.6084H67.6027C67.7371 49.6084 67.8446 49.6486 67.9387 49.7423C68.0328 49.836 68.0866 49.9431 68.0866 50.077V69.3179C68.0866 69.4518 68.0328 69.5589 67.9522 69.6526C67.8581 69.7463 67.7505 69.7865 67.6161 69.7865M50.9623 68.8492H67.065V50.5858H50.9623V68.8492ZM24.3753 69.8133H8.17846C8.04404 69.8133 7.93651 69.7731 7.84242 69.6794C7.74833 69.5857 7.70801 69.4785 7.70801 69.3446V50.0904C7.70801 49.9565 7.76177 49.8494 7.85586 49.7557C7.94995 49.662 8.05748 49.6218 8.1919 49.6218H24.3887C24.5231 49.6218 24.6307 49.662 24.7248 49.7557C24.8189 49.8494 24.8726 49.9565 24.8726 50.0904V69.3313C24.8726 69.6392 24.6979 69.7999 24.3887 69.8133M8.6489 68.8626H23.878V50.5858H8.6489V68.8626Z" fill="#01352C"/>
<path d="M67.5355 69.7999H50.4784C50.1961 69.7597 50.0617 69.599 50.0617 69.3179V50.077C50.0617 49.9431 50.1155 49.836 50.2096 49.7423C50.3037 49.6486 50.4112 49.6084 50.5456 49.6084H67.6027C67.7371 49.6084 67.8446 49.6486 67.9387 49.7423C68.0328 49.836 68.0866 49.9431 68.0866 50.077V69.3179C68.0866 69.4518 68.0328 69.5589 67.9522 69.6526C67.8581 69.7463 67.7505 69.7865 67.6161 69.7865M24.3753 69.8133H8.17846C8.04404 69.8133 7.93651 69.7731 7.84242 69.6794C7.74833 69.5857 7.70801 69.4785 7.70801 69.3446V50.0904C7.70801 49.9565 7.76177 49.8494 7.85586 49.7557C7.94995 49.662 8.05748 49.6218 8.1919 49.6218H24.3887C24.5231 49.6218 24.6307 49.662 24.7248 49.7557C24.8189 49.8494 24.8726 49.9565 24.8726 50.0904V69.3313C24.8726 69.6392 24.6979 69.7999 24.3887 69.8133M50.9623 68.8492H67.065V50.5858H50.9623V68.8492ZM8.6489 68.8626H23.878V50.5858H8.6489V68.8626Z" stroke="#02352C" stroke-width="0.3" stroke-miterlimit="10"/>
<path fill-rule="evenodd" clip-rule="evenodd" d="M63.2475 72.3573H66.2314V69.3179H49.8599V72.3573H63.2475ZM20.2754 69.3179H8.17822V72.3573H24.9934V69.3179H20.2889H20.2754Z" fill="#CBDAD8"/>
<path fill-rule="evenodd" clip-rule="evenodd" d="M63.1939 71.9288H65.8015V69.7597H50.2902V71.9154H63.1939V71.9288ZM64.3095 72.7991H49.8735C49.5912 72.7991 49.4434 72.6518 49.4299 72.3707V69.3178C49.4299 69.0233 49.5778 68.876 49.8735 68.876H66.1913C66.487 68.876 66.6349 69.0233 66.6349 69.3178V72.3439C66.6349 72.6251 66.4736 72.7723 66.1913 72.7723L64.323 72.7991H64.3095ZM20.2756 69.7597H8.56823V71.9154H24.55V69.7463H20.2891L20.2756 69.7597ZM11.9151 68.8894H24.9398C25.2221 68.8894 25.3699 69.05 25.3699 69.3312V72.3573C25.3699 72.6385 25.2221 72.7857 24.9398 72.7857H8.17843C7.89616 72.7857 7.7483 72.6385 7.73486 72.3573V69.3178C7.73486 69.0233 7.88272 68.876 8.17843 68.876H11.9151V68.8894Z" fill="#01352C"/>
<path fill-rule="evenodd" clip-rule="evenodd" d="M64.605 70.8444V71.4871V72.3708H72.9252V71.4871V70.8444L72.6967 69.7866H64.8335L64.605 70.8444Z" fill="#CBDAD8"/>
<path fill-rule="evenodd" clip-rule="evenodd" d="M66.5404 65.3279L65.4248 69.7732H72.1052L70.9895 65.3279H66.5404Z" fill="#CBDAD8"/>
<path fill-rule="evenodd" clip-rule="evenodd" d="M66.5139 61.5786L66.2451 62.1544V65.3277H66.6349H70.8824H71.2856V62.1544L71.0168 61.5786H66.5139Z" fill="#CBDAD8"/>
<path d="M70.9896 50.6528H66.5137V61.5787H70.9896V50.6528Z" fill="#CBDAD8"/>
<path fill-rule="evenodd" clip-rule="evenodd" d="M65.6265 49.1799L66.5136 50.6528H71.0165L71.917 49.1799H65.6265Z" fill="#CBDAD8"/>
<path fill-rule="evenodd" clip-rule="evenodd" d="M66.4867 45.7119H65.6265V49.1798H71.917V45.7119H71.8901H71.0568H66.4867Z" fill="#CBDAD8"/>
<path d="M71.0569 23.887H66.4868V45.6986H71.0569V23.887Z" fill="#CBDAD8"/>
<path fill-rule="evenodd" clip-rule="evenodd" d="M65.5728 18.2097V23.1639L66.4868 23.9003H71.0568L71.9574 23.1639V18.2097H65.5728Z" fill="#CBDAD8"/>
<path fill-rule="evenodd" clip-rule="evenodd" d="M65.9222 15.9871L64.9141 17.1252L65.5592 18.2097H71.9573L72.616 17.1252L71.6079 15.9871H65.9222Z" fill="#CBDAD8"/>
<path fill-rule="evenodd" clip-rule="evenodd" d="M65.4248 14.5144L65.9221 15.1571V15.9873H71.6078V15.1571L72.1052 14.5144H65.4248Z" fill="#CBDAD8"/>
<path fill-rule="evenodd" clip-rule="evenodd" d="M64.9946 11.8765V13.3761L65.3441 14.5142H72.1992L72.5352 13.3761V11.8765H64.9946Z" fill="#CBDAD8"/>
<path fill-rule="evenodd" clip-rule="evenodd" d="M65.0083 8.18115L64.2422 9.15859L64.9949 11.8767H72.5221L73.2882 9.15859L72.5221 8.18115H65.0083Z" fill="#CBDAD8"/>
<path fill-rule="evenodd" clip-rule="evenodd" d="M67.8712 4.01685C67.0244 4.5926 66.4195 5.3558 66.0432 6.30646C65.9222 6.92238 65.8684 7.5517 65.855 8.16762H71.6616C71.6616 7.53831 71.5944 6.92238 71.4735 6.30646C71.0971 5.3558 70.4788 4.5926 69.632 4.01685H67.8443H67.8712Z" fill="#CBDAD8"/>
<path fill-rule="evenodd" clip-rule="evenodd" d="M68.7583 0.669434H67.0781L67.9653 2.8921V4.01683H69.5648V2.8921L70.4385 0.669434H68.7583Z" fill="#CBDAD8"/>
<path fill-rule="evenodd" clip-rule="evenodd" d="M65.0486 70.8711V71.9155H72.4816V70.8577L72.3472 70.215H65.183L65.0351 70.8711H65.0486ZM64.1749 71.4871V70.7372L64.3899 69.7062C64.4303 69.4652 64.5781 69.3447 64.8335 69.3447H72.6429L73.0596 69.6795L73.2747 70.7105V72.3574C73.2747 72.6386 73.1268 72.7858 72.8446 72.7992H64.5378C64.2421 72.7992 64.0942 72.652 64.0942 72.3574L64.1749 71.4871Z" fill="#01352C" stroke="#02352C" stroke-width="0.3" stroke-miterlimit="10"/>
<path fill-rule="evenodd" clip-rule="evenodd" d="M66.8766 65.7965L65.9761 69.3849H71.5408L70.6402 65.7965H66.8766ZM65.0083 69.6795L66.1105 65.2475L66.5406 64.8994H70.9762L71.4064 65.2342L72.5086 69.6527V69.7866C72.5086 70.0678 72.3607 70.2151 72.0784 70.2285H65.2905C65.0217 70.1481 64.9142 69.9741 64.9814 69.6929" fill="#01352C"/>
<path d="M65.0083 69.6795L66.1105 65.2475L66.5406 64.8994H70.9762L71.4064 65.2342L72.5086 69.6527V69.7866C72.5086 70.0678 72.3607 70.2151 72.0784 70.2285H65.2905C65.0217 70.1481 64.9142 69.9741 64.9814 69.6929M66.8766 65.7965L65.9761 69.3849H71.5408L70.6402 65.7965H66.8766Z" stroke="#02352C" stroke-width="0.3" stroke-miterlimit="10"/>
<path fill-rule="evenodd" clip-rule="evenodd" d="M66.7962 61.9535L66.6887 62.1811V64.7787H70.8958V62.1811L70.7748 61.9535H66.7962ZM65.8553 61.9535L66.1241 61.3778L66.5139 61.1501H70.9899L71.3931 61.3778L71.6485 61.9267L71.7157 62.141V65.3009C71.7157 65.5955 71.5679 65.7428 71.2722 65.7428H66.2317C65.9359 65.7428 65.7881 65.5955 65.7881 65.3009V62.1276L65.8419 61.9401L65.8553 61.9535Z" fill="#01352C" stroke="#02352C" stroke-width="0.3" stroke-miterlimit="10"/>
<path fill-rule="evenodd" clip-rule="evenodd" d="M66.9572 61.0966H70.5595V51.1615H66.9841L66.9572 61.0966ZM66.0835 61.5384V50.6125C66.0835 50.3314 66.2314 50.1841 66.5136 50.1841H71.003C71.2853 50.1841 71.4332 50.3314 71.4332 50.6125V61.5384C71.4332 61.8196 71.2853 61.9669 71.003 61.9669H66.5136C66.2314 61.9669 66.0835 61.8062 66.0835 61.5251" fill="#01352C"/>
<path d="M66.0835 61.5384V50.6125C66.0835 50.3314 66.2314 50.1841 66.5136 50.1841H71.003C71.2853 50.1841 71.4332 50.3314 71.4332 50.6125V61.5384C71.4332 61.8196 71.2853 61.9669 71.003 61.9669H66.5136C66.2314 61.9669 66.0835 61.8062 66.0835 61.5251M66.9572 61.0966H70.5595V51.1615H66.9841L66.9572 61.0966Z" stroke="#02352C" stroke-width="0.3" stroke-miterlimit="10"/>
<path fill-rule="evenodd" clip-rule="evenodd" d="M66.4063 49.5951L66.7692 50.211H70.7613L71.1376 49.5951H66.3928H66.4063ZM66.1509 50.8938L65.2638 49.4478L65.1831 49.1934C65.1831 48.9122 65.331 48.7649 65.6132 48.7649H71.9038L72.1188 48.8318L72.2801 49.4344L71.3796 50.8938L71.0032 51.1215H66.5407L66.1509 50.9206V50.8938Z" fill="#01352C" stroke="#02352C" stroke-width="0.3" stroke-miterlimit="10"/>
<path fill-rule="evenodd" clip-rule="evenodd" d="M66.5404 46.1406H66.1237V48.7382H71.5271V46.1406H66.5404ZM65.6801 45.2703H71.9707C72.2664 45.2703 72.4142 45.4175 72.4142 45.7121V49.18C72.4142 49.4746 72.2664 49.6219 71.9707 49.6219H65.6801C65.3979 49.6219 65.25 49.4612 65.25 49.18V45.7121C65.25 45.4309 65.3979 45.2837 65.6801 45.2703Z" fill="#01352C" stroke="#02352C" stroke-width="0.3" stroke-miterlimit="10"/>
<path fill-rule="evenodd" clip-rule="evenodd" d="M66.9303 45.2702H70.6267V24.3155H66.9975L66.9303 45.2702ZM66.0566 45.7121V23.9272C66.0566 23.6461 66.2179 23.4988 66.5002 23.4988H71.0568C71.3391 23.4988 71.4869 23.6461 71.4869 23.9272V45.7121C71.4869 45.9933 71.3391 46.1406 71.0568 46.1406H66.5002C66.2179 46.1406 66.0701 45.9933 66.0566 45.7121Z" fill="#01352C" stroke="#02352C" stroke-width="0.3" stroke-miterlimit="10"/>
<path fill-rule="evenodd" clip-rule="evenodd" d="M66.0031 18.6518V22.9632L66.6348 23.472H70.8957L71.5275 22.9632V18.6518H65.9896H66.0031ZM65.1294 23.1641V18.2099C65.1294 17.9154 65.2772 17.7681 65.573 17.7681H71.9845C72.2668 17.7681 72.4146 17.9287 72.4146 18.2099V23.1641L72.2533 23.4988L71.3527 24.2085L71.057 24.329H66.487L66.2316 24.2352L65.331 23.5122L65.1294 23.1641Z" fill="#01352C" stroke="#02352C" stroke-width="0.3" stroke-miterlimit="10"/>
<path fill-rule="evenodd" clip-rule="evenodd" d="M66.1239 16.4289L65.4653 17.1787L65.8148 17.7679H71.7155L72.0784 17.1787L71.4198 16.4289H66.1373H66.1239ZM64.605 16.844L65.5997 15.7193L65.9223 15.5586H71.608L71.9306 15.7193L72.9252 16.8306L72.9924 17.3528L72.3607 18.3972L71.9709 18.6248H65.5594L65.183 18.4106L64.5513 17.3394L64.605 16.8306V16.844Z" fill="#01352C" stroke="#02352C" stroke-width="0.3" stroke-miterlimit="10"/>
<path fill-rule="evenodd" clip-rule="evenodd" d="M65.492 15.3044L65.1022 14.809L64.9946 14.5278C64.9946 14.4073 65.035 14.3002 65.1156 14.2198C65.1962 14.1395 65.3038 14.0859 65.4248 14.0859H72.1051L72.3739 14.1797L72.4546 14.7956L72.0513 15.3178V16.014C72.0513 16.2952 71.9035 16.4425 71.6212 16.4425H65.9355C65.6533 16.4425 65.5054 16.2952 65.5054 16.014V15.3178L65.492 15.3044ZM66.3119 14.9429V15.5588H71.1104V14.9429H66.3119Z" fill="#01352C" stroke="#02352C" stroke-width="0.3" stroke-miterlimit="10"/>
<path fill-rule="evenodd" clip-rule="evenodd" d="M65.4386 12.3051V13.3361L65.6671 14.086H71.8636L72.0787 13.3361V12.265L65.4252 12.3185L65.4386 12.3051ZM64.5649 13.3763V11.8767C64.5649 11.5821 64.7128 11.4348 65.0085 11.4348H72.5222C72.8179 11.4348 72.9658 11.5821 72.9658 11.8767V13.5504L72.6432 14.6483L72.2131 14.9831H65.358L64.9413 14.6751L64.6053 13.5771L64.5649 13.3763Z" fill="#01352C" stroke="#02352C" stroke-width="0.3" stroke-miterlimit="10"/>
<path fill-rule="evenodd" clip-rule="evenodd" d="M65.2101 8.62293L64.7128 9.25224L65.3311 11.4347H72.1996L72.818 9.25224L72.3206 8.62293H65.2101ZM63.9063 8.90411L64.6456 7.92667L65.0085 7.72583H72.5357L72.8717 7.89989L73.6244 8.89072L73.7051 9.27902L72.9658 11.9569L72.5357 12.3051H65.0085L64.5784 11.9971L63.8257 9.29241L63.9063 8.9175V8.90411Z" fill="#01352C" stroke="#02352C" stroke-width="0.3" stroke-miterlimit="10"/>
<path fill-rule="evenodd" clip-rule="evenodd" d="M67.6292 3.66868L67.8712 3.57495H69.6589L69.9142 3.66868C70.5191 4.11053 71.0433 4.63273 71.4734 5.23526L71.7288 5.70389L71.917 6.22609C71.9977 6.68133 72.0514 7.09641 72.0783 7.44454V8.16758C72.0783 8.44876 71.9304 8.59604 71.6482 8.60943H65.8281C65.5458 8.60943 65.3979 8.46215 65.3979 8.18097V7.37759C65.4248 6.98929 65.4786 6.61439 65.5592 6.23948C65.8281 5.36915 66.3254 4.64612 67.0512 4.08376L67.3335 3.84274L67.5351 3.68207H67.6292V3.66868ZM68.0325 4.45866H67.9518L67.6964 4.6729C67.1319 5.10136 66.7286 5.66373 66.4867 6.3332C66.4195 6.68133 66.3657 7.04285 66.3388 7.39098V7.67216H71.2449V7.45793C71.2181 7.08302 71.1643 6.70811 71.0971 6.3332L70.9761 6.01185L70.7745 5.66373C70.425 5.16831 70.0218 4.73984 69.5379 4.36494L68.019 4.45866H68.0325Z" fill="#01352C" stroke="#02352C" stroke-width="0.3" stroke-miterlimit="10"/>
<path fill-rule="evenodd" clip-rule="evenodd" d="M68.8122 1.07125H67.7772L68.4224 2.71817V3.54832H69.1482V2.71817L69.78 1.07125H68.7988H68.8122ZM67.0917 0.227707H70.6133C70.8822 0.334824 70.9628 0.522278 70.8553 0.803459L70.0085 2.95918V4.00357C70.0085 4.29814 69.8606 4.44543 69.5649 4.44543H67.9654C67.6831 4.44543 67.5353 4.28475 67.5353 4.00357V2.95918L66.6885 0.830238V0.642784C66.6885 0.348213 66.8363 0.200928 67.132 0.200928" fill="#01352C"/>
<path d="M67.0917 0.227707H70.6133C70.8822 0.334824 70.9628 0.522278 70.8553 0.803459L70.0085 2.95918V4.00357C70.0085 4.29814 69.8606 4.44543 69.5649 4.44543H67.9654C67.6831 4.44543 67.5353 4.28475 67.5353 4.00357V2.95918L66.6885 0.830238V0.642784C66.6885 0.348213 66.8363 0.200928 67.132 0.200928M68.8122 1.07125H67.7772L68.4224 2.71817V3.54832H69.1482V2.71817L69.78 1.07125H68.7988H68.8122Z" stroke="#02352C" stroke-width="0.3" stroke-miterlimit="10"/>
<path fill-rule="evenodd" clip-rule="evenodd" d="M54.5776 70.8444V71.4871V72.3708H62.8978V71.4871V70.8444L62.6828 69.7866H54.8196L54.5776 70.8444Z" fill="#CBDAD8"/>
<path fill-rule="evenodd" clip-rule="evenodd" d="M56.5133 65.3279L55.4111 69.7732H62.078L60.9624 65.3279H56.5133Z" fill="#CBDAD8"/>
<path fill-rule="evenodd" clip-rule="evenodd" d="M56.5 61.5786L56.2178 62.1544V65.3277H56.621H60.855H61.2583V62.1544L60.9895 61.5786H56.5Z" fill="#CBDAD8"/>
<path d="M60.976 50.6528H56.5V61.5787H60.976V50.6528Z" fill="#CBDAD8"/>
<path fill-rule="evenodd" clip-rule="evenodd" d="M55.5991 49.1799L56.5131 50.6528H60.9891L61.8897 49.1799H55.5991Z" fill="#CBDAD8"/>
<path fill-rule="evenodd" clip-rule="evenodd" d="M56.4594 45.7119H55.5991V49.1798H61.8897V45.7119H61.8628H61.0294H56.4594Z" fill="#CBDAD8"/>
<path d="M61.0295 23.887H56.4595V45.6986H61.0295V23.887Z" fill="#CBDAD8"/>
<path fill-rule="evenodd" clip-rule="evenodd" d="M55.5454 18.2097V23.1639L56.4594 23.9003H61.0295L61.9301 23.1639V18.2097H55.5454Z" fill="#CBDAD8"/>
<path fill-rule="evenodd" clip-rule="evenodd" d="M55.8951 15.9871L54.9004 17.1252L55.5456 18.2097H61.9437L62.5888 17.1252L61.5807 15.9871H55.8951Z" fill="#CBDAD8"/>
<path fill-rule="evenodd" clip-rule="evenodd" d="M55.3979 14.5144L55.8953 15.1571V15.9873H61.581V15.1571L62.0783 14.5144H55.3979Z" fill="#CBDAD8"/>
<path fill-rule="evenodd" clip-rule="evenodd" d="M54.981 11.8765V13.3761L55.317 14.5142H62.1721L62.5081 13.3761V11.8765H54.981Z" fill="#CBDAD8"/>
<path fill-rule="evenodd" clip-rule="evenodd" d="M54.981 8.18115L54.2148 9.15859L54.981 11.8767H62.5082L63.2609 9.15859L62.4947 8.18115H54.981Z" fill="#CBDAD8"/>
<path fill-rule="evenodd" clip-rule="evenodd" d="M57.871 4.01685C57.0241 4.5926 56.4193 5.3558 56.0295 6.30646C55.9085 6.92238 55.8547 7.5517 55.8413 8.16762H61.648C61.648 7.53831 61.5808 6.92238 61.4598 6.30646C61.0834 5.3558 60.4651 4.5926 59.6183 4.01685H57.8441H57.871Z" fill="#CBDAD8"/>
<path fill-rule="evenodd" clip-rule="evenodd" d="M58.7446 0.669434H57.0645L57.9381 2.8921V4.01683H59.5377V2.8921L60.4248 0.669434H58.7446Z" fill="#CBDAD8"/>
<path fill-rule="evenodd" clip-rule="evenodd" d="M55.0213 70.8711V71.9155H62.4543V70.8577L62.3199 70.215H55.1557L55.0078 70.8711H55.0213ZM54.1476 71.4871V70.7372L54.3626 69.7062C54.403 69.4652 54.5374 69.3447 54.7928 69.3447H62.6022L63.0323 69.6795L63.2339 70.7105V72.3574C63.2339 72.652 63.0861 72.7992 62.7904 72.7992H54.4836C54.1879 72.7992 54.04 72.652 54.04 72.3574L54.1341 71.4871H54.1476Z" fill="#01352C" stroke="#02352C" stroke-width="0.3" stroke-miterlimit="10"/>
<path fill-rule="evenodd" clip-rule="evenodd" d="M56.8358 65.7965L55.9352 69.3849H61.4865L60.5859 65.7965H56.8358ZM54.9809 69.6795L56.0965 65.2475L56.5266 64.8994H60.9488L61.379 65.2342L62.4811 69.6527V69.7866C62.4811 70.0812 62.3333 70.2285 62.0376 70.2285H55.2497C54.9674 70.1481 54.8599 69.9741 54.9271 69.6929" fill="#01352C"/>
<path d="M54.9809 69.6795L56.0965 65.2475L56.5266 64.8994H60.9488L61.379 65.2342L62.4811 69.6527V69.7866C62.4811 70.0812 62.3333 70.2285 62.0376 70.2285H55.2497C54.9674 70.1481 54.8599 69.9741 54.9271 69.6929M56.8358 65.7965L55.9352 69.3849H61.4865L60.5859 65.7965H56.8358Z" stroke="#02352C" stroke-width="0.3" stroke-miterlimit="10"/>
<path fill-rule="evenodd" clip-rule="evenodd" d="M56.782 61.9535L56.6611 62.1811V64.7787H60.8279V62.1811L60.7069 61.9535H56.7686H56.782ZM55.8277 61.9535L56.11 61.3778L56.4998 61.1501H60.9623L61.3655 61.3778L61.6209 61.9267L61.6881 62.141V65.3009C61.6881 65.5821 61.5403 65.7294 61.258 65.7428H56.204C55.9218 65.7428 55.7739 65.5821 55.7739 65.3009V62.1276L55.8142 61.9401L55.8277 61.9535Z" fill="#01352C" stroke="#02352C" stroke-width="0.3" stroke-miterlimit="10"/>
<path fill-rule="evenodd" clip-rule="evenodd" d="M56.9973 61.0966H60.5996V51.1615H56.9973V61.0966ZM56.0698 61.5384V50.6125C56.0698 50.3314 56.2311 50.1841 56.5134 50.1841H60.9894C61.2716 50.1841 61.4195 50.3314 61.4329 50.6125V61.5384C61.4329 61.659 61.3926 61.7661 61.2985 61.8464C61.2044 61.9267 61.1103 61.9669 60.9894 61.9669H56.5806C56.2849 61.9669 56.137 61.8196 56.137 61.5251" fill="#01352C"/>
<path d="M56.0698 61.5384V50.6125C56.0698 50.3314 56.2311 50.1841 56.5134 50.1841H60.9894C61.2716 50.1841 61.4195 50.3314 61.4329 50.6125V61.5384C61.4329 61.659 61.3926 61.7661 61.2985 61.8464C61.2044 61.9267 61.1103 61.9669 60.9894 61.9669H56.5806C56.2849 61.9669 56.137 61.8196 56.137 61.5251M56.9973 61.0966H60.5996V51.1615H56.9973V61.0966Z" stroke="#02352C" stroke-width="0.3" stroke-miterlimit="10"/>
<path fill-rule="evenodd" clip-rule="evenodd" d="M56.3789 49.5951L56.7553 50.211H60.7339L61.1103 49.5951H56.3655H56.3789ZM56.1235 50.8938L55.2364 49.4478L55.1558 49.1934C55.1558 48.9122 55.3171 48.7649 55.5993 48.7649H61.8764L62.1049 48.8318L62.2528 49.4344L61.3657 50.8938L60.9759 51.1215H56.5671L56.1235 50.9206V50.8938Z" fill="#01352C" stroke="#02352C" stroke-width="0.3" stroke-miterlimit="10"/>
<path fill-rule="evenodd" clip-rule="evenodd" d="M56.4732 46.1406H56.0431V48.7382H61.46V46.1406H56.4732ZM55.613 45.2703H61.8901C62.1858 45.2703 62.3337 45.4175 62.3337 45.7121V49.18C62.3337 49.4746 62.1858 49.6219 61.8901 49.6219H55.613C55.3173 49.6219 55.1694 49.4746 55.1694 49.18V45.7121C55.1694 45.4175 55.3173 45.2703 55.613 45.2703Z" fill="#01352C" stroke="#02352C" stroke-width="0.3" stroke-miterlimit="10"/>
<path fill-rule="evenodd" clip-rule="evenodd" d="M56.903 45.2702H60.5994V24.3155H56.903V45.2702ZM56.0293 45.7121V23.9272C56.0293 23.6461 56.1906 23.4988 56.4729 23.4988H61.0295C61.3118 23.4988 61.4596 23.6461 61.473 23.9272V45.7121C61.473 45.9933 61.3118 46.1406 61.0295 46.1406H56.4729C56.1906 46.1406 56.0427 45.9933 56.0293 45.7121Z" fill="#01352C" stroke="#02352C" stroke-width="0.3" stroke-miterlimit="10"/>
<path fill-rule="evenodd" clip-rule="evenodd" d="M55.9892 18.6518V22.9632L56.6209 23.472H60.8818L61.5136 22.9632V18.6518H55.9892ZM55.1021 23.1641V18.2099C55.1021 17.9154 55.2499 17.7681 55.5456 17.7681H61.9571C62.2394 17.7681 62.3873 17.9287 62.3873 18.2099V23.1641L62.226 23.4988L61.3254 24.2085L61.0297 24.329H56.4731L56.2042 24.2352L55.3037 23.5122L55.1021 23.1641Z" fill="#01352C" stroke="#02352C" stroke-width="0.3" stroke-miterlimit="10"/>
<path fill-rule="evenodd" clip-rule="evenodd" d="M56.0968 16.4289L55.4382 17.1787L55.7876 17.7679H61.7018L62.0513 17.1787L61.3927 16.4289H56.1102H56.0968ZM54.5779 16.844L55.5726 15.7193L55.8952 15.5586H61.5809L61.9035 15.7193L62.8981 16.8306L62.9653 17.3528L62.347 18.3972L61.9572 18.6248H55.5457L55.1693 18.4106L54.5376 17.3394L54.5914 16.8306L54.5779 16.844Z" fill="#01352C" stroke="#02352C" stroke-width="0.3" stroke-miterlimit="10"/>
<path fill-rule="evenodd" clip-rule="evenodd" d="M55.4651 15.3044L55.0753 14.809L54.9678 14.5278C54.9678 14.2466 55.1156 14.0993 55.3979 14.0859H62.0917L62.3471 14.1797L62.4277 14.7956L62.0245 15.3178V16.014C62.0245 16.2952 61.8632 16.4425 61.5809 16.4425H55.9087C55.6264 16.4425 55.4785 16.2952 55.4651 16.014V15.3178V15.3044ZM56.2985 14.9429V15.5588H61.1105V14.9429H56.2985Z" fill="#01352C" stroke="#02352C" stroke-width="0.3" stroke-miterlimit="10"/>
<path fill-rule="evenodd" clip-rule="evenodd" d="M55.4245 12.3051V13.3361L55.6396 14.086H61.836L62.0511 13.3361V12.265L55.4111 12.3185L55.4245 12.3051ZM54.5374 13.3763V11.8767C54.5374 11.5821 54.6852 11.4348 54.9809 11.4348H62.5081C62.8038 11.4348 62.9517 11.5821 62.9517 11.8767V13.5102L62.6291 14.6081L62.1989 14.9429H55.2766L54.86 14.6349L54.5239 13.537L54.5508 13.3763H54.5374Z" fill="#01352C" stroke="#02352C" stroke-width="0.3" stroke-miterlimit="10"/>
<path fill-rule="evenodd" clip-rule="evenodd" d="M55.1828 8.62293L54.672 9.25224L55.2903 11.4347H62.1723L62.7772 9.25224L62.2798 8.62293H55.1962H55.1828ZM53.879 8.90411L54.6183 7.92667L54.9812 7.72583H62.5083L62.8444 7.89989L63.5971 8.89072L63.6912 9.27902L62.9385 11.9569L62.5083 12.3051H54.9812L54.5511 11.9971L53.7983 9.29241L53.879 8.9175V8.90411Z" fill="#01352C" stroke="#02352C" stroke-width="0.3" stroke-miterlimit="10"/>
<path fill-rule="evenodd" clip-rule="evenodd" d="M57.6021 3.66868L57.8575 3.57495H59.6318L59.9006 3.66868C60.492 4.11053 61.0162 4.64612 61.4464 5.23526L61.7152 5.70389L61.8899 6.22609C61.9706 6.62778 62.0243 7.02946 62.0512 7.44454V8.16758C62.0512 8.46215 61.9034 8.60943 61.6077 8.60943H55.801C55.5187 8.60943 55.3709 8.46215 55.3574 8.18097V7.37759C55.3843 6.98929 55.4381 6.61439 55.5187 6.23948C55.7875 5.36915 56.2983 4.64612 57.0107 4.08376L57.293 3.84274L57.4946 3.68207H57.6021V3.66868ZM58.0054 4.45866H57.9247L57.6693 4.6729C57.1048 5.11475 56.7016 5.66373 56.4596 6.3332C56.3924 6.68133 56.3386 7.04285 56.3118 7.39098V7.67216H61.2179V7.45793C61.191 7.08302 61.1372 6.70811 61.07 6.3332L60.9625 6.01185L60.7474 5.66373C60.3979 5.16831 59.9947 4.73984 59.5108 4.36494L57.9919 4.45866H58.0054Z" fill="#01352C" stroke="#02352C" stroke-width="0.3" stroke-miterlimit="10"/>
<path fill-rule="evenodd" clip-rule="evenodd" d="M58.8388 1.07125H57.8039L58.449 2.71817V3.54832H59.1749V2.71817L59.8201 1.07125H58.8254H58.8388ZM57.0646 0.227707H60.6265C60.8954 0.334824 60.976 0.522278 60.8685 0.803459L60.0217 2.95918V4.00357C60.0217 4.29814 59.8738 4.44543 59.5781 4.44543H57.9786C57.6963 4.44543 57.5485 4.28475 57.5485 4.00357V2.95918L56.7017 0.830238V0.642784C56.7017 0.348213 56.8495 0.200928 57.1452 0.200928" fill="#01352C"/>
<path d="M57.0646 0.227707H60.6265C60.8954 0.334824 60.976 0.522278 60.8685 0.803459L60.0217 2.95918V4.00357C60.0217 4.29814 59.8738 4.44543 59.5781 4.44543H57.9786C57.6963 4.44543 57.5485 4.28475 57.5485 4.00357V2.95918L56.7017 0.830238V0.642784C56.7017 0.348213 56.8495 0.200928 57.1452 0.200928M58.8388 1.07125H57.8039L58.449 2.71817V3.54832H59.1749V2.71817L59.8201 1.07125H58.8254H58.8388Z" stroke="#02352C" stroke-width="0.3" stroke-miterlimit="10"/>
<path fill-rule="evenodd" clip-rule="evenodd" d="M1.91455 70.8444V71.4871V72.3708H10.2347V71.4871V70.8444L9.99281 69.7866H2.12961L1.91455 70.8444Z" fill="#CBDAD8"/>
<path fill-rule="evenodd" clip-rule="evenodd" d="M3.85001 65.3279L2.73438 69.7732H9.41473L8.28565 65.3279H3.85001Z" fill="#CBDAD8"/>
<path fill-rule="evenodd" clip-rule="evenodd" d="M3.82303 61.5786L3.5542 62.1544V65.3277H3.95744H8.19147H8.59471V62.1544L8.31244 61.5786H3.82303Z" fill="#CBDAD8"/>
<path d="M8.29921 50.6528H3.82324V61.5787H8.29921V50.6528Z" fill="#CBDAD8"/>
<path fill-rule="evenodd" clip-rule="evenodd" d="M2.92285 49.1799L3.82342 50.6528H8.31284L9.21341 49.1799H2.92285Z" fill="#CBDAD8"/>
<path fill-rule="evenodd" clip-rule="evenodd" d="M3.7831 45.7119H2.92285V49.1798H9.21341V45.7119H9.17308H8.35316H3.7831Z" fill="#CBDAD8"/>
<path d="M8.35278 23.887H3.78271V45.6986H8.35278V23.887Z" fill="#CBDAD8"/>
<path fill-rule="evenodd" clip-rule="evenodd" d="M2.86914 18.2097V23.1639L3.78315 23.9003H8.35321L9.26723 23.1639V18.2097H2.86914Z" fill="#CBDAD8"/>
<path fill-rule="evenodd" clip-rule="evenodd" d="M3.21852 15.9871L2.2373 17.1252L2.85561 18.2097H9.26713L9.91232 17.1252L8.91766 15.9871H3.21852Z" fill="#CBDAD8"/>
<path fill-rule="evenodd" clip-rule="evenodd" d="M2.73438 14.5144L3.21826 15.1571V15.9873H8.9174V15.1571L9.41473 14.5144H2.73438Z" fill="#CBDAD8"/>
<path fill-rule="evenodd" clip-rule="evenodd" d="M2.31787 11.8765V13.3761L2.64046 14.5142H9.49555L9.83159 13.3761V11.8765H2.31787Z" fill="#CBDAD8"/>
<path fill-rule="evenodd" clip-rule="evenodd" d="M2.31768 8.18115L1.53809 9.15859L2.31768 11.8767H9.8314L10.5976 9.15859L9.8314 8.18115H2.31768Z" fill="#CBDAD8"/>
<path fill-rule="evenodd" clip-rule="evenodd" d="M5.18075 10.8054C4.33395 11.3812 3.72909 12.1444 3.35273 13.095C3.23176 13.711 3.17799 14.3403 3.16455 14.9562H8.97122C8.97122 14.3269 8.90401 13.711 8.78304 13.095C8.40668 12.1444 7.78838 11.3812 6.94157 10.8054H5.15387H5.18075Z" fill="#CBDAD8"/>
<path fill-rule="evenodd" clip-rule="evenodd" d="M6.06786 7.45801H4.3877L5.26138 9.69407V10.8054H6.87435V9.69407L7.74803 7.45801H6.06786Z" fill="#CBDAD8"/>
<path fill-rule="evenodd" clip-rule="evenodd" d="M2.35809 70.8711V71.9155H9.79116V70.8577L9.65675 70.215H2.4925L2.34465 70.8711H2.35809ZM1.4844 71.4871V70.7372L1.69946 69.7062C1.73979 69.4652 1.8742 69.3447 2.12959 69.3447H9.93901L10.3691 69.6795L10.5708 70.7105V72.3574C10.5708 72.652 10.4229 72.7992 10.1272 72.7992H1.88764C1.60537 72.7992 1.45752 72.6386 1.45752 72.3574L1.4844 71.4871Z" fill="#01352C" stroke="#02352C" stroke-width="0.3" stroke-miterlimit="10"/>
<path fill-rule="evenodd" clip-rule="evenodd" d="M4.17289 65.7965L3.27232 69.3849H8.83704L7.93647 65.7965H4.17289ZM2.31798 69.6795L3.42018 65.2475L3.86374 64.8994H8.28595L8.71607 65.2342L9.81826 69.6527V69.7866C9.81826 70.0678 9.67041 70.2151 9.38814 70.2285H2.62714C2.34487 70.1481 2.23734 69.9741 2.30454 69.6929" fill="#01352C"/>
<path d="M2.31798 69.6795L3.42018 65.2475L3.86374 64.8994H8.28595L8.71607 65.2342L9.81826 69.6527V69.7866C9.81826 70.0678 9.67041 70.2151 9.38814 70.2285H2.62714C2.34487 70.1481 2.23734 69.9741 2.30454 69.6929M4.17289 65.7965L3.27232 69.3849H8.83704L7.93647 65.7965H4.17289Z" stroke="#02352C" stroke-width="0.3" stroke-miterlimit="10"/>
<path fill-rule="evenodd" clip-rule="evenodd" d="M4.11891 61.9535L4.01138 62.1811V64.7787H8.1782V62.1811L8.05723 61.9535H4.10547H4.11891ZM3.19146 61.9535L3.46029 61.3778L3.85009 61.1501H8.32606L8.7293 61.3778L8.98468 61.9267L9.05189 62.141V65.3009C9.05189 65.5955 8.90404 65.7428 8.60833 65.7428H3.58126C3.28555 65.7428 3.1377 65.5955 3.1377 65.3009V62.1276L3.19146 61.9401V61.9535Z" fill="#01352C" stroke="#02352C" stroke-width="0.3" stroke-miterlimit="10"/>
<path fill-rule="evenodd" clip-rule="evenodd" d="M4.26675 61.0966H7.86904V51.1615H4.26675V61.0966ZM3.39307 61.5384V50.6125C3.39307 50.3314 3.55436 50.1841 3.83663 50.1841H8.3126C8.59487 50.1841 8.74273 50.3314 8.74273 50.6125V61.5384C8.74273 61.8196 8.59487 61.9669 8.3126 61.9669H3.83663C3.54092 61.9669 3.39307 61.8196 3.39307 61.5251" fill="#01352C"/>
<path d="M3.39307 61.5384V50.6125C3.39307 50.3314 3.55436 50.1841 3.83663 50.1841H8.3126C8.59487 50.1841 8.74273 50.3314 8.74273 50.6125V61.5384C8.74273 61.8196 8.59487 61.9669 8.3126 61.9669H3.83663C3.54092 61.9669 3.39307 61.8196 3.39307 61.5251M4.26675 61.0966H7.86904V51.1615H4.26675V61.0966Z" stroke="#02352C" stroke-width="0.3" stroke-miterlimit="10"/>
<path fill-rule="evenodd" clip-rule="evenodd" d="M3.7024 49.5951L4.06531 50.211H8.0574L8.43375 49.5951H3.68896H3.7024ZM3.46045 50.8938L2.57332 49.4478L2.49268 49.1934C2.49268 48.9122 2.64053 48.7649 2.9228 48.7649H9.21335L9.42841 48.8318L9.58971 49.4344L8.70258 50.8938L8.31278 51.1215H3.85025L3.46045 50.9206V50.8938Z" fill="#01352C" stroke="#02352C" stroke-width="0.3" stroke-miterlimit="10"/>
<path fill-rule="evenodd" clip-rule="evenodd" d="M3.79649 46.1406H3.36636V48.7382H8.78323V46.1406H3.79649ZM2.93624 45.2703H9.21335C9.50906 45.2703 9.65692 45.4175 9.65692 45.7121V49.18C9.65692 49.4746 9.50906 49.6219 9.21335 49.6219H2.93624C2.64053 49.6219 2.49268 49.4746 2.49268 49.18V45.7121C2.49268 45.4175 2.64053 45.2703 2.93624 45.2703Z" fill="#01352C" stroke="#02352C" stroke-width="0.3" stroke-miterlimit="10"/>
<path fill-rule="evenodd" clip-rule="evenodd" d="M4.26704 45.2702H7.96341V24.3155H4.22672L4.26704 45.2702ZM3.35303 45.7121V23.9272C3.35303 23.6461 3.50088 23.4988 3.78315 23.4988H8.39354C8.6758 23.4988 8.82366 23.6461 8.8371 23.9272V45.7121C8.8371 45.9933 8.6758 46.1406 8.39354 46.1406H3.82347C3.54121 46.1406 3.39335 45.9933 3.39335 45.7121" fill="#01352C"/>
<path d="M3.35303 45.7121V23.9272C3.35303 23.6461 3.50088 23.4988 3.78315 23.4988H8.39354C8.6758 23.4988 8.82366 23.6461 8.8371 23.9272V45.7121C8.8371 45.9933 8.6758 46.1406 8.39354 46.1406H3.82347C3.54121 46.1406 3.39335 45.9933 3.39335 45.7121M4.26704 45.2702H7.96341V24.3155H4.22672L4.26704 45.2702Z" stroke="#02352C" stroke-width="0.3" stroke-miterlimit="10"/>
<path fill-rule="evenodd" clip-rule="evenodd" d="M3.29898 18.6518V22.9632L3.93072 23.472H8.19163L8.82338 22.9632V18.6518H3.29898ZM2.42529 23.1641V18.2099C2.42529 17.9154 2.57315 17.7681 2.86886 17.7681H9.28038C9.56265 17.7681 9.71051 17.9287 9.71051 18.2099V23.1641L9.54921 23.4988L8.64864 24.2085L8.35293 24.329H3.78287L3.52748 24.2352L2.62691 23.5122L2.42529 23.1641Z" fill="#01352C" stroke="#02352C" stroke-width="0.3" stroke-miterlimit="10"/>
<path fill-rule="evenodd" clip-rule="evenodd" d="M3.42012 16.4289L2.76149 17.1787L3.11097 17.7679H9.02516L9.37464 17.1787L8.71601 16.4289H3.42012ZM1.8878 16.844L2.89591 15.7193L3.2185 15.5586H8.90419L9.22678 15.7193L10.2214 16.8306V17.3528L9.5897 18.3972L9.1999 18.6248H2.78837L2.41202 18.4106L1.78027 17.3394L1.8878 16.8306V16.844Z" fill="#01352C" stroke="#02352C" stroke-width="0.3" stroke-miterlimit="10"/>
<path fill-rule="evenodd" clip-rule="evenodd" d="M2.78835 15.3044L2.39855 14.809L2.29102 14.5278C2.29102 14.4073 2.33134 14.3002 2.41199 14.2198C2.49264 14.1395 2.60017 14.0859 2.72114 14.0859H9.40149L9.67032 14.1797L9.75097 14.7956L9.34773 15.3178V16.014C9.34773 16.2952 9.19987 16.4425 8.9176 16.4425H3.19159C2.90932 16.4425 2.76146 16.2952 2.76146 16.014L2.80179 15.3178L2.78835 15.3044ZM3.62171 14.9429V15.5588H8.43372V14.9429H3.62171Z" fill="#01352C" stroke="#02352C" stroke-width="0.3" stroke-miterlimit="10"/>
<path fill-rule="evenodd" clip-rule="evenodd" d="M2.76138 12.3051V13.3361L2.98989 14.086H9.18635L9.40141 13.3361V12.265L2.74794 12.3185L2.76138 12.3051ZM1.8877 13.3763V11.8767C1.8877 11.5821 2.03555 11.4348 2.33126 11.4348H9.85842C10.1407 11.4348 10.2885 11.5955 10.2885 11.8767V13.5504L9.96595 14.6483L9.53583 14.9831H2.68074L2.26405 14.6751L1.8877 13.5504V13.3763Z" fill="#01352C" stroke="#02352C" stroke-width="0.3" stroke-miterlimit="10"/>
<path fill-rule="evenodd" clip-rule="evenodd" d="M2.50604 8.62293L2.00871 9.25224L2.62701 11.4347H9.49555L10.1138 9.25224L9.61652 8.62293H2.50604ZM1.20223 8.90411L1.9415 7.92667L2.30442 7.72583H9.81814L10.1676 7.89989L10.9203 8.89072L11.001 9.27902L10.2617 11.9569L9.83158 12.3051H2.31786L1.90118 11.9971L1.12158 9.27902L1.20223 8.90411Z" fill="#01352C" stroke="#02352C" stroke-width="0.3" stroke-miterlimit="10"/>
<path fill-rule="evenodd" clip-rule="evenodd" d="M4.92529 3.66868L5.16723 3.57495H6.95493L7.21032 3.66868C7.81518 4.11053 8.32595 4.63273 8.75607 5.23526L9.0249 5.70389L9.21308 6.22609C9.29373 6.68133 9.34749 7.09641 9.37438 7.44454V8.16758C9.37438 8.44876 9.22652 8.59604 8.94425 8.60943H3.19135C2.90909 8.60943 2.76123 8.46215 2.76123 8.18097V7.37759C2.78811 6.98929 2.84188 6.61439 2.92253 6.23948C3.21824 5.35577 3.74245 4.63273 4.49517 4.08376L4.77743 3.84274L4.97905 3.68207H4.93873L4.92529 3.66868ZM5.32853 4.45866H5.24788L4.9925 4.6729C4.42796 5.10136 4.02472 5.66373 3.78277 6.3332C3.71557 6.68133 3.6618 7.04285 3.63492 7.39098V7.67216H8.54101V7.45793C8.51413 7.08302 8.46037 6.70811 8.39316 6.3332L8.27219 6.01185L8.07057 5.66373C7.72109 5.16831 7.31785 4.73984 6.83396 4.36494L5.31509 4.45866H5.32853Z" fill="#01352C" stroke="#02352C" stroke-width="0.3" stroke-miterlimit="10"/>
<path fill-rule="evenodd" clip-rule="evenodd" d="M6.10834 1.07125H5.07336L5.71854 2.71817V3.54832H6.44437V2.71817L7.08956 1.07125H6.0949H6.10834ZM4.40129 0.227707H7.92292C8.19175 0.334824 8.2724 0.522278 8.16487 0.803459L7.31806 2.95918V4.00357C7.31806 4.29814 7.17021 4.44543 6.8745 4.44543H5.27498C4.99271 4.44543 4.84485 4.28475 4.84485 4.00357V2.95918L3.99805 0.830238V0.642784C3.99805 0.348213 4.1459 0.200928 4.44161 0.200928" fill="#01352C"/>
<path d="M4.40129 0.227707H7.92292C8.19175 0.334824 8.2724 0.522278 8.16487 0.803459L7.31806 2.95918V4.00357C7.31806 4.29814 7.17021 4.44543 6.8745 4.44543H5.27498C4.99271 4.44543 4.84485 4.28475 4.84485 4.00357V2.95918L3.99805 0.830238V0.642784C3.99805 0.348213 4.1459 0.200928 4.44161 0.200928M6.10834 1.07125H5.07336L5.71854 2.71817V3.54832H6.44437V2.71817L7.08956 1.07125H6.0949H6.10834Z" stroke="#02352C" stroke-width="0.3" stroke-miterlimit="10"/>
<path fill-rule="evenodd" clip-rule="evenodd" d="M11.9282 70.8444V71.4871V72.3708H20.2484V71.4871V70.8444L20.0199 69.7866H12.1567L11.9282 70.8444Z" fill="#CBDAD8"/>
<path fill-rule="evenodd" clip-rule="evenodd" d="M13.8774 61.1904L12.7617 65.6492H19.4286L18.313 61.1904H13.8774Z" fill="#CBDAD8"/>
<path fill-rule="evenodd" clip-rule="evenodd" d="M13.8504 61.5786L13.5815 62.1544V65.3277H13.9713H18.2054H18.6086V62.1544L18.3263 61.5786H13.8504Z" fill="#CBDAD8"/>
<path d="M18.3266 50.6528H13.8506V61.5787H18.3266V50.6528Z" fill="#CBDAD8"/>
<path fill-rule="evenodd" clip-rule="evenodd" d="M12.9497 49.1799L13.8503 50.6528H18.3262L19.2268 49.1799H12.9497Z" fill="#CBDAD8"/>
<path fill-rule="evenodd" clip-rule="evenodd" d="M13.81 45.7119H12.9497V49.1798H19.2268V45.7119H19.1999H18.3666H13.81Z" fill="#CBDAD8"/>
<path d="M18.3801 23.887H13.8101V45.6986H18.3801V23.887Z" fill="#CBDAD8"/>
<path fill-rule="evenodd" clip-rule="evenodd" d="M12.8828 18.2097V23.1639L13.8103 23.9003H18.3669L19.2943 23.1639V18.2097H12.8828Z" fill="#CBDAD8"/>
<path fill-rule="evenodd" clip-rule="evenodd" d="M13.2456 15.9871L12.251 17.1252L12.8827 18.2097H19.2942L19.926 17.1252L18.9448 15.9871H13.2456Z" fill="#CBDAD8"/>
<path fill-rule="evenodd" clip-rule="evenodd" d="M12.7617 14.5144L13.2456 15.1571V15.9873H18.9447V15.1571L19.4286 14.5144H12.7617Z" fill="#CBDAD8"/>
<path fill-rule="evenodd" clip-rule="evenodd" d="M12.3315 11.8765V13.3761L12.6676 14.5142H19.5092L19.8453 13.3761V11.8765H12.3315Z" fill="#CBDAD8"/>
<path fill-rule="evenodd" clip-rule="evenodd" d="M12.3316 8.18115L11.5654 9.15859L12.3316 11.8767H19.8453L20.6115 9.15859L19.8453 8.18115H12.3316Z" fill="#CBDAD8"/>
<path fill-rule="evenodd" clip-rule="evenodd" d="M15.2079 4.01685C14.3611 4.5926 13.7562 5.3558 13.3664 6.30646C13.2454 6.92238 13.1917 7.5517 13.1782 8.16762H18.9849C18.9849 7.53831 18.9177 6.92238 18.7967 6.30646C18.4338 5.3558 17.8155 4.5926 16.9687 4.01685H15.181H15.2079Z" fill="#CBDAD8"/>
<path fill-rule="evenodd" clip-rule="evenodd" d="M16.0952 0.669434H14.415L15.2887 2.8921V4.01683H16.9017V2.8921L17.7619 0.669434H16.0952Z" fill="#CBDAD8"/>
<path fill-rule="evenodd" clip-rule="evenodd" d="M12.372 70.8711V71.9155H19.8051V70.8577L19.6572 70.215H12.5064L12.3586 70.8711H12.372ZM11.5117 71.4871V70.7372L11.7268 69.7062C11.7671 69.4652 11.915 69.3447 12.1569 69.3447H20.0336L20.4502 69.6795L20.6653 70.7105V72.3574C20.6653 72.652 20.5175 72.7992 20.2217 72.7992H11.915C11.6327 72.7992 11.4849 72.6386 11.4849 72.3574L11.5117 71.4871Z" fill="#01352C" stroke="#02352C" stroke-width="0.3" stroke-miterlimit="10"/>
<path fill-rule="evenodd" clip-rule="evenodd" d="M14.1462 65.7965L13.2456 69.3849H18.8103L17.9098 65.7965H14.1462ZM12.3047 69.6795L13.4069 65.2475L13.837 64.8994H18.2727L18.6893 65.2342L19.7915 69.6527V69.7866C19.7915 70.0678 19.6437 70.2151 19.3614 70.2285H12.5735C12.4526 70.2017 12.3719 70.1347 12.3047 70.0276C12.2375 69.9205 12.2241 69.8134 12.2644 69.6929" fill="#01352C"/>
<path d="M12.3047 69.6795L13.4069 65.2475L13.837 64.8994H18.2727L18.6893 65.2342L19.7915 69.6527V69.7866C19.7915 70.0678 19.6437 70.2151 19.3614 70.2285H12.5735C12.4526 70.2017 12.3719 70.1347 12.3047 70.0276C12.2375 69.9205 12.2241 69.8134 12.2644 69.6929M14.1462 65.7965L13.2456 69.3849H18.8103L17.9098 65.7965H14.1462Z" stroke="#02352C" stroke-width="0.3" stroke-miterlimit="10"/>
<path fill-rule="evenodd" clip-rule="evenodd" d="M14.1194 61.9535L13.9984 62.1811V64.7787H18.1653V62.1811L18.0577 61.9535H14.106H14.1194ZM13.1785 61.9535L13.4473 61.3778L13.8371 61.1501H18.3131L18.7163 61.3778L18.9717 61.9267L19.0389 62.141V65.3009C19.0389 65.5955 18.8911 65.7428 18.5954 65.7428H13.5817C13.286 65.7428 13.1382 65.5955 13.1382 65.3009V62.1276L13.1651 61.9401L13.1785 61.9535Z" fill="#01352C" stroke="#02352C" stroke-width="0.3" stroke-miterlimit="10"/>
<path fill-rule="evenodd" clip-rule="evenodd" d="M14.2941 61.0966H17.8964V51.1615H14.2941V61.0966ZM13.4204 61.5384V50.6125C13.4204 50.3314 13.5683 50.1841 13.8505 50.1841H18.3399C18.6222 50.1841 18.7701 50.3314 18.7701 50.6125V61.5384C18.7701 61.8196 18.6222 61.9669 18.3399 61.9669H13.8505C13.5683 61.9669 13.4204 61.8062 13.4204 61.5251" fill="#01352C"/>
<path d="M13.4204 61.5384V50.6125C13.4204 50.3314 13.5683 50.1841 13.8505 50.1841H18.3399C18.6222 50.1841 18.7701 50.3314 18.7701 50.6125V61.5384C18.7701 61.8196 18.6222 61.9669 18.3399 61.9669H13.8505C13.5683 61.9669 13.4204 61.8062 13.4204 61.5251M14.2941 61.0966H17.8964V51.1615H14.2941V61.0966Z" stroke="#02352C" stroke-width="0.3" stroke-miterlimit="10"/>
<path fill-rule="evenodd" clip-rule="evenodd" d="M13.7297 49.5951L14.0927 50.211H18.0847L18.4477 49.5951H13.7163H13.7297ZM13.4878 50.8938L12.6007 49.4478L12.52 49.1934C12.52 48.9122 12.6679 48.7649 12.9501 48.7649H19.2407L19.4558 48.8318L19.6036 49.4344L18.7165 50.8938L18.3401 51.1215H13.8642L13.4878 50.9206V50.8938Z" fill="#01352C" stroke="#02352C" stroke-width="0.3" stroke-miterlimit="10"/>
<path fill-rule="evenodd" clip-rule="evenodd" d="M13.8104 46.1406H13.3937V48.7382H18.8106V46.1406H13.8104ZM12.9501 45.2703H19.2407C19.523 45.2703 19.6708 45.4309 19.6708 45.7121V49.18C19.6708 49.4612 19.523 49.6085 19.2407 49.6219H12.9501C12.6679 49.6219 12.52 49.4612 12.52 49.18V45.7121C12.52 45.4309 12.6679 45.2837 12.9501 45.2703Z" fill="#01352C" stroke="#02352C" stroke-width="0.3" stroke-miterlimit="10"/>
<path fill-rule="evenodd" clip-rule="evenodd" d="M14.2536 45.2702H17.9365V24.3155H14.2536V45.2702ZM13.3799 45.7121V23.9272C13.3799 23.6461 13.5277 23.4988 13.81 23.4988H18.3801C18.6623 23.4988 18.8102 23.6461 18.8102 23.9272V45.7121C18.8102 45.9933 18.6623 46.1406 18.3801 46.1406H13.81C13.5277 46.1406 13.3799 45.9933 13.3799 45.7121Z" fill="#01352C" stroke="#02352C" stroke-width="0.3" stroke-miterlimit="10"/>
<path fill-rule="evenodd" clip-rule="evenodd" d="M13.3263 18.6518V22.9632L13.9581 23.472H18.219L18.8507 22.9632V18.6518H13.3129H13.3263ZM12.4526 23.1641V18.2099C12.4526 17.9154 12.6005 17.7681 12.8962 17.7681H19.2943C19.59 17.7681 19.7379 17.9154 19.7379 18.2099V23.1641L19.5631 23.4988L18.676 24.2085L18.3803 24.329H13.8102L13.5414 24.2352L12.6408 23.5122L12.4526 23.1641Z" fill="#01352C" stroke="#02352C" stroke-width="0.3" stroke-miterlimit="10"/>
<path fill-rule="evenodd" clip-rule="evenodd" d="M13.4475 16.4289L12.8023 17.1787L13.1518 17.7679H19.0525L19.4154 17.1787L18.7568 16.4289H13.4609H13.4475ZM11.9286 16.844L12.9367 15.7193L13.2593 15.5586H18.945L19.2676 15.7193L20.2488 16.8306V17.3528L19.6305 18.3972L19.2272 18.6248H12.8292L12.4528 18.4106L11.8076 17.3394L11.9286 16.8306V16.844Z" fill="#01352C" stroke="#02352C" stroke-width="0.3" stroke-miterlimit="10"/>
<path fill-rule="evenodd" clip-rule="evenodd" d="M12.7754 15.3044L12.3722 14.809L12.2646 14.5278C12.2646 14.2332 12.4125 14.0859 12.7082 14.0859H19.3886L19.6574 14.1797L19.738 14.7956L19.3214 15.3178V16.014C19.3214 16.2952 19.1735 16.4425 18.8912 16.4425H13.2055C12.9233 16.4425 12.7754 16.2952 12.7754 16.014V15.3178V15.3044ZM13.5953 14.9429V15.5588H18.3939V14.9429H13.5953Z" fill="#01352C" stroke="#02352C" stroke-width="0.3" stroke-miterlimit="10"/>
<path fill-rule="evenodd" clip-rule="evenodd" d="M12.7616 12.3051V13.3361L12.9767 14.086H19.1731L19.4016 13.3361V12.265L12.7482 12.3185L12.7616 12.3051ZM11.9014 13.3763V11.8767C11.9014 11.5955 12.0492 11.4482 12.3315 11.4348H19.8721C20.1544 11.4348 20.3022 11.5955 20.3022 11.8767V13.5504L19.9662 14.6483L19.5361 14.9831H12.681L12.2643 14.6751L11.9417 13.5771L11.9014 13.3763Z" fill="#01352C" stroke="#02352C" stroke-width="0.3" stroke-miterlimit="10"/>
<path fill-rule="evenodd" clip-rule="evenodd" d="M12.5197 8.62293L12.0224 9.25224L12.6407 11.4347H19.5092L20.1275 9.25224L19.6302 8.62293H12.5332H12.5197ZM11.2159 8.90411L11.9686 7.92667L12.3316 7.72583H19.8453L20.1948 7.89989L20.934 8.89072L21.0281 9.27902L20.2754 11.9569L19.8453 12.3051H12.2912L11.8611 11.9971L11.1084 9.29241L11.2159 8.9175V8.90411Z" fill="#01352C" stroke="#02352C" stroke-width="0.3" stroke-miterlimit="10"/>
<path fill-rule="evenodd" clip-rule="evenodd" d="M14.899 3.66868L15.1544 3.57495H16.9421L17.1974 3.66868C17.7889 4.11053 18.3131 4.64612 18.7432 5.23526L19.012 5.70389L19.1868 6.22609C19.2674 6.62778 19.3212 7.02946 19.3615 7.44454V8.16758C19.3615 8.46215 19.2137 8.60943 18.9179 8.60943H13.1113C12.829 8.60943 12.6812 8.46215 12.6812 8.18097V7.37759C12.6946 6.98929 12.7484 6.61439 12.8424 6.23948C13.1113 5.36915 13.6086 4.64612 14.321 4.08376L14.6167 3.84274L14.8183 3.68207H14.899V3.66868ZM15.3157 4.45866H15.235L14.9796 4.6729C14.4151 5.10136 14.0118 5.66373 13.7699 6.3332C13.7027 6.68133 13.6489 7.04285 13.6086 7.39098V7.67216H18.5147V7.45793C18.4878 7.08302 18.4341 6.70811 18.3668 6.3332L18.2593 6.01185L18.0577 5.66373C17.7082 5.16831 17.2915 4.73984 16.8211 4.36494L15.3022 4.45866H15.3157Z" fill="#01352C" stroke="#02352C" stroke-width="0.3" stroke-miterlimit="10"/>
<path fill-rule="evenodd" clip-rule="evenodd" d="M16.1222 1.07125H15.0873L15.719 2.71817V3.54832H16.4314V2.71817L17.0631 1.07125H16.0954H16.1222ZM14.4152 0.227707H17.9503C18.2191 0.334824 18.2997 0.522278 18.1922 0.803459L17.332 2.95918V4.00357C17.332 4.28475 17.1707 4.43204 16.8884 4.44543H15.3023C15.0201 4.44543 14.8722 4.28475 14.8588 4.00357V2.95918L14.0254 0.830238V0.642784C14.0254 0.361603 14.1732 0.214317 14.4555 0.200928" fill="#01352C"/>
<path d="M14.4152 0.227707H17.9503C18.2191 0.334824 18.2997 0.522278 18.1922 0.803459L17.332 2.95918V4.00357C17.332 4.28475 17.1707 4.43204 16.8884 4.44543H15.3023C15.0201 4.44543 14.8722 4.28475 14.8588 4.00357V2.95918L14.0254 0.830238V0.642784C14.0254 0.361603 14.1732 0.214317 14.4555 0.200928M16.1222 1.07125H15.0873L15.719 2.71817V3.54832H16.4314V2.71817L17.0631 1.07125H16.0954H16.1222Z" stroke="#02352C" stroke-width="0.3" stroke-miterlimit="10"/>
</g>
<defs>
<clipPath id="clip0_44_2219">
<rect width="73" height="73" fill="white" transform="translate(0.919922)"/>
</clipPath>
</defs>
</svg>
