<svg width="44" height="112" viewBox="0 0 44 112" fill="none" xmlns="http://www.w3.org/2000/svg">
<g clip-path="url(#clip0_44_1265)">
<path fill-rule="evenodd" clip-rule="evenodd" d="M19.1734 77.945C18.9824 77.5265 18.578 76.9538 19.2857 76.2599C19.6339 75.9736 19.8249 75.6101 19.8474 75.1695C21.5773 74.8722 23.2847 74.9493 24.9696 75.4008C25.082 75.7313 25.2729 76.0286 25.5313 76.2709C25.9244 76.7666 25.9806 77.2952 25.6998 77.8569C23.5093 77.3393 21.3414 77.3723 19.1622 77.9671" fill="#CBDAD8"/>
<path d="M19.1734 77.945C18.9824 77.5265 18.578 76.9538 19.2857 76.2599C19.6339 75.9736 19.8249 75.6101 19.8474 75.1695C21.5773 74.8722 23.2847 74.9493 24.9696 75.4008C25.082 75.7313 25.2729 76.0286 25.5313 76.2709C25.9244 76.7666 25.9806 77.2952 25.6998 77.8569C23.5093 77.3393 21.3414 77.3723 19.1622 77.9671" stroke="#02352C" stroke-width="0.3" stroke-miterlimit="10"/>
<path fill-rule="evenodd" clip-rule="evenodd" d="M18.8477 78.1323L18.7916 78.0112C18.5669 77.6918 18.477 77.3503 18.522 76.9649C18.5781 76.5794 18.7466 76.271 19.0499 76.0177C19.2072 75.8745 19.3308 75.6983 19.4318 75.5L19.4992 75.2247C19.4992 74.9934 19.6116 74.8612 19.8475 74.8392C20.6675 74.729 21.4987 74.674 22.33 74.674C23.3072 74.663 24.2508 74.7951 25.1832 75.0815L25.4303 75.3128L25.464 75.4009C25.5538 75.6542 25.7111 75.8635 25.9021 76.0507L26.093 76.304L26.2166 76.6124C26.3514 77.097 26.3177 77.5706 26.1043 78.0332C26.0144 78.2425 25.8684 78.3196 25.6437 78.2645C25.3067 78.1764 24.9697 78.1103 24.6327 78.0552C24.2845 78.0002 23.9138 77.9671 23.6218 77.9451C22.1727 77.857 20.7461 78.0112 19.342 78.3746C19.2297 78.4187 19.1286 78.4187 19.0162 78.3746C18.9151 78.3306 18.8365 78.2425 18.8028 78.1323H18.8365H18.8477ZM19.5891 76.5573C19.4543 76.6785 19.3645 76.8217 19.3308 76.9979C19.2971 77.1741 19.3308 77.3393 19.4206 77.5045C20.8135 77.1741 22.2176 77.042 23.6442 77.1301C24.0037 77.1301 24.3631 77.1851 24.7226 77.2402C24.9697 77.2732 25.2169 77.3283 25.4415 77.3834C25.4977 77.1961 25.4977 76.9979 25.4415 76.8107L25.3854 76.6785L25.3067 76.5904C25.0484 76.3591 24.8574 76.0727 24.7338 75.7643C23.9475 75.5441 23.1387 75.4339 22.3187 75.4339C21.6223 75.4339 20.9371 75.489 20.2519 75.5771L20.1732 75.8084C20.0384 76.1058 19.8587 76.3591 19.6228 76.5794" fill="#01352C"/>
<path d="M19.5891 76.5573C19.4543 76.6785 19.3645 76.8217 19.3308 76.9979C19.2971 77.1741 19.3308 77.3393 19.4206 77.5045C20.8135 77.1741 22.2176 77.042 23.6442 77.1301C24.0037 77.1301 24.3631 77.1851 24.7226 77.2402C24.9697 77.2732 25.2169 77.3283 25.4415 77.3834C25.4977 77.1961 25.4977 76.9979 25.4415 76.8107L25.3854 76.6785L25.3067 76.5904C25.0484 76.3591 24.8574 76.0727 24.7338 75.7643C23.9475 75.5441 23.1387 75.4339 22.3187 75.4339C21.6223 75.4339 20.9371 75.489 20.2519 75.5771L20.1732 75.8084C20.0384 76.1058 19.8587 76.3591 19.6228 76.5794M18.8477 78.1323L18.7916 78.0112C18.5669 77.6918 18.477 77.3503 18.522 76.9649C18.5781 76.5794 18.7466 76.271 19.0499 76.0177C19.2072 75.8745 19.3308 75.6983 19.4318 75.5L19.4992 75.2247C19.4992 74.9934 19.6116 74.8612 19.8475 74.8392C20.6675 74.729 21.4987 74.674 22.33 74.674C23.3072 74.663 24.2508 74.7951 25.1832 75.0815L25.4303 75.3128L25.464 75.4009C25.5538 75.6542 25.7111 75.8635 25.9021 76.0507L26.093 76.304L26.2166 76.6124C26.3514 77.097 26.3177 77.5706 26.1043 78.0332C26.0144 78.2425 25.8684 78.3196 25.6437 78.2645C25.3067 78.1764 24.9697 78.1103 24.6327 78.0552C24.2845 78.0002 23.9138 77.9671 23.6218 77.9451C22.1727 77.857 20.7461 78.0112 19.342 78.3746C19.2297 78.4187 19.1286 78.4187 19.0162 78.3746C18.9151 78.3306 18.8365 78.2425 18.8028 78.1323H18.8365H18.8477Z" stroke="#02352C" stroke-width="0.3" stroke-miterlimit="10"/>
<path fill-rule="evenodd" clip-rule="evenodd" d="M23.1502 13.1617C23.2064 12.8863 23.1951 11.3774 23.7792 11.7409C24.1949 11.9722 24.5543 12.2145 24.7116 11.5757C24.8688 10.9259 25.3519 10.1549 25.262 9.51608C25.2171 9.14161 25.1272 8.62396 25.262 8.4147C25.936 7.44547 26.6886 10.0117 26.5987 8.52483C26.565 7.99617 26.7223 7.04898 26.7111 6.63045C25.6664 6.1128 24.8351 5.36385 24.2286 4.36159C24.105 4.09726 23.5883 4.00915 23.6669 3.77786C23.7568 3.54657 24.1499 3.67873 24.0938 2.87472C24.0488 2.07071 23.959 1.53103 23.4422 1.52002C22.9255 1.509 22.5548 1.60813 22.4313 2.2249C22.3077 2.84168 22.4313 3.26021 22.2628 3.29325C21.4877 3.50251 21.4091 2.67647 20.8362 2.58836C20.3981 2.44518 20.0274 2.21389 19.7129 1.88347C19.3422 1.46495 18.9378 1.06845 18.5109 0.693976C18.2638 0.539782 17.5561 0.242407 17.8707 0.605865C18.4997 1.31075 17.7134 1.09047 18.1515 1.59711C18.3312 1.80638 18.3537 2.19186 18.5896 2.18085C18.8142 2.16983 19.3871 2.48924 19.3422 2.92979C19.3085 3.40339 19.1849 3.85496 18.9715 4.2845C18.7918 4.43869 18.8704 4.98938 19.1737 5.30879C19.477 5.61717 20.1622 6.47625 20.4992 5.67224C20.8249 4.86823 20.6228 5.81542 20.5666 6.24496C20.5104 6.6745 19.8477 7.66575 19.8477 8.27152C19.8477 8.87728 19.8477 9.6923 19.7915 9.85751C19.7241 10.276 19.8701 10.6065 20.2184 10.8377C20.6565 11.1241 21.5888 11.0801 21.645 11.3774C21.7124 11.6197 21.6899 11.862 21.5776 12.0823C21.3866 12.4898 21.3754 12.9084 21.5326 13.3269C21.7236 13.7344 23.1053 13.3269 23.139 13.1727" fill="#CBDAD8"/>
<path d="M23.1502 13.1617C23.2064 12.8863 23.1951 11.3774 23.7792 11.7409C24.1949 11.9722 24.5543 12.2145 24.7116 11.5757C24.8688 10.9259 25.3519 10.1549 25.262 9.51608C25.2171 9.14161 25.1272 8.62396 25.262 8.4147C25.936 7.44547 26.6886 10.0117 26.5987 8.52483C26.565 7.99617 26.7223 7.04898 26.7111 6.63045C25.6664 6.1128 24.8351 5.36385 24.2286 4.36159C24.105 4.09726 23.5883 4.00915 23.6669 3.77786C23.7568 3.54657 24.1499 3.67873 24.0938 2.87472C24.0488 2.07071 23.959 1.53103 23.4422 1.52002C22.9255 1.509 22.5548 1.60813 22.4313 2.2249C22.3077 2.84168 22.4313 3.26021 22.2628 3.29325C21.4877 3.50251 21.4091 2.67647 20.8362 2.58836C20.3981 2.44518 20.0274 2.21389 19.7129 1.88347C19.3422 1.46495 18.9378 1.06845 18.5109 0.693976C18.2638 0.539782 17.5561 0.242407 17.8707 0.605865C18.4997 1.31075 17.7134 1.09047 18.1515 1.59711C18.3312 1.80638 18.3537 2.19186 18.5896 2.18085C18.8142 2.16983 19.3871 2.48924 19.3422 2.92979C19.3085 3.40339 19.1849 3.85496 18.9715 4.2845C18.7918 4.43869 18.8704 4.98938 19.1737 5.30879C19.477 5.61717 20.1622 6.47625 20.4992 5.67224C20.8249 4.86823 20.6228 5.81542 20.5666 6.24496C20.5104 6.6745 19.8477 7.66575 19.8477 8.27152C19.8477 8.87728 19.8477 9.6923 19.7915 9.85751C19.7241 10.276 19.8701 10.6065 20.2184 10.8377C20.6565 11.1241 21.5888 11.0801 21.645 11.3774C21.7124 11.6197 21.6899 11.862 21.5776 12.0823C21.3866 12.4898 21.3754 12.9084 21.5326 13.3269C21.7236 13.7344 23.1053 13.3269 23.139 13.1727" stroke="#02352C" stroke-width="0.3" stroke-miterlimit="10"/>
<path fill-rule="evenodd" clip-rule="evenodd" d="M23.4533 13.1946C23.3859 13.3819 23.2624 13.503 23.0714 13.5691C22.8692 13.6572 22.6558 13.7123 22.4423 13.7563C22.2065 13.8004 21.9706 13.8004 21.7234 13.7563C21.4988 13.7233 21.3303 13.6021 21.2292 13.4039C21.0832 13.0515 21.0495 12.677 21.1393 12.3025L21.1842 12.1043L21.2516 11.9501L21.3303 11.6307V11.4765C21.3303 11.4765 21.1281 11.4765 20.9034 11.4104C20.6114 11.3663 20.3305 11.2782 20.0609 11.1461C19.7015 10.9037 19.4993 10.5733 19.4768 10.1438V8.31549C19.5442 7.83088 19.6903 7.37931 19.9261 6.94977C20.0272 6.72949 20.1171 6.53124 20.1733 6.37705L19.7914 6.31096C19.5105 6.16778 19.2746 5.96953 19.0724 5.72723L18.9601 5.60608C18.7804 5.39681 18.6793 5.16552 18.6344 4.90119C18.5782 4.65888 18.6344 4.43861 18.7579 4.22934L18.7916 4.1963C18.9039 3.97603 18.9713 3.73372 19.005 3.49142V3.10593L18.859 2.67639L18.5894 2.54422C18.2412 2.54422 18.1289 2.32395 18.0165 2.0486L17.9267 1.86136C17.5672 1.45385 17.6908 1.27763 17.8256 1.09039C17.7694 1.0133 17.7132 0.936199 17.6458 0.870116L17.5111 0.638824V0.572741C17.4886 0.473616 17.511 0.385505 17.5672 0.308408C17.6234 0.231311 17.7132 0.187256 17.8143 0.187256H18.0615C18.2974 0.253339 18.5108 0.34145 18.713 0.473616C19.1174 0.815046 19.4993 1.1785 19.8475 1.575L19.9486 1.68514C20.1508 1.88339 20.3755 2.0486 20.6226 2.18077L20.7686 2.23583H20.8697C21.1618 2.2909 21.3977 2.43408 21.5886 2.67639C21.7347 2.83058 21.8807 2.98478 22.1503 2.91869L22.0155 2.81957C22.0155 2.57726 22.038 2.34597 22.0829 2.11468C22.1278 1.77325 22.2963 1.50892 22.5996 1.3327C22.858 1.20053 23.1388 1.15648 23.4309 1.1785C23.8465 1.1785 24.1048 1.36574 24.2172 1.77325C24.3295 2.1257 24.3969 2.47814 24.3969 2.8416C24.3969 3.45837 24.2509 3.66764 24.0711 3.7998L24.4755 4.17428C25.0259 5.11045 25.801 5.82635 26.7783 6.29995C26.9131 6.36603 26.9805 6.41009 26.9805 6.59733C26.9805 6.87267 26.958 7.14802 26.9356 7.42337C26.8906 7.75378 26.8682 8.09521 26.8682 8.43664C26.9131 9.00936 26.7783 9.22964 26.5199 9.25167C26.2616 9.26268 26.1605 9.08646 25.9807 8.86618L25.6213 8.4807L25.4753 8.53577C25.4416 8.8001 25.4528 9.06443 25.509 9.32876V9.41688C25.5202 9.95655 25.4079 10.4742 25.1607 10.9698C25.0709 11.2011 24.9922 11.4104 24.9473 11.5976C24.8013 12.2034 24.5092 12.3025 24.1273 12.2254L23.6106 11.9941C23.5095 12.2915 23.4533 12.5999 23.4421 12.9193V13.1616L23.4646 13.2497L23.4533 13.1946ZM22.8467 13.0404C22.6895 13.0955 22.5322 13.1396 22.3637 13.1726H21.847C21.7684 12.9413 21.7459 12.699 21.8021 12.4677L21.8358 12.3355L21.8695 12.2364C21.9481 12.0492 21.993 11.8509 22.0043 11.6417V11.3553C21.9144 10.9919 21.5212 10.9148 21.0832 10.8266C20.8585 10.7936 20.6451 10.7275 20.4429 10.6394C20.2631 10.5072 20.162 10.331 20.1508 10.1107V9.9896C20.1957 9.67019 20.207 9.35079 20.1957 9.02038V8.33752C20.2631 7.94102 20.3979 7.56655 20.5889 7.20309C20.7237 6.93876 20.836 6.66341 20.9147 6.37705V6.32198L20.9708 5.99156C21.0045 5.80433 21.027 5.61709 21.0158 5.42986L20.8248 5.09944C20.6226 5.02234 20.4204 5.13248 20.2407 5.59506L20.1171 5.71622L19.5892 5.27566L19.4544 5.1435L19.2859 4.76902V4.60382C19.5105 4.2734 19.6341 3.92096 19.6903 3.52446L19.724 3.29317V2.95174C19.7015 2.65436 19.5667 2.42307 19.3308 2.24685C19.1511 2.10367 18.9489 2.01556 18.7242 1.9715H18.6344V1.86136L18.4659 1.55298H18.3985L18.5333 1.20053C18.7804 1.40979 19.196 1.86136 19.4207 2.10367L19.5218 2.21381C19.7689 2.45611 20.0497 2.66538 20.3642 2.83058L20.5889 2.91869L20.8023 2.97376L21.1393 3.20506C21.2741 3.39229 21.4426 3.53547 21.6673 3.61257C21.8919 3.68966 22.1054 3.68966 22.33 3.62358C22.6558 3.53547 22.667 3.29317 22.6782 2.91869C22.6782 2.72044 22.6895 2.51118 22.7232 2.31293C22.7232 2.15874 22.8018 2.03759 22.9254 1.94947C23.0826 1.88339 23.2511 1.86136 23.4196 1.88339L23.6443 2.07063C23.7229 2.35699 23.7678 2.65436 23.7678 2.95174C23.7678 3.31519 23.7004 3.35925 23.633 3.4033L23.3522 3.72271C23.2174 4.09718 23.4646 4.24036 23.7341 4.42759L23.9251 4.57077C24.5092 5.58405 25.3292 6.35502 26.3627 6.88369C26.3627 7.04889 26.3627 7.25816 26.3177 7.46742C26.2728 7.67668 26.2616 8.05116 26.2503 8.30447L26.0032 8.07318C25.8347 7.93 25.6438 7.88595 25.4303 7.93C25.2169 7.97406 25.0596 8.09521 24.9698 8.29346C24.8125 8.68996 24.79 9.10849 24.8911 9.52701V9.61512C24.8911 10.0557 24.7788 10.4632 24.5879 10.8597C24.4868 11.091 24.4081 11.3223 24.3407 11.5646L24.2958 11.7298L23.9476 11.5646L23.8914 11.5315C23.7454 11.4214 23.5881 11.3994 23.4196 11.4434C23.2511 11.4985 23.1276 11.5976 23.0714 11.7628C22.9141 12.1483 22.8243 12.5448 22.8243 12.9633L22.858 13.0294L22.8467 13.0404ZM20.544 5.63912L20.6001 5.67216H20.5552V5.63912H20.544Z" fill="#01352C"/>
<path d="M22.8243 13.1065V13.0735M23.4533 13.1946C23.3859 13.3819 23.2624 13.503 23.0714 13.5691C22.8692 13.6572 22.6558 13.7123 22.4423 13.7563C22.2065 13.8004 21.9706 13.8004 21.7234 13.7563C21.4988 13.7233 21.3303 13.6021 21.2292 13.4039C21.0832 13.0515 21.0495 12.677 21.1393 12.3025L21.1842 12.1043L21.2516 11.9501L21.3303 11.6307V11.4765C21.3303 11.4765 21.1281 11.4765 20.9034 11.4104C20.6114 11.3663 20.3305 11.2782 20.0609 11.1461C19.7015 10.9037 19.4993 10.5733 19.4768 10.1438V8.31549C19.5442 7.83088 19.6903 7.37931 19.9261 6.94977C20.0272 6.72949 20.1171 6.53124 20.1733 6.37705L19.7914 6.31096C19.5105 6.16778 19.2746 5.96953 19.0724 5.72723L18.9601 5.60608C18.7804 5.39681 18.6793 5.16552 18.6344 4.90119C18.5782 4.65888 18.6344 4.43861 18.7579 4.22934L18.7916 4.1963C18.9039 3.97603 18.9713 3.73372 19.005 3.49142V3.10593L18.859 2.67639L18.5894 2.54422C18.2412 2.54422 18.1289 2.32395 18.0165 2.0486L17.9267 1.86136C17.5672 1.45385 17.6908 1.27763 17.8256 1.09039C17.7694 1.0133 17.7132 0.936199 17.6458 0.870116L17.5111 0.638824V0.572741C17.4886 0.473616 17.511 0.385505 17.5672 0.308408C17.6234 0.231311 17.7132 0.187256 17.8143 0.187256H18.0615C18.2974 0.253339 18.5108 0.34145 18.713 0.473616C19.1174 0.815046 19.4993 1.1785 19.8475 1.575L19.9486 1.68514C20.1508 1.88339 20.3755 2.0486 20.6226 2.18077L20.7686 2.23583H20.8697C21.1618 2.2909 21.3977 2.43408 21.5886 2.67639C21.7347 2.83058 21.8807 2.98478 22.1503 2.91869L22.0155 2.81957C22.0155 2.57726 22.038 2.34597 22.0829 2.11468C22.1278 1.77325 22.2963 1.50892 22.5996 1.3327C22.858 1.20053 23.1388 1.15648 23.4309 1.1785C23.8465 1.1785 24.1048 1.36574 24.2172 1.77325C24.3295 2.1257 24.3969 2.47814 24.3969 2.8416C24.3969 3.45837 24.2509 3.66764 24.0711 3.7998L24.4755 4.17428C25.0259 5.11045 25.801 5.82635 26.7783 6.29995C26.9131 6.36603 26.9805 6.41009 26.9805 6.59733C26.9805 6.87267 26.958 7.14802 26.9356 7.42337C26.8906 7.75378 26.8682 8.09521 26.8682 8.43664C26.9131 9.00936 26.7783 9.22964 26.5199 9.25167C26.2616 9.26268 26.1605 9.08646 25.9807 8.86618L25.6213 8.4807L25.4753 8.53577C25.4416 8.8001 25.4528 9.06443 25.509 9.32876V9.41688C25.5202 9.95655 25.4079 10.4742 25.1607 10.9698C25.0709 11.2011 24.9922 11.4104 24.9473 11.5976C24.8013 12.2034 24.5092 12.3025 24.1273 12.2254L23.6106 11.9941C23.5095 12.2915 23.4533 12.5999 23.4421 12.9193V13.1616L23.4646 13.2497L23.4533 13.1946ZM22.8467 13.0404C22.6895 13.0955 22.5322 13.1396 22.3637 13.1726H21.847C21.7684 12.9413 21.7459 12.699 21.8021 12.4677L21.8358 12.3355L21.8695 12.2364C21.9481 12.0492 21.993 11.8509 22.0043 11.6417V11.3553C21.9144 10.9919 21.5212 10.9148 21.0832 10.8266C20.8585 10.7936 20.6451 10.7275 20.4429 10.6394C20.2631 10.5072 20.162 10.331 20.1508 10.1107V9.9896C20.1957 9.67019 20.207 9.35079 20.1957 9.02038V8.33752C20.2631 7.94102 20.3979 7.56655 20.5889 7.20309C20.7237 6.93876 20.836 6.66341 20.9147 6.37705V6.32198L20.9708 5.99156C21.0045 5.80433 21.027 5.61709 21.0158 5.42986L20.8248 5.09944C20.6226 5.02234 20.4204 5.13248 20.2407 5.59506L20.1171 5.71622L19.5892 5.27566L19.4544 5.1435L19.2859 4.76902V4.60382C19.5105 4.2734 19.6341 3.92096 19.6903 3.52446L19.724 3.29317V2.95174C19.7015 2.65436 19.5667 2.42307 19.3308 2.24685C19.1511 2.10367 18.9489 2.01556 18.7242 1.9715H18.6344V1.86136L18.4659 1.55298H18.3985L18.5333 1.20053C18.7804 1.40979 19.196 1.86136 19.4207 2.10367L19.5218 2.21381C19.7689 2.45611 20.0497 2.66538 20.3642 2.83058L20.5889 2.91869L20.8023 2.97376L21.1393 3.20506C21.2741 3.39229 21.4426 3.53547 21.6673 3.61257C21.8919 3.68966 22.1054 3.68966 22.33 3.62358C22.6558 3.53547 22.667 3.29317 22.6782 2.91869C22.6782 2.72044 22.6895 2.51118 22.7232 2.31293C22.7232 2.15874 22.8018 2.03759 22.9254 1.94947C23.0826 1.88339 23.2511 1.86136 23.4196 1.88339L23.6443 2.07063C23.7229 2.35699 23.7678 2.65436 23.7678 2.95174C23.7678 3.31519 23.7004 3.35925 23.633 3.4033L23.3522 3.72271C23.2174 4.09718 23.4646 4.24036 23.7341 4.42759L23.9251 4.57077C24.5092 5.58405 25.3292 6.35502 26.3627 6.88369C26.3627 7.04889 26.3627 7.25816 26.3177 7.46742C26.2728 7.67668 26.2616 8.05116 26.2503 8.30447L26.0032 8.07318C25.8347 7.93 25.6438 7.88595 25.4303 7.93C25.2169 7.97406 25.0596 8.09521 24.9698 8.29346C24.8125 8.68996 24.79 9.10849 24.8911 9.52701V9.61512C24.8911 10.0557 24.7788 10.4632 24.5879 10.8597C24.4868 11.091 24.4081 11.3223 24.3407 11.5646L24.2958 11.7298L23.9476 11.5646L23.8914 11.5315C23.7454 11.4214 23.5881 11.3994 23.4196 11.4434C23.2511 11.4985 23.1276 11.5976 23.0714 11.7628C22.9141 12.1483 22.8243 12.5448 22.8243 12.9633L22.858 13.0294L22.8467 13.0404ZM20.544 5.63912L20.6001 5.67216H20.5552V5.63912H20.544Z" stroke="#02352C" stroke-width="0.3" stroke-miterlimit="10"/>
<path fill-rule="evenodd" clip-rule="evenodd" d="M20.2407 15.4966C18.9152 11.6197 26.1043 11.8179 24.5766 15.5957C23.1388 15.3754 21.6897 15.3424 20.2407 15.4966Z" fill="#CBDAD8" stroke="#02352C" stroke-width="0.3" stroke-miterlimit="10"/>
<path fill-rule="evenodd" clip-rule="evenodd" d="M19.8589 15.6506C19.6454 15.188 19.5893 14.7144 19.7016 14.2188C19.8027 13.7232 20.0498 13.3047 20.4318 12.9632C20.7238 12.743 21.0496 12.5667 21.409 12.4566C21.7685 12.3465 22.1279 12.2914 22.4986 12.3024C22.8693 12.3024 23.2288 12.3795 23.577 12.5117C23.9252 12.6438 24.2397 12.8311 24.5318 13.0624C24.8913 13.4148 25.1159 13.8444 25.1946 14.34C25.2732 14.8356 25.1946 15.3092 24.9587 15.7608C24.88 15.959 24.734 16.0471 24.5206 16.0031H24.4644C24.2622 15.97 24.06 15.937 23.8466 15.915C23.6332 15.915 23.4197 15.8599 23.2175 15.8599C22.2403 15.7828 21.2742 15.8048 20.297 15.915C20.0723 15.915 19.9375 15.8268 19.8813 15.6066V15.6396L19.8589 15.6506ZM20.9372 13.536C20.4655 13.9655 20.3194 14.4721 20.5216 15.0779C21.4315 15.0008 22.3414 15.0008 23.2512 15.0779L23.9028 15.133L24.3071 15.188C24.5318 14.6043 24.4195 14.0867 23.9702 13.6461C23.5433 13.2826 23.0378 13.0954 22.4762 13.0954C21.9033 13.0624 21.3978 13.2166 20.9485 13.569" fill="#01352C"/>
<path d="M20.9372 13.536C20.4655 13.9655 20.3194 14.4721 20.5216 15.0779C21.4315 15.0008 22.3414 15.0008 23.2512 15.0779L23.9028 15.133L24.3071 15.188C24.5318 14.6043 24.4195 14.0867 23.9702 13.6461C23.5433 13.2826 23.0378 13.0954 22.4762 13.0954C21.9033 13.0624 21.3978 13.2166 20.9485 13.569M19.8589 15.6506C19.6454 15.188 19.5893 14.7144 19.7016 14.2188C19.8027 13.7232 20.0498 13.3047 20.4318 12.9632C20.7238 12.743 21.0496 12.5667 21.409 12.4566C21.7685 12.3465 22.1279 12.2914 22.4986 12.3024C22.8693 12.3024 23.2288 12.3795 23.577 12.5117C23.9252 12.6438 24.2397 12.8311 24.5318 13.0624C24.8913 13.4148 25.1159 13.8444 25.1946 14.34C25.2732 14.8356 25.1946 15.3092 24.9587 15.7608C24.88 15.959 24.734 16.0471 24.5206 16.0031H24.4644C24.2622 15.97 24.06 15.937 23.8466 15.915C23.6332 15.915 23.4197 15.8599 23.2175 15.8599C22.2403 15.7828 21.2742 15.8048 20.297 15.915C20.0723 15.915 19.9375 15.8268 19.8813 15.6066V15.6396L19.8589 15.6506Z" stroke="#02352C" stroke-width="0.3" stroke-miterlimit="10"/>
<path fill-rule="evenodd" clip-rule="evenodd" d="M19.106 22.9639L19.0611 22.8538C18.8813 22.5234 18.769 22.1599 18.7128 21.7854C18.6791 21.444 18.5668 21.1356 18.3646 20.8603L17.949 20.3206C17.8367 20.2655 17.6345 20.0453 17.949 20.0342C18.2635 20.0232 18.3534 19.88 18.2186 19.6598C17.6008 18.6685 18.2186 17.49 19.0611 16.5318C19.4542 16.1133 19.8698 15.7278 20.3079 15.3644C21.7795 15.2212 23.2397 15.2542 24.7 15.4745C25.0932 15.8049 25.4639 16.1574 25.8121 16.5208C26.6546 17.468 27.2724 18.6465 26.6546 19.6488C26.5086 19.88 26.6097 20.0232 26.9242 20.0232C27.2387 20.0232 27.0365 20.2545 26.9242 20.3096L26.4973 20.8493C26.2951 21.1246 26.1828 21.433 26.1491 21.7744C26.1042 22.1489 25.9918 22.5124 25.8009 22.8428L25.7222 23.019C23.5206 22.6115 21.3189 22.5895 19.1172 22.9529" fill="#CBDAD8"/>
<path d="M19.106 22.9639L19.0611 22.8538C18.8813 22.5234 18.769 22.1599 18.7128 21.7854C18.6791 21.444 18.5668 21.1356 18.3646 20.8603L17.949 20.3206C17.8367 20.2655 17.6345 20.0453 17.949 20.0342C18.2635 20.0232 18.3534 19.88 18.2186 19.6598C17.6008 18.6685 18.2186 17.49 19.0611 16.5318C19.4542 16.1133 19.8698 15.7278 20.3079 15.3644C21.7795 15.2212 23.2397 15.2542 24.7 15.4745C25.0932 15.8049 25.4639 16.1574 25.8121 16.5208C26.6546 17.468 27.2724 18.6465 26.6546 19.6488C26.5086 19.88 26.6097 20.0232 26.9242 20.0232C27.2387 20.0232 27.0365 20.2545 26.9242 20.3096L26.4973 20.8493C26.2951 21.1246 26.1828 21.433 26.1491 21.7744C26.1042 22.1489 25.9918 22.5124 25.8009 22.8428L25.7222 23.019C23.5206 22.6115 21.3189 22.5895 19.1172 22.9529" stroke="#02352C" stroke-width="0.3" stroke-miterlimit="10"/>
<path fill-rule="evenodd" clip-rule="evenodd" d="M18.7469 23.1291L18.702 23.041C18.4998 22.6665 18.3762 22.259 18.3313 21.8295V21.7194L18.7469 23.1291ZM19.1064 21.7744C19.1401 22.0388 19.2187 22.3031 19.3422 22.5454C20.7688 22.3361 22.1954 22.27 23.622 22.3692C23.9702 22.3692 24.3409 22.4242 24.6892 22.4793L25.4755 22.6115C25.6103 22.3582 25.6889 22.0938 25.7338 21.8075C25.7563 21.477 25.8462 21.1797 26.0034 20.8933L26.0484 20.8052V20.7611L26.1045 20.684V20.64L26.2169 20.4968L26.3404 20.3316L26.1944 20.1664L26.127 19.88L26.2506 19.5056C26.3966 19.1972 26.4527 18.8778 26.419 18.5363C26.3853 18.1949 26.2506 17.8975 26.0371 17.6332L25.7675 17.2257L25.4642 16.8512C25.2171 16.5759 24.9475 16.3226 24.6667 16.0803L24.5319 15.9481L24.487 15.904C23.7793 15.8049 23.0604 15.7388 22.3415 15.7388C21.7124 15.7278 21.0721 15.7388 20.4431 15.8049C20.2634 15.9591 19.9601 16.2124 19.6905 16.5098L19.4995 16.686L19.3535 16.8402C18.7918 17.3909 18.4548 18.0517 18.365 18.8337L18.4099 19.1751L18.5447 19.4835L18.6683 19.847L18.6009 20.1334L18.4548 20.2986L18.5784 20.4638L18.6795 20.607C18.8368 20.8272 18.9603 21.0585 19.039 21.3118L19.0839 21.5101V21.7194L19.1288 21.7524L19.1064 21.7744ZM18.2751 21.5431L18.7469 23.1291C18.8255 23.3164 18.9716 23.3935 19.1738 23.3604C20.634 23.1181 22.1056 23.052 23.5771 23.1512C23.9141 23.1512 24.296 23.2062 24.5881 23.2503C24.8801 23.2943 25.262 23.3494 25.599 23.4155C25.8237 23.4706 25.981 23.3935 26.0596 23.1732L26.127 23.019C26.318 22.6555 26.4415 22.259 26.4977 21.8515V21.8185C26.5089 21.6202 26.5763 21.422 26.6774 21.2458V21.1907L26.8234 20.9814L26.9695 20.7722L27.2054 20.5959L27.3739 20.2215L27.1941 19.847L26.9919 19.7589C27.1604 19.3404 27.2166 18.9108 27.1604 18.4703C27.1043 18.0297 26.9358 17.6222 26.6774 17.2698L26.3629 16.8072L26.0259 16.3886C25.7563 16.0913 25.4642 15.8159 25.1722 15.5516L25.0374 15.4194L24.9138 15.3093L24.7116 15.2212C23.9253 15.1 23.139 15.0339 22.3415 15.0229C21.6338 15.0119 20.9373 15.0339 20.2409 15.111L20.0162 15.1991C19.8477 15.3313 19.4658 15.6727 19.1288 16.0032L18.9266 16.2014L18.7581 16.3886C18.0504 17.0825 17.6461 17.9196 17.5562 18.9108C17.5562 19.0981 17.5787 19.2743 17.6236 19.4615L17.7472 19.7919L17.5337 19.9021L17.4776 19.9571L17.3652 20.2435L17.4326 20.5078L17.7584 20.7942L17.882 21.0035L18.028 21.2127C18.1178 21.3449 18.1852 21.4881 18.2302 21.6423L18.2639 21.5321L18.2751 21.5431ZM26.3067 19.4505L26.801 19.7589H26.8347L26.9021 19.814L26.2955 19.4615L26.3067 19.4505Z" fill="#01352C"/>
<path d="M18.7469 23.1291L18.702 23.041C18.4998 22.6665 18.3762 22.259 18.3313 21.8295V21.7194L18.7469 23.1291ZM18.7469 23.1291L18.2751 21.5431L18.2639 21.5321L18.2302 21.6423C18.1852 21.4881 18.1178 21.3449 18.028 21.2127L17.882 21.0035L17.7584 20.7942L17.4326 20.5078L17.3652 20.2435L17.4776 19.9571L17.5337 19.9021L17.7472 19.7919L17.6236 19.4615C17.5787 19.2743 17.5562 19.0981 17.5562 18.9108C17.6461 17.9196 18.0504 17.0825 18.7581 16.3886L18.9266 16.2014L19.1288 16.0032C19.4658 15.6727 19.8477 15.3313 20.0162 15.1991L20.2409 15.111C20.9373 15.0339 21.6338 15.0119 22.3415 15.0229C23.139 15.0339 23.9253 15.1 24.7116 15.2212L24.9138 15.3093L25.0374 15.4194L25.1722 15.5516C25.4642 15.8159 25.7563 16.0913 26.0259 16.3886L26.3629 16.8072L26.6774 17.2698C26.9358 17.6222 27.1043 18.0297 27.1604 18.4703C27.2166 18.9108 27.1604 19.3404 26.9919 19.7589L27.1941 19.847L27.3739 20.2215L27.2054 20.5959L26.9695 20.7722L26.8234 20.9814L26.6774 21.1907V21.2458C26.5763 21.422 26.5089 21.6202 26.4977 21.8185V21.8515C26.4415 22.259 26.318 22.6555 26.127 23.019L26.0596 23.1732C25.981 23.3935 25.8237 23.4706 25.599 23.4155C25.262 23.3494 24.8801 23.2943 24.5881 23.2503C24.296 23.2062 23.9141 23.1512 23.5771 23.1512C22.1056 23.052 20.634 23.1181 19.1738 23.3604C18.9716 23.3935 18.8255 23.3164 18.7469 23.1291ZM24.9475 15.1991L25.0486 15.3313M25.2283 15.4414V15.9921M26.9695 19.836H27.0144M26.9245 19.836H26.2056M19.1064 21.7744C19.1401 22.0388 19.2187 22.3031 19.3422 22.5454C20.7688 22.3361 22.1954 22.27 23.622 22.3692C23.9702 22.3692 24.3409 22.4242 24.6892 22.4793L25.4755 22.6115C25.6103 22.3582 25.6889 22.0938 25.7338 21.8075C25.7563 21.477 25.8462 21.1797 26.0034 20.8933L26.0484 20.8052V20.7611L26.1045 20.684V20.64L26.2169 20.4968L26.3404 20.3316L26.1944 20.1664L26.127 19.88L26.2506 19.5056C26.3966 19.1972 26.4527 18.8778 26.419 18.5363C26.3853 18.1949 26.2506 17.8975 26.0371 17.6332L25.7675 17.2257L25.4642 16.8512C25.2171 16.5759 24.9475 16.3226 24.6667 16.0803L24.5319 15.9481L24.487 15.904C23.7793 15.8049 23.0604 15.7388 22.3415 15.7388C21.7124 15.7278 21.0721 15.7388 20.4431 15.8049C20.2634 15.9591 19.9601 16.2124 19.6905 16.5098L19.4995 16.686L19.3535 16.8402C18.7918 17.3909 18.4548 18.0517 18.365 18.8337L18.4099 19.1751L18.5447 19.4835L18.6683 19.847L18.6009 20.1334L18.4548 20.2986L18.5784 20.4638L18.6795 20.607C18.8368 20.8272 18.9603 21.0585 19.039 21.3118L19.0839 21.5101V21.7194L19.1288 21.7524L19.1064 21.7744ZM26.3067 19.4505L26.801 19.7589H26.8347L26.9021 19.814L26.2955 19.4615L26.3067 19.4505Z" stroke="#02352C" stroke-width="0.3" stroke-miterlimit="10"/>
<path fill-rule="evenodd" clip-rule="evenodd" d="M19.7914 38.7027C19.5555 38.2842 19.4544 37.8326 19.5106 37.348V35.2995L19.6566 35.0572C20.3755 34.3853 19.1961 28.8453 18.7692 28.1294L18.7243 28.0523L18.5558 27.821C18.2525 27.4135 17.1741 26.6536 17.9043 26.3342C18.6344 26.0148 19.1511 25.8165 19.533 25.9927C19.915 26.169 19.8925 26.2681 20.207 25.9267C20.3755 25.6844 20.4205 25.42 20.3418 25.1337C20.2632 24.8473 20.0947 24.638 19.8251 24.5059C19.2298 24.1094 19.1062 24.2415 19.2073 23.5917C19.2298 23.3714 19.2298 23.1622 19.2073 22.9419C21.3528 22.5895 23.4983 22.6115 25.6326 23.008C25.6101 23.1952 25.6101 23.3935 25.6326 23.5807C25.7112 24.2305 25.6326 24.0873 25.0148 24.4949C24.7452 24.627 24.5767 24.8363 24.5093 25.1226C24.4306 25.409 24.4756 25.6733 24.6441 25.9156C24.9474 26.2571 24.9249 26.1579 25.3181 25.9817C25.7112 25.8055 26.2055 25.9817 26.9356 26.3232C27.6658 26.6646 26.5874 27.4135 26.2841 27.81L26.1156 28.0413L26.0482 28.1294C25.6326 28.8343 24.4531 34.3853 25.172 35.0572L25.3068 35.2995V37.348C25.3742 37.8547 25.2731 38.3283 25.0035 38.7688C23.2624 38.5155 21.5213 38.4935 19.7689 38.7248" fill="#CBDAD8"/>
<path d="M19.7914 38.7027C19.5555 38.2842 19.4544 37.8326 19.5106 37.348V35.2995L19.6566 35.0572C20.3755 34.3853 19.1961 28.8453 18.7692 28.1294L18.7243 28.0523L18.5558 27.821C18.2525 27.4135 17.1741 26.6536 17.9043 26.3342C18.6344 26.0148 19.1511 25.8165 19.533 25.9927C19.915 26.169 19.8925 26.2681 20.207 25.9267C20.3755 25.6844 20.4205 25.42 20.3418 25.1337C20.2632 24.8473 20.0947 24.638 19.8251 24.5059C19.2298 24.1094 19.1062 24.2415 19.2073 23.5917C19.2298 23.3714 19.2298 23.1622 19.2073 22.9419C21.3528 22.5895 23.4983 22.6115 25.6326 23.008C25.6101 23.1952 25.6101 23.3935 25.6326 23.5807C25.7112 24.2305 25.6326 24.0873 25.0148 24.4949C24.7452 24.627 24.5767 24.8363 24.5093 25.1226C24.4306 25.409 24.4756 25.6733 24.6441 25.9156C24.9474 26.2571 24.9249 26.1579 25.3181 25.9817C25.7112 25.8055 26.2055 25.9817 26.9356 26.3232C27.6658 26.6646 26.5874 27.4135 26.2841 27.81L26.1156 28.0413L26.0482 28.1294C25.6326 28.8343 24.4531 34.3853 25.172 35.0572L25.3068 35.2995V37.348C25.3742 37.8547 25.2731 38.3283 25.0035 38.7688C23.2624 38.5155 21.5213 38.4935 19.7689 38.7248" stroke="#02352C" stroke-width="0.3" stroke-miterlimit="10"/>
<path d="M25.2843 39.1873H25.0596C23.3522 38.934 21.6448 38.923 19.9374 39.1543H19.7015L19.5667 38.9671C19.2746 38.4714 19.1623 37.9538 19.2072 37.3811V35.3545C19.2297 35.1453 19.3195 34.969 19.4768 34.8259C19.9261 34.2421 18.9601 29.1097 18.522 28.3827L18.3198 28.0964L18.039 27.81C17.6795 27.4356 17.2527 27.017 17.3201 26.5434C17.3875 26.2791 17.5447 26.1029 17.8031 26.0148C18.6343 25.6403 19.2297 25.442 19.7464 25.6733L19.9149 25.7614L19.9598 25.7064L20.0272 25.431C19.9823 25.1997 19.8587 25.0125 19.6565 24.8914L19.3532 24.7041C18.8815 24.4288 18.7916 24.2305 18.8702 23.6137C18.8927 23.4265 18.8927 23.2503 18.8702 23.063L18.8141 22.6776L19.196 22.6225C21.3864 22.259 23.5769 22.2811 25.7673 22.6886L26.1155 22.7547L26.0818 23.1071C26.0594 23.2723 26.0594 23.4375 26.0818 23.6027C26.1492 24.2195 26.0818 24.4178 25.5988 24.6931L25.2955 24.8693C25.0933 24.9905 24.9698 25.1777 24.9248 25.42L24.9922 25.6954L25.0484 25.7614L25.2169 25.6733C25.7111 25.442 26.329 25.6733 27.1714 26.0148C27.4298 26.1029 27.5871 26.2791 27.6432 26.5434C27.7331 27.017 27.3175 27.4356 26.9243 27.81L26.6547 28.0964L26.4862 28.3056C26.0144 29.0986 25.0596 34.2311 25.4977 34.8148C25.6325 34.947 25.7111 35.1012 25.7561 35.2774V37.3701C25.8235 37.9648 25.6887 38.5155 25.3517 39.0111L25.2618 39.1763L25.2843 39.1873ZM22.33 38.1631C23.1612 38.1631 23.9813 38.2181 24.8125 38.3283C24.9136 38.0199 24.9585 37.7005 24.9473 37.3701V35.3105C23.9363 34.4294 25.3741 28.559 25.7448 27.9532L25.8235 27.8431L25.992 27.6008L26.3402 27.2263L26.8007 26.6976C26.1829 26.4223 25.7336 26.2461 25.4977 26.3452L25.3404 26.4223L24.9585 26.5434C24.7002 26.5214 24.5092 26.4003 24.3632 26.18C24.1385 25.9267 24.0486 25.6293 24.0936 25.2878C24.161 24.8143 24.3969 24.4508 24.8125 24.1975L25.1495 23.9882L25.2955 23.9001L25.2618 23.6578V23.3494C23.3971 23.041 21.5212 23.019 19.6453 23.2943V23.6578C19.6453 23.7459 19.6453 23.845 19.6453 23.9331L19.7689 23.9882L20.1171 24.1975C20.5215 24.4508 20.7574 24.8143 20.836 25.2878C20.8809 25.6293 20.8023 25.9267 20.5664 26.18C20.4204 26.3892 20.2182 26.5104 19.9711 26.5434L19.5891 26.4223L19.4319 26.3452C19.196 26.235 18.713 26.4333 18.1401 26.6866L18.6006 27.2153L18.9376 27.5897L19.196 27.9532C19.5554 28.559 20.9933 34.4294 20.0048 35.3545V37.3701C19.9935 37.6895 20.0272 37.9868 20.1171 38.2952C20.8922 38.2071 21.656 38.1631 22.4423 38.1631" fill="#01352C"/>
<path d="M22.33 38.1631C23.1612 38.1631 23.9813 38.2181 24.8125 38.3283C24.9136 38.0199 24.9585 37.7005 24.9473 37.3701V35.3105C23.9363 34.4294 25.3741 28.559 25.7448 27.9532L25.8235 27.8431L25.992 27.6008L26.3402 27.2263L26.8007 26.6976C26.1829 26.4223 25.7336 26.2461 25.4977 26.3452L25.3404 26.4223L24.9585 26.5434C24.7002 26.5214 24.5092 26.4003 24.3632 26.18C24.1385 25.9267 24.0486 25.6293 24.0936 25.2878C24.161 24.8143 24.3969 24.4508 24.8125 24.1975L25.1495 23.9882L25.2955 23.9001L25.2618 23.6578V23.3494C23.3971 23.041 21.5212 23.019 19.6453 23.2943V23.6578C19.6453 23.7459 19.6453 23.845 19.6453 23.9331L19.7689 23.9882L20.1171 24.1975C20.5215 24.4508 20.7574 24.8143 20.836 25.2878C20.8809 25.6293 20.8023 25.9267 20.5664 26.18C20.4204 26.3892 20.2182 26.5104 19.9711 26.5434L19.5891 26.4223L19.4319 26.3452C19.196 26.235 18.713 26.4333 18.1401 26.6866L18.6006 27.2153L18.9376 27.5897L19.196 27.9532C19.5554 28.559 20.9933 34.4294 20.0048 35.3545V37.3701C19.9935 37.6895 20.0272 37.9868 20.1171 38.2952C20.8922 38.2071 21.656 38.1631 22.4423 38.1631M25.2843 39.1873H25.0596C23.3522 38.934 21.6448 38.923 19.9374 39.1543H19.7015L19.5667 38.9671C19.2746 38.4714 19.1623 37.9538 19.2072 37.3811V35.3545C19.2297 35.1453 19.3195 34.969 19.4768 34.8259C19.9261 34.2421 18.9601 29.1097 18.522 28.3827L18.3198 28.0964L18.039 27.81C17.6795 27.4356 17.2527 27.017 17.3201 26.5434C17.3875 26.2791 17.5447 26.1029 17.8031 26.0148C18.6343 25.6403 19.2297 25.442 19.7464 25.6733L19.9149 25.7614L19.9598 25.7064L20.0272 25.431C19.9823 25.1997 19.8587 25.0125 19.6565 24.8914L19.3532 24.7041C18.8815 24.4288 18.7916 24.2305 18.8702 23.6137C18.8927 23.4265 18.8927 23.2503 18.8702 23.063L18.8141 22.6776L19.196 22.6225C21.3864 22.259 23.5769 22.2811 25.7673 22.6886L26.1155 22.7547L26.0818 23.1071C26.0594 23.2723 26.0594 23.4375 26.0818 23.6027C26.1492 24.2195 26.0818 24.4178 25.5988 24.6931L25.2955 24.8693C25.0933 24.9905 24.9698 25.1777 24.9248 25.42L24.9922 25.6954L25.0484 25.7614L25.2169 25.6733C25.7111 25.442 26.329 25.6733 27.1714 26.0148C27.4298 26.1029 27.5871 26.2791 27.6432 26.5434C27.7331 27.017 27.3175 27.4356 26.9243 27.81L26.6547 28.0964L26.4862 28.3056C26.0144 29.0986 25.0596 34.2311 25.4977 34.8148C25.6325 34.947 25.7111 35.1012 25.7561 35.2774V37.3701C25.8235 37.9648 25.6887 38.5155 25.3517 39.0111L25.2618 39.1763L25.2843 39.1873Z" stroke="#02352C" stroke-width="0.3" stroke-miterlimit="10"/>
<path fill-rule="evenodd" clip-rule="evenodd" d="M19.8477 75.2908V38.5155C21.5663 38.2952 23.285 38.3062 25.0036 38.5485V75.423C23.2962 75.1366 21.5775 75.0925 19.8477 75.2908Z" fill="#CBDAD8" stroke="#02352C" stroke-width="0.3" stroke-miterlimit="10"/>
<path fill-rule="evenodd" clip-rule="evenodd" d="M19.4434 75.2687V38.5155C19.4434 38.2842 19.5557 38.152 19.7916 38.13L20.4094 38.0639L21.0834 38.0088C22.4089 37.9317 23.7231 37.9868 25.0374 38.174C25.2845 38.2071 25.3969 38.3503 25.3744 38.6036V75.445C25.3744 75.5551 25.3407 75.6432 25.2621 75.7203C25.1834 75.7974 25.0936 75.8415 24.9812 75.8415H24.9026C24.0264 75.6652 23.1503 75.5881 22.2516 75.5881C21.4091 75.5881 20.5891 75.6432 19.8478 75.6983C19.7354 75.6983 19.6456 75.6763 19.5557 75.6102C19.4771 75.5441 19.4209 75.445 19.4209 75.3458L19.4434 75.2908V75.2687ZM20.2409 38.8789V74.8722C20.87 74.8282 21.5552 74.7951 22.2853 74.7951C23.0604 74.7951 23.8467 74.8502 24.6106 74.9714V38.8789C23.4648 38.7357 22.319 38.6917 21.162 38.7688L20.5105 38.8239L20.2409 38.8899V38.8789Z" fill="#01352C" stroke="#02352C" stroke-width="0.3" stroke-miterlimit="10"/>
<path fill-rule="evenodd" clip-rule="evenodd" d="M12.3438 90.4568L12.0518 90.3357V88.2871H12.692H32.1476H32.7879V90.3357L32.4959 90.4568H12.3438Z" fill="#CBDAD8" stroke="#02352C" stroke-width="0.3" stroke-miterlimit="10"/>
<path fill-rule="evenodd" clip-rule="evenodd" d="M12.1642 90.8093L11.9058 90.6992L11.6587 90.3137V88.2871C11.6587 88.177 11.6924 88.0889 11.771 88.0118C11.8497 87.9347 11.9395 87.8906 12.0518 87.8906H32.7543C32.8666 87.8906 32.9565 87.9347 33.0351 88.0118C33.1138 88.0889 33.1475 88.188 33.1475 88.2981V90.3467L32.9003 90.7102L32.6195 90.8313H12.1642V90.8093ZM12.445 88.6726V90.0493H32.3836V88.6726H12.445Z" fill="#01352C" stroke="#02352C" stroke-width="0.3" stroke-miterlimit="10"/>
<path fill-rule="evenodd" clip-rule="evenodd" d="M9.79397 100.061V99.5434L9.98493 99.224C10.0523 99.1139 9.78274 98.7724 9.8726 98.5522C9.96247 98.3319 10.0299 98.2988 9.96247 98.1006C9.89507 97.8913 10.0299 97.3957 9.8389 97.2856C9.73781 97.2085 9.68164 97.1094 9.68164 96.9772C9.68164 96.845 9.73781 96.7459 9.8389 96.6688C10.0636 96.5587 10.8386 96.4926 10.8386 96.1622C10.8386 95.7436 10.906 95.3361 11.0408 94.9286C11.1756 94.5762 11.5014 94.6312 11.5014 94.3339C11.5014 94.0365 11.1082 93.5188 11.3891 93.0893C11.6699 92.6597 11.9282 92.4835 12.2428 92.4615C12.5573 92.4395 12.2428 92.3954 12.2877 91.6465V90.479H32.4285C32.406 90.8645 32.406 91.261 32.4285 91.6465C32.4734 92.3954 32.1589 92.4615 32.4734 92.4615C32.788 92.4615 33.0351 92.6708 33.3271 93.0893C33.6192 93.5188 33.2148 94.0255 33.2148 94.3339C33.2148 94.6422 33.5406 94.5762 33.6754 94.9286C33.7989 95.3251 33.8663 95.7326 33.8663 96.1622C33.8663 96.4926 34.6414 96.5697 34.8661 96.6688C34.9784 96.7459 35.0233 96.845 35.0233 96.9772C35.0233 97.1094 34.9672 97.2085 34.8661 97.2856C34.6751 97.3957 34.8211 97.9023 34.7537 98.1006C34.6863 98.2988 34.7537 98.3319 34.8436 98.5522C34.9335 98.7835 34.6751 99.1249 34.7313 99.224L34.9222 99.5434V100.061H9.79397Z" fill="#CBDAD8" stroke="#02352C" stroke-width="0.3" stroke-miterlimit="10"/>
<path fill-rule="evenodd" clip-rule="evenodd" d="M9.40089 100.061V99.5434L9.46828 99.3232L9.59185 99.1139C9.46828 98.8826 9.45705 98.6513 9.54692 98.409L9.60308 98.2768V97.7922L9.69295 97.638L9.43459 97.3517L9.36719 96.9772L9.47952 96.6137L9.76034 96.3604L10.1086 96.2503C10.2995 96.1952 10.5242 96.2503 10.5242 96.1952C10.5242 95.9749 10.5467 95.7547 10.5691 95.5344V95.4132C10.6028 95.215 10.659 95.0167 10.7264 94.8295C10.805 94.6202 10.951 94.455 11.142 94.3339L11.0409 94.0255C10.8612 93.629 10.8724 93.2545 11.0971 92.88C11.2431 92.6598 11.4116 92.4725 11.6138 92.3073L11.962 92.1311C11.9508 91.9659 11.9508 91.7897 11.962 91.6245V90.49C11.962 90.3799 11.9957 90.2808 12.0743 90.2037C12.153 90.1266 12.2428 90.0825 12.3552 90.0825H32.5072C32.6195 90.0825 32.7094 90.1156 32.788 90.1927C32.8667 90.2698 32.9004 90.3579 32.9004 90.468V91.6024C32.9116 91.7676 32.9116 91.9439 32.9004 92.1091L33.2486 92.2853C33.4508 92.4505 33.6193 92.6377 33.7541 92.858C33.99 93.2655 33.99 93.6841 33.7541 94.0916L33.6979 94.2898C33.9001 94.4 34.0349 94.5652 34.1135 94.7854L34.1697 94.9617L34.2146 95.1599C34.282 95.4793 34.3157 95.8097 34.3157 96.1291C34.3157 96.1952 34.5629 96.1291 34.7313 96.1842L35.0908 96.2943L35.3716 96.5477V96.5807L35.4615 96.9221L35.3829 97.2966L35.1245 97.583L35.2144 97.7372V98.2328L35.2818 98.3649V98.42C35.3379 98.6513 35.3155 98.8826 35.2144 99.0919L35.3604 99.3232L35.4053 99.5324V100.05C35.4053 100.16 35.3716 100.248 35.293 100.325C35.2144 100.403 35.1245 100.436 35.0122 100.436H9.79404C9.68171 100.436 9.59185 100.403 9.51322 100.325C9.43459 100.248 9.40089 100.16 9.40089 100.05M10.1872 99.6426H34.6415L34.4955 99.4113C34.3831 99.213 34.3831 99.0258 34.4955 98.8275L34.5629 98.6954L34.5179 98.5852C34.3831 98.387 34.3719 98.1777 34.473 97.9684V97.7812C34.4056 97.4838 34.4842 97.2085 34.6976 96.9882L34.5629 96.9552C34.1248 96.845 33.5519 96.6908 33.5519 96.1401C33.5519 95.8648 33.5182 95.6005 33.462 95.3251L33.4283 95.1819V95.0718L33.3048 94.9396C33.0464 94.8185 32.9228 94.6092 32.9453 94.3339L33.0576 93.8603C33.125 93.673 33.2037 93.4528 33.125 93.3316C33.0352 93.1884 32.9228 93.0673 32.7993 92.9571L32.5858 92.869C32.1702 92.869 32.0467 92.7699 32.0691 92.3954V92.2192C32.1253 92.043 32.1365 91.8668 32.1253 91.6795V90.9086H12.7483V91.6795C12.7371 91.8668 12.7483 92.043 12.8045 92.2192V92.3954C12.8045 92.7699 12.7034 92.847 12.2878 92.869L12.0743 92.9571C11.9508 93.0673 11.8385 93.1884 11.7486 93.3316V93.7832C11.8272 93.9594 11.8722 94.1576 11.8946 94.3559C11.9059 94.6423 11.7935 94.8405 11.5352 94.9617L11.4116 95.0938L11.2993 95.5124V95.6115C11.2768 95.7987 11.2543 95.9749 11.2543 96.1622C11.2543 96.7129 10.6815 96.8781 10.2434 96.9772L10.1198 97.0102C10.3332 97.2415 10.4006 97.5059 10.3332 97.8032V97.9905C10.4231 98.2108 10.4006 98.409 10.2771 98.6072L10.2321 98.7174L10.2995 98.8496C10.4119 99.0478 10.4119 99.235 10.2995 99.4333L10.1984 99.6315L10.1872 99.6426ZM9.59185 99.1029L9.64801 99.0148L9.56938 99.1139H9.59185V99.1029ZM10.5579 95.3471L11.0184 95.0277C10.7601 94.9837 10.6028 95.0938 10.5579 95.3471ZM35.293 99.1139L35.2256 99.0148L35.2705 99.1029H35.293V99.1139Z" fill="#01352C"/>
<path d="M9.40089 100.061V99.5434L9.46828 99.3232L9.59185 99.1139M9.59185 99.1139C9.46828 98.8826 9.45705 98.6513 9.54692 98.409L9.60308 98.2768V97.7922L9.69295 97.638L9.43459 97.3517L9.36719 96.9772L9.47952 96.6137L9.76034 96.3604L10.1086 96.2503C10.2995 96.1952 10.5242 96.2503 10.5242 96.1952C10.5242 95.9749 10.5467 95.7547 10.5691 95.5344V95.4132C10.6028 95.215 10.659 95.0167 10.7264 94.8295C10.805 94.6202 10.951 94.455 11.142 94.3339L11.0409 94.0255C10.8612 93.629 10.8724 93.2545 11.0971 92.88C11.2431 92.6598 11.4116 92.4725 11.6138 92.3073L11.962 92.1311C11.9508 91.9659 11.9508 91.7897 11.962 91.6245V90.49C11.962 90.3799 11.9957 90.2808 12.0743 90.2037C12.153 90.1266 12.2428 90.0825 12.3552 90.0825H32.5072C32.6195 90.0825 32.7094 90.1156 32.788 90.1927C32.8667 90.2698 32.9004 90.3579 32.9004 90.468V91.6024C32.9116 91.7676 32.9116 91.9439 32.9004 92.1091L33.2486 92.2853C33.4508 92.4505 33.6193 92.6377 33.7541 92.858C33.99 93.2655 33.99 93.6841 33.7541 94.0916L33.6979 94.2898C33.9001 94.4 34.0349 94.5652 34.1135 94.7854L34.1697 94.9617L34.2146 95.1599C34.282 95.4793 34.3157 95.8097 34.3157 96.1291C34.3157 96.1952 34.5629 96.1291 34.7313 96.1842L35.0908 96.2943L35.3716 96.5477V96.5807L35.4615 96.9221L35.3829 97.2966L35.1245 97.583L35.2144 97.7372V98.2328L35.2818 98.3649V98.42C35.3379 98.6513 35.3155 98.8826 35.2144 99.0919L35.3604 99.3232L35.4053 99.5324V100.05C35.4053 100.16 35.3716 100.248 35.293 100.325C35.2144 100.403 35.1245 100.436 35.0122 100.436H9.79404C9.68171 100.436 9.59185 100.403 9.51322 100.325C9.43459 100.248 9.40089 100.16 9.40089 100.05M9.59185 99.1139H9.56938L9.64801 99.0148L9.59185 99.1029V99.1139ZM10.1872 99.6426H34.6415L34.4955 99.4113C34.3831 99.213 34.3831 99.0258 34.4955 98.8275L34.5629 98.6954L34.5179 98.5852C34.3831 98.387 34.3719 98.1777 34.473 97.9684V97.7812C34.4056 97.4838 34.4842 97.2085 34.6976 96.9882L34.5629 96.9552C34.1248 96.845 33.5519 96.6908 33.5519 96.1401C33.5519 95.8648 33.5182 95.6005 33.462 95.3251L33.4283 95.1819V95.0718L33.3048 94.9396C33.0464 94.8185 32.9228 94.6092 32.9453 94.3339L33.0576 93.8603C33.125 93.673 33.2037 93.4528 33.125 93.3316C33.0352 93.1884 32.9228 93.0673 32.7993 92.9571L32.5858 92.869C32.1702 92.869 32.0467 92.7699 32.0691 92.3954V92.2192C32.1253 92.043 32.1365 91.8668 32.1253 91.6795V90.9086H12.7483V91.6795C12.7371 91.8668 12.7483 92.043 12.8045 92.2192V92.3954C12.8045 92.7699 12.7034 92.847 12.2878 92.869L12.0743 92.9571C11.9508 93.0673 11.8385 93.1884 11.7486 93.3316V93.7832C11.8272 93.9594 11.8722 94.1576 11.8946 94.3559C11.9059 94.6423 11.7935 94.8405 11.5352 94.9617L11.4116 95.0938L11.2993 95.5124V95.6115C11.2768 95.7987 11.2543 95.9749 11.2543 96.1622C11.2543 96.7129 10.6815 96.8781 10.2434 96.9772L10.1198 97.0102C10.3332 97.2415 10.4006 97.5059 10.3332 97.8032V97.9905C10.4231 98.2108 10.4006 98.409 10.2771 98.6072L10.2321 98.7174L10.2995 98.8496C10.4119 99.0478 10.4119 99.235 10.2995 99.4333L10.1984 99.6315L10.1872 99.6426ZM10.5579 95.3471L11.0184 95.0277C10.7601 94.9837 10.6028 95.0938 10.5579 95.3471ZM35.293 99.1139L35.2256 99.0148L35.2705 99.1029H35.293V99.1139Z" stroke="#02352C" stroke-width="0.3" stroke-miterlimit="10"/>
<path fill-rule="evenodd" clip-rule="evenodd" d="M8.77173 102.936H7.6709V100.061H9.79394H35.0458H36.405H37.1688V102.936H36.7307H36.068H8.77173Z" fill="#CBDAD8" stroke="#02352C" stroke-width="0.3" stroke-miterlimit="10"/>
<path fill-rule="evenodd" clip-rule="evenodd" d="M8.78305 103.332H7.68222C7.56989 103.332 7.48002 103.288 7.40139 103.211C7.32276 103.134 7.28906 103.035 7.28906 102.924V100.05C7.28906 99.9397 7.32276 99.8516 7.40139 99.7635C7.48002 99.6864 7.56989 99.6423 7.68222 99.6423H37.1801C37.2925 99.6423 37.3823 99.6864 37.461 99.7635C37.5396 99.8406 37.5733 99.9397 37.5733 100.05V102.891C37.5733 103.002 37.5396 103.09 37.461 103.178C37.3823 103.255 37.2925 103.299 37.1801 103.299H8.77182V103.332H8.78305ZM8.07537 102.539H36.787V100.446H8.07537V102.539Z" fill="#01352C" stroke="#02352C" stroke-width="0.3" stroke-miterlimit="10"/>
<path d="M37.8542 102.936H6.97461V105.061H37.8542V102.936Z" fill="#CBDAD8" stroke="#02352C" stroke-width="0.3" stroke-miterlimit="10"/>
<path fill-rule="evenodd" clip-rule="evenodd" d="M6.58154 105.061V102.936C6.58154 102.825 6.61524 102.737 6.69387 102.649C6.7725 102.572 6.86237 102.528 6.9747 102.528H37.8543C38.1126 102.528 38.2474 102.66 38.2587 102.925V105.05C38.2587 105.16 38.2137 105.249 38.1351 105.326C38.0565 105.403 37.9666 105.436 37.8543 105.436H6.98593C6.8736 105.436 6.78374 105.403 6.70511 105.326C6.62648 105.249 6.59278 105.16 6.59278 105.05M7.39032 103.332V104.665H37.4386V103.332H7.39032Z" fill="#01352C"/>
<path d="M6.58154 105.061V102.936C6.58154 102.825 6.61524 102.737 6.69387 102.649C6.7725 102.572 6.86237 102.528 6.9747 102.528H37.8543C38.1126 102.528 38.2474 102.66 38.2587 102.925V105.05C38.2587 105.16 38.2137 105.249 38.1351 105.326C38.0565 105.403 37.9666 105.436 37.8543 105.436H6.98593C6.8736 105.436 6.78374 105.403 6.70511 105.326C6.62648 105.249 6.59278 105.16 6.59278 105.05M7.39032 103.332V104.665H37.4386V103.332H7.39032Z" stroke="#02352C" stroke-width="0.3" stroke-miterlimit="10"/>
<path d="M41.089 105.061H3.76172V107.033H41.089V105.061Z" fill="#CBDAD8" stroke="#02352C" stroke-width="0.3" stroke-miterlimit="10"/>
<path fill-rule="evenodd" clip-rule="evenodd" d="M3.36865 106.978V105.05C3.36865 104.94 3.40235 104.852 3.48098 104.775C3.55961 104.698 3.64948 104.654 3.76181 104.654H41.0891C41.2015 104.654 41.2913 104.698 41.37 104.775C41.4486 104.852 41.4823 104.951 41.4823 105.061V107.011C41.4823 107.121 41.4486 107.209 41.37 107.297C41.2913 107.374 41.2015 107.418 41.0891 107.418H3.76181C3.64948 107.418 3.55961 107.374 3.48098 107.297C3.40235 107.22 3.36865 107.132 3.36865 107.022V107V106.978ZM4.15496 106.262V106.636H40.6847V105.458H4.15496V106.273V106.262Z" fill="#01352C" stroke="#02352C" stroke-width="0.3" stroke-miterlimit="10"/>
<path d="M17.4774 79.5091L17.6683 80.1369H17.7357L18.1176 79.8175L18.1626 79.3219L17.8368 78.9364L17.3426 78.8813H17.2752C17.0954 78.9364 16.9719 79.0355 16.882 79.1897C16.7921 79.3439 16.7809 79.5091 16.8371 79.6854C16.8932 79.8616 16.9943 79.9827 17.1516 80.0708C17.3089 80.1589 17.4774 80.17 17.6458 80.1259H17.7132L18.0952 79.8065L18.1401 79.3219L17.8143 78.9364L17.3201 78.8813H17.2527C17.073 78.9364 16.9494 79.0355 16.8595 79.1897C16.7697 79.3439 16.7584 79.5091 16.8146 79.6854C16.8708 79.8616 16.9719 79.9827 17.1291 80.0708C17.2864 80.1589 17.4549 80.17 17.6234 80.1259L17.4324 79.4981L17.4774 79.5091Z" fill="#1E1F1C"/>
<path d="M17.6458 80.1259C17.4774 80.17 17.3089 80.1589 17.1516 80.0708C16.9943 79.9827 16.8932 79.8616 16.8371 79.6854C16.7809 79.5091 16.7921 79.3439 16.882 79.1897C16.9719 79.0355 17.0954 78.9364 17.2752 78.8813H17.3426L17.8368 78.9364L18.1626 79.3219L18.1176 79.8175L17.7357 80.1369H17.6683L17.4774 79.5091L17.4324 79.4981L17.6234 80.1259C17.4549 80.17 17.2864 80.1589 17.1291 80.0708C16.9719 79.9827 16.8708 79.8616 16.8146 79.6854C16.7584 79.5091 16.7697 79.3439 16.8595 79.1897C16.9494 79.0355 17.073 78.9364 17.2527 78.8813H17.3201L17.8143 78.9364L18.1401 79.3219L18.0952 79.8065L17.7132 80.1259H17.6458ZM17.6458 80.1259L17.4549 79.4981" stroke="#02352C" stroke-width="0.3" stroke-miterlimit="10"/>
<path fill-rule="evenodd" clip-rule="evenodd" d="M18.2074 78.1103C18.1175 77.879 18.0838 77.6147 18.5556 77.9011L18.2074 78.1103Z" fill="#7D6FB1" stroke="#02352C" stroke-width="0.3" stroke-miterlimit="10"/>
<path d="M18.2077 78.1104L18.8255 77.8791V77.8241L18.6233 77.8791H18.8255V77.8241L18.6233 77.8791H18.3088L18.7244 78.1875L18.8367 77.8791H18.32L18.7356 78.1875L18.2863 77.8571V78.4188L18.7356 78.1875L18.2863 77.8571V78.0994L18.1627 78.4078H18.2863V78.0884L18.1627 78.3968L18.2526 78.4518L18.6008 77.9012L18.2638 77.3394L17.9156 77.5487L18.2526 78.0994L18.6008 78.6501L18.949 78.4408C19.1625 78.3197 19.2636 78.1324 19.2636 77.8901C19.2636 77.6478 19.1737 77.4606 18.9603 77.3394C18.7581 77.1963 18.5447 77.1192 18.3088 77.1082C18.0616 77.1082 17.8707 77.2073 17.7134 77.3945C17.6011 77.5377 17.5562 77.6919 17.5562 77.8681C17.5562 78.0223 17.5899 78.1765 17.6572 78.3197C17.7246 78.5069 17.8594 78.6391 18.0504 78.7052C18.2414 78.7712 18.4323 78.7492 18.6121 78.6391L18.2526 78.0994L18.2077 78.1104Z" fill="#1E1F1C"/>
<path d="M18.8255 77.8791L18.2077 78.1104L18.2526 78.0994M18.8255 77.8791V77.8241L18.6233 77.8791M18.8255 77.8791H18.6233M18.6233 77.8791H18.3088L18.7244 78.1875L18.8367 77.8791H18.32L18.7356 78.1875M18.7356 78.1875L18.2863 77.8571M18.7356 78.1875L18.2863 78.4188V77.8571M18.2863 77.8571V78.0994L18.1627 78.4078H18.2863V78.0884L18.1627 78.3968L18.2526 78.4518L18.6008 77.9012L18.2638 77.3394L17.9156 77.5487L18.2526 78.0994M18.2526 78.0994L18.8704 77.8681M18.2526 78.0994L18.6008 78.6501L18.949 78.4408C19.1625 78.3197 19.2636 78.1324 19.2636 77.8901C19.2636 77.6478 19.1737 77.4606 18.9603 77.3394C18.7581 77.1963 18.5447 77.1192 18.3088 77.1082C18.0616 77.1082 17.8707 77.2073 17.7134 77.3945C17.6011 77.5377 17.5562 77.6919 17.5562 77.8681C17.5562 78.0223 17.5899 78.1765 17.6572 78.3197C17.7246 78.5069 17.8594 78.6391 18.0504 78.7052C18.2414 78.7712 18.4323 78.7492 18.6121 78.6391L18.2526 78.0994Z" stroke="#02352C" stroke-width="0.3" stroke-miterlimit="10"/>
<path fill-rule="evenodd" clip-rule="evenodd" d="M26.2505 77.8791L26.6661 77.5927C27.1267 77.3284 27.43 76.9319 27.5648 76.4253C27.6771 76.172 27.6771 75.9076 27.5648 75.6543C27.1042 74.9494 27.3738 76.0728 26.7448 75.5662C26.2168 74.7732 25.8798 73.9141 25.7226 72.9779C25.6889 72.6475 25.6889 72.3061 25.7226 71.9757H26.8459C27.0818 73.0881 27.576 74.0683 28.3286 74.9164C29.0475 75.5442 29.0026 77.5487 28.3286 78.1214C27.6547 78.7051 27.8119 79.0245 27.7333 79.7735C28.3736 80.5445 28.8566 81.3925 29.216 82.3287V83.9588H29.8339V85.2474H31.7659C31.8221 85.2474 31.867 85.3465 31.9794 85.5778C32.0692 85.776 32.2153 85.9082 32.4287 85.9853C32.6309 86.0624 32.8331 86.0514 33.0353 85.9633C33.4397 85.71 33.552 85.8752 33.3498 86.3818C33.1476 86.8884 32.1479 87.2739 32.1479 87.2739V88.2982H12.6923V87.2739C12.6923 87.2739 11.6925 86.8884 11.4903 86.3818C11.2881 85.8752 11.4005 85.71 11.8049 85.9633C12.5238 86.4148 12.726 85.5337 13.063 85.2584H14.995V83.9588H15.6129V82.3617C15.9386 81.4916 16.489 80.1259 17.309 79.6083C17.1967 78.8373 17.4551 78.562 16.7025 77.9011C15.9498 77.2403 16.0285 75.3129 16.7025 74.6961C17.2529 73.837 17.6573 72.9229 17.9381 71.9426H19.3647C19.3871 72.207 19.3871 72.4823 19.3647 72.7466C19.2187 73.6938 18.8817 74.5639 18.3425 75.3569C17.7134 75.8636 17.983 74.7402 17.5337 75.4561C17.4101 75.7094 17.4101 75.9627 17.5337 76.227C17.6685 76.7447 17.9718 77.1302 18.4436 77.3945C18.6458 77.4936 18.8255 77.6258 18.9715 77.802C21.0272 77.4165 24.3409 76.9649 26.2842 77.8791" fill="#CBDAD8"/>
<path d="M26.2505 77.8791L26.6661 77.5927C27.1267 77.3284 27.43 76.9319 27.5648 76.4253C27.6771 76.172 27.6771 75.9076 27.5648 75.6543C27.1042 74.9494 27.3738 76.0728 26.7448 75.5662C26.2168 74.7732 25.8798 73.9141 25.7226 72.9779C25.6889 72.6475 25.6889 72.3061 25.7226 71.9757H26.8459C27.0818 73.0881 27.576 74.0683 28.3286 74.9164C29.0475 75.5442 29.0026 77.5487 28.3286 78.1214C27.6547 78.7051 27.8119 79.0245 27.7333 79.7735C28.3736 80.5445 28.8566 81.3925 29.216 82.3287V83.9588H29.8339V85.2474H31.7659C31.8221 85.2474 31.867 85.3465 31.9794 85.5778C32.0692 85.776 32.2153 85.9082 32.4287 85.9853C32.6309 86.0624 32.8331 86.0514 33.0353 85.9633C33.4397 85.71 33.552 85.8752 33.3498 86.3818C33.1476 86.8884 32.1479 87.2739 32.1479 87.2739V88.2982H12.6923V87.2739C12.6923 87.2739 11.6925 86.8884 11.4903 86.3818C11.2881 85.8752 11.4005 85.71 11.8049 85.9633C12.5238 86.4148 12.726 85.5337 13.063 85.2584H14.995V83.9588H15.6129V82.3617C15.9386 81.4916 16.489 80.1259 17.309 79.6083C17.1967 78.8373 17.4551 78.562 16.7025 77.9011C15.9498 77.2403 16.0285 75.3129 16.7025 74.6961C17.2529 73.837 17.6573 72.9229 17.9381 71.9426H19.3647C19.3871 72.207 19.3871 72.4823 19.3647 72.7466C19.2187 73.6938 18.8817 74.5639 18.3425 75.3569C17.7134 75.8636 17.983 74.7402 17.5337 75.4561C17.4101 75.7094 17.4101 75.9627 17.5337 76.227C17.6685 76.7447 17.9718 77.1302 18.4436 77.3945C18.6458 77.4936 18.8255 77.6258 18.9715 77.802C21.0272 77.4165 24.3409 76.9649 26.2842 77.8791" stroke="#02352C" stroke-width="0.3" stroke-miterlimit="10"/>
<path fill-rule="evenodd" clip-rule="evenodd" d="M26.5538 78.1104L26.1045 78.1875C24.9924 77.758 23.8579 77.6038 22.6672 77.7029C21.4428 77.758 20.2409 77.9011 19.0389 78.1434L18.6345 77.9893L18.3874 77.78L18.32 77.7359L18.2414 77.6919C17.7022 77.4165 17.3427 76.976 17.1743 76.4033V76.3372C17.0732 76.1059 17.0395 75.8746 17.0619 75.6323L17.1069 75.4561L17.1743 75.3019V75.2578C17.4775 74.7732 17.7359 74.7402 17.983 74.8944L18.1178 75.0265C18.4099 74.5309 18.6458 74.0022 18.7918 73.4515L18.9041 73.055L18.9491 72.7687V72.3612H18.2302C17.9943 73.0771 17.7022 73.782 17.354 74.4538L17.1743 74.7622L17.0058 74.9715L16.9159 75.0816C16.7025 75.4561 16.6014 75.8636 16.6238 76.2931C16.5901 76.7557 16.7025 77.1742 16.9721 77.5487V77.5817C17.5 77.9342 17.7359 78.4298 17.691 79.0576C17.691 79.2118 17.691 79.366 17.691 79.5312L17.5112 79.9167C17.1181 80.203 16.8148 80.5665 16.6014 81.0071C16.3655 81.4696 16.1633 81.9432 15.9948 82.4278V83.9367C15.9948 84.0469 15.9499 84.135 15.8712 84.2121C15.7926 84.2892 15.7027 84.3222 15.5904 84.3222H15.3657V85.2364C15.3657 85.3465 15.3208 85.4346 15.2422 85.5117C15.1635 85.5888 15.0737 85.6219 14.9613 85.6219H13.209L13.1191 85.743C12.8495 86.1175 12.5799 86.525 12.0857 86.4479C12.3104 86.6131 12.5462 86.7453 12.8046 86.8444L13.0854 87.2299V87.8687H31.6873V87.2519L31.9457 86.8774C32.2377 86.7563 32.5073 86.6021 32.7545 86.4149C32.5635 86.4259 32.3838 86.4038 32.2153 86.3267C31.9794 86.2276 31.7884 86.0624 31.6424 85.8532L31.5974 85.765V85.71H31.6985H29.8339C29.7215 85.71 29.6317 85.6659 29.553 85.5888C29.4744 85.5117 29.4407 85.4126 29.4407 85.3025V84.3112H29.2273C29.115 84.3112 29.0251 84.2782 28.9465 84.2011C28.8678 84.124 28.8341 84.0359 28.8341 83.9257V82.3618C28.5645 81.7119 28.2388 81.0952 27.8681 80.4894L27.6547 80.203L27.5086 80.0488L27.3626 79.6854V79.2558C27.3064 78.6281 27.5536 78.1324 28.0815 77.78L28.1152 77.7359C28.3623 77.3615 28.4747 76.9429 28.4522 76.4914C28.4859 76.0178 28.3736 75.5882 28.104 75.2027L28.059 75.1587C27.4749 74.5419 27.0481 73.826 26.7785 73.033C26.7111 72.8678 26.6549 72.6916 26.5988 72.5154L26.5314 72.3061H26.0933V72.8788C26.2168 73.5727 26.4303 74.2335 26.756 74.8613L26.902 75.1256V75.1697L27.0256 75.0596C27.284 74.8944 27.5311 74.9274 27.8344 75.423C27.9916 75.6984 28.0253 75.9957 27.9467 76.3041L27.913 76.4363L27.8681 76.5464V76.6125C27.6996 77.1852 27.3514 77.6148 26.8234 77.9011L26.5763 78.0553H26.5426L26.5201 78.0994L26.5538 78.1104ZM26.1831 77.4276L26.4864 77.2403C26.8234 77.0421 27.0368 76.7667 27.1379 76.3922L27.1829 76.2711V76.1059C26.9919 76.205 26.756 76.194 26.419 75.9076L26.1944 75.6323L26.0034 75.3019C25.6552 74.586 25.4193 73.826 25.2845 73.033V72.6806C25.2845 72.4383 25.2845 72.207 25.3182 71.9757C25.3182 71.8655 25.3744 71.7885 25.453 71.7224C25.5316 71.6563 25.6215 71.6232 25.7338 71.6343H26.8346C27.0481 71.6343 27.1716 71.7334 27.2166 71.9426L27.3401 72.4162L27.5086 72.8788C27.7333 73.5617 28.0927 74.1564 28.587 74.6851L28.6993 74.7952C29.0476 75.3349 29.2273 75.9297 29.2273 76.5685C29.2273 77.2073 29.0476 77.802 28.6993 78.3417L28.587 78.4518C28.2612 78.6721 28.1152 78.9695 28.1489 79.366V79.6744L28.2612 79.7845L28.5196 80.137C28.9465 80.7978 29.3059 81.5027 29.598 82.2296V83.5953H29.8226C29.935 83.5953 30.0248 83.6394 30.1035 83.7165C30.1821 83.7936 30.2158 83.8817 30.2158 83.9918V84.8839H31.7547C32.058 84.8839 32.1254 85.0381 32.2939 85.3796V85.4346L32.5298 85.6219H32.7545L33.2038 85.4346L33.6082 85.5668L33.7767 85.9302C33.7767 86.1285 33.7317 86.3268 33.6531 86.514C33.3723 86.9766 32.9791 87.307 32.4849 87.5162V88.2872C32.4849 88.3974 32.4399 88.4855 32.3613 88.5626C32.2827 88.6397 32.1928 88.6727 32.0805 88.6727H12.6923C12.5799 88.6727 12.4901 88.6397 12.4115 88.5626C12.3328 88.4855 12.2991 88.3974 12.2991 88.2872V87.5162C11.8049 87.307 11.4117 86.9766 11.1309 86.514C11.041 86.3268 11.0073 86.1395 11.0073 85.9302L11.1646 85.5668L11.569 85.4346L12.0295 85.6219C12.2093 85.732 12.3553 85.5338 12.4901 85.3355L12.8271 84.928L13.0854 84.8289H14.6019V83.9147C14.6019 83.6614 14.7479 83.5292 15.0063 83.5292H15.2197V82.3397L15.2534 82.1855C15.4444 81.6569 15.669 81.1392 15.9274 80.6436C16.1745 80.17 16.489 79.7515 16.8934 79.41V79.0796C16.9271 78.6941 16.7811 78.3968 16.4553 78.1875L16.3542 78.0884C15.9611 77.5597 15.7814 76.965 15.8151 76.2931C15.8038 75.6984 15.9499 75.1477 16.2419 74.641L16.4553 74.3877L16.5227 74.3106L16.6575 74.0683C17.017 73.3414 17.3203 72.5925 17.5674 71.8215L17.9493 71.5461H19.3759C19.6231 71.5461 19.7578 71.6673 19.7691 71.9206V72.8238L19.7017 73.2092L19.5781 73.6608C19.3872 74.3877 19.0614 75.0596 18.6008 75.6543C18.2639 75.9297 18.028 75.9407 17.8482 75.8526L17.8932 76.0508L17.9381 76.161C18.0392 76.5354 18.2639 76.8218 18.6008 77.009L18.7132 77.0751L18.8255 77.1412L19.0839 77.3394C20.2633 77.1192 21.454 76.976 22.656 76.9319C23.8804 76.8438 25.0711 76.998 26.2281 77.3945" fill="#01352C"/>
<path d="M26.1831 77.4276L26.4864 77.2403C26.8234 77.0421 27.0368 76.7667 27.1379 76.3922L27.1829 76.2711V76.1059C26.9919 76.205 26.756 76.194 26.419 75.9076L26.1944 75.6323L26.0034 75.3019C25.6552 74.586 25.4193 73.826 25.2845 73.033V72.6806C25.2845 72.4383 25.2845 72.207 25.3182 71.9757C25.3182 71.8655 25.3744 71.7885 25.453 71.7224C25.5316 71.6563 25.6215 71.6232 25.7338 71.6343H26.8346C27.0481 71.6343 27.1716 71.7334 27.2166 71.9426L27.3401 72.4162L27.5086 72.8788C27.7333 73.5617 28.0927 74.1564 28.587 74.6851L28.6993 74.7952C29.0476 75.3349 29.2273 75.9297 29.2273 76.5685C29.2273 77.2073 29.0476 77.802 28.6993 78.3417L28.587 78.4518C28.2612 78.6721 28.1152 78.9695 28.1489 79.366V79.6744L28.2612 79.7845L28.5196 80.137C28.9465 80.7978 29.3059 81.5027 29.598 82.2296V83.5953H29.8226C29.935 83.5953 30.0248 83.6394 30.1035 83.7165C30.1821 83.7936 30.2158 83.8817 30.2158 83.9918V84.8839H31.7547C32.058 84.8839 32.1254 85.0381 32.2939 85.3796V85.4346L32.5298 85.6219H32.7545L33.2038 85.4346L33.6082 85.5668L33.7767 85.9302C33.7767 86.1285 33.7317 86.3268 33.6531 86.514C33.3723 86.9766 32.9791 87.307 32.4849 87.5162V88.2872C32.4849 88.3974 32.4399 88.4855 32.3613 88.5626C32.2827 88.6397 32.1928 88.6727 32.0805 88.6727H12.6923C12.5799 88.6727 12.4901 88.6397 12.4115 88.5626C12.3328 88.4855 12.2991 88.3974 12.2991 88.2872V87.5162C11.8049 87.307 11.4117 86.9766 11.1309 86.514C11.041 86.3268 11.0073 86.1395 11.0073 85.9302L11.1646 85.5668L11.569 85.4346L12.0295 85.6219C12.2093 85.732 12.3553 85.5338 12.4901 85.3355L12.8271 84.928L13.0854 84.8289H14.6019V83.9147C14.6019 83.6614 14.7479 83.5292 15.0063 83.5292H15.2197V82.3397L15.2534 82.1855C15.4444 81.6569 15.669 81.1392 15.9274 80.6436C16.1745 80.17 16.489 79.7515 16.8934 79.41V79.0796C16.9271 78.6941 16.7811 78.3968 16.4553 78.1875L16.3542 78.0884C15.9611 77.5597 15.7814 76.965 15.8151 76.2931C15.8038 75.6984 15.9499 75.1477 16.2419 74.641L16.4553 74.3877L16.5227 74.3106L16.6575 74.0683C17.017 73.3414 17.3203 72.5925 17.5674 71.8215L17.9493 71.5461H19.3759C19.6231 71.5461 19.7578 71.6673 19.7691 71.9206V72.8238L19.7017 73.2092L19.5781 73.6608C19.3872 74.3877 19.0614 75.0596 18.6008 75.6543C18.2639 75.9297 18.028 75.9407 17.8482 75.8526L17.8932 76.0508L17.9381 76.161C18.0392 76.5354 18.2639 76.8218 18.6008 77.009L18.7132 77.0751L18.8255 77.1412L19.0839 77.3394C20.2633 77.1192 21.454 76.976 22.656 76.9319C23.8804 76.8438 25.0711 76.998 26.2281 77.3945M31.7772 85.6329H31.6536M26.5538 78.1104L26.1045 78.1875C24.9924 77.758 23.8579 77.6038 22.6672 77.7029C21.4428 77.758 20.2409 77.9011 19.0389 78.1434L18.6345 77.9893L18.3874 77.78L18.32 77.7359L18.2414 77.6919C17.7022 77.4165 17.3427 76.976 17.1743 76.4033V76.3372C17.0732 76.1059 17.0395 75.8746 17.0619 75.6323L17.1069 75.4561L17.1743 75.3019V75.2578C17.4775 74.7732 17.7359 74.7402 17.983 74.8944L18.1178 75.0265C18.4099 74.5309 18.6458 74.0022 18.7918 73.4515L18.9041 73.055L18.9491 72.7687V72.3612H18.2302C17.9943 73.0771 17.7022 73.782 17.354 74.4538L17.1743 74.7622L17.0058 74.9715L16.9159 75.0816C16.7025 75.4561 16.6014 75.8636 16.6238 76.2931C16.5901 76.7557 16.7025 77.1742 16.9721 77.5487V77.5817C17.5 77.9342 17.7359 78.4298 17.691 79.0576C17.691 79.2118 17.691 79.366 17.691 79.5312L17.5112 79.9167C17.1181 80.203 16.8148 80.5665 16.6014 81.0071C16.3655 81.4696 16.1633 81.9432 15.9948 82.4278V83.9367C15.9948 84.0469 15.9499 84.135 15.8712 84.2121C15.7926 84.2892 15.7027 84.3222 15.5904 84.3222H15.3657V85.2364C15.3657 85.3465 15.3208 85.4346 15.2422 85.5117C15.1635 85.5888 15.0737 85.6219 14.9613 85.6219H13.209L13.1191 85.743C12.8495 86.1175 12.5799 86.525 12.0857 86.4479C12.3104 86.6131 12.5462 86.7453 12.8046 86.8444L13.0854 87.2299V87.8687H31.6873V87.2519L31.9457 86.8774C32.2377 86.7563 32.5073 86.6021 32.7545 86.4149C32.5635 86.4259 32.3838 86.4038 32.2153 86.3267C31.9794 86.2276 31.7884 86.0624 31.6424 85.8532L31.5974 85.765V85.71H31.6985H29.8339C29.7215 85.71 29.6317 85.6659 29.553 85.5888C29.4744 85.5117 29.4407 85.4126 29.4407 85.3025V84.3112H29.2273C29.115 84.3112 29.0251 84.2782 28.9465 84.2011C28.8678 84.124 28.8341 84.0359 28.8341 83.9257V82.3618C28.5645 81.7119 28.2388 81.0952 27.8681 80.4894L27.6547 80.203L27.5086 80.0488L27.3626 79.6854V79.2558C27.3064 78.6281 27.5536 78.1324 28.0815 77.78L28.1152 77.7359C28.3623 77.3615 28.4747 76.9429 28.4522 76.4914C28.4859 76.0178 28.3736 75.5882 28.104 75.2027L28.059 75.1587C27.4749 74.5419 27.0481 73.826 26.7785 73.033C26.7111 72.8678 26.6549 72.6916 26.5988 72.5154L26.5314 72.3061H26.0933V72.8788C26.2168 73.5727 26.4303 74.2335 26.756 74.8613L26.902 75.1256V75.1697L27.0256 75.0596C27.284 74.8944 27.5311 74.9274 27.8344 75.423C27.9916 75.6984 28.0253 75.9957 27.9467 76.3041L27.913 76.4363L27.8681 76.5464V76.6125C27.6996 77.1852 27.3514 77.6148 26.8234 77.9011L26.5763 78.0553H26.5426L26.5201 78.0994L26.5538 78.1104Z" stroke="#02352C" stroke-width="0.3" stroke-miterlimit="10"/>
<path fill-rule="evenodd" clip-rule="evenodd" d="M22.4198 111.394H1.49268V110.579L3.54832 107.033H41.2913L43.3469 110.579V111.394H22.4198Z" fill="#CBDAD8" stroke="#02352C" stroke-width="0.3" stroke-miterlimit="10"/>
<path fill-rule="evenodd" clip-rule="evenodd" d="M22.4423 111.802H1.49277C1.38043 111.802 1.29057 111.758 1.21194 111.681C1.13331 111.604 1.09961 111.504 1.09961 111.394V110.568L1.16701 110.337L3.21142 106.823L3.55964 106.625H41.3138L41.6733 106.857L43.7177 110.403L43.7626 110.601V111.427C43.7626 111.537 43.7289 111.626 43.6503 111.714C43.5717 111.791 43.4818 111.835 43.3695 111.835H22.4536V111.802H22.4423ZM1.88592 110.998H42.9538V110.667L41.0667 107.418H3.77307L1.88592 110.667V110.998Z" fill="#01352C" stroke="#02352C" stroke-width="0.3" stroke-miterlimit="10"/>
</g>
<defs>
<clipPath id="clip0_44_1265">
<rect width="43" height="112" fill="white" transform="translate(0.919922)"/>
</clipPath>
</defs>
</svg>
