<svg width="47" height="98" viewBox="0 0 47 98" fill="none" xmlns="http://www.w3.org/2000/svg">
<g clip-path="url(#clip0_44_2349)">
<path d="M40.7903 47.02H32.6903V47.62L33.3203 47.79C36.7103 34.69 35.9503 27.59 37.0303 17.98L36.3903 17.91V18.56H40.8003C40.9803 18.56 41.1303 18.5 41.2603 18.37C41.3903 18.24 41.4503 18.09 41.4503 17.91C41.4503 17.73 41.3903 17.58 41.2603 17.45C41.1303 17.32 40.9803 17.26 40.8003 17.26H36.3903C36.2203 17.26 36.0803 17.31 35.9503 17.42C35.8303 17.53 35.7603 17.67 35.7403 17.83C34.6503 27.65 35.4103 34.52 32.0603 47.46C32.0103 47.66 32.0603 47.85 32.1803 48.02C32.3103 48.18 32.4803 48.26 32.6903 48.27H40.7903C40.9503 48.25 41.0903 48.18 41.2003 48.06C41.3103 47.94 41.3603 47.79 41.3603 47.63C41.3603 47.47 41.3103 47.32 41.2003 47.2C41.0903 47.08 40.9603 47.01 40.7903 46.99V47.03V47.02Z" fill="#01352C"/>
<path d="M36.3003 48.31H44.4003C44.6103 48.31 44.7903 48.23 44.9203 48.06C45.0403 47.89 45.0803 47.7 45.0303 47.5C41.6903 34.57 42.4403 27.65 41.3503 17.87C41.3303 17.71 41.2603 17.57 41.1403 17.46C41.0203 17.35 40.8803 17.29 40.7103 17.29H36.3003C36.1203 17.29 35.9703 17.35 35.8403 17.48C35.7103 17.61 35.6503 17.76 35.6503 17.94C35.6503 18.12 35.7103 18.27 35.8403 18.4C35.9703 18.53 36.1203 18.59 36.3003 18.59H40.7103V17.94L40.0603 18.01C41.1403 27.62 40.3903 34.7 43.7803 47.82L44.4003 47.66V47.01H36.3003C36.1103 46.99 35.9403 47.04 35.7903 47.17C35.6403 47.3 35.5703 47.46 35.5703 47.66C35.5703 47.86 35.6403 48.02 35.7903 48.15C35.9403 48.28 36.1103 48.33 36.3003 48.31Z" fill="#01352C"/>
<path d="M46.0402 56.8802V56.2302H31.7002V48.3102H45.3902V56.8802H46.6802V47.6202C46.6802 47.4402 46.6202 47.2902 46.4902 47.1702C46.3602 47.0502 46.2102 46.9802 46.0402 46.9802H31.0602C30.8802 46.9802 30.7302 47.0402 30.6002 47.1702C30.4802 47.3002 30.4102 47.4502 30.4102 47.6202V56.8402C30.4102 57.0202 30.4702 57.1702 30.6002 57.3002C30.7302 57.4302 30.8802 57.4902 31.0602 57.4902H46.0402C46.2202 57.4902 46.3702 57.4302 46.4902 57.3002C46.6202 57.1702 46.6802 57.0202 46.6802 56.8402L46.0402 56.8802Z" fill="#01352C"/>
<path d="M7.03039 64.5901L7.96039 55.9801L7.32039 55.9101L7.63039 56.4701C8.70039 55.8401 9.61039 55.0301 10.3704 54.0501C11.1304 53.0701 11.6804 51.9801 12.0204 50.7901C12.4904 49.2601 12.7404 47.7001 12.7604 46.1001V45.7601H12.1104V46.4001H17.3704C17.5504 46.4001 17.7004 46.3401 17.8204 46.2101C17.9504 46.0901 18.0204 45.9301 18.0204 45.7501C18.0204 45.5701 17.9504 45.4201 17.8204 45.2901C17.6904 45.1701 17.5404 45.1001 17.3704 45.1001H15.8504C15.5604 45.1001 15.3704 45.2301 15.2604 45.5001C15.1504 45.7601 15.1904 46.0001 15.3904 46.2001C15.5204 46.3201 15.6704 46.3901 15.8504 46.3901H21.1004V45.7501H20.4504V46.0901C20.4504 47.6901 20.7004 49.2601 21.1904 50.7801C21.5304 51.9701 22.0804 53.0601 22.8404 54.0401C23.6004 55.0201 24.5104 55.8301 25.5804 56.4601L25.8904 55.9001L25.2504 55.9901L25.5904 58.3601C25.6104 58.5401 25.7004 58.6801 25.8404 58.7901C25.9804 58.9001 26.1404 58.9401 26.3204 58.9101C26.5004 58.8801 26.6404 58.8001 26.7504 58.6601C26.8604 58.5201 26.9004 58.3601 26.8704 58.1801L26.5304 55.8101C26.5004 55.6001 26.3904 55.4401 26.2104 55.3401C25.2904 54.7901 24.5004 54.1001 23.8404 53.2501C23.1804 52.4001 22.7104 51.4601 22.4204 50.4301C21.9804 49.0301 21.7604 47.6001 21.7404 46.1401V45.8701C21.7504 45.6801 21.6904 45.5201 21.5604 45.3901C21.4304 45.2601 21.2704 45.1901 21.0904 45.1901H15.8404C15.5504 45.1901 15.3604 45.3201 15.2504 45.5901C15.1404 45.8601 15.1804 46.0901 15.3804 46.2901C15.5104 46.4101 15.6604 46.4801 15.8404 46.4801H17.3604C17.5404 46.4801 17.6904 46.4201 17.8104 46.2901C17.9404 46.1701 18.0104 46.0101 18.0104 45.8301C18.0104 45.6501 17.9404 45.5001 17.8104 45.3701C17.6804 45.2501 17.5304 45.1801 17.3604 45.1801H12.1004C11.9204 45.1801 11.7604 45.2401 11.6404 45.3801C11.5104 45.5101 11.4504 45.6801 11.4504 45.8601V46.1301C11.4504 47.5901 11.2104 49.0201 10.7704 50.4201C10.4804 51.4501 10.0104 52.3901 9.35039 53.2401C8.70039 54.0901 7.91039 54.7901 6.99039 55.3301C6.79039 55.4401 6.68039 55.6101 6.66039 55.8301L5.73039 64.4301C5.71039 64.6101 5.76039 64.7701 5.87039 64.9101C5.98039 65.0501 6.13039 65.1301 6.31039 65.1501C6.49039 65.1701 6.64039 65.1201 6.78039 65.0101C6.92039 64.9001 7.00039 64.7501 7.01039 64.5801" fill="#01352C"/>
<path d="M13.3304 45.7902V49.4502C13.3104 49.6402 13.3604 49.8102 13.4904 49.9602C13.6204 50.1102 13.7804 50.1802 13.9804 50.1802C14.1804 50.1802 14.3404 50.1102 14.4704 49.9602C14.6004 49.8102 14.6504 49.6402 14.6304 49.4502V45.7902C14.6104 45.6302 14.5404 45.4902 14.4204 45.3802C14.3004 45.2702 14.1504 45.2202 13.9904 45.2202C13.8304 45.2202 13.6804 45.2702 13.5604 45.3802C13.4404 45.4902 13.3704 45.6202 13.3504 45.7902" fill="#01352C"/>
<path d="M15.9502 45.7901V49.4501C15.9502 49.6301 16.0102 49.7801 16.1402 49.9101C16.2702 50.0401 16.4202 50.1001 16.6002 50.1001C16.7802 50.1001 16.9302 50.0401 17.0602 49.9101C17.1902 49.7801 17.2502 49.6301 17.2502 49.4501V45.7901C17.2502 45.6101 17.1902 45.4601 17.0602 45.3301C16.9302 45.2001 16.7802 45.1401 16.6002 45.1401C16.4202 45.1401 16.2702 45.2001 16.1402 45.3301C16.0102 45.4601 15.9502 45.6101 15.9502 45.7901Z" fill="#01352C"/>
<path d="M18.5801 45.7901V49.4501C18.5801 49.6301 18.6401 49.7801 18.7701 49.9101C18.9001 50.0401 19.0501 50.1001 19.2301 50.1001C19.4101 50.1001 19.5601 50.0401 19.6901 49.9101C19.8201 49.7801 19.8801 49.6301 19.8801 49.4501V45.7901C19.8801 45.6101 19.8201 45.4601 19.6901 45.3301C19.5601 45.2001 19.4101 45.1401 19.2301 45.1401C19.0501 45.1401 18.9001 45.2001 18.7701 45.3301C18.6401 45.4601 18.5801 45.6101 18.5801 45.7901Z" fill="#01352C"/>
<path d="M19.4704 76.32H18.9904C15.4604 76.32 12.1004 77.09 8.9204 78.63C8.6804 78.75 8.5604 78.94 8.5704 79.2V88.65C8.5704 88.88 8.6704 89.05 8.8504 89.18C12.1004 91.16 15.6304 92.14 19.4404 92.12C19.6304 92.14 19.8004 92.09 19.9504 91.96C20.1004 91.83 20.1704 91.67 20.1704 91.47C20.1704 91.27 20.1004 91.11 19.9504 90.98C19.8004 90.85 19.6304 90.8 19.4404 90.82C16.9804 90.81 14.6004 90.34 12.3204 89.43C11.6204 89.15 10.9404 88.82 10.2904 88.45C10.0504 88.32 9.8704 88.21 9.7504 88.14L9.6204 88.06L9.2604 88.6H9.9104V79.15H9.2604L9.5504 79.73C12.5504 78.29 15.7104 77.57 19.0304 77.56H19.4404C19.6004 77.56 19.7504 77.49 19.8604 77.37C19.9804 77.25 20.0404 77.11 20.0504 76.95C20.0504 76.79 20.0104 76.64 19.9104 76.51C19.8104 76.38 19.6704 76.3 19.5104 76.28L19.4704 76.32Z" fill="#01352C"/>
<path d="M19.1904 77.6101H19.6104C22.9304 77.6201 26.0904 78.3401 29.0904 79.7801L29.3804 79.2001H28.7304V88.6501H29.4204L29.0604 88.1101C26.0404 89.9201 22.7704 90.8301 19.2504 90.8501C19.0604 90.8301 18.8904 90.8801 18.7404 91.0101C18.5904 91.1401 18.5204 91.3001 18.5204 91.5001C18.5204 91.7001 18.5904 91.8601 18.7404 91.9901C18.8904 92.1201 19.0604 92.1701 19.2504 92.1501C23.0604 92.1601 26.5804 91.1801 29.8404 89.2101C30.0304 89.0801 30.1204 88.9101 30.1204 88.6801V79.2301C30.1204 78.9701 30.0004 78.7801 29.7704 78.6601C26.5604 77.1001 23.1804 76.3301 19.6104 76.3301H19.1304C18.9504 76.3401 18.8004 76.4101 18.6804 76.5401C18.5604 76.6701 18.5004 76.8301 18.5104 77.0001C18.5204 77.1801 18.5904 77.3201 18.7204 77.4401C18.8504 77.5601 19.0104 77.6101 19.1804 77.6101" fill="#01352C"/>
<path d="M18.6304 76.9601V91.5101C18.6304 91.6901 18.6904 91.8401 18.8204 91.9701C18.9504 92.1001 19.1004 92.1601 19.2804 92.1601C19.4604 92.1601 19.6104 92.1001 19.7404 91.9701C19.8704 91.8401 19.9304 91.6901 19.9304 91.5101V76.9601C19.9304 76.7801 19.8704 76.6301 19.7404 76.5001C19.6104 76.3701 19.4604 76.3101 19.2804 76.3101C19.1004 76.3101 18.9504 76.3701 18.8204 76.5001C18.6904 76.6301 18.6304 76.7801 18.6304 76.9601Z" fill="#01352C"/>
<path d="M19.4401 72.1602V71.5202C19.3001 71.5202 19.1801 71.4702 19.0801 71.3602C18.9801 71.2602 18.9301 71.1402 18.9201 70.9902V65.5102C18.9201 65.3702 18.9701 65.2402 19.0701 65.1402C19.1701 65.0402 19.2901 64.9902 19.4401 64.9902C19.5801 64.9902 19.7001 65.0402 19.8001 65.1402C19.9001 65.2402 19.9501 65.3602 19.9501 65.5102V70.9902C19.9501 71.1302 19.9001 71.2502 19.8001 71.3502C19.7001 71.4502 19.5801 71.5002 19.4401 71.5102V72.8002C19.6801 72.8002 19.9101 72.7502 20.1301 72.6602C20.3501 72.5702 20.5501 72.4402 20.7101 72.2702C20.8801 72.1002 21.0101 71.9102 21.1001 71.6902C21.1901 71.4702 21.2401 71.2402 21.2401 71.0002V65.5202C21.2401 65.2802 21.1901 65.0502 21.1001 64.8302C21.0101 64.6102 20.8801 64.4102 20.7101 64.2402C20.5401 64.0702 20.3501 63.9402 20.1201 63.8502C19.8901 63.7602 19.6701 63.7102 19.4301 63.7102C19.1901 63.7102 18.9601 63.7602 18.7401 63.8502C18.5201 63.9402 18.3201 64.0702 18.1501 64.2402C17.9801 64.4102 17.8501 64.6002 17.7601 64.8302C17.6701 65.0502 17.6201 65.2802 17.6201 65.5202V71.0002C17.6201 71.2402 17.6701 71.4702 17.7601 71.6902C17.8501 71.9102 17.9801 72.1102 18.1501 72.2802C18.3201 72.4502 18.5101 72.5802 18.7401 72.6702C18.9701 72.7602 19.1901 72.8102 19.4301 72.8102V72.1602H19.4401Z" fill="#01352C"/>
<path d="M23.8403 70.4202V69.7702C23.7003 69.7702 23.5803 69.7202 23.4803 69.6202C23.3803 69.5202 23.3303 69.4002 23.3303 69.2602V67.2502C23.3303 67.1102 23.3803 66.9802 23.4803 66.8802C23.5803 66.7802 23.7003 66.7302 23.8403 66.7302C23.9803 66.7302 24.1103 66.7802 24.2103 66.8802C24.3103 66.9802 24.3603 67.1002 24.3603 67.2502V69.3102C24.3603 69.4502 24.3103 69.5702 24.2103 69.6702C24.1103 69.7702 23.9903 69.8202 23.8403 69.8202V71.1202C24.0803 71.1202 24.3103 71.0702 24.5303 70.9802C24.7503 70.8902 24.9503 70.7602 25.1203 70.5902C25.2903 70.4202 25.4203 70.2302 25.5103 70.0002C25.6003 69.7802 25.6503 69.5502 25.6503 69.3102V67.2502C25.6503 67.0102 25.6003 66.7802 25.5103 66.5602C25.4203 66.3402 25.2903 66.1402 25.1203 65.9702C24.9503 65.8002 24.7603 65.6702 24.5303 65.5802C24.3103 65.4902 24.0803 65.4402 23.8403 65.4402C23.6003 65.4402 23.3703 65.4902 23.1503 65.5802C22.9303 65.6702 22.7303 65.8002 22.5603 65.9702C22.3903 66.1402 22.2603 66.3302 22.1703 66.5602C22.0803 66.7802 22.0303 67.0102 22.0303 67.2502V69.3102C22.0303 69.5502 22.0803 69.7802 22.1703 70.0002C22.2603 70.2202 22.3903 70.4202 22.5603 70.5902C22.7303 70.7602 22.9203 70.8902 23.1503 70.9802C23.3703 71.0702 23.6003 71.1202 23.8403 71.1202V70.4202Z" fill="#01352C"/>
<path d="M15.0204 70.4202V71.0702C15.2604 71.0702 15.4904 71.0202 15.7104 70.9302C15.9304 70.8402 16.1304 70.7102 16.3004 70.5402C16.4704 70.3702 16.6004 70.1802 16.6904 69.9502C16.7804 69.7302 16.8304 69.5002 16.8304 69.2602V67.2502C16.8304 67.0102 16.7804 66.7802 16.6904 66.5602C16.6004 66.3402 16.4704 66.1402 16.3004 65.9702C16.1304 65.8002 15.9404 65.6702 15.7104 65.5802C15.4904 65.4902 15.2604 65.4402 15.0204 65.4402C14.7804 65.4402 14.5504 65.4902 14.3304 65.5802C14.1104 65.6702 13.9104 65.8002 13.7404 65.9702C13.5704 66.1402 13.4404 66.3302 13.3504 66.5602C13.2604 66.7802 13.2104 67.0102 13.2104 67.2502V69.3102C13.2104 69.5502 13.2604 69.7802 13.3504 70.0002C13.4404 70.2202 13.5704 70.4202 13.7404 70.5902C13.9104 70.7602 14.1004 70.8902 14.3304 70.9802C14.5504 71.0702 14.7804 71.1202 15.0204 71.1202V69.8202C14.8804 69.8202 14.7504 69.7702 14.6504 69.6702C14.5504 69.5702 14.5004 69.4502 14.5004 69.3102V67.2502C14.5004 67.1102 14.5504 66.9802 14.6504 66.8802C14.7504 66.7802 14.8704 66.7302 15.0204 66.7302C15.1704 66.7302 15.2804 66.7802 15.3804 66.8802C15.4804 66.9802 15.5304 67.1002 15.5304 67.2502V69.3102C15.5304 69.4502 15.4804 69.5702 15.3804 69.6702C15.2804 69.7702 15.1604 69.8202 15.0204 69.8202V70.4202Z" fill="#01352C"/>
<path d="M36.7202 97.3402H37.3602V71.6902C37.3602 71.4902 37.2902 71.3302 37.1402 71.2002C36.3002 70.3502 35.6702 69.3702 35.2202 68.2602C34.7802 67.1502 34.5702 66.0002 34.5902 64.8102C34.5902 64.6502 34.5302 64.5102 34.4302 64.3802C34.3202 64.2602 34.1902 64.1902 34.0302 64.1702C32.3902 64.1002 30.8402 63.7002 29.3702 62.9702C28.1402 62.1902 27.2202 60.9302 26.8902 58.2202C26.8602 57.8902 26.6702 57.7002 26.3402 57.6602H26.0702C24.7702 57.4202 23.5502 56.9802 22.4002 56.3302C21.6902 55.9402 21.0802 55.4102 20.5902 54.7602C20.0802 54.0702 19.8302 53.3002 19.8402 52.4402C19.8402 52.2602 19.7802 52.1102 19.6502 51.9802C19.5202 51.8602 19.3702 51.7902 19.1902 51.7902C19.0102 51.7902 18.8602 51.8502 18.7402 51.9802C18.6102 52.1102 18.5502 52.2602 18.5402 52.4402C18.5402 53.4302 18.2202 54.2902 17.5602 55.0202C16.6002 56.0402 15.4502 56.7502 14.1202 57.1602C13.6302 57.3302 13.1302 57.4702 12.6202 57.5802L12.1702 57.6702H12.0202C11.6902 57.7102 11.5002 57.9002 11.4602 58.2302C11.1402 60.9402 10.2002 62.2102 8.99023 62.9802C7.52023 63.7102 5.96023 64.1102 4.32023 64.1802C4.16023 64.2002 4.02023 64.2702 3.92023 64.3902C3.81023 64.5102 3.76023 64.6502 3.76023 64.8202C3.78023 66.5402 3.34023 68.1402 2.46023 69.6102C2.20023 70.0502 1.91023 70.4602 1.58023 70.8402L1.30023 71.1402L1.22023 71.2102C1.07023 71.3402 0.990234 71.5002 0.990234 71.7002V97.3502C0.990234 97.5302 1.05023 97.6802 1.18023 97.8002C1.31023 97.9302 1.46023 97.9902 1.64023 97.9902H36.7402C36.9202 97.9902 37.0702 97.9302 37.1902 97.8002C37.3102 97.6702 37.3802 97.5202 37.3802 97.3502H36.7402V96.6902H2.27023V71.6802H1.62023L2.04023 72.1602C3.02023 71.1902 3.78023 70.0602 4.30023 68.7802C4.82023 67.5002 5.07023 66.1702 5.05023 64.7802H4.40023L4.48023 65.4302C6.31023 65.3402 8.04023 64.8802 9.67023 64.0402C11.2602 63.0602 12.4302 61.3002 12.7502 58.3502L12.1002 58.2802L12.2002 58.9202C13.4902 58.7102 14.7302 58.3202 15.9202 57.7602C16.9302 57.2902 17.8102 56.6302 18.5502 55.8002C19.4002 54.8202 19.8202 53.6802 19.8102 52.3802C19.8102 52.2002 19.7502 52.0502 19.6202 51.9202C19.4902 51.8002 19.3402 51.7302 19.1602 51.7302C18.9802 51.7302 18.8302 51.7902 18.7102 51.9202C18.5802 52.0502 18.5202 52.2002 18.5102 52.3802C18.5102 53.6802 18.9202 54.8102 19.7702 55.8002C20.8802 57.0002 22.2102 57.8402 23.7702 58.3202C24.5402 58.5902 25.3202 58.7902 26.1202 58.9202L26.2102 58.2802L25.5602 58.3502C25.8902 61.2902 27.0502 63.0802 28.6402 64.0402C30.2702 64.8902 32.0102 65.3502 33.8402 65.4302L33.9202 64.7802H33.2702C33.2502 66.1602 33.5002 67.4902 34.0202 68.7702C34.5402 70.0502 35.3002 71.1802 36.2802 72.1502L36.7102 71.6702H36.0602V97.3202H36.7102L36.7202 97.3402Z" fill="#01352C"/>
<path d="M19.2501 41.3101H18.6301C18.6401 42.0801 18.4301 42.7801 17.9701 43.4101C17.9001 43.5301 17.8201 43.6301 17.7201 43.7301C17.6201 43.8301 17.5101 43.9101 17.3901 43.9801C17.2701 44.0501 17.1401 44.1001 17.0101 44.1301C16.8801 44.1601 16.7401 44.1801 16.6001 44.1801C16.4601 44.1801 16.3301 44.1601 16.1901 44.1301C16.0601 44.0901 15.9301 44.0401 15.8101 43.9801C15.6901 43.9101 15.5801 43.8301 15.4801 43.7301C15.3801 43.6301 15.3001 43.5301 15.2301 43.4101C14.8001 42.7801 14.5801 42.0801 14.5801 41.3101C14.5801 40.5401 14.8001 39.8401 15.2301 39.2101C15.3001 39.0901 15.3801 38.9901 15.4801 38.8901C15.5801 38.7901 15.6901 38.7101 15.8101 38.6401C15.9301 38.5701 16.0601 38.5201 16.1901 38.4901C16.3201 38.4501 16.4601 38.4401 16.6001 38.4401C16.7401 38.4401 16.8701 38.4601 17.0101 38.4901C17.1401 38.5201 17.2701 38.5801 17.3901 38.6401C17.5101 38.7101 17.6201 38.7901 17.7201 38.8901C17.8201 38.9901 17.9001 39.0901 17.9701 39.2101C18.4201 39.8401 18.6401 40.5401 18.6301 41.3101H19.9201C19.9301 40.2501 19.6301 39.2901 19.0201 38.4301C18.8901 38.2301 18.7301 38.0501 18.5601 37.8901C18.3801 37.7301 18.1901 37.5901 17.9801 37.4801C17.7701 37.3701 17.5501 37.2801 17.3201 37.2301C17.0901 37.1801 16.8601 37.1401 16.6201 37.1401C16.3801 37.1401 16.1501 37.1701 15.9201 37.2301C15.6901 37.2901 15.4701 37.3701 15.2601 37.4801C15.0501 37.5901 14.8601 37.7301 14.6801 37.8901C14.5001 38.0501 14.3501 38.2301 14.2201 38.4301C13.9201 38.8501 13.7001 39.3101 13.5401 39.8001C13.3801 40.2901 13.3101 40.7901 13.3101 41.3101C13.3101 41.8301 13.3901 42.3301 13.5401 42.8201C13.7001 43.3101 13.9201 43.7701 14.2201 44.1901C14.3501 44.3901 14.5001 44.5701 14.6801 44.7301C14.8601 44.8901 15.0501 45.0301 15.2601 45.1401C15.4701 45.2501 15.6901 45.3401 15.9201 45.4001C16.1501 45.4601 16.3901 45.4901 16.6201 45.4901C16.8501 45.4901 17.0901 45.4601 17.3201 45.4001C17.5501 45.3401 17.7701 45.2601 17.9801 45.1401C18.1901 45.0301 18.3801 44.8901 18.5601 44.7301C18.7401 44.5701 18.8901 44.3901 19.0201 44.1901C19.6401 43.3301 19.9401 42.3701 19.9201 41.3101H19.2501Z" fill="#01352C"/>
<path d="M18.5002 44.42H18.5702V43.78H17.9202V45.15H15.2702V43.78H14.6302V44.42H14.7102C14.8702 44.4 15.0102 44.33 15.1202 44.21C15.2302 44.09 15.2802 43.94 15.2802 43.78C15.2802 43.62 15.2302 43.47 15.1202 43.35C15.0102 43.23 14.8802 43.16 14.7102 43.14H14.6402C14.4602 43.14 14.3102 43.2 14.1802 43.33C14.0502 43.46 13.9902 43.61 13.9902 43.79V45.8C13.9902 45.98 14.0502 46.13 14.1802 46.26C14.3102 46.39 14.4602 46.45 14.6402 46.45H18.5602C18.7402 46.45 18.8902 46.39 19.0102 46.26C19.1402 46.14 19.2102 45.98 19.2102 45.8V43.79C19.2102 43.61 19.1502 43.45 19.0102 43.33C18.8802 43.21 18.7302 43.14 18.5602 43.14H18.4902C18.3002 43.12 18.1302 43.17 17.9802 43.3C17.8302 43.43 17.7602 43.59 17.7602 43.79C17.7602 43.99 17.8302 44.15 17.9802 44.28C18.1302 44.41 18.3002 44.46 18.4902 44.44L18.5002 44.42Z" fill="#01352C"/>
<path d="M31.0602 97.9902H46.0402C46.2202 97.9902 46.3702 97.9202 46.4902 97.7902C46.6202 97.6702 46.6802 97.5202 46.6902 97.3402V56.8802C46.6902 56.7002 46.6202 56.5502 46.4902 56.4302C46.3702 56.3002 46.2202 56.2302 46.0402 56.2302H31.0602C30.8802 56.2302 30.7202 56.3002 30.6002 56.4302C30.4802 56.5602 30.4102 56.7102 30.4102 56.8802V64.3102C30.4102 64.4902 30.4702 64.6402 30.6002 64.7702C30.7302 64.9002 30.8802 64.9602 31.0602 64.9602C31.2402 64.9602 31.3902 64.9002 31.5202 64.7702C31.6502 64.6402 31.7102 64.4902 31.7102 64.3102V57.5102H45.4002V96.7102H31.0602C30.8802 96.7102 30.7302 96.7702 30.6002 96.9002C30.4702 97.0302 30.4102 97.1802 30.4102 97.3602C30.4102 97.5402 30.4702 97.6902 30.6002 97.8202C30.7302 97.9502 30.8802 98.0102 31.0602 98.0102V97.9902Z" fill="#01352C"/>
<path d="M40.3202 14.9501V11.4701C40.4402 10.8801 40.7302 10.4001 41.2002 10.0301C41.4102 9.82006 41.6402 9.63006 41.8802 9.46006L42.1102 9.29006L42.1902 9.24006C42.4602 9.06006 42.5402 8.82006 42.4502 8.52006C42.3602 8.21006 42.1502 8.06006 41.8302 8.06006H35.3102C34.9902 8.06006 34.7802 8.21006 34.6802 8.52006C34.5902 8.83006 34.6802 9.07006 34.9502 9.25006L35.0302 9.30006C35.4202 9.57006 35.7802 9.88006 36.1102 10.2201C36.4902 10.5601 36.7302 10.9701 36.8202 11.4801V14.9601C36.8002 15.1501 36.8502 15.3201 36.9802 15.4701C37.1102 15.6201 37.2702 15.6901 37.4702 15.6901C37.6702 15.6901 37.8302 15.6201 37.9602 15.4701C38.0902 15.3201 38.1402 15.1501 38.1202 14.9601V11.4801C38.0202 10.5101 37.6002 9.72006 36.8402 9.10006C36.4702 8.74006 36.0802 8.41006 35.6602 8.12006L35.3202 8.67006V9.35006H41.8802V8.70006L41.5402 8.15006C41.1202 8.44006 40.7202 8.77006 40.3502 9.13006C39.6102 9.75006 39.1802 10.5401 39.0702 11.5101V14.9901C39.0702 15.1701 39.1302 15.3201 39.2602 15.4501C39.3902 15.5801 39.5402 15.6401 39.7202 15.6401C39.9002 15.6401 40.0502 15.5801 40.1802 15.4501C40.3102 15.3201 40.3702 15.1701 40.3702 14.9901L40.3202 14.9601V14.9501Z" fill="#01352C"/>
<path d="M39.2404 8.70011V1.26011C39.2404 1.08011 39.1804 0.930107 39.0504 0.800107C38.9204 0.670107 38.7704 0.610107 38.5904 0.610107C38.4104 0.610107 38.2604 0.670107 38.1304 0.800107C38.0004 0.930107 37.9404 1.08011 37.9404 1.26011V8.70011C37.9404 8.88011 38.0004 9.03011 38.1304 9.16011C38.2604 9.29011 38.4104 9.35011 38.5904 9.35011C38.7704 9.35011 38.9204 9.29011 39.0504 9.16011C39.1804 9.03011 39.2404 8.88011 39.2404 8.70011Z" fill="#01352C"/>
<path d="M36.8903 3.9001H40.2203C40.4003 3.9001 40.5503 3.8401 40.6803 3.7101C40.8103 3.5801 40.8703 3.4301 40.8703 3.2501C40.8703 3.0701 40.8103 2.9201 40.6803 2.7901C40.5503 2.6601 40.4003 2.6001 40.2203 2.6001H36.9103C36.7303 2.6001 36.5803 2.6601 36.4503 2.7901C36.3203 2.9201 36.2603 3.0701 36.2603 3.2501C36.2603 3.4301 36.3203 3.5801 36.4503 3.7101C36.5803 3.8401 36.7303 3.9001 36.9103 3.9001" fill="#01352C"/>
<path d="M40.7904 15.0201V14.3701H36.3004C36.1204 14.3701 35.9704 14.4401 35.8404 14.5701C35.7204 14.7001 35.6504 14.8501 35.6504 15.0201V17.9601C35.6504 18.1401 35.7104 18.2901 35.8404 18.4201C35.9704 18.5501 36.1204 18.6101 36.3004 18.6101H40.7804C40.9604 18.6101 41.1104 18.5501 41.2304 18.4201C41.3604 18.2901 41.4204 18.1401 41.4204 17.9601V15.0201C41.4204 14.8401 41.3604 14.6901 41.2304 14.5701C41.1104 14.4401 40.9604 14.3701 40.7804 14.3701V15.0201H40.1304V17.3001H36.9404V15.6701H40.7804V15.0201H40.7904Z" fill="#01352C"/>
</g>
<defs>
<clipPath id="clip0_44_2349">
<rect width="46.18" height="97.39" fill="white" transform="translate(0.740234 0.610107)"/>
</clipPath>
</defs>
</svg>
