<svg width="68" height="92" viewBox="0 0 68 92" fill="none" xmlns="http://www.w3.org/2000/svg">
<path d="M19.502 55.0092H22.3943V56.733C22.3943 56.8834 22.4521 57.0222 22.5562 57.1263C22.6603 57.2304 22.7992 57.2883 22.9496 57.2883C23.1 57.2883 23.2388 57.2304 23.3429 57.1263C23.447 57.0222 23.5049 56.8834 23.5049 56.733V54.5118L23.3429 54.13L22.9611 53.968H19.5368C19.3864 53.968 19.2475 54.0259 19.1434 54.13C19.0393 54.2341 18.9814 54.3729 18.9814 54.5233C18.9814 54.6737 19.0393 54.8125 19.1434 54.9167C19.2475 55.0208 19.3864 55.0786 19.5368 55.0786" fill="#01352C"/>
<path d="M19.502 55.0092H22.3943V56.733C22.3943 56.8834 22.4521 57.0222 22.5562 57.1263C22.6603 57.2304 22.7992 57.2883 22.9496 57.2883C23.1 57.2883 23.2388 57.2304 23.3429 57.1263C23.447 57.0222 23.5049 56.8834 23.5049 56.733V54.5118L23.3429 54.13L22.9611 53.968H19.5368C19.3864 53.968 19.2475 54.0259 19.1434 54.13C19.0393 54.2341 18.9814 54.3729 18.9814 54.5233C18.9814 54.6737 19.0393 54.8125 19.1434 54.9167C19.2475 55.0208 19.3864 55.0786 19.5368 55.0786" stroke="#02352C" stroke-width="0.3" stroke-miterlimit="10"/>
<path d="M24.6155 38.9863V34.2084C24.6155 34.058 24.5576 33.9192 24.4535 33.815C24.3494 33.7109 24.2106 33.6531 24.0602 33.6531C23.9098 33.6531 23.771 33.7109 23.6668 33.815C23.5627 33.9192 23.5049 34.058 23.5049 34.2084V38.9863C23.5049 39.1367 23.5627 39.2755 23.6668 39.3797C23.771 39.4838 23.9098 39.5416 24.0602 39.5416C24.2106 39.5416 24.3494 39.4838 24.4535 39.3797C24.5576 39.2755 24.6155 39.1367 24.6155 38.9863Z" fill="#01352C" stroke="#02352C" stroke-width="0.3" stroke-miterlimit="10"/>
<path d="M8.69704 22.2346V19.8514C8.69704 19.7011 8.63919 19.5622 8.53507 19.4581C8.43095 19.354 8.29213 19.2961 8.14173 19.2961C7.99134 19.2961 7.85251 19.354 7.74839 19.4581C7.64427 19.5622 7.58643 19.7011 7.58643 19.8514V22.2346C7.58643 22.385 7.64427 22.5239 7.74839 22.628C7.85251 22.7321 7.99134 22.7899 8.14173 22.7899C8.29213 22.7899 8.43095 22.7321 8.53507 22.628C8.63919 22.5239 8.69704 22.385 8.69704 22.2346Z" fill="#01352C" stroke="#02352C" stroke-width="0.3" stroke-miterlimit="10"/>
<path d="M44.1091 38.9863V34.2084C44.1091 34.058 44.0513 33.9192 43.9472 33.815C43.8431 33.7109 43.7042 33.6531 43.5538 33.6531C43.4034 33.6531 43.2646 33.7109 43.1605 33.815C43.0564 33.9192 42.9985 34.058 42.9985 34.2084V38.9863C42.9985 39.1367 43.0564 39.2755 43.1605 39.3797C43.2646 39.4838 43.4034 39.5416 43.5538 39.5416C43.7042 39.5416 43.8431 39.4838 43.9472 39.3797C44.0513 39.2755 44.1091 39.1367 44.1091 38.9863Z" fill="#01352C" stroke="#02352C" stroke-width="0.3" stroke-miterlimit="10"/>
<path d="M58.9292 19.8515V22.2347C58.9292 22.3851 58.9755 22.5123 59.0796 22.6165C59.1837 22.7206 59.311 22.7784 59.4614 22.7784C59.6118 22.7784 59.739 22.7206 59.8431 22.6165C59.9473 22.5123 60.0051 22.3851 60.0051 22.2347V19.8515C60.0051 19.7011 59.9473 19.5738 59.8431 19.4697C59.739 19.3656 59.6118 19.3193 59.4614 19.3193C59.311 19.3193 59.1837 19.3656 59.0796 19.4697C58.9755 19.5738 58.9292 19.7011 58.9292 19.8515Z" fill="#01352C" stroke="#02352C" stroke-width="0.3" stroke-miterlimit="10"/>
<path d="M4.50916 54.4654V45.326L8.15335 25.254L11.8091 45.326V54.4654C11.8091 54.6158 11.8554 54.7431 11.9595 54.8472C12.0636 54.9513 12.1909 55.0092 12.3413 55.0092C12.4917 55.0092 12.6189 54.9513 12.7231 54.8472C12.8272 54.7431 12.885 54.6158 12.885 54.4654V45.1872L8.69709 22.142C8.63924 21.8528 8.46571 21.7024 8.16492 21.7024C7.86413 21.7024 7.67903 21.8412 7.63276 22.142L3.44482 45.1872V54.4654C3.44482 54.6158 3.50267 54.7546 3.60679 54.8588C3.71091 54.9629 3.84974 55.0207 4.00013 55.0207C4.15053 55.0207 4.28935 54.9629 4.39347 54.8588C4.49759 54.7546 4.55544 54.6158 4.55544 54.4654H4.50916Z" fill="#01352C" stroke="#02352C" stroke-width="0.3" stroke-miterlimit="10"/>
<path d="M1.79026 56.7213V54.9976H15.7423C15.8927 54.9976 16.0315 54.9397 16.1356 54.8356C16.2398 54.7315 16.2976 54.5927 16.2976 54.4423C16.2976 54.2919 16.2398 54.153 16.1356 54.0489C16.0315 53.9448 15.8927 53.887 15.7423 53.887H1.25809L0.864748 54.0374L0.714355 54.4307V56.6519C0.714355 56.8023 0.772199 56.9411 0.876319 57.0453C0.980439 57.1494 1.11927 57.2072 1.26966 57.2072C1.42006 57.2072 1.55888 57.1494 1.663 57.0453C1.76712 56.9411 1.82497 56.8023 1.82497 56.6519" fill="#01352C"/>
<path d="M1.79026 56.7213V54.9976H15.7423C15.8927 54.9976 16.0315 54.9397 16.1356 54.8356C16.2398 54.7315 16.2976 54.5927 16.2976 54.4423C16.2976 54.2919 16.2398 54.153 16.1356 54.0489C16.0315 53.9448 15.8927 53.887 15.7423 53.887H1.25809L0.864748 54.0374L0.714355 54.4307V56.6519C0.714355 56.8023 0.772199 56.9411 0.876319 57.0453C0.980439 57.1494 1.11927 57.2072 1.26966 57.2072C1.42006 57.2072 1.55888 57.1494 1.663 57.0453C1.76712 56.9411 1.82497 56.8023 1.82497 56.6519" stroke="#02352C" stroke-width="0.3" stroke-miterlimit="10"/>
<path d="M38.0354 90.41V80.8888C38.0354 80.7384 37.9776 80.5996 37.8735 80.4955C37.7693 80.3913 37.6305 80.3335 37.4801 80.3335C37.3297 80.3335 37.1909 80.3913 37.0868 80.4955C36.9826 80.5996 36.9248 80.7384 36.9248 80.8888V90.41C36.9248 90.5604 36.9826 90.6992 37.0868 90.8033C37.1909 90.9074 37.3297 90.9653 37.4801 90.9653C37.6305 90.9653 37.7693 90.9074 37.8735 90.8033C37.9776 90.6992 38.0354 90.5604 38.0354 90.41Z" fill="#01352C" stroke="#02352C" stroke-width="0.3" stroke-miterlimit="10"/>
<path d="M30.6663 90.41V80.8888C30.6663 80.7384 30.6084 80.5996 30.5043 80.4955C30.4002 80.3913 30.2614 80.3335 30.111 80.3335C29.9606 80.3335 29.8217 80.3913 29.7176 80.4955C29.6135 80.5996 29.5557 80.7384 29.5557 80.8888V90.41C29.5557 90.5604 29.6135 90.6992 29.7176 90.8033C29.8217 90.9074 29.9606 90.9653 30.111 90.9653C30.2614 90.9653 30.4002 90.9074 30.5043 90.8033C30.6084 90.6992 30.6663 90.5604 30.6663 90.41Z" fill="#01352C" stroke="#02352C" stroke-width="0.3" stroke-miterlimit="10"/>
<path d="M38.0356 81.0972C38.0009 80.322 37.8158 79.5816 37.5034 78.8759C36.8093 77.2563 35.6524 76.0994 34.0328 75.4053H33.5932C32.4594 75.9027 31.5339 76.6663 30.8166 77.6728C30.0994 78.6908 29.6945 79.813 29.5903 81.0509C29.5903 81.2013 29.6482 81.3401 29.7523 81.4442C29.8564 81.5483 29.9952 81.6062 30.1456 81.6062C30.296 81.6062 30.4349 81.5483 30.539 81.4442C30.6431 81.3401 30.701 81.2013 30.701 81.0509V80.9352C30.7819 80.2179 30.9902 79.5354 31.3372 78.8991C31.9504 77.7306 32.8528 76.8861 34.0675 76.3539L33.8477 75.868L33.6279 76.3539C34.993 76.9439 35.9648 77.9157 36.5432 79.2808C36.7283 79.6858 36.8556 80.1138 36.9366 80.5534L36.9944 80.9352V81.0509C36.9944 81.2013 37.0523 81.3285 37.1679 81.4327C37.2721 81.5368 37.3993 81.5831 37.5497 81.5831C37.8621 81.5715 38.0356 81.4095 38.0587 81.0972H38.0356Z" fill="#01352C" stroke="#02352C" stroke-width="0.3" stroke-miterlimit="10"/>
<path d="M24.6157 79.3153V90.4099L24.7661 90.7916L25.1595 90.9536H42.5243L42.9177 90.7916L43.0681 90.4099V79.3153C43.0681 79.1649 43.0102 79.0261 42.9061 78.922C42.802 78.8179 42.6632 78.76 42.5128 78.76C42.3624 78.76 42.2235 78.8179 42.1194 78.922C42.0153 79.0261 41.9574 79.1649 41.9574 79.3153V89.9124H25.7263V79.3153C25.7263 79.1649 25.6685 79.0261 25.5644 78.922C25.4602 78.8179 25.3214 78.76 25.171 78.76C25.0206 78.76 24.8818 78.8179 24.7777 78.922C24.6736 79.0261 24.6157 79.1649 24.6157 79.3153Z" fill="#01352C" stroke="#02352C" stroke-width="0.3" stroke-miterlimit="10"/>
<path d="M43.0336 79.6395C42.9179 78.124 42.513 76.6895 41.8189 75.3359C41.0091 73.7394 39.9332 72.3512 38.5912 71.1711C37.2492 69.9911 35.7452 69.0887 34.0562 68.4756H33.6513C31.9738 69.0887 30.4583 69.9911 29.1163 71.1711C27.7743 72.3512 26.6984 73.7394 25.8886 75.3359C25.206 76.6895 24.8011 78.124 24.6738 79.6395C24.6738 79.7899 24.7317 79.9288 24.8358 80.0329C24.9399 80.137 25.0787 80.1948 25.2291 80.1948C25.3795 80.1948 25.5184 80.137 25.6225 80.0329C25.7266 79.9288 25.7844 79.7899 25.7844 79.6395V79.5701C25.9348 78.0777 26.3745 76.6895 27.1033 75.3822C27.8784 74.0055 28.8733 72.8023 30.0765 71.7843C31.2797 70.7662 32.6332 69.9795 34.1256 69.4474L33.9289 68.9499L33.7323 69.4474C35.294 70.0027 36.7054 70.8356 37.9549 71.9347C39.2043 73.0337 40.2108 74.3179 40.9744 75.7987C41.414 76.6779 41.7263 77.5918 41.923 78.5521C41.9924 78.8991 42.0387 79.1884 42.0618 79.3735V79.6511C42.0618 79.8015 42.1197 79.9403 42.2238 80.0444C42.3279 80.1486 42.4667 80.2064 42.6171 80.2064C42.7675 80.2064 42.9064 80.1486 43.0105 80.0444C43.1146 79.9403 43.1724 79.8015 43.1724 79.6511" fill="#01352C"/>
<path d="M43.0336 79.6395C42.9179 78.124 42.513 76.6895 41.8189 75.3359C41.0091 73.7394 39.9332 72.3512 38.5912 71.1711C37.2492 69.9911 35.7452 69.0887 34.0562 68.4756H33.6513C31.9738 69.0887 30.4583 69.9911 29.1163 71.1711C27.7743 72.3512 26.6984 73.7394 25.8886 75.3359C25.206 76.6895 24.8011 78.124 24.6738 79.6395C24.6738 79.7899 24.7317 79.9288 24.8358 80.0329C24.9399 80.137 25.0787 80.1948 25.2291 80.1948C25.3795 80.1948 25.5184 80.137 25.6225 80.0329C25.7266 79.9288 25.7844 79.7899 25.7844 79.6395V79.5701C25.9348 78.0777 26.3745 76.6895 27.1033 75.3822C27.8784 74.0055 28.8733 72.8023 30.0765 71.7843C31.2797 70.7662 32.6332 69.9795 34.1256 69.4474L33.9289 68.9499L33.7323 69.4474C35.294 70.0027 36.7054 70.8356 37.9549 71.9347C39.2043 73.0337 40.2108 74.3179 40.9744 75.7987C41.414 76.6779 41.7263 77.5918 41.923 78.5521C41.9924 78.8991 42.0387 79.1884 42.0618 79.3735V79.6511C42.0618 79.8015 42.1197 79.9403 42.2238 80.0444C42.3279 80.1486 42.4667 80.2064 42.6171 80.2064C42.7675 80.2064 42.9064 80.1486 43.0105 80.0444C43.1146 79.9403 43.1724 79.8015 43.1724 79.6511" stroke="#02352C" stroke-width="0.3" stroke-miterlimit="10"/>
<path d="M42.6516 77.4991L34.3221 54.2688C34.2295 54.0374 34.0675 53.9102 33.813 53.9102C33.5585 53.9102 33.3966 54.0374 33.304 54.2688L24.9744 77.4991C24.905 77.6379 24.905 77.7883 24.9744 77.9387C25.0323 78.0891 25.1364 78.1816 25.2868 78.2395C25.4372 78.2973 25.576 78.2857 25.7148 78.2163C25.8537 78.1469 25.9462 78.0312 25.9925 77.8808L33.813 56.0388L41.6452 77.8461C41.6914 77.985 41.784 78.0891 41.9228 78.1585C42.0616 78.2279 42.1889 78.2279 42.3393 78.1816C42.4781 78.1353 42.5822 78.0312 42.6401 77.904C42.6979 77.7651 42.7095 77.6263 42.6516 77.4875" fill="#01352C"/>
<path d="M42.6516 77.4991L34.3221 54.2688C34.2295 54.0374 34.0675 53.9102 33.813 53.9102C33.5585 53.9102 33.3966 54.0374 33.304 54.2688L24.9744 77.4991C24.905 77.6379 24.905 77.7883 24.9744 77.9387C25.0323 78.0891 25.1364 78.1816 25.2868 78.2395C25.4372 78.2973 25.576 78.2857 25.7148 78.2163C25.8537 78.1469 25.9462 78.0312 25.9925 77.8808L33.813 56.0388L41.6452 77.8461C41.6914 77.985 41.784 78.0891 41.9228 78.1585C42.0616 78.2279 42.1889 78.2279 42.3393 78.1816C42.4781 78.1353 42.5822 78.0312 42.6401 77.904C42.6979 77.7651 42.7095 77.6263 42.6516 77.4875" stroke="#02352C" stroke-width="0.3" stroke-miterlimit="10"/>
<path d="M44.6993 90.4561V89.9124H23.4704V54.9975H44.1556V90.4561H44.6993V89.9124V90.4561H45.243V54.4538L45.0811 54.072L44.6993 53.9216H22.9267L22.5565 54.072L22.3945 54.4538V90.4561L22.5565 90.8379L22.9267 90.9883H44.6993L45.0811 90.8379L45.243 90.4561H44.6993Z" fill="#01352C"/>
<path d="M44.6993 90.4561V89.9124H23.4704V54.9975H44.1556V90.4561H44.6993ZM44.6993 90.4561V89.9124V90.4561ZM44.6993 90.4561H45.243V54.4538L45.0811 54.072L44.6993 53.9216H22.9267L22.5565 54.072L22.3945 54.4538V90.4561L22.5565 90.8379L22.9267 90.9883H44.6993L45.0811 90.8379L45.243 90.4561H44.6993Z" stroke="#02352C" stroke-width="0.3" stroke-miterlimit="10"/>
<path d="M11.8206 54.0027V90.4099L11.971 90.7917L12.3528 90.9537H25.1248C25.2752 90.9537 25.4141 90.8958 25.5182 90.7917C25.6223 90.6876 25.6801 90.5488 25.6801 90.3984C25.6801 90.248 25.6223 90.1091 25.5182 90.005C25.4141 89.9009 25.2752 89.8431 25.1248 89.8431H12.9197V54.0027C12.9197 53.8523 12.8618 53.7251 12.7577 53.6209C12.6536 53.5168 12.5263 53.459 12.376 53.459C12.2256 53.459 12.0867 53.4937 11.971 53.6094C11.8554 53.7135 11.8091 53.8523 11.8091 54.0027H11.8206Z" fill="#01352C" stroke="#02352C" stroke-width="0.3" stroke-miterlimit="10"/>
<path d="M0.714397 55.067V90.4099L0.864789 90.8032L1.24656 90.9536H13.5211C13.6715 90.9536 13.8104 90.8958 13.9145 90.7917C14.0186 90.6876 14.0764 90.5487 14.0764 90.3983C14.0764 90.2479 14.0186 90.1091 13.9145 90.005C13.8104 89.9009 13.6715 89.843 13.5211 89.843H1.7903V55.067C1.7903 54.9166 1.73245 54.7778 1.62833 54.6737C1.52421 54.5696 1.38539 54.5117 1.23499 54.5117C1.0846 54.5117 0.945771 54.5696 0.841651 54.6737C0.737531 54.7778 0.679688 54.9166 0.679688 55.067H0.714397Z" fill="#01352C" stroke="#02352C" stroke-width="0.3" stroke-miterlimit="10"/>
<path d="M35.5019 50.8793V50.3471H32.656V42.9431L33.7666 40.3285L34.8772 42.9431V50.8793H35.9531V42.6191L34.2641 38.7783C34.1715 38.5585 33.998 38.4543 33.7666 38.4543C33.5352 38.4543 33.3733 38.5585 33.2807 38.7783L31.5801 42.6191V50.8793L31.7305 51.2726L32.1238 51.423H35.5019L35.8837 51.2726L36.0341 50.8793H35.5019Z" fill="#01352C" stroke="#02352C" stroke-width="0.3" stroke-miterlimit="10"/>
<path d="M41.8993 50.9716V50.4858H39.0418V43.0817L40.1524 40.4671L41.2631 43.0817V51.0179H42.3505V42.9776L42.3737 42.723L40.6846 38.8822C40.5921 38.6739 40.4185 38.5698 40.1871 38.5698C39.9558 38.5698 39.7938 38.6739 39.6897 38.8822L38.0122 42.723V50.9832L38.1626 51.3766L38.5559 51.5269H41.9341L42.3158 51.3766L42.4778 50.9832H41.8878L41.8993 50.9716Z" fill="#01352C" stroke="#02352C" stroke-width="0.3" stroke-miterlimit="10"/>
<path d="M29.1161 50.7865V50.2544H26.2702V42.8503L27.3808 40.2357L28.4914 42.8503V50.7865H29.5673V42.4917L27.9476 38.6855C27.8551 38.4657 27.6816 38.3616 27.4502 38.3616C27.2188 38.3616 27.0568 38.4657 26.9643 38.6855L25.2637 42.5264V50.7865L25.4141 51.1799L25.8074 51.3303H29.1855L29.5673 51.1799L29.7177 50.7865H29.1161Z" fill="#01352C" stroke="#02352C" stroke-width="0.3" stroke-miterlimit="10"/>
<path d="M33.8131 5.26298L33.2809 5.18199L28.584 36.8228L28.7112 37.2509L29.1162 37.4244H38.5101L38.915 37.2509L39.0422 36.8228L34.3453 5.18199C34.299 4.86964 34.1139 4.71924 33.8015 4.71924C33.4892 4.71924 33.3156 4.8812 33.2694 5.18199L33.8015 5.26298L33.2694 5.34396L37.8738 36.4064H29.7293L34.3453 5.34396L33.8015 5.26298H33.8131Z" fill="#01352C"/>
<path d="M33.8015 5.26298L33.2694 5.18199C33.3156 4.8812 33.4892 4.71924 33.8015 4.71924C34.1139 4.71924 34.299 4.86964 34.3453 5.18199L39.0422 36.8228L38.915 37.2509L38.5101 37.4244H29.1162L28.7112 37.2509L28.584 36.8228L33.2809 5.18199L33.8131 5.26298H33.8015ZM33.8015 5.26298L33.2694 5.34396L37.8738 36.4064H29.7293L34.3453 5.34396L33.8015 5.26298Z" stroke="#02352C" stroke-width="0.3" stroke-miterlimit="10"/>
<path d="M8.83547 83.064H9.37921V77.8233C9.37921 77.6729 9.32137 77.5456 9.21725 77.4415C9.11313 77.3374 8.98587 77.2795 8.83547 77.2795C8.68508 77.2795 8.55782 77.3374 8.4537 77.4415C8.34958 77.5456 8.30331 77.6729 8.30331 77.8233V77.9158H9.41392C9.37921 77.4646 9.27509 77.0366 9.08999 76.6317C8.68508 75.683 8.00252 75.0005 7.06544 74.584H6.62582C5.67717 75.0005 4.99461 75.683 4.5897 76.6317C4.4046 77.0366 4.30048 77.4646 4.27734 77.9158H5.38795V77.8233L5.23756 77.4299L4.84422 77.2795L4.46245 77.4299L4.31205 77.8233V83.064L4.46245 83.4573L4.84422 83.6077H8.91646L9.3098 83.4573L9.46019 83.064H8.91646V82.5318H5.38795V77.8233L5.23756 77.4299L4.84422 77.2795L4.46245 77.4299L4.31205 77.8233V77.9158C4.31205 78.0662 4.35833 78.1935 4.46245 78.2976C4.56657 78.4017 4.69382 78.4596 4.84422 78.4596C4.99462 78.4596 5.12187 78.4017 5.22599 78.2976C5.33011 78.1935 5.38795 78.0662 5.38795 77.9274C5.43423 77.5688 5.53835 77.2217 5.71188 76.8978C6.02424 76.2962 6.487 75.8681 7.11172 75.6021L6.89191 75.1162L6.6721 75.6021C7.36623 75.9028 7.86369 76.3887 8.15291 77.0829C8.24546 77.2911 8.31488 77.5109 8.34958 77.7423V77.9274C8.34958 78.0778 8.40743 78.205 8.51155 78.3092C8.61567 78.4133 8.74293 78.4596 8.89332 78.4596C9.04372 78.4596 9.15941 78.4017 9.26352 78.2976C9.36764 78.1935 9.41392 78.0662 9.42549 77.9158V77.8233L9.27509 77.4299L8.88175 77.2795L8.49998 77.4299L8.34958 77.8233V83.064H8.88175H8.84705H8.83547Z" fill="#01352C"/>
<path d="M5.38795 77.8233V77.9158H4.27734C4.30048 77.4646 4.4046 77.0366 4.5897 76.6317C4.99461 75.683 5.67717 75.0005 6.62582 74.584H7.06544C8.00252 75.0005 8.68508 75.683 9.08999 76.6317C9.27509 77.0366 9.37921 77.4646 9.41392 77.9158H8.30331V77.8233C8.30331 77.6729 8.34958 77.5456 8.4537 77.4415C8.55782 77.3374 8.68508 77.2795 8.83547 77.2795C8.98587 77.2795 9.11313 77.3374 9.21725 77.4415C9.32137 77.5456 9.37921 77.6729 9.37921 77.8233V83.064H8.83547H8.84705H8.88175H8.34958V77.8233L8.49998 77.4299L8.88175 77.2795L9.27509 77.4299L9.42549 77.8233V77.9158C9.41392 78.0662 9.36764 78.1935 9.26352 78.2976C9.15941 78.4017 9.04372 78.4596 8.89332 78.4596C8.74293 78.4596 8.61567 78.4133 8.51155 78.3092C8.40743 78.205 8.34958 78.0778 8.34958 77.9274V77.7423C8.31488 77.5109 8.24546 77.2911 8.15291 77.0829C7.86369 76.3887 7.36623 75.9028 6.6721 75.6021L6.89191 75.1162L7.11172 75.6021C6.487 75.8681 6.02424 76.2962 5.71188 76.8978C5.53835 77.2217 5.43423 77.5688 5.38795 77.9274C5.38795 78.0662 5.33011 78.1935 5.22599 78.2976C5.12187 78.4017 4.99462 78.4596 4.84422 78.4596C4.69382 78.4596 4.56657 78.4017 4.46245 78.2976C4.35833 78.1935 4.31205 78.0662 4.31205 77.9158V77.8233M5.38795 77.8233L5.23756 77.4299L4.84422 77.2795L4.46245 77.4299L4.31205 77.8233M5.38795 77.8233V82.5318H8.91646V83.064H9.46019L9.3098 83.4573L8.91646 83.6077H4.84422L4.46245 83.4573L4.31205 83.064V77.8233" stroke="#02352C" stroke-width="0.3" stroke-miterlimit="10"/>
<path d="M19.6757 82.9364H20.1732V77.6957C20.1732 77.5453 20.1154 77.4065 20.0112 77.3024C19.9071 77.1983 19.7683 77.1404 19.6179 77.1404C19.4675 77.1404 19.3287 77.1983 19.2246 77.3024C19.1204 77.4065 19.0626 77.5453 19.0626 77.6957V77.7998H20.1732C20.1501 77.3487 20.0459 76.9206 19.8608 76.5041C19.4444 75.5555 18.7618 74.8729 17.8247 74.468H17.3851C16.4365 74.8845 15.7655 75.5555 15.3606 76.5041C15.1755 76.9206 15.0713 77.3487 15.0366 77.7998H16.1472V77.7073L15.9968 77.314L15.6151 77.1636L15.2217 77.314L15.0713 77.7073V82.9596L15.2217 83.3529L15.6151 83.5033H19.6873L20.0691 83.3529L20.2195 82.9596H19.6873V82.4158H16.1472V77.7073L15.9968 77.314L15.6151 77.1636L15.2217 77.314L15.0713 77.7073V77.7998C15.0713 77.9502 15.1292 78.0659 15.2333 78.1701C15.3374 78.2742 15.4647 78.3205 15.6035 78.332C15.7539 78.332 15.8811 78.2857 15.9853 78.1932C16.0894 78.0891 16.1472 77.9618 16.1472 77.8114C16.1819 77.4412 16.2976 77.1057 16.4712 76.7818C16.772 76.1802 17.2347 75.7522 17.8594 75.4861L17.6396 75.0002L17.4198 75.4861C18.1139 75.7869 18.6114 76.2728 18.9006 76.9669C18.9932 77.1751 19.0626 77.3949 19.0973 77.6263V77.8114C19.0973 77.9618 19.1551 78.1006 19.2593 78.2048C19.3634 78.3089 19.5022 78.3667 19.6526 78.3667C19.803 78.3667 19.9418 78.3089 20.0459 78.2048C20.1501 78.1006 20.2079 77.9618 20.2079 77.8114V77.7189L20.0575 77.3255L19.6757 77.1751L19.2824 77.3255L19.132 77.7189V82.9596H19.6757V82.9364Z" fill="#01352C"/>
<path d="M16.1472 77.7073V77.7998H15.0366C15.0713 77.3487 15.1755 76.9206 15.3606 76.5041C15.7655 75.5555 16.4365 74.8845 17.3851 74.468H17.8247C18.7618 74.8729 19.4444 75.5555 19.8608 76.5041C20.0459 76.9206 20.1501 77.3487 20.1732 77.7998H19.0626V77.6957C19.0626 77.5453 19.1204 77.4065 19.2246 77.3024C19.3287 77.1983 19.4675 77.1404 19.6179 77.1404C19.7683 77.1404 19.9071 77.1983 20.0112 77.3024C20.1154 77.4065 20.1732 77.5453 20.1732 77.6957V82.9364H19.6757V82.9596H19.132V77.7189L19.2824 77.3255L19.6757 77.1751L20.0575 77.3255L20.2079 77.7189V77.8114C20.2079 77.9618 20.1501 78.1006 20.0459 78.2048C19.9418 78.3089 19.803 78.3667 19.6526 78.3667C19.5022 78.3667 19.3634 78.3089 19.2593 78.2048C19.1551 78.1006 19.0973 77.9618 19.0973 77.8114V77.6263C19.0626 77.3949 18.9932 77.1751 18.9006 76.9669C18.6114 76.2728 18.1139 75.7869 17.4198 75.4861L17.6396 75.0002L17.8594 75.4861C17.2347 75.7522 16.772 76.1802 16.4712 76.7818C16.2976 77.1057 16.1819 77.4412 16.1472 77.8114C16.1472 77.9618 16.0894 78.0891 15.9853 78.1932C15.8811 78.2857 15.7539 78.332 15.6035 78.332C15.4647 78.3205 15.3374 78.2742 15.2333 78.1701C15.1292 78.0659 15.0713 77.9502 15.0713 77.7998V77.7073M16.1472 77.7073L15.9968 77.314L15.6151 77.1636L15.2217 77.314L15.0713 77.7073M16.1472 77.7073V82.4158H19.6873V82.9596H20.2195L20.0691 83.3529L19.6873 83.5033H15.6151L15.2217 83.3529L15.0713 82.9596V77.7073" stroke="#02352C" stroke-width="0.3" stroke-miterlimit="10"/>
<path d="M8.836 70.1646H9.37974V62.8184C9.37974 62.668 9.32189 62.5407 9.21777 62.4366C9.11365 62.3325 8.98639 62.2746 8.836 62.2746C8.6856 62.2746 8.55835 62.3325 8.45423 62.4366C8.35011 62.5407 8.30383 62.668 8.30383 62.8184V62.9109H9.41444C9.3913 62.4482 9.28719 61.997 9.09052 61.5689C8.68561 60.6203 8.00304 59.9377 7.06596 59.5212H6.62635C5.66613 59.9262 4.972 60.6087 4.55552 61.5689C4.37042 61.9738 4.2663 62.4019 4.24316 62.8531H5.35377V62.7605L5.20338 62.3672L4.81004 62.2168L4.42827 62.3672L4.27787 62.7605V70.1068L4.42827 70.5001L4.81004 70.6505H8.88228L9.27562 70.5001L9.42601 70.1068H8.88228V69.5746H5.35377V62.7605L5.20338 62.3672L4.81004 62.2168L4.42827 62.3672L4.27787 62.7605V62.8531C4.27787 63.0035 4.32415 63.1307 4.42827 63.2348C4.53239 63.339 4.65964 63.3968 4.81004 63.3968C4.96043 63.3968 5.08769 63.339 5.19181 63.2348C5.29593 63.1307 5.35377 63.0035 5.35377 62.8646C5.40005 62.506 5.50417 62.1589 5.6777 61.835C5.99006 61.2334 6.45282 60.8054 7.07754 60.5393L6.85772 60.0534L6.63792 60.5393C7.33205 60.8401 7.82951 61.326 8.11873 62.0201C8.21128 62.2283 8.2807 62.4482 8.3154 62.6795V62.8646C8.3154 63.015 8.37325 63.1423 8.47737 63.2464C8.58149 63.3505 8.70874 63.3968 8.85914 63.3968C9.00953 63.3968 9.12522 63.339 9.22934 63.2348C9.33346 63.1307 9.37974 63.0035 9.39131 62.8531V62.7605L9.24091 62.3672L8.84757 62.2168L8.4658 62.3672L8.3154 62.7605V70.1068H8.84757V70.1646H8.836Z" fill="#01352C"/>
<path d="M5.35377 62.7605V62.8531H4.24316C4.2663 62.4019 4.37042 61.9738 4.55552 61.5689C4.972 60.6087 5.66613 59.9262 6.62635 59.5212H7.06596C8.00304 59.9377 8.68561 60.6203 9.09052 61.5689C9.28719 61.997 9.3913 62.4482 9.41444 62.9109H8.30383V62.8184C8.30383 62.668 8.35011 62.5407 8.45423 62.4366C8.55835 62.3325 8.6856 62.2746 8.836 62.2746C8.98639 62.2746 9.11365 62.3325 9.21777 62.4366C9.32189 62.5407 9.37974 62.668 9.37974 62.8184V70.1646H8.836H8.84757V70.1068H8.3154V62.7605L8.4658 62.3672L8.84757 62.2168L9.24091 62.3672L9.39131 62.7605V62.8531C9.37974 63.0035 9.33346 63.1307 9.22934 63.2348C9.12522 63.339 9.00953 63.3968 8.85914 63.3968C8.70874 63.3968 8.58149 63.3505 8.47737 63.2464C8.37325 63.1423 8.3154 63.015 8.3154 62.8646V62.6795C8.2807 62.4482 8.21128 62.2283 8.11873 62.0201C7.82951 61.326 7.33205 60.8401 6.63792 60.5393L6.85772 60.0534L7.07754 60.5393C6.45282 60.8054 5.99006 61.2334 5.6777 61.835C5.50417 62.1589 5.40005 62.506 5.35377 62.8646C5.35377 63.0035 5.29593 63.1307 5.19181 63.2348C5.08769 63.339 4.96043 63.3968 4.81004 63.3968C4.65964 63.3968 4.53239 63.339 4.42827 63.2348C4.32415 63.1307 4.27787 63.0035 4.27787 62.8531V62.7605M5.35377 62.7605L5.20338 62.3672L4.81004 62.2168L4.42827 62.3672L4.27787 62.7605M5.35377 62.7605V69.5746H8.88228V70.1068H9.42601L9.27562 70.5001L8.88228 70.6505H4.81004L4.42827 70.5001L4.27787 70.1068V62.7605" stroke="#02352C" stroke-width="0.3" stroke-miterlimit="10"/>
<path d="M19.6757 70.1644H20.1732V62.8181C20.1732 62.6677 20.1154 62.5289 20.0112 62.4248C19.9071 62.3207 19.7683 62.2628 19.6179 62.2628C19.4675 62.2628 19.3287 62.3207 19.2246 62.4248C19.1204 62.5289 19.0626 62.6677 19.0626 62.8181V62.9107H20.1732C20.1501 62.4595 20.0459 62.0315 19.8608 61.6266C19.4444 60.6779 18.7734 59.9953 17.8247 59.5789H17.3851C16.4365 59.9953 15.7539 60.6779 15.3606 61.6266C15.1755 62.0315 15.0713 62.4595 15.0366 62.9107H16.1472V62.8181L15.9968 62.4248L15.6151 62.2744L15.2217 62.4248L15.0713 62.8181V70.1644L15.2217 70.5577L15.6151 70.7081H19.6873L20.0691 70.5577L20.2195 70.1644H19.6873V69.6322H16.1472V62.8181L15.9968 62.4248L15.6151 62.2744L15.2217 62.4248L15.0713 62.8181V62.9107C15.0713 63.0611 15.1292 63.1884 15.2333 63.2925C15.3374 63.3966 15.4647 63.4544 15.6035 63.4544C15.7539 63.4544 15.8811 63.4082 15.9853 63.304C16.0894 63.1999 16.1472 63.0727 16.1472 62.9223C16.1819 62.5521 16.2976 62.2166 16.4712 61.8926C16.772 61.291 17.2347 60.863 17.8594 60.5969L17.6396 60.111L17.4198 60.5969C18.1139 60.8977 18.6114 61.3836 18.9006 62.0777C18.9932 62.286 19.0626 62.5058 19.0973 62.7372V62.9223C19.0973 63.0727 19.1551 63.2115 19.2593 63.3156C19.3634 63.4197 19.5022 63.4776 19.6526 63.4776C19.803 63.4776 19.9418 63.4197 20.0459 63.3156C20.1501 63.2115 20.2079 63.0727 20.2079 62.9223V62.8297L20.0575 62.4364L19.6757 62.286L19.2824 62.4364L19.132 62.8297V70.1759H19.6873L19.6757 70.1644Z" fill="#01352C"/>
<path d="M16.1472 62.8181V62.9107H15.0366C15.0713 62.4595 15.1755 62.0315 15.3606 61.6266C15.7539 60.6779 16.4365 59.9953 17.3851 59.5789H17.8247C18.7734 59.9953 19.4444 60.6779 19.8608 61.6266C20.0459 62.0315 20.1501 62.4595 20.1732 62.9107H19.0626V62.8181C19.0626 62.6677 19.1204 62.5289 19.2246 62.4248C19.3287 62.3207 19.4675 62.2628 19.6179 62.2628C19.7683 62.2628 19.9071 62.3207 20.0112 62.4248C20.1154 62.5289 20.1732 62.6677 20.1732 62.8181V70.1644H19.6757L19.6873 70.1759H19.132V62.8297L19.2824 62.4364L19.6757 62.286L20.0575 62.4364L20.2079 62.8297V62.9223C20.2079 63.0727 20.1501 63.2115 20.0459 63.3156C19.9418 63.4197 19.803 63.4776 19.6526 63.4776C19.5022 63.4776 19.3634 63.4197 19.2593 63.3156C19.1551 63.2115 19.0973 63.0727 19.0973 62.9223V62.7372C19.0626 62.5058 18.9932 62.286 18.9006 62.0777C18.6114 61.3836 18.1139 60.8977 17.4198 60.5969L17.6396 60.111L17.8594 60.5969C17.2347 60.863 16.772 61.291 16.4712 61.8926C16.2976 62.2166 16.1819 62.5521 16.1472 62.9223C16.1472 63.0727 16.0894 63.1999 15.9853 63.304C15.8811 63.4082 15.7539 63.4544 15.6035 63.4544C15.4647 63.4544 15.3374 63.3966 15.2333 63.2925C15.1292 63.1884 15.0713 63.0611 15.0713 62.9107V62.8181M16.1472 62.8181L15.9968 62.4248L15.6151 62.2744L15.2217 62.4248L15.0713 62.8181M16.1472 62.8181V69.6322H19.6873V70.1644H20.2195L20.0691 70.5577L19.6873 70.7081H15.6151L15.2217 70.5577L15.0713 70.1644V62.8181" stroke="#02352C" stroke-width="0.3" stroke-miterlimit="10"/>
<path d="M43.5537 54.4541V53.9219H24.6155V37.4363H43.0099V54.4541H43.5537V53.9219V54.4541H44.0859V36.8925L43.9355 36.5108L43.5537 36.3604H24.0833L23.6899 36.5108L23.5396 36.8925V54.4541L23.6899 54.8358L24.0833 54.9978H43.5537L43.9355 54.8358L44.0859 54.4541H43.5537Z" fill="#01352C"/>
<path d="M43.5537 54.4541V53.9219H24.6155V37.4363H43.0099V54.4541H43.5537ZM43.5537 54.4541V53.9219V54.4541ZM43.5537 54.4541H44.0859V36.8925L43.9355 36.5108L43.5537 36.3604H24.0833L23.6899 36.5108L23.5396 36.8925V54.4541L23.6899 54.8358L24.0833 54.9978H43.5537L43.9355 54.8358L44.0859 54.4541H43.5537Z" stroke="#02352C" stroke-width="0.3" stroke-miterlimit="10"/>
<path d="M24.6155 38.9863V34.2084C24.6155 34.058 24.5576 33.9192 24.4535 33.815C24.3494 33.7109 24.2106 33.6531 24.0602 33.6531C23.9098 33.6531 23.771 33.7109 23.6668 33.815C23.5627 33.9192 23.5049 34.058 23.5049 34.2084V38.9863C23.5049 39.1367 23.5627 39.2755 23.6668 39.3797C23.771 39.4838 23.9098 39.5416 24.0602 39.5416C24.2106 39.5416 24.3494 39.4838 24.4535 39.3797C24.5576 39.2755 24.6155 39.1367 24.6155 38.9863Z" fill="#01352C" stroke="#02352C" stroke-width="0.3" stroke-miterlimit="10"/>
<path d="M27.9475 36.7305V31.0502C27.9475 30.8998 27.8897 30.761 27.7856 30.6568C27.6814 30.5527 27.5426 30.4949 27.3922 30.4949C27.2418 30.4949 27.103 30.5527 26.9989 30.6568C26.8948 30.761 26.8369 30.8998 26.8369 31.0502V36.7305C26.8369 36.8809 26.8948 37.0197 26.9989 37.1238C27.103 37.228 27.2418 37.2858 27.3922 37.2858C27.5426 37.2858 27.6814 37.228 27.7856 37.1238C27.8897 37.0197 27.9475 36.8809 27.9475 36.7305Z" fill="#01352C" stroke="#02352C" stroke-width="0.3" stroke-miterlimit="10"/>
<path d="M8.69704 22.2346V19.8514C8.69704 19.7011 8.63919 19.5622 8.53507 19.4581C8.43095 19.354 8.29213 19.2961 8.14173 19.2961C7.99134 19.2961 7.85251 19.354 7.74839 19.4581C7.64427 19.5622 7.58643 19.7011 7.58643 19.8514V22.2346C7.58643 22.385 7.64427 22.5239 7.74839 22.628C7.85251 22.7321 7.99134 22.7899 8.14173 22.7899C8.29213 22.7899 8.43095 22.7321 8.53507 22.628C8.63919 22.5239 8.69704 22.385 8.69704 22.2346Z" fill="#01352C" stroke="#02352C" stroke-width="0.3" stroke-miterlimit="10"/>
<path d="M44.1091 38.9863V34.2084C44.1091 34.058 44.0513 33.9192 43.9472 33.815C43.8431 33.7109 43.7042 33.6531 43.5538 33.6531C43.4034 33.6531 43.2646 33.7109 43.1605 33.815C43.0564 33.9192 42.9985 34.058 42.9985 34.2084V38.9863C42.9985 39.1367 43.0564 39.2755 43.1605 39.3797C43.2646 39.4838 43.4034 39.5416 43.5538 39.5416C43.7042 39.5416 43.8431 39.4838 43.9472 39.3797C44.0513 39.2755 44.1091 39.1367 44.1091 38.9863Z" fill="#01352C" stroke="#02352C" stroke-width="0.3" stroke-miterlimit="10"/>
<path d="M40.7659 36.7305V31.0502C40.7659 30.8998 40.708 30.761 40.6039 30.6568C40.4998 30.5527 40.361 30.4949 40.2106 30.4949C40.0602 30.4949 39.9214 30.5527 39.8172 30.6568C39.7131 30.761 39.6553 30.8998 39.6553 31.0502V36.7305C39.6553 36.8809 39.7131 37.0197 39.8172 37.1238C39.9214 37.228 40.0602 37.2858 40.2106 37.2858C40.361 37.2858 40.4998 37.228 40.6039 37.1238C40.708 37.0197 40.7659 36.8809 40.7659 36.7305Z" fill="#01352C" stroke="#02352C" stroke-width="0.3" stroke-miterlimit="10"/>
<path d="M34.3567 5.26303V0.982551C34.3567 0.832156 34.2989 0.693329 34.1947 0.589209C34.0906 0.48509 33.9518 0.427246 33.8014 0.427246C33.651 0.427246 33.5122 0.48509 33.4081 0.589209C33.3039 0.693329 33.2461 0.832156 33.2461 0.982551V5.26303C33.2461 5.41343 33.3039 5.55225 33.4081 5.65637C33.5122 5.76049 33.651 5.81834 33.8014 5.81834C33.9518 5.81834 34.0906 5.76049 34.1947 5.65637C34.2989 5.55225 34.3567 5.41343 34.3567 5.26303Z" fill="#01352C" stroke="#02352C" stroke-width="0.3" stroke-miterlimit="10"/>
<path d="M12.8502 62.5407L15.2912 56.9992L16.2746 54.7201L17.6397 51.5965L19.0048 54.7201L19.9882 56.9992L22.4292 62.5407C22.487 62.6795 22.5911 62.772 22.73 62.8299C22.8688 62.8877 23.0076 62.8762 23.1465 62.8299C23.2853 62.772 23.3778 62.6679 23.4357 62.5291C23.4935 62.3903 23.4935 62.2514 23.4357 62.1126L20.9946 56.5711L20.0113 54.292L18.1487 50.0347C18.0562 49.8149 17.8942 49.6992 17.6513 49.6992C17.4083 49.6992 17.2463 49.8149 17.1538 50.0347L15.3028 54.292L14.3194 56.5711L11.8784 62.1126C11.8205 62.2514 11.809 62.3903 11.8784 62.5291C11.9362 62.6679 12.0288 62.772 12.1676 62.8299C12.3064 62.8877 12.4453 62.8993 12.5841 62.8299C12.7229 62.772 12.827 62.6795 12.8849 62.5407" fill="#01352C"/>
<path d="M12.8502 62.5407L15.2912 56.9992L16.2746 54.7201L17.6397 51.5965L19.0048 54.7201L19.9882 56.9992L22.4292 62.5407C22.487 62.6795 22.5911 62.772 22.73 62.8299C22.8688 62.8877 23.0076 62.8762 23.1465 62.8299C23.2853 62.772 23.3778 62.6679 23.4357 62.5291C23.4935 62.3903 23.4935 62.2514 23.4357 62.1126L20.9946 56.5711L20.0113 54.292L18.1487 50.0347C18.0562 49.8149 17.8942 49.6992 17.6513 49.6992C17.4083 49.6992 17.2463 49.8149 17.1538 50.0347L15.3028 54.292L14.3194 56.5711L11.8784 62.1126C11.8205 62.2514 11.809 62.3903 11.8784 62.5291C11.9362 62.6679 12.0288 62.772 12.1676 62.8299C12.3064 62.8877 12.4453 62.8993 12.5841 62.8299C12.7229 62.772 12.827 62.6795 12.8849 62.5407" stroke="#02352C" stroke-width="0.3" stroke-miterlimit="10"/>
<path d="M3.96561 45.812H12.353C12.5034 45.812 12.6307 45.7541 12.7348 45.65C12.8389 45.5459 12.8968 45.4186 12.8968 45.2683C12.8968 45.1179 12.8389 44.9906 12.7348 44.8865C12.6307 44.7824 12.5034 44.7361 12.353 44.7361H3.96561C3.81521 44.7361 3.68796 44.7824 3.58384 44.8865C3.47972 44.9906 3.42188 45.1179 3.42188 45.2683C3.42188 45.4186 3.47972 45.5459 3.58384 45.65C3.68796 45.7541 3.81521 45.812 3.96561 45.812Z" fill="#01352C" stroke="#02352C" stroke-width="0.3" stroke-miterlimit="10"/>
<path d="M15.2567 54.4653V46.2282H20.0231V54.4653C20.0231 54.6157 20.0809 54.7545 20.1851 54.8586C20.2892 54.9627 20.428 55.0206 20.5784 55.0206C20.7288 55.0206 20.8676 54.9627 20.9717 54.8586C21.0759 54.7545 21.1337 54.6157 21.1337 54.4653V45.6845L20.9717 45.3027L20.59 45.1523H14.7361L14.3543 45.3027L14.1924 45.6845V54.4653C14.1924 54.6157 14.2502 54.7545 14.3543 54.8586C14.4585 54.9627 14.5973 55.0206 14.7477 55.0206C14.8981 55.0206 15.0369 54.9627 15.141 54.8586C15.2451 54.7545 15.303 54.6157 15.303 54.4653" fill="#01352C"/>
<path d="M15.2567 54.4653V46.2282H20.0231V54.4653C20.0231 54.6157 20.0809 54.7545 20.1851 54.8586C20.2892 54.9627 20.428 55.0206 20.5784 55.0206C20.7288 55.0206 20.8676 54.9627 20.9717 54.8586C21.0759 54.7545 21.1337 54.6157 21.1337 54.4653V45.6845L20.9717 45.3027L20.59 45.1523H14.7361L14.3543 45.3027L14.1924 45.6845V54.4653C14.1924 54.6157 14.2502 54.7545 14.3543 54.8586C14.4585 54.9627 14.5973 55.0206 14.7477 55.0206C14.8981 55.0206 15.0369 54.9627 15.141 54.8586C15.2451 54.7545 15.303 54.6157 15.303 54.4653" stroke="#02352C" stroke-width="0.3" stroke-miterlimit="10"/>
<path d="M64.193 54.4655V45.1873L60.0051 22.1537C60.0051 22.0033 59.9472 21.8645 59.8431 21.7604C59.739 21.6562 59.6002 21.5984 59.4498 21.5984C59.2994 21.5984 59.1605 21.6562 59.0564 21.7604C58.9523 21.8645 58.8945 22.0033 58.8945 22.1537L54.7065 45.1873V54.4655C54.7065 54.6159 54.7644 54.7548 54.8685 54.8589C54.9726 54.963 55.1114 55.0208 55.2618 55.0208C55.4122 55.0208 55.5511 54.963 55.6552 54.8589C55.7593 54.7548 55.8172 54.6159 55.8172 54.4655V45.3261L59.4729 25.2541L63.1171 45.3261V54.4655C63.1171 54.6159 63.1749 54.7432 63.2791 54.8473C63.3832 54.9514 63.5104 55.0093 63.6608 55.0093C63.8112 55.0093 63.9385 54.9514 64.0426 54.8473C64.1467 54.7432 64.193 54.6159 64.193 54.4655Z" fill="#01352C" stroke="#02352C" stroke-width="0.3" stroke-miterlimit="10"/>
<path d="M51.8369 55.0092H65.8236V56.733C65.8236 56.8834 65.8815 57.0222 65.9856 57.1263C66.0897 57.2304 66.2285 57.2883 66.3789 57.2883C66.5293 57.2883 66.6681 57.2304 66.7723 57.1263C66.8764 57.0222 66.9342 56.8834 66.9342 56.733V54.5118L66.7723 54.13L66.3905 53.968H51.86C51.7096 53.968 51.5708 54.0259 51.4667 54.13C51.3625 54.2341 51.3047 54.3729 51.3047 54.5233C51.3047 54.6737 51.3625 54.8125 51.4667 54.9167C51.5708 55.0208 51.7096 55.0786 51.86 55.0786L51.8369 55.0092Z" fill="#01352C" stroke="#02352C" stroke-width="0.3" stroke-miterlimit="10"/>
<path d="M45.2317 56.7213V54.9975H48.1239C48.2743 54.9975 48.4015 54.9397 48.5057 54.8356C48.6098 54.7315 48.656 54.6042 48.656 54.4538C48.656 54.3034 48.5982 54.1762 48.5057 54.072C48.4131 53.9679 48.2743 53.9216 48.1239 53.9216H44.6995L44.3062 54.072L44.1558 54.4538V56.675C44.1558 56.8254 44.2136 56.9642 44.3177 57.0684C44.4218 57.1725 44.5607 57.2303 44.7111 57.2303C44.8615 57.2303 45.0003 57.1725 45.1044 57.0684C45.2085 56.9642 45.2664 56.8254 45.2664 56.675L45.2317 56.7213Z" fill="#01352C" stroke="#02352C" stroke-width="0.3" stroke-miterlimit="10"/>
<path d="M54.7411 54.0027V89.924H42.5359C42.3855 89.924 42.2583 89.9703 42.1542 90.0744C42.05 90.1785 41.9922 90.3058 41.9922 90.4562C41.9922 90.6066 42.05 90.7339 42.1542 90.838C42.2583 90.9421 42.3855 90.9999 42.5359 90.9999H55.2964L55.6897 90.8496L55.8401 90.4562V54.0027C55.8401 53.8523 55.7823 53.7251 55.6782 53.6209C55.574 53.5168 55.4468 53.459 55.2964 53.459C55.146 53.459 55.0187 53.5168 54.9146 53.6209C54.8105 53.7251 54.7642 53.8523 54.7642 54.0027" fill="#01352C"/>
<path d="M54.7411 54.0027V89.924H42.5359C42.3855 89.924 42.2583 89.9703 42.1542 90.0744C42.05 90.1785 41.9922 90.3058 41.9922 90.4562C41.9922 90.6066 42.05 90.7339 42.1542 90.838C42.2583 90.9421 42.3855 90.9999 42.5359 90.9999H55.2964L55.6897 90.8496L55.8401 90.4562V54.0027C55.8401 53.8523 55.7823 53.7251 55.6782 53.6209C55.574 53.5168 55.4468 53.459 55.2964 53.459C55.146 53.459 55.0187 53.5168 54.9146 53.6209C54.8105 53.7251 54.7642 53.8523 54.7642 54.0027" stroke="#02352C" stroke-width="0.3" stroke-miterlimit="10"/>
<path d="M65.824 55.067V89.9124H54.1048C53.9544 89.9124 53.8271 89.9587 53.723 90.0628C53.6189 90.167 53.561 90.2942 53.561 90.4446C53.561 90.595 53.6189 90.7223 53.723 90.8264C53.8271 90.9305 53.9544 90.9883 54.1048 90.9883H66.3678L66.7495 90.838L66.9115 90.4446V55.067C66.9115 54.9166 66.8537 54.7778 66.7495 54.6737C66.6454 54.5696 66.5066 54.5117 66.3562 54.5117C66.2058 54.5117 66.067 54.5696 65.9629 54.6737C65.8587 54.7778 65.8009 54.9166 65.8009 55.067" fill="#01352C"/>
<path d="M65.824 55.067V89.9124H54.1048C53.9544 89.9124 53.8271 89.9587 53.723 90.0628C53.6189 90.167 53.561 90.2942 53.561 90.4446C53.561 90.595 53.6189 90.7223 53.723 90.8264C53.8271 90.9305 53.9544 90.9883 54.1048 90.9883H66.3678L66.7495 90.838L66.9115 90.4446V55.067C66.9115 54.9166 66.8537 54.7778 66.7495 54.6737C66.6454 54.5696 66.5066 54.5117 66.3562 54.5117C66.2058 54.5117 66.067 54.5696 65.9629 54.6737C65.8587 54.7778 65.8009 54.9166 65.8009 55.067" stroke="#02352C" stroke-width="0.3" stroke-miterlimit="10"/>
<path d="M58.79 83.0639H59.3337V77.8232L59.1833 77.4414L58.79 77.2794L58.4082 77.4414L58.2578 77.8232V77.9157C58.2578 78.0661 58.3041 78.1934 58.4082 78.2975C58.5123 78.4016 58.6396 78.4595 58.79 78.4595C58.9404 78.4595 59.0676 78.4016 59.1717 78.2975C59.2759 78.1934 59.3337 78.0661 59.3337 77.9273C59.38 77.5687 59.4841 77.2216 59.6576 76.8977C59.97 76.2961 60.4328 75.868 61.0575 75.6135L60.8377 75.1161L60.6063 75.6135C61.3004 75.9027 61.7979 76.4002 62.0987 77.0943C62.1912 77.3026 62.2491 77.5224 62.2838 77.7538V77.9389C62.2838 78.0893 62.3416 78.2165 62.4573 78.3206C62.5614 78.4248 62.6887 78.471 62.8391 78.471C62.9895 78.471 63.1167 78.4132 63.2208 78.3091C63.325 78.2049 63.3712 78.0777 63.3712 77.9273V77.8347L63.2093 77.453L62.8275 77.291L62.4457 77.453L62.2838 77.8347V82.5433H58.7553V83.6192H62.8275L63.2093 83.4688L63.3712 83.0754V77.8232L63.2093 77.4414L62.8275 77.2794L62.4457 77.4414L62.2838 77.8232V77.9157H63.3944C63.3597 77.4645 63.2556 77.0365 63.0705 76.6316C62.6655 75.6829 61.983 75.0004 61.0459 74.5955H60.5947C59.6576 75.0119 58.9751 75.6945 58.5702 76.6316C58.3851 77.0365 58.281 77.4645 58.2578 77.9157H59.3684V77.8232C59.3684 77.6728 59.3106 77.5455 59.2065 77.4414C59.1023 77.3373 58.9751 77.2794 58.8247 77.2794C58.6743 77.2794 58.547 77.3373 58.4429 77.4414C58.3388 77.5455 58.2925 77.6728 58.2925 77.8232V83.0754L58.4429 83.4688L58.8247 83.6192L58.8015 83.0754L58.79 83.0639Z" fill="#01352C"/>
<path d="M58.2578 77.9157V77.8232L58.4082 77.4414L58.79 77.2794L59.1833 77.4414L59.3337 77.8232V83.0639H58.79L58.8015 83.0754L58.8247 83.6192L58.4429 83.4688L58.2925 83.0754V77.8232C58.2925 77.6728 58.3388 77.5455 58.4429 77.4414C58.547 77.3373 58.6743 77.2794 58.8247 77.2794C58.9751 77.2794 59.1023 77.3373 59.2065 77.4414C59.3106 77.5455 59.3684 77.6728 59.3684 77.8232V77.9157H58.2578ZM58.2578 77.9157C58.2578 78.0661 58.3041 78.1934 58.4082 78.2975C58.5123 78.4016 58.6396 78.4595 58.79 78.4595C58.9404 78.4595 59.0676 78.4016 59.1717 78.2975C59.2759 78.1934 59.3337 78.0661 59.3337 77.9273C59.38 77.5687 59.4841 77.2216 59.6576 76.8977C59.97 76.2961 60.4328 75.868 61.0575 75.6135L60.8377 75.1161L60.6063 75.6135C61.3004 75.9027 61.7979 76.4002 62.0987 77.0943C62.1912 77.3026 62.2491 77.5224 62.2838 77.7538V77.9389C62.2838 78.0893 62.3416 78.2165 62.4573 78.3206C62.5614 78.4248 62.6887 78.471 62.8391 78.471C62.9895 78.471 63.1167 78.4132 63.2208 78.3091C63.325 78.2049 63.3712 78.0777 63.3712 77.9273V77.8347L63.2093 77.453L62.8275 77.291L62.4457 77.453L62.2838 77.8347V82.5433H58.7553V83.6192H62.8275L63.2093 83.4688L63.3712 83.0754V77.8232L63.2093 77.4414L62.8275 77.2794L62.4457 77.4414L62.2838 77.8232V77.9157H63.3944C63.3597 77.4645 63.2556 77.0365 63.0705 76.6316C62.6655 75.6829 61.983 75.0004 61.0459 74.5955H60.5947C59.6576 75.0119 58.9751 75.6945 58.5702 76.6316C58.3851 77.0365 58.281 77.4645 58.2578 77.9157Z" stroke="#02352C" stroke-width="0.3" stroke-miterlimit="10"/>
<path d="M47.9041 82.9365H48.4478V77.6958L48.2859 77.3025L47.9041 77.1058L47.5108 77.2562L47.3604 77.6495V77.7421C47.3604 77.8925 47.4182 78.0313 47.5223 78.1354C47.6264 78.2395 47.7653 78.2974 47.9157 78.2974C48.0661 78.2974 48.2049 78.2395 48.309 78.1354C48.4131 78.0313 48.471 77.8925 48.471 77.7421C48.5288 77.2331 48.7139 76.7703 49.0263 76.3538C49.3386 75.9373 49.7204 75.625 50.1947 75.4167L49.9633 74.9308L49.7435 75.4167C50.4377 75.7175 50.9351 76.215 51.2359 76.8976C51.3285 77.1058 51.3863 77.3256 51.421 77.557V77.7421C51.421 77.8925 51.4789 78.0082 51.583 78.1123C51.6871 78.2164 51.8144 78.2627 51.9648 78.2742C52.1152 78.2742 52.2424 78.2164 52.3465 78.1123C52.4507 78.0082 52.4969 77.8809 52.4969 77.7305V77.638L52.3465 77.2446L51.9648 77.0942L51.5714 77.2446L51.421 77.638V82.3465H47.9041V83.4224H51.9763L52.3581 83.272L52.5085 82.8787V77.638L52.3581 77.2446L51.9763 77.0942L51.583 77.2446L51.4326 77.638V77.7305H52.5432C52.5201 77.2793 52.4159 76.8513 52.2308 76.4464C51.8259 75.4977 51.1434 74.8152 50.2063 74.3987H49.7551C48.8065 74.8152 48.1355 75.4977 47.7306 76.4464C47.5455 76.8513 47.4413 77.2793 47.4066 77.7305H48.5172V77.638C48.5172 77.4876 48.4594 77.3487 48.3553 77.2446C48.2512 77.1405 48.1123 77.0827 47.9619 77.0827C47.8115 77.0827 47.6727 77.1405 47.5686 77.2446C47.4645 77.3487 47.4066 77.4876 47.4066 77.638V82.8787L47.557 83.272L47.9504 83.4224L47.9157 82.9365H47.9041Z" fill="#01352C" stroke="#02352C" stroke-width="0.3" stroke-miterlimit="10"/>
<path d="M58.79 70.1644H59.3337V62.8182L59.1833 62.4364L58.79 62.2745L58.4082 62.4364L58.2578 62.8182V62.9107C58.2578 63.0611 58.3041 63.1884 58.4082 63.2925C58.5123 63.3966 58.6396 63.4545 58.79 63.4545C58.9404 63.4545 59.0676 63.3966 59.1717 63.2925C59.2759 63.1884 59.3337 63.0611 59.3337 62.9223C59.38 62.5637 59.4841 62.2166 59.6576 61.8927C59.97 61.2911 60.4328 60.8631 61.0575 60.6085L60.8377 60.1111L60.6063 60.6085C61.312 60.8978 61.8095 61.3952 62.0987 62.0894C62.1912 62.2976 62.2491 62.5058 62.2838 62.7372V62.9223C62.2838 63.0727 62.3416 63.2115 62.4457 63.3157C62.5499 63.4198 62.6887 63.4776 62.8391 63.4776C62.9895 63.4776 63.1283 63.4198 63.2324 63.3157C63.3365 63.2115 63.3944 63.0727 63.3944 62.9223V62.8298L63.2324 62.448L62.8506 62.286L62.4689 62.448L62.3069 62.8298V69.6438H58.7784V70.7197H62.8506L63.2324 70.5693L63.3944 70.176V62.8298L63.2324 62.448L62.8506 62.286L62.4689 62.448L62.3069 62.8298V62.9223H63.4175C63.3828 62.4711 63.2787 62.0431 63.0936 61.6382C62.6887 60.6895 62.0061 60.007 61.069 59.6021H60.6179C59.6808 60.0185 58.9982 60.7011 58.5933 61.6382C58.4082 62.0431 58.3041 62.4711 58.2809 62.9223H59.3916V62.8298C59.3916 62.6794 59.3337 62.5521 59.2296 62.448C59.1255 62.3439 58.9982 62.286 58.8478 62.286C58.6974 62.286 58.5702 62.3439 58.4661 62.448C58.3619 62.5521 58.3157 62.6794 58.3157 62.8298V70.176L58.4661 70.5693L58.8478 70.7197L58.8015 70.1644H58.79Z" fill="#01352C"/>
<path d="M63.3944 62.8298V62.9223C63.3944 63.0727 63.3365 63.2115 63.2324 63.3157C63.1283 63.4198 62.9895 63.4776 62.8391 63.4776C62.6887 63.4776 62.5499 63.4198 62.4457 63.3157C62.3416 63.2115 62.2838 63.0727 62.2838 62.9223V62.7372C62.2491 62.5058 62.1912 62.2976 62.0987 62.0894C61.8095 61.3952 61.312 60.8978 60.6063 60.6085L60.8377 60.1111L61.0575 60.6085C60.4328 60.8631 59.97 61.2911 59.6576 61.8927C59.4841 62.2166 59.38 62.5637 59.3337 62.9223C59.3337 63.0611 59.2759 63.1884 59.1717 63.2925C59.0676 63.3966 58.9404 63.4545 58.79 63.4545C58.6396 63.4545 58.5123 63.3966 58.4082 63.2925C58.3041 63.1884 58.2578 63.0611 58.2578 62.9107V62.8182L58.4082 62.4364L58.79 62.2745L59.1833 62.4364L59.3337 62.8182V70.1644H58.79H58.8015L58.8478 70.7197L58.4661 70.5693L58.3157 70.176V62.8298C58.3157 62.6794 58.3619 62.5521 58.4661 62.448C58.5702 62.3439 58.6974 62.286 58.8478 62.286C58.9982 62.286 59.1255 62.3439 59.2296 62.448C59.3337 62.5521 59.3916 62.6794 59.3916 62.8298V62.9223H58.2809C58.3041 62.4711 58.4082 62.0431 58.5933 61.6382C58.9982 60.7011 59.6808 60.0185 60.6179 59.6021H61.069C62.0061 60.007 62.6887 60.6895 63.0936 61.6382C63.2787 62.0431 63.3828 62.4711 63.4175 62.9223H62.3069V62.8298M63.3944 62.8298L63.2324 62.448L62.8506 62.286L62.4689 62.448L62.3069 62.8298M63.3944 62.8298V70.176L63.2324 70.5693L62.8506 70.7197H58.7784V69.6438H62.3069V62.8298" stroke="#02352C" stroke-width="0.3" stroke-miterlimit="10"/>
<path d="M47.9041 70.1643H48.4478V62.818L48.2859 62.4363L47.9041 62.2743L47.5108 62.4363L47.3604 62.818V62.9106C47.3604 63.061 47.4066 63.1883 47.5108 63.2924C47.6149 63.3965 47.7421 63.4543 47.8925 63.4543C48.0429 63.4543 48.1702 63.4081 48.2743 63.3039C48.3784 63.1998 48.4363 63.0726 48.4478 62.9222C48.4941 62.5635 48.5982 62.2165 48.7718 61.8925C49.0841 61.291 49.5469 60.8629 50.1716 60.6084L49.9402 60.1109L49.7204 60.6084C50.4145 60.9092 50.912 61.3951 51.2128 62.0892C51.3053 62.2975 51.3632 62.5057 51.3979 62.7371V62.9222C51.3979 63.0726 51.4557 63.1998 51.5599 63.3039C51.664 63.4081 51.7912 63.4543 51.9416 63.4543C52.092 63.4543 52.2193 63.3965 52.3234 63.2924C52.4275 63.1883 52.4738 63.061 52.4738 62.9106V62.818L52.3234 62.4363L51.9416 62.2743L51.5483 62.4363L51.3979 62.818V69.6321H47.9041V70.708H51.9763L52.3581 70.5576L52.5085 70.1643V62.818L52.3581 62.4363L51.9763 62.2743L51.583 62.4363L51.4326 62.818V62.9106H52.5432C52.5201 62.4594 52.4159 62.0314 52.2308 61.6265C51.8144 60.6894 51.1434 60.0068 50.2063 59.5903H49.7551C48.818 60.0068 48.1355 60.6894 47.7306 61.6265C47.5455 62.0314 47.4413 62.4594 47.4066 62.9106H48.5172V62.818C48.5172 62.6677 48.4594 62.5288 48.3553 62.4247C48.2512 62.3206 48.1123 62.2627 47.9619 62.2627C47.8115 62.2627 47.6727 62.3206 47.5686 62.4247C47.4645 62.5288 47.4066 62.6677 47.4066 62.818V70.1643L47.557 70.5576L47.9504 70.708L47.9157 70.1643H47.9041Z" fill="#01352C" stroke="#02352C" stroke-width="0.3" stroke-miterlimit="10"/>
<path d="M66.9114 54.5925V48.9122C66.9114 48.7618 66.8535 48.623 66.7494 48.5189C66.6453 48.4148 66.5065 48.3569 66.3561 48.3569C66.2057 48.3569 66.0669 48.4148 65.9627 48.5189C65.8586 48.623 65.8008 48.7618 65.8008 48.9122V54.5925C65.8008 54.7429 65.8586 54.8818 65.9627 54.9859C66.0669 55.09 66.2057 55.1479 66.3561 55.1479C66.5065 55.1479 66.6453 55.09 66.7494 54.9859C66.8535 54.8818 66.9114 54.7429 66.9114 54.5925Z" fill="#01352C" stroke="#02352C" stroke-width="0.3" stroke-miterlimit="10"/>
<path d="M58.9292 19.8515V22.2347C58.9292 22.3851 58.9755 22.5123 59.0796 22.6165C59.1837 22.7206 59.311 22.7784 59.4614 22.7784C59.6118 22.7784 59.739 22.7206 59.8431 22.6165C59.9473 22.5123 60.0051 22.3851 60.0051 22.2347V19.8515C60.0051 19.7011 59.9473 19.5738 59.8431 19.4697C59.739 19.3656 59.6118 19.3193 59.4614 19.3193C59.311 19.3193 59.1837 19.3656 59.0796 19.4697C58.9755 19.5738 58.9292 19.7011 58.9292 19.8515Z" fill="#01352C" stroke="#02352C" stroke-width="0.3" stroke-miterlimit="10"/>
<path d="M45.1849 62.5407L47.626 56.9992L48.6093 54.7779L49.9744 51.6428L51.3511 54.7779L52.3229 56.9992L54.7755 62.5407C54.8334 62.6795 54.9375 62.772 55.0763 62.8299C55.2151 62.8877 55.354 62.8877 55.4928 62.8299C55.62 62.772 55.7242 62.6679 55.7705 62.5291C55.8283 62.3903 55.8283 62.2514 55.7705 62.1242L53.3294 56.5248L52.3461 54.3036L50.4835 50.0347C50.3909 49.8149 50.229 49.6992 49.986 49.6992C49.7431 49.6992 49.5811 49.8149 49.4886 50.0347L47.626 54.3036L46.6426 56.5248L44.2016 62.1242C44.1437 62.263 44.1437 62.4018 44.2016 62.5407C44.2594 62.6795 44.352 62.772 44.4908 62.8299C44.6296 62.8877 44.7685 62.8877 44.9073 62.8299C45.0461 62.772 45.1387 62.6795 45.1965 62.5407H45.1849Z" fill="#01352C" stroke="#02352C" stroke-width="0.3" stroke-miterlimit="10"/>
<path d="M63.6607 44.7361H55.2617C55.1113 44.7361 54.984 44.7939 54.8799 44.898C54.7758 45.0022 54.7295 45.1294 54.7295 45.2798C54.7295 45.4302 54.7758 45.5575 54.8799 45.6616C54.984 45.7657 55.1113 45.812 55.2617 45.812H63.6607C63.8111 45.812 63.9383 45.7657 64.0424 45.6616C64.1466 45.5575 64.1928 45.4302 64.1928 45.2798C64.1928 45.1294 64.1466 45.0022 64.0424 44.898C63.9383 44.7939 63.8111 44.7361 63.6607 44.7361Z" fill="#01352C" stroke="#02352C" stroke-width="0.3" stroke-miterlimit="10"/>
<path d="M53.4454 54.4653V45.6845L53.295 45.3027L52.9016 45.1523H47.0478L46.666 45.3027L46.5156 45.6845V54.4653C46.5156 54.6157 46.5619 54.7429 46.666 54.847C46.7701 54.9512 46.8974 55.009 47.0478 55.009C47.1982 55.009 47.3254 54.9512 47.4296 54.847C47.5337 54.7429 47.5915 54.6157 47.5915 54.4653V46.2282H52.3348V54.4653C52.3348 54.6157 52.381 54.7429 52.4852 54.847C52.5893 54.9512 52.7165 55.009 52.8669 55.009C53.0173 55.009 53.1446 54.9512 53.2487 54.847C53.3528 54.7429 53.4107 54.6157 53.4107 54.4653" fill="#01352C"/>
<path d="M53.4454 54.4653V45.6845L53.295 45.3027L52.9016 45.1523H47.0478L46.666 45.3027L46.5156 45.6845V54.4653C46.5156 54.6157 46.5619 54.7429 46.666 54.847C46.7701 54.9512 46.8974 55.009 47.0478 55.009C47.1982 55.009 47.3254 54.9512 47.4296 54.847C47.5337 54.7429 47.5915 54.6157 47.5915 54.4653V46.2282H52.3348V54.4653C52.3348 54.6157 52.381 54.7429 52.4852 54.847C52.5893 54.9512 52.7165 55.009 52.8669 55.009C53.0173 55.009 53.1446 54.9512 53.2487 54.847C53.3528 54.7429 53.4107 54.6157 53.4107 54.4653" stroke="#02352C" stroke-width="0.3" stroke-miterlimit="10"/>
</svg>
