<svg width="80" height="52" viewBox="0 0 80 52" fill="none" xmlns="http://www.w3.org/2000/svg">
<g clip-path="url(#clip0_44_734)">
<path fill-rule="evenodd" clip-rule="evenodd" d="M79.4901 40.2401V13.5001C79.5101 13.1901 79.6201 10.7001 77.0601 8.51007C76.4701 8.03007 75.7501 7.55007 74.9401 7.10007C68.1801 3.38007 54.9101 1.07007 40.3201 1.07007C25.7301 1.07007 12.4501 3.38007 5.69014 7.11007C4.88014 7.56007 4.16014 8.04007 3.56014 8.53007C1.11014 10.4101 1.26014 13.5101 1.26014 13.5401L1.14014 40.2501C1.14014 42.1501 2.76014 44.0901 5.69014 45.7101C12.4501 49.4301 25.7201 51.7501 40.3101 51.7501C54.9001 51.7501 68.1701 49.4401 74.9301 45.7101C77.8601 44.0901 79.4801 42.1501 79.4801 40.2501L79.4901 40.2401ZM68.4201 6.57007L68.5701 5.43007L69.6601 5.80007C71.5401 6.43007 73.1701 7.13007 74.5201 7.87007C75.8901 8.63007 76.9001 9.39007 77.6001 10.2001C78.2901 11.0001 78.6201 11.7701 78.6201 12.5801C78.6201 13.3901 78.2901 14.1601 77.6001 14.9601C76.8901 15.7701 75.8901 16.5401 74.5201 17.2901C73.9701 17.6001 73.3601 17.9001 72.7101 18.1901L72.2501 18.3901L71.8201 18.1301C69.6901 16.8301 67.1701 15.6801 64.3301 14.7001L63.1401 14.2901L68.3401 6.76007C68.3801 6.70007 68.4001 6.64007 68.4101 6.58007L68.4201 6.57007ZM54.7401 2.72007L55.6201 2.83007C59.8501 3.35007 63.6701 4.07007 66.9801 4.98007L68.2701 5.34007L62.2701 14.0301L61.6101 13.8401C58.8901 13.0601 55.9401 12.4401 52.8701 11.9801L51.7301 11.8101L54.5701 3.59007L54.7401 2.72007ZM40.7501 1.93007H41.7101C45.5201 1.98007 49.2501 2.17007 52.7901 2.52007L53.9901 2.64007L50.8601 11.7101L50.1001 11.6301C47.3501 11.3201 44.5101 11.1401 41.6801 11.1001H40.7401V1.93007H40.7501ZM69.3801 17.7301L71.4201 18.7801L69.2401 19.4901C61.9701 21.8501 51.4201 23.2101 40.3201 23.2101C29.2201 23.2101 18.6701 21.8501 11.4001 19.4901L9.22014 18.7801L11.2601 17.7301C18.4401 14.0501 29.0401 11.9401 40.3201 11.9401C51.6001 11.9401 62.2001 14.0501 69.3801 17.7301ZM27.8401 2.52007C31.3901 2.18007 35.1201 1.98007 38.9201 1.94007H39.8801V11.0801H38.9401C36.1101 11.1301 33.2701 11.3101 30.5201 11.6201L29.7601 11.7001L26.6301 2.63007L27.8301 2.51007L27.8401 2.52007ZM13.6501 4.98007C16.9701 4.07007 20.7901 3.35007 25.0101 2.83007L25.8901 2.72007L26.0601 3.59007L28.9001 11.8101L27.7601 11.9801C24.6701 12.4301 21.7301 13.0601 19.0101 13.8401L18.3501 14.0301L12.3501 5.34007L13.6401 4.98007H13.6501ZM3.02014 10.1901C3.72014 9.38007 4.73014 8.61007 6.10014 7.86007C7.45014 7.12007 9.08014 6.42007 10.9601 5.79007L12.0601 5.42007L12.2101 6.57007C12.2101 6.63007 12.2401 6.70007 12.2801 6.75007L17.4801 14.2801L16.2901 14.6901C13.4501 15.6701 10.9301 16.8201 8.80014 18.1201L8.37014 18.3801L7.91014 18.1801C7.26014 17.8901 6.65014 17.5901 6.10014 17.2801C4.73014 16.5301 3.72014 15.7601 3.02014 14.9501C2.33014 14.1501 2.00014 13.3701 2.00014 12.5701C2.00014 11.7701 2.33014 10.9901 3.02014 10.1901ZM2.00014 15.3501L3.55014 16.6101C4.16014 17.1101 4.88014 17.5801 5.68014 18.0301C11.4901 21.2301 22.3801 23.4501 34.7901 23.9501H45.8601C58.2501 23.4401 69.1201 21.2201 74.9301 18.0301C75.7401 17.5801 76.4601 17.1101 77.0701 16.6101L78.6201 15.3501V19.4801C78.6201 20.2801 78.2901 21.0601 77.6001 21.8601C76.9001 22.6701 75.8901 23.4401 74.5201 24.1901C69.0201 27.2201 58.7301 29.3701 46.9901 29.9501L46.6401 29.9801C46.6401 29.9801 43.7001 30.1601 40.7601 30.1601H40.4901C37.7701 30.1501 34.8401 30.0101 34.2701 29.9801H34.1601C22.1701 29.4401 11.6801 27.2701 6.09014 24.1901C4.72014 23.4401 3.71014 22.6701 3.01014 21.8601C2.32014 21.0601 1.99014 20.2901 1.99014 19.4801V15.3501H2.00014ZM12.2101 47.4401L10.9501 47.0201C9.08014 46.3901 7.45014 45.6901 6.10014 44.9501C4.73014 44.2001 3.72014 43.4301 3.02014 42.6201C2.33014 41.8201 2.00014 41.0501 2.00014 40.2401V29.1801L3.55014 30.4501C4.16014 30.9501 4.88014 31.4201 5.68014 31.8601C7.24014 32.7201 9.21014 33.5201 11.5301 34.2501L12.2001 34.4601V47.4301L12.2101 47.4401ZM31.5801 50.6101L30.5601 50.5401C24.2801 50.0801 18.4701 49.1601 13.7801 47.8801L13.0801 47.6901V34.7401L14.2701 35.0501C18.9701 36.2601 24.6501 37.1401 30.7101 37.5801L31.5901 37.6401V50.6201L31.5801 50.6101ZM39.8801 50.8901H38.9201C37.0601 50.8601 35.1801 50.8001 33.3401 50.7101L32.4401 50.6601V38.8801C32.4301 38.6801 32.4701 38.1401 33.1401 37.8301L33.3601 37.7301H33.6001C35.3501 37.8301 37.1501 37.8901 38.9501 37.9001H39.8901V50.8801L39.8801 50.8901ZM6.11014 31.1101C4.74014 30.3501 3.73014 29.5901 3.03014 28.7801C2.34014 27.9801 2.01014 27.2101 2.01014 26.4001V22.2601L3.56014 23.5301C4.16014 24.0201 4.88014 24.5001 5.69014 24.9501C12.4501 28.6701 25.7201 30.9901 40.3101 30.9901C54.9001 30.9901 68.1801 28.6801 74.9301 24.9501C75.7401 24.5001 76.4601 24.0301 77.0601 23.5301L78.6101 22.2601V26.4001C78.6101 27.2001 78.2801 27.9801 77.5901 28.7801C76.8901 29.5901 75.8801 30.3601 74.5101 31.1101C67.8701 34.7701 54.7601 37.0401 40.3001 37.0401C25.8401 37.0401 12.7301 34.7701 6.09014 31.1101H6.11014ZM47.2801 50.7001C45.4401 50.8001 43.5701 50.8501 41.7101 50.8701H40.7501V37.9101H41.6901C43.4701 37.8801 45.2501 37.8301 46.9801 37.7401H47.2001L47.4101 37.8201C47.9101 38.0401 48.0901 38.3801 48.1501 38.6201L48.1801 38.8101V50.6601L47.2801 50.7101V50.7001ZM67.5601 47.6801L66.8601 47.8701C62.1601 49.1501 56.3601 50.0701 50.0801 50.5301L49.0601 50.6001V37.6201L49.9401 37.5601C55.9901 37.1201 61.6801 36.2401 66.3801 35.0301L67.5701 34.7201V47.6801H67.5601ZM74.5201 44.9501C73.1801 45.6901 71.5501 46.3801 69.6701 47.0201L68.4101 47.4401V34.4701L69.0801 34.2601C71.4001 33.5301 73.3701 32.7301 74.9301 31.8701C75.7401 31.4301 76.4501 30.9501 77.0601 30.4501L78.6101 29.1801V40.2401C78.6101 41.0401 78.2801 41.8201 77.5901 42.6201C76.8901 43.4301 75.8801 44.2001 74.5101 44.9501H74.5201Z" fill="#01352C" stroke="#02352C" stroke-width="0.5" stroke-miterlimit="10"/>
</g>
<defs>
<clipPath id="clip0_44_734">
<rect width="78.86" height="51.18" fill="white" transform="translate(0.890137 0.820068)"/>
</clipPath>
</defs>
</svg>
