<svg width="32" height="110" viewBox="0 0 32 110" fill="none" xmlns="http://www.w3.org/2000/svg">
<g clip-path="url(#clip0_44_1356)">
<path d="M1.29443 87.2854V105.103C1.29443 106.764 1.35484 107.967 1.36692 108.689V109.29C1.36692 109.411 1.41524 109.507 1.49981 109.591C1.58438 109.675 1.68103 109.711 1.80184 109.711H30.736C30.8568 109.711 30.9534 109.675 31.038 109.591C31.1226 109.507 31.1588 109.411 31.1588 109.29V108.689C31.1588 108.027 31.1588 106.812 31.2313 105.103C31.2313 103.263 31.3038 100.856 31.3279 98.0412C31.3279 94.9612 31.4004 91.376 31.4004 87.4418V66.0385C31.4004 64.8475 31.4004 63.6444 31.34 62.4533C31.2796 61.2622 31.34 60.0591 31.2555 58.868C31.1709 57.6769 31.2555 56.4738 31.1709 55.3429C31.0863 54.212 31.0984 52.9487 31.0501 51.7577C31.0018 50.5666 30.9655 49.3635 30.9172 48.1724C30.8689 46.9813 30.8205 45.7782 30.7601 44.5872C30.6997 43.3961 30.6514 42.193 30.591 41.0019C30.5306 39.8108 30.446 38.6077 30.3735 37.4166C30.3011 36.2256 30.2165 35.0225 30.1319 33.8314C30.0474 32.6403 29.9386 31.4974 29.842 30.3785V30.3063C29.7332 29.1152 29.6124 27.9121 29.4795 26.721C29.3467 25.5299 29.1654 24.3268 28.9963 23.1358C28.8272 21.9447 28.5976 20.7416 28.3681 19.5505C28.1385 18.3594 27.8486 17.0962 27.5707 15.9653C27.2445 14.6779 26.8942 13.4869 26.5318 12.38C25.7344 9.85347 24.623 7.45929 23.1974 5.20949C20.0442 0.445185 16.9756 0.288781 16.8548 0.300812H15.8642C15.7192 0.300812 11.3096 0.553464 7.64907 8.80677C7.17791 9.85348 6.71883 11.0566 6.25975 12.392C5.89732 13.4748 5.55905 14.6659 5.23286 15.9773C4.95499 17.0841 4.68921 18.2752 4.43551 19.5625C4.18181 20.8499 4.00059 21.8605 3.80729 23.1478C3.614 24.4351 3.48111 25.4578 3.33613 26.7331C3.19116 28.0083 3.07035 29.043 2.96162 30.3183V30.3905C2.86497 31.5214 2.7804 32.6884 2.68376 33.8554C2.58711 35.0225 2.51462 36.2496 2.44213 37.4407C2.36965 38.6318 2.29716 39.8349 2.22468 41.026C2.10386 43.3359 1.98305 45.694 1.89849 48.1002C1.81392 50.5064 1.71727 52.7923 1.64478 55.1745C1.64478 56.3656 1.5723 57.5687 1.54814 58.6996C1.52397 59.8305 1.54814 61.0938 1.46357 62.2848C1.46357 64.679 1.39108 67.0612 1.35484 69.3591V87.129C1.33068 87.2613 1.35484 87.3816 1.45149 87.4779C1.53605 87.5741 1.64478 87.6343 1.78976 87.6343C1.93473 87.6343 2.03138 87.5862 2.12803 87.4779C2.21259 87.3816 2.24884 87.2613 2.22468 87.129V69.4193C2.22468 67.0251 2.28508 64.7271 2.3334 62.357C2.3334 61.166 2.3334 59.9628 2.41797 58.7718C2.50254 57.5807 2.47838 56.3776 2.50254 55.2467C2.57503 52.8525 2.65959 50.5064 2.75624 48.1844C2.85289 45.8624 2.96162 43.5164 3.08243 41.1222C3.15492 39.9311 3.2274 38.728 3.29989 37.5971C3.37238 36.4662 3.45694 35.2029 3.55359 34.072C3.65024 32.9411 3.73481 31.738 3.83146 30.6191V30.5469C3.95227 29.3558 4.07308 28.1527 4.20597 27.0218C4.33886 25.8909 4.508 24.6276 4.67713 23.5087C4.84626 22.3898 5.07581 21.1145 5.29326 19.9235C5.51072 18.7324 5.80067 17.5293 6.07853 16.4224C6.40472 15.1471 6.74299 14.0283 7.09334 12.9094C7.52826 11.61 7.97526 10.443 8.44642 9.42036C10.2465 5.40198 12.1674 3.44092 13.5809 2.41828C14.1124 2.03328 14.6802 1.74454 15.3085 1.55204C15.4534 1.50392 15.6105 1.46782 15.7675 1.44376H16.879C17.0844 1.44376 19.6456 1.70845 22.4725 5.96744C23.9223 8.24131 25.0458 10.6716 25.819 13.2462C26.1814 14.305 26.5197 15.472 26.8459 16.7473C27.1237 17.8301 27.3895 19.0091 27.6311 20.2483C27.8728 21.4875 28.054 22.5342 28.2473 23.8336C28.4406 25.1329 28.5855 26.1195 28.7305 27.3466C28.8755 28.5738 28.9842 29.6446 29.093 30.8717V30.9439C29.1896 32.0628 29.2862 33.2178 29.3708 34.3968C29.4554 35.5759 29.54 36.7309 29.6245 37.9219C29.7091 39.113 29.7574 40.256 29.8299 41.447L30.0111 45.0323C30.0715 46.2234 30.1198 47.4265 30.1682 48.6176C30.2165 49.8086 30.2527 51.0117 30.3011 52.2028L30.4098 55.7881C30.4098 56.9791 30.4702 58.1822 30.5064 59.3132L30.5789 62.8984C30.5789 64.0895 30.5789 65.2926 30.6393 66.4235C30.6997 67.5544 30.6393 68.8177 30.6997 70.0088C30.7601 71.1999 30.6997 72.403 30.6997 73.5339V87.7666C30.6997 91.7008 30.6997 95.286 30.6272 98.354C30.6272 101.181 30.5548 103.575 30.5306 105.416C30.5064 107.257 30.4702 108.28 30.4581 109.001V109.603H30.893V109.182H1.98305V109.603H2.41797V108.989C2.41797 108.328 2.41797 107.125 2.35757 105.404C2.35757 104.394 2.35757 103.202 2.29716 101.879V87.6584C2.32132 87.526 2.29716 87.4057 2.20051 87.3095C2.11595 87.2132 2.00722 87.1531 1.86224 87.1531C1.71727 87.1531 1.62062 87.2012 1.52397 87.3095C1.43941 87.4057 1.40316 87.526 1.42733 87.6584" fill="#01352C"/>
<path d="M1.29443 87.2854V105.103C1.29443 106.764 1.35484 107.967 1.36692 108.689V109.29C1.36692 109.411 1.41524 109.507 1.49981 109.591C1.58438 109.675 1.68103 109.711 1.80184 109.711H30.736C30.8568 109.711 30.9534 109.675 31.038 109.591C31.1226 109.507 31.1588 109.411 31.1588 109.29V108.689C31.1588 108.027 31.1588 106.812 31.2313 105.103C31.2313 103.263 31.3038 100.856 31.3279 98.0412C31.3279 94.9612 31.4004 91.376 31.4004 87.4418V66.0385C31.4004 64.8475 31.4004 63.6444 31.34 62.4533C31.2796 61.2622 31.34 60.0591 31.2555 58.868C31.1709 57.6769 31.2555 56.4738 31.1709 55.3429C31.0863 54.212 31.0984 52.9487 31.0501 51.7577C31.0018 50.5666 30.9655 49.3635 30.9172 48.1724C30.8689 46.9813 30.8205 45.7782 30.7601 44.5872C30.6997 43.3961 30.6514 42.193 30.591 41.0019C30.5306 39.8108 30.446 38.6077 30.3735 37.4166C30.3011 36.2256 30.2165 35.0225 30.1319 33.8314C30.0474 32.6403 29.9386 31.4974 29.842 30.3785V30.3063M29.842 30.3063H29.4191M29.842 30.3063C29.7332 29.1152 29.6124 27.9121 29.4795 26.721C29.3467 25.5299 29.1654 24.3268 28.9963 23.1358C28.8272 21.9447 28.5976 20.7416 28.3681 19.5505C28.1385 18.3594 27.8486 17.0962 27.5707 15.9653C27.2445 14.6779 26.8942 13.4869 26.5318 12.38C25.7344 9.85347 24.623 7.45929 23.1974 5.20949C20.0442 0.445185 16.9756 0.288781 16.8548 0.300812H15.8642C15.7192 0.300812 11.3096 0.553464 7.64907 8.80677C7.17791 9.85348 6.71883 11.0566 6.25975 12.392C5.89732 13.4748 5.55905 14.6659 5.23286 15.9773C4.95499 17.0841 4.68921 18.2752 4.43551 19.5625C4.18181 20.8499 4.00059 21.8605 3.80729 23.1478C3.614 24.4351 3.48111 25.4578 3.33613 26.7331C3.19116 28.0083 3.07035 29.043 2.96162 30.3183V30.3905C2.86497 31.5214 2.7804 32.6884 2.68376 33.8554C2.58711 35.0225 2.51462 36.2496 2.44213 37.4407C2.36965 38.6318 2.29716 39.8349 2.22468 41.026C2.10386 43.3359 1.98305 45.694 1.89849 48.1002C1.81392 50.5064 1.71727 52.7923 1.64478 55.1745C1.64478 56.3656 1.5723 57.5687 1.54814 58.6996C1.52397 59.8305 1.54814 61.0938 1.46357 62.2848C1.46357 64.679 1.39108 67.0612 1.35484 69.3591V87.129C1.33068 87.2613 1.35484 87.3816 1.45149 87.4779C1.53605 87.5741 1.64478 87.6343 1.78976 87.6343C1.93473 87.6343 2.03138 87.5862 2.12803 87.4779C2.21259 87.3816 2.24884 87.2613 2.22468 87.129V69.4193C2.22468 67.0251 2.28508 64.7271 2.3334 62.357C2.3334 61.166 2.3334 59.9628 2.41797 58.7718C2.50254 57.5807 2.47838 56.3776 2.50254 55.2467C2.57503 52.8525 2.65959 50.5064 2.75624 48.1844C2.85289 45.8624 2.96162 43.5164 3.08243 41.1222C3.15492 39.9311 3.2274 38.728 3.29989 37.5971C3.37238 36.4662 3.45694 35.2029 3.55359 34.072C3.65024 32.9411 3.73481 31.738 3.83146 30.6191V30.5469C3.95227 29.3558 4.07308 28.1527 4.20597 27.0218C4.33886 25.8909 4.508 24.6276 4.67713 23.5087C4.84626 22.3898 5.07581 21.1145 5.29326 19.9235C5.51072 18.7324 5.80067 17.5293 6.07853 16.4224C6.40472 15.1471 6.74299 14.0283 7.09334 12.9094C7.52826 11.61 7.97526 10.443 8.44642 9.42036C10.2465 5.40198 12.1674 3.44092 13.5809 2.41828C14.1124 2.03328 14.6802 1.74454 15.3085 1.55204C15.4534 1.50392 15.6105 1.46782 15.7675 1.44376H16.879C17.0844 1.44376 19.6456 1.70845 22.4725 5.96744C23.9223 8.24131 25.0458 10.6716 25.819 13.2462C26.1814 14.305 26.5197 15.472 26.8459 16.7473C27.1237 17.8301 27.3895 19.0091 27.6311 20.2483C27.8728 21.4875 28.054 22.5342 28.2473 23.8336C28.4406 25.1329 28.5855 26.1195 28.7305 27.3466C28.8755 28.5738 28.9842 29.6446 29.093 30.8717V30.9439M29.093 30.9439H29.5158M29.093 30.9439C29.1896 32.0628 29.2862 33.2178 29.3708 34.3968C29.4554 35.5759 29.54 36.7309 29.6245 37.9219C29.7091 39.113 29.7574 40.256 29.8299 41.447L30.0111 45.0323C30.0715 46.2234 30.1198 47.4265 30.1682 48.6176C30.2165 49.8086 30.2527 51.0117 30.3011 52.2028L30.4098 55.7881C30.4098 56.9791 30.4702 58.1822 30.5064 59.3132L30.5789 62.8984C30.5789 64.0895 30.5789 65.2926 30.6393 66.4235C30.6997 67.5544 30.6393 68.8177 30.6997 70.0088C30.7601 71.1999 30.6997 72.403 30.6997 73.5339V87.7666C30.6997 91.7008 30.6997 95.286 30.6272 98.354C30.6272 101.181 30.5548 103.575 30.5306 105.416C30.5064 107.257 30.4702 108.28 30.4581 109.001V109.603H30.893V109.182H1.98305V109.603H2.41797V108.989C2.41797 108.328 2.41797 107.125 2.35757 105.404C2.35757 104.394 2.35757 103.202 2.29716 101.879V87.6584C2.32132 87.526 2.29716 87.4057 2.20051 87.3095C2.11595 87.2132 2.00722 87.1531 1.86224 87.1531C1.71727 87.1531 1.62062 87.2012 1.52397 87.3095C1.43941 87.4057 1.40316 87.526 1.42733 87.6584" stroke="#02352C" stroke-width="0.5" stroke-miterlimit="10"/>
<path d="M30.905 59.0123V58.5912H1.99498V59.0123H2.42989C2.42989 57.8212 2.4903 56.6181 2.51446 55.4872H2.09163V55.9203H30.8083V55.5353H30.3734C30.3734 56.7264 30.4459 57.9295 30.47 59.0604H31.3278C31.3278 57.8694 31.2674 56.6663 31.2432 55.5353C31.2311 55.2586 31.0862 55.1263 30.8083 55.1143H2.09163C1.97081 55.1143 1.87417 55.1503 1.7896 55.2346C1.70503 55.3188 1.65671 55.415 1.65671 55.5353C1.65671 56.7264 1.5963 57.9295 1.56006 59.0604L1.68087 59.3733L1.99498 59.5056H30.905L31.207 59.3733L31.3278 59.0604L30.905 59.0123Z" fill="#01352C"/>
<path d="M31.3278 59.0604H30.47C30.4459 57.9295 30.3734 56.7264 30.3734 55.5353H30.8083V55.9203H2.09163V55.4872H2.51446C2.4903 56.6181 2.42989 57.8212 2.42989 59.0123H1.99498V58.5912H30.905V59.0123L31.3278 59.0604ZM31.3278 59.0604C31.3278 57.8694 31.2674 56.6663 31.2432 55.5353C31.2311 55.2586 31.0862 55.1263 30.8083 55.1143H2.09163C1.97081 55.1143 1.87417 55.1503 1.7896 55.2346C1.70503 55.3188 1.65671 55.415 1.65671 55.5353C1.65671 56.7264 1.5963 57.9295 1.56006 59.0604L1.68087 59.3733L1.99498 59.5056H30.905L31.207 59.3733L31.3278 59.0604Z" stroke="#02352C" stroke-width="0.5" stroke-miterlimit="10"/>
<path d="M28.4162 73.5819H31.1345C31.2553 73.5819 31.364 73.5458 31.4486 73.4616C31.5332 73.3774 31.5815 73.2811 31.5815 73.1608C31.5815 73.0405 31.5332 72.9443 31.4486 72.8601C31.364 72.7758 31.2553 72.7397 31.1345 72.7397H28.4162C28.2954 72.7397 28.1867 72.7758 28.1021 72.8601C28.0176 72.9443 27.9692 73.0405 27.9692 73.1608C27.9692 73.2811 28.0176 73.3774 28.1021 73.4616C28.1867 73.5458 28.2954 73.5819 28.4162 73.5819Z" fill="#01352C" stroke="#02352C" stroke-width="0.5" stroke-miterlimit="10"/>
<path d="M1.76536 73.5819H11.394C11.5148 73.5819 11.6235 73.5458 11.7081 73.4616C11.7926 73.3774 11.841 73.2811 11.841 73.1608C11.841 73.0405 11.7926 72.9443 11.7081 72.8601C11.6235 72.7758 11.5148 72.7397 11.394 72.7397H1.76536C1.64455 72.7397 1.53582 72.7758 1.45125 72.8601C1.36668 72.9443 1.31836 73.0405 1.31836 73.1608C1.31836 73.2811 1.36668 73.3774 1.45125 73.4616C1.53582 73.5458 1.64455 73.5819 1.76536 73.5819Z" fill="#01352C" stroke="#02352C" stroke-width="0.5" stroke-miterlimit="10"/>
<path d="M31.1105 69.1907H21.3127C21.1919 69.1907 21.0953 69.2268 20.9986 69.3111C20.914 69.3953 20.8657 69.4915 20.8657 69.6118C20.8657 69.7321 20.914 69.8284 20.9986 69.9126C21.0832 69.9968 21.1919 70.0329 21.3127 70.0329H31.1105C31.2313 70.0329 31.3279 69.9848 31.4125 69.9006C31.4971 69.8164 31.5333 69.7201 31.5333 69.5998C31.5333 69.4795 31.4971 69.3832 31.4125 69.299C31.3279 69.2148 31.2313 69.1787 31.1105 69.1787" fill="#01352C"/>
<path d="M31.1105 69.1907H21.3127C21.1919 69.1907 21.0953 69.2268 20.9986 69.3111C20.914 69.3953 20.8657 69.4915 20.8657 69.6118C20.8657 69.7321 20.914 69.8284 20.9986 69.9126C21.0832 69.9968 21.1919 70.0329 21.3127 70.0329H31.1105C31.2313 70.0329 31.3279 69.9848 31.4125 69.9006C31.4971 69.8164 31.5333 69.7201 31.5333 69.5998C31.5333 69.4795 31.4971 69.3832 31.4125 69.299C31.3279 69.2148 31.2313 69.1787 31.1105 69.1787" stroke="#02352C" stroke-width="0.5" stroke-miterlimit="10"/>
<path d="M1.80198 70.0448H16.7583C16.8791 70.0448 16.9879 70.0087 17.0724 69.9245C17.157 69.8403 17.2053 69.744 17.2053 69.6237C17.2053 69.5034 17.157 69.4072 17.0724 69.3229C16.9879 69.2387 16.8791 69.2026 16.7583 69.2026H1.80198C1.68117 69.2026 1.57244 69.2387 1.48787 69.3229C1.4033 69.4072 1.35498 69.5034 1.35498 69.6237C1.35498 69.744 1.4033 69.8403 1.48787 69.9245C1.57244 70.0087 1.68117 70.0448 1.80198 70.0448Z" fill="#01352C" stroke="#02352C" stroke-width="0.5" stroke-miterlimit="10"/>
<path d="M13.5085 66.5077H31.0381C31.159 66.5077 31.2556 66.4716 31.3522 66.3874C31.4368 66.3032 31.4851 66.2069 31.4851 66.0866C31.4851 65.9663 31.4368 65.8701 31.3522 65.7858C31.2677 65.7016 31.159 65.6655 31.0381 65.6655H13.5085C13.3877 65.6655 13.279 65.7016 13.1944 65.7858C13.1098 65.8701 13.0615 65.9663 13.0615 66.0866C13.0615 66.2069 13.1098 66.3032 13.1944 66.3874C13.279 66.4716 13.3877 66.5077 13.5085 66.5077Z" fill="#01352C" stroke="#02352C" stroke-width="0.5" stroke-miterlimit="10"/>
<path d="M22.0737 62.9826H30.9895C31.1103 62.9826 31.2191 62.9465 31.3036 62.8622C31.3882 62.778 31.4365 62.6818 31.4365 62.5615C31.4365 62.4412 31.3882 62.3449 31.3036 62.2607C31.2191 62.1765 31.1103 62.1404 30.9895 62.1404H22.0737C21.9529 62.1404 21.8563 62.1885 21.7717 62.2727C21.6871 62.3569 21.6509 62.4532 21.6509 62.5735C21.6509 62.6938 21.6871 62.7901 21.7717 62.8743C21.8563 62.9585 21.9529 63.0066 22.0737 63.0066" fill="#01352C"/>
<path d="M22.0737 62.9826H30.9895C31.1103 62.9826 31.2191 62.9465 31.3036 62.8622C31.3882 62.778 31.4365 62.6818 31.4365 62.5615C31.4365 62.4412 31.3882 62.3449 31.3036 62.2607C31.2191 62.1765 31.1103 62.1404 30.9895 62.1404H22.0737C21.9529 62.1404 21.8563 62.1885 21.7717 62.2727C21.6871 62.3569 21.6509 62.4532 21.6509 62.5735C21.6509 62.6938 21.6871 62.7901 21.7717 62.8743C21.8563 62.9585 21.9529 63.0066 22.0737 63.0066" stroke="#02352C" stroke-width="0.5" stroke-miterlimit="10"/>
<path d="M15.8036 62.1165H1.91038C1.78957 62.1165 1.68084 62.1525 1.59627 62.2368C1.5117 62.321 1.46338 62.4172 1.46338 62.5375C1.46338 62.6579 1.5117 62.7541 1.59627 62.8383C1.68084 62.9225 1.78957 62.9586 1.91038 62.9586H15.8036C15.9244 62.9586 16.0331 62.9225 16.1177 62.8383C16.2023 62.7541 16.2506 62.6579 16.2506 62.5375C16.2506 62.4172 16.2023 62.321 16.1177 62.2368C16.0331 62.1525 15.9244 62.1165 15.8036 62.1165Z" fill="#01352C" stroke="#02352C" stroke-width="0.5" stroke-miterlimit="10"/>
<path d="M30.905 58.5913H25.1061C24.8645 58.6274 24.7437 58.7718 24.7437 59.0124C24.7437 59.253 24.8645 59.3974 25.1061 59.4335H30.905C31.1466 59.3974 31.2674 59.253 31.2674 59.0124C31.2674 58.7718 31.1466 58.6274 30.905 58.5913Z" fill="#01352C" stroke="#02352C" stroke-width="0.5" stroke-miterlimit="10"/>
<path d="M6.17524 58.5912H1.9952C1.86231 58.5671 1.7415 58.5912 1.64485 58.6874C1.53612 58.7717 1.48779 58.8799 1.48779 59.0123C1.48779 59.1446 1.53612 59.2529 1.64485 59.3371C1.75358 59.4213 1.86231 59.4574 1.9952 59.4334H6.17524C6.41686 59.3973 6.53768 59.2529 6.53768 59.0123C6.53768 58.7717 6.41686 58.6273 6.17524 58.5912Z" fill="#01352C" stroke="#02352C" stroke-width="0.5" stroke-miterlimit="10"/>
<path d="M14.8855 55.9203H23.5597C23.6805 55.9203 23.7892 55.8842 23.8738 55.8C23.9584 55.7158 24.0067 55.6195 24.0067 55.4992C24.0067 55.3789 23.9584 55.2827 23.8738 55.1984C23.7892 55.1142 23.6805 55.0781 23.5597 55.0781H14.8855C14.7647 55.0781 14.6559 55.1142 14.5714 55.1984C14.4868 55.2827 14.4385 55.3789 14.4385 55.4992C14.4385 55.6195 14.4868 55.7158 14.5714 55.8C14.6559 55.8842 14.7647 55.9203 14.8855 55.9203Z" fill="#01352C" stroke="#02352C" stroke-width="0.5" stroke-miterlimit="10"/>
<path d="M7.40769 55.0542H2.09202C1.97121 55.0542 1.86248 55.0903 1.77791 55.1745C1.69334 55.2587 1.64502 55.355 1.64502 55.4753C1.64502 55.5956 1.69334 55.6918 1.77791 55.7761C1.86248 55.8603 1.97121 55.8964 2.09202 55.8964H7.3956C7.51642 55.8964 7.62514 55.8603 7.70971 55.7761C7.79428 55.6918 7.8426 55.5956 7.8426 55.4753C7.8426 55.355 7.79428 55.2587 7.70971 55.1745C7.62514 55.0903 7.51642 55.0542 7.3956 55.0542" fill="#01352C"/>
<path d="M7.40769 55.0542H2.09202C1.97121 55.0542 1.86248 55.0903 1.77791 55.1745C1.69334 55.2587 1.64502 55.355 1.64502 55.4753C1.64502 55.5956 1.69334 55.6918 1.77791 55.7761C1.86248 55.8603 1.97121 55.8964 2.09202 55.8964H7.3956C7.51642 55.8964 7.62514 55.8603 7.70971 55.7761C7.79428 55.6918 7.8426 55.5956 7.8426 55.4753C7.8426 55.355 7.79428 55.2587 7.70971 55.1745C7.62514 55.0903 7.51642 55.0542 7.3956 55.0542" stroke="#02352C" stroke-width="0.5" stroke-miterlimit="10"/>
<path d="M25.384 52.3833H30.6634C30.905 52.3472 31.0258 52.2029 31.0258 51.9622C31.0258 51.7216 30.905 51.5772 30.6634 51.5411H25.3477C25.2148 51.5171 25.094 51.5411 24.9974 51.6374C24.8887 51.7216 24.8403 51.8299 24.8403 51.9622C24.8403 52.0946 24.8887 52.2029 24.9974 52.2871C25.1061 52.3713 25.2148 52.4074 25.3477 52.3833" fill="#01352C"/>
<path d="M25.384 52.3833H30.6634C30.905 52.3472 31.0258 52.2029 31.0258 51.9622C31.0258 51.7216 30.905 51.5772 30.6634 51.5411H25.3477C25.2148 51.5171 25.094 51.5411 24.9974 51.6374C24.8887 51.7216 24.8403 51.8299 24.8403 51.9622C24.8403 52.0946 24.8887 52.2029 24.9974 52.2871C25.1061 52.3713 25.2148 52.4074 25.3477 52.3833" stroke="#02352C" stroke-width="0.5" stroke-miterlimit="10"/>
<path d="M3.19128 52.3832H14.8857C15.0066 52.3832 15.1153 52.3471 15.1999 52.2629C15.2844 52.1787 15.3327 52.0824 15.3327 51.9621C15.3327 51.8418 15.2844 51.7455 15.1999 51.6613C15.1153 51.5771 15.0066 51.541 14.8857 51.541H3.25169C3.13088 51.541 3.03423 51.5771 2.93758 51.6613C2.85301 51.7455 2.80469 51.8418 2.80469 51.9621C2.80469 52.0824 2.85301 52.1787 2.93758 52.2629C3.02215 52.3471 3.13088 52.3832 3.25169 52.3832" fill="#01352C"/>
<path d="M3.19128 52.3832H14.8857C15.0066 52.3832 15.1153 52.3471 15.1999 52.2629C15.2844 52.1787 15.3327 52.0824 15.3327 51.9621C15.3327 51.8418 15.2844 51.7455 15.1999 51.6613C15.1153 51.5771 15.0066 51.541 14.8857 51.541H3.25169C3.13088 51.541 3.03423 51.5771 2.93758 51.6613C2.85301 51.7455 2.80469 51.8418 2.80469 51.9621C2.80469 52.0824 2.85301 52.1787 2.93758 52.2629C3.02215 52.3471 3.13088 52.3832 3.25169 52.3832" stroke="#02352C" stroke-width="0.5" stroke-miterlimit="10"/>
<path d="M30.5667 48.004H2.33323C2.21242 48.004 2.10369 48.0401 2.01912 48.1243C1.93455 48.2085 1.88623 48.3048 1.88623 48.4251C1.88623 48.5454 1.93455 48.6416 2.01912 48.7258C2.10369 48.8101 2.21242 48.8461 2.33323 48.8461H30.5667C30.6875 48.8461 30.7841 48.8101 30.8687 48.7258C30.9533 48.6416 30.9895 48.5454 30.9895 48.4251C30.9895 48.3048 30.9533 48.2085 30.8687 48.1243C30.7841 48.0401 30.6875 47.9919 30.5667 47.9919" fill="#01352C"/>
<path d="M30.5667 48.004H2.33323C2.21242 48.004 2.10369 48.0401 2.01912 48.1243C1.93455 48.2085 1.88623 48.3048 1.88623 48.4251C1.88623 48.5454 1.93455 48.6416 2.01912 48.7258C2.10369 48.8101 2.21242 48.8461 2.33323 48.8461H30.5667C30.6875 48.8461 30.7841 48.8101 30.8687 48.7258C30.9533 48.6416 30.9895 48.5454 30.9895 48.4251C30.9895 48.3048 30.9533 48.2085 30.8687 48.1243C30.7841 48.0401 30.6875 47.9919 30.5667 47.9919" stroke="#02352C" stroke-width="0.5" stroke-miterlimit="10"/>
<path d="M27.0271 45.3209H30.3977C30.5185 45.3209 30.6272 45.2728 30.7118 45.2006C30.7964 45.1164 30.8447 45.0202 30.8447 44.8998C30.8447 44.7795 30.7964 44.6833 30.7118 44.5991C30.6272 44.5149 30.5185 44.4788 30.3977 44.4788H27.0271C26.9063 44.4788 26.7975 44.5149 26.713 44.5991C26.6284 44.6833 26.5801 44.7795 26.5801 44.8998C26.5801 45.0202 26.6284 45.1164 26.713 45.2006C26.7975 45.2848 26.9063 45.3209 27.0271 45.3209Z" fill="#01352C" stroke="#02352C" stroke-width="0.5" stroke-miterlimit="10"/>
<path d="M12.1072 45.3209H29.4556C29.5764 45.3209 29.6851 45.2728 29.7697 45.2006C29.8542 45.1164 29.9026 45.0202 29.9026 44.8998C29.9026 44.7795 29.8542 44.6833 29.7697 44.5991C29.6851 44.5149 29.5764 44.4788 29.4556 44.4788H12.1072C11.9863 44.4788 11.8776 44.5149 11.793 44.5991C11.7085 44.6833 11.6602 44.7795 11.6602 44.8998C11.6602 45.0202 11.7085 45.1164 11.793 45.2006C11.8776 45.2848 11.9863 45.3209 12.1072 45.3209Z" fill="#01352C" stroke="#02352C" stroke-width="0.5" stroke-miterlimit="10"/>
<path d="M30.2288 40.9417H22.8352C22.7144 40.9417 22.6177 40.9778 22.5211 41.062C22.4365 41.1462 22.3882 41.2425 22.3882 41.3628C22.3882 41.4831 22.4365 41.5794 22.5211 41.6636C22.6056 41.7478 22.7144 41.7839 22.8352 41.7839H30.2288C30.3496 41.7839 30.4462 41.7358 30.5308 41.6515C30.6154 41.5673 30.6516 41.4711 30.6516 41.3508C30.6516 41.2305 30.6154 41.1342 30.5308 41.05C30.4462 40.9658 30.3496 40.9297 30.2288 40.9297" fill="#01352C"/>
<path d="M30.2288 40.9417H22.8352C22.7144 40.9417 22.6177 40.9778 22.5211 41.062C22.4365 41.1462 22.3882 41.2425 22.3882 41.3628C22.3882 41.4831 22.4365 41.5794 22.5211 41.6636C22.6056 41.7478 22.7144 41.7839 22.8352 41.7839H30.2288C30.3496 41.7839 30.4462 41.7358 30.5308 41.6515C30.6154 41.5673 30.6516 41.4711 30.6516 41.3508C30.6516 41.2305 30.6154 41.1342 30.5308 41.05C30.4462 40.9658 30.3496 40.9297 30.2288 40.9297" stroke="#02352C" stroke-width="0.5" stroke-miterlimit="10"/>
<path d="M10.6816 40.9417H2.74436C2.62355 40.9417 2.5269 40.9777 2.43025 41.062C2.33361 41.1462 2.29736 41.2424 2.29736 41.3627C2.29736 41.4831 2.34569 41.5793 2.43025 41.6635C2.51482 41.7477 2.62355 41.7838 2.74436 41.7838H10.742C10.8628 41.7838 10.9716 41.7477 11.0561 41.6635C11.1407 41.5793 11.189 41.4831 11.189 41.3627C11.189 41.2424 11.1407 41.1462 11.0561 41.062C10.9716 40.9777 10.8628 40.9417 10.742 40.9417" fill="#01352C"/>
<path d="M10.6816 40.9417H2.74436C2.62355 40.9417 2.5269 40.9777 2.43025 41.062C2.33361 41.1462 2.29736 41.2424 2.29736 41.3627C2.29736 41.4831 2.34569 41.5793 2.43025 41.6635C2.51482 41.7477 2.62355 41.7838 2.74436 41.7838H10.742C10.8628 41.7838 10.9716 41.7477 11.0561 41.6635C11.1407 41.5793 11.189 41.4831 11.189 41.3627C11.189 41.2424 11.1407 41.1462 11.0561 41.062C10.9716 40.9777 10.8628 40.9417 10.742 40.9417" stroke="#02352C" stroke-width="0.5" stroke-miterlimit="10"/>
<path d="M29.7818 37.4045H20.564C20.4431 37.4045 20.3465 37.4406 20.2619 37.5249C20.1774 37.6091 20.1411 37.7053 20.1411 37.8256C20.1411 37.9459 20.1774 38.0422 20.2619 38.1264C20.3465 38.2106 20.4431 38.2467 20.564 38.2467H29.7818C29.9026 38.2467 29.9993 38.2106 30.0838 38.1264C30.1684 38.0422 30.2046 37.9459 30.2046 37.8256C30.2046 37.7053 30.1684 37.6091 30.0838 37.5249C29.9993 37.4406 29.9026 37.4045 29.7818 37.4045Z" fill="#01352C" stroke="#02352C" stroke-width="0.49" stroke-miterlimit="10"/>
<path d="M14.8857 37.4045H2.87708C2.63546 37.4406 2.51465 37.585 2.51465 37.8256C2.51465 38.0662 2.63546 38.2106 2.87708 38.2467H14.8857C15.0185 38.2708 15.1394 38.2467 15.236 38.1505C15.3447 38.0662 15.3931 37.958 15.3931 37.8256C15.3931 37.6933 15.3447 37.585 15.236 37.5008C15.1273 37.4166 15.0185 37.3805 14.8857 37.4045Z" fill="#01352C" stroke="#02352C" stroke-width="0.5" stroke-miterlimit="10"/>
<path d="M29.7694 33.8674H25.384C25.2632 33.8674 25.1545 33.9035 25.0699 33.9877C24.9853 34.072 24.937 34.1682 24.937 34.2885C24.937 34.4088 24.9853 34.5051 25.0699 34.5893C25.1545 34.6735 25.2632 34.7096 25.384 34.7096H29.7694C29.8902 34.7096 29.999 34.6735 30.0835 34.5893C30.1681 34.5051 30.2164 34.4088 30.2164 34.2885C30.2164 34.1682 30.1681 34.072 30.0835 33.9877C29.999 33.9035 29.8902 33.8674 29.7694 33.8674Z" fill="#01352C" stroke="#02352C" stroke-width="0.5" stroke-miterlimit="10"/>
<path d="M14.4265 33.8674H3.1428C3.02199 33.8674 2.91326 33.9035 2.82869 33.9877C2.74413 34.072 2.6958 34.1682 2.6958 34.2885C2.6958 34.4088 2.74413 34.5051 2.82869 34.5893C2.91326 34.6735 3.02199 34.7096 3.1428 34.7096H14.4265C14.5473 34.7096 14.656 34.6735 14.7406 34.5893C14.8252 34.5051 14.8735 34.4088 14.8735 34.2885C14.8735 34.1682 14.8252 34.072 14.7406 33.9877C14.656 33.9035 14.5473 33.8674 14.4265 33.8674Z" fill="#01352C" stroke="#02352C" stroke-width="0.5" stroke-miterlimit="10"/>
<path d="M10.2224 31.1845H27.0271C27.148 31.1845 27.2446 31.1484 27.3413 31.0641C27.4258 30.9799 27.4741 30.8837 27.4741 30.7634C27.4741 30.6431 27.4258 30.5468 27.3413 30.4626C27.2567 30.3784 27.148 30.3423 27.0271 30.3423H10.2224C10.1016 30.3423 9.99285 30.3784 9.90828 30.4626C9.82372 30.5468 9.77539 30.6431 9.77539 30.7634C9.77539 30.8837 9.82372 30.9799 9.90828 31.0641C9.99285 31.1484 10.1016 31.1845 10.2224 31.1845Z" fill="#01352C" stroke="#02352C" stroke-width="0.5" stroke-miterlimit="10"/>
<path d="M3.79514 27.6593H29.117C29.2379 27.6593 29.3466 27.6232 29.4312 27.539C29.5157 27.4548 29.564 27.3585 29.564 27.2382C29.564 27.1179 29.5157 27.0217 29.4312 26.9374C29.3466 26.8532 29.2379 26.8171 29.117 26.8171H3.79514C3.67433 26.8171 3.5656 26.8532 3.48104 26.9374C3.39647 27.0217 3.34814 27.1179 3.34814 27.2382C3.34814 27.3585 3.39647 27.4548 3.48104 27.539C3.5656 27.6232 3.67433 27.6593 3.79514 27.6593Z" fill="#01352C" stroke="#02352C" stroke-width="0.5" stroke-miterlimit="10"/>
<path d="M28.6338 23.28H21.2886C21.1677 23.28 21.0711 23.3161 20.9865 23.4003C20.902 23.4846 20.8657 23.5808 20.8657 23.7011C20.8657 23.8214 20.902 23.9177 20.9865 24.0019C21.0711 24.0861 21.1677 24.1342 21.2886 24.1342H28.6338C28.7547 24.1342 28.8513 24.0861 28.9359 24.0019C29.0204 23.9177 29.0567 23.8214 29.0567 23.7011C29.0567 23.5808 29.0204 23.4846 28.9359 23.4003C28.8513 23.3161 28.7547 23.28 28.6338 23.28Z" fill="#01352C" stroke="#02352C" stroke-width="0.5" stroke-miterlimit="10"/>
<path d="M8.27737 23.28H4.27854C4.15773 23.28 4.06108 23.3161 3.96443 23.4003C3.87987 23.4846 3.83154 23.5808 3.83154 23.7011C3.83154 23.8214 3.87987 23.9177 3.96443 24.0019C4.049 24.0861 4.15773 24.1222 4.27854 24.1222H8.27737C8.39818 24.1222 8.50691 24.0861 8.59148 24.0019C8.67605 23.9177 8.72437 23.8214 8.72437 23.7011C8.72437 23.5808 8.67605 23.4846 8.59148 23.4003C8.50691 23.3161 8.39818 23.28 8.27737 23.28Z" fill="#01352C" stroke="#02352C" stroke-width="0.5" stroke-miterlimit="10"/>
<path d="M27.9935 19.6948H26.0968C25.8552 19.7309 25.7344 19.8753 25.7344 20.1159C25.7344 20.3565 25.8552 20.5009 26.0968 20.537H27.9935C28.1264 20.5611 28.2472 20.537 28.3439 20.4407C28.4526 20.3565 28.5009 20.2482 28.5009 20.1159C28.5009 19.9836 28.4526 19.8753 28.3439 19.7911C28.2352 19.7068 28.1264 19.6708 27.9935 19.6948Z" fill="#01352C" stroke="#02352C" stroke-width="0.5" stroke-miterlimit="10"/>
<path d="M4.90682 20.5852H16.7704C16.9033 20.6093 17.0241 20.5852 17.1208 20.489C17.2295 20.4048 17.2778 20.2965 17.2778 20.1641C17.2778 20.0318 17.2295 19.9235 17.1208 19.8393C17.012 19.7551 16.9033 19.719 16.7704 19.7431H4.90682C4.77393 19.719 4.65312 19.7431 4.55647 19.8393C4.44774 19.9235 4.39941 20.0318 4.39941 20.1641C4.39941 20.2965 4.44774 20.4048 4.55647 20.489C4.6652 20.5732 4.77393 20.6093 4.90682 20.5852Z" fill="#01352C" stroke="#02352C" stroke-width="0.5" stroke-miterlimit="10"/>
<path d="M5.70384 17.0599H27.196C27.3169 17.0599 27.4256 17.0239 27.5101 16.9396C27.5947 16.8554 27.643 16.7592 27.643 16.6389C27.643 16.5186 27.5947 16.4223 27.5101 16.3381C27.4256 16.2539 27.3169 16.2178 27.196 16.2178H5.70384C5.58302 16.2178 5.4743 16.2539 5.38973 16.3381C5.30516 16.4223 5.25684 16.5186 5.25684 16.6389C5.25684 16.7592 5.30516 16.8554 5.38973 16.9396C5.4743 17.0239 5.58302 17.0599 5.70384 17.0599Z" fill="#01352C" stroke="#02352C" stroke-width="0.5" stroke-miterlimit="10"/>
<path d="M26.157 12.6807H17.652C17.4104 12.7168 17.2896 12.8611 17.2896 13.1017C17.2896 13.3424 17.4104 13.4867 17.652 13.5228H26.157C26.2899 13.5469 26.4108 13.5228 26.5074 13.4266C26.6161 13.3424 26.6645 13.2341 26.6645 13.1017C26.6645 12.9694 26.6161 12.8611 26.5074 12.7769C26.3987 12.6927 26.2899 12.6566 26.157 12.6807Z" fill="#01352C" stroke="#02352C" stroke-width="0.5" stroke-miterlimit="10"/>
<path d="M10.2221 12.6687H6.73069C6.60988 12.6687 6.50115 12.7048 6.41658 12.789C6.33202 12.8732 6.28369 12.9695 6.28369 13.0898C6.28369 13.2101 6.33202 13.3063 6.41658 13.3906C6.50115 13.4748 6.60988 13.5109 6.73069 13.5109H10.2221C10.3429 13.5109 10.4517 13.4748 10.5362 13.3906C10.6208 13.3063 10.6691 13.2101 10.6691 13.0898C10.6691 12.9695 10.6208 12.8732 10.5362 12.789C10.4517 12.7048 10.3429 12.6687 10.2221 12.6687Z" fill="#01352C" stroke="#02352C" stroke-width="0.5" stroke-miterlimit="10"/>
<path d="M8.08411 9.98573H19.5611C19.8027 9.94964 19.9236 9.80526 19.9236 9.56464C19.9236 9.32402 19.8027 9.17965 19.5611 9.14355H8.08411C7.84249 9.17965 7.72168 9.32402 7.72168 9.56464C7.72168 9.80526 7.84249 9.94964 8.08411 9.98573Z" fill="#01352C" stroke="#02352C" stroke-width="0.5" stroke-miterlimit="10"/>
<path d="M14.185 6.46072H22.8834C23.0042 6.46072 23.1009 6.41259 23.1854 6.32838C23.27 6.24416 23.3062 6.14791 23.3062 6.0276C23.3062 5.90729 23.27 5.81104 23.1854 5.72682C23.1009 5.64261 23.0042 5.59448 22.8834 5.59448H14.185C14.0642 5.59448 13.9676 5.64261 13.883 5.72682C13.7984 5.81104 13.7622 5.90729 13.7622 6.0276C13.7622 6.14791 13.7984 6.24416 13.883 6.32838C13.9676 6.41259 14.0642 6.46072 14.185 6.46072Z" fill="#01352C" stroke="#02352C" stroke-width="0.5" stroke-miterlimit="10"/>
<path d="M21.3489 73.5819H31.1345C31.2553 73.5819 31.3641 73.5458 31.4486 73.4616C31.5332 73.3774 31.5815 73.2811 31.5815 73.1608C31.5815 73.0405 31.5332 72.9443 31.4486 72.8601C31.3641 72.7758 31.2553 72.7397 31.1345 72.7397H21.3489C21.228 72.7397 21.1193 72.7758 21.0347 72.8601C20.9502 72.9443 20.9019 73.0405 20.9019 73.1608C20.9019 73.2811 20.9502 73.3774 21.0347 73.4616C21.1193 73.5458 21.228 73.5819 21.3489 73.5819Z" fill="#01352C" stroke="#02352C" stroke-width="0.5" stroke-miterlimit="10"/>
<path d="M10.0293 76.2529H1.71751C1.5967 76.2529 1.48797 76.289 1.4034 76.3732C1.31883 76.4575 1.27051 76.5537 1.27051 76.674C1.27051 76.7943 1.31883 76.8906 1.4034 76.9748C1.48797 77.059 1.5967 77.0951 1.71751 77.0951H10.0172C10.138 77.0951 10.2467 77.047 10.3313 76.9748C10.4159 76.9026 10.4642 76.7943 10.4642 76.674C10.4642 76.5537 10.4159 76.4575 10.3313 76.3732C10.2467 76.289 10.138 76.2529 10.0172 76.2529" fill="#01352C"/>
<path d="M10.0293 76.2529H1.71751C1.5967 76.2529 1.48797 76.289 1.4034 76.3732C1.31883 76.4575 1.27051 76.5537 1.27051 76.674C1.27051 76.7943 1.31883 76.8906 1.4034 76.9748C1.48797 77.059 1.5967 77.0951 1.71751 77.0951H10.0172C10.138 77.0951 10.2467 77.047 10.3313 76.9748C10.4159 76.9026 10.4642 76.7943 10.4642 76.674C10.4642 76.5537 10.4159 76.4575 10.3313 76.3732C10.2467 76.289 10.138 76.2529 10.0172 76.2529" stroke="#02352C" stroke-width="0.5" stroke-miterlimit="10"/>
<path d="M15.2361 77.119H31.171C31.2918 77.119 31.4005 77.0829 31.4851 76.9987C31.5697 76.9145 31.618 76.8183 31.618 76.6979C31.618 76.5776 31.5697 76.4814 31.4851 76.3972C31.4005 76.3129 31.2918 76.2769 31.171 76.2769H15.2361C15.1153 76.2769 15.0065 76.3129 14.922 76.3972C14.8374 76.4814 14.7891 76.5776 14.7891 76.6979C14.7891 76.8183 14.8374 76.9145 14.922 76.9987C15.0065 77.0829 15.1153 77.119 15.2361 77.119Z" fill="#01352C" stroke="#02352C" stroke-width="0.5" stroke-miterlimit="10"/>
<path d="M1.72957 80.6321H18.933C19.0659 80.6562 19.1867 80.6321 19.2834 80.5359C19.3921 80.4516 19.4404 80.3434 19.4404 80.211C19.4404 80.0787 19.3921 79.9704 19.2834 79.8862C19.1746 79.802 19.0659 79.7659 18.933 79.7899H1.72957C1.59668 79.7659 1.47587 79.7899 1.37922 79.8862C1.27049 79.9704 1.22217 80.0787 1.22217 80.211C1.22217 80.3434 1.27049 80.4516 1.37922 80.5359C1.48795 80.6201 1.59668 80.6562 1.72957 80.6321Z" fill="#01352C" stroke="#02352C" stroke-width="0.5" stroke-miterlimit="10"/>
<path d="M9.17152 83.3152H1.71751C1.5967 83.3152 1.48797 83.3513 1.4034 83.4355C1.31883 83.5197 1.27051 83.616 1.27051 83.7363C1.27051 83.8566 1.31883 83.9528 1.4034 84.037C1.48797 84.1213 1.5967 84.1574 1.71751 84.1574H9.17152C9.29233 84.1574 9.40106 84.1213 9.48563 84.037C9.5702 83.9528 9.61852 83.8566 9.61852 83.7363C9.61852 83.616 9.5702 83.5197 9.48563 83.4355C9.40106 83.3513 9.29233 83.3152 9.17152 83.3152Z" fill="#01352C" stroke="#02352C" stroke-width="0.5" stroke-miterlimit="10"/>
<path d="M31.1828 83.3152H16.3352C16.2144 83.3152 16.1056 83.3513 16.0211 83.4355C15.9365 83.5197 15.8882 83.616 15.8882 83.7363C15.8882 83.8566 15.9365 83.9528 16.0211 84.037C16.1056 84.1213 16.2144 84.1574 16.3352 84.1574H31.1828C31.3036 84.1574 31.4123 84.1213 31.4969 84.037C31.5815 83.9528 31.6298 83.8566 31.6298 83.7363C31.6298 83.616 31.5815 83.5197 31.4969 83.4355C31.4123 83.3513 31.3036 83.3152 31.1828 83.3152Z" fill="#01352C" stroke="#02352C" stroke-width="0.5" stroke-miterlimit="10"/>
<path d="M5.71598 86.8523H1.72923C1.60842 86.8523 1.49969 86.8884 1.41512 86.9726C1.33055 87.0568 1.28223 87.1531 1.28223 87.2734C1.28223 87.3937 1.33055 87.4899 1.41512 87.5742C1.49969 87.6584 1.60842 87.6945 1.72923 87.6945H5.71598C5.83679 87.6945 5.94552 87.6584 6.03008 87.5742C6.11465 87.4899 6.16297 87.3937 6.16297 87.2734C6.16297 87.1531 6.11465 87.0568 6.03008 86.9726C5.94552 86.8884 5.83679 86.8523 5.71598 86.8523Z" fill="#01352C" stroke="#02352C" stroke-width="0.5" stroke-miterlimit="10"/>
<path d="M17.4469 90.3774H7.60081C7.48 90.3774 7.37127 90.4135 7.2867 90.4978C7.20213 90.582 7.15381 90.6782 7.15381 90.7985C7.15381 90.9188 7.20213 91.0151 7.2867 91.0993C7.37127 91.1835 7.48 91.2196 7.60081 91.2196H17.4831C17.6039 91.2196 17.7127 91.1835 17.7972 91.0993C17.8818 91.0151 17.9301 90.9188 17.9301 90.7985C17.9301 90.6782 17.8818 90.582 17.7972 90.4978C17.7127 90.4135 17.6039 90.3774 17.4831 90.3774" fill="#01352C"/>
<path d="M17.4469 90.3774H7.60081C7.48 90.3774 7.37127 90.4135 7.2867 90.4978C7.20213 90.582 7.15381 90.6782 7.15381 90.7985C7.15381 90.9188 7.20213 91.0151 7.2867 91.0993C7.37127 91.1835 7.48 91.2196 7.60081 91.2196H17.4831C17.6039 91.2196 17.7127 91.1835 17.7972 91.0993C17.8818 91.0151 17.9301 90.9188 17.9301 90.7985C17.9301 90.6782 17.8818 90.582 17.7972 90.4978C17.7127 90.4135 17.6039 90.3774 17.4831 90.3774" stroke="#02352C" stroke-width="0.5" stroke-miterlimit="10"/>
<path d="M5.40212 93.9146H1.75364C1.63283 93.9146 1.5241 93.9507 1.43953 94.0349C1.35496 94.1191 1.30664 94.2153 1.30664 94.3356C1.30664 94.456 1.35496 94.5522 1.43953 94.6364C1.5241 94.7206 1.63283 94.7567 1.75364 94.7567H5.40212C5.52293 94.7567 5.63166 94.7206 5.71623 94.6364C5.8008 94.5522 5.84912 94.456 5.84912 94.3356C5.84912 94.2153 5.8008 94.1191 5.71623 94.0349C5.63166 93.9507 5.52293 93.9146 5.40212 93.9146Z" fill="#01352C" stroke="#02352C" stroke-width="0.5" stroke-miterlimit="10"/>
<path d="M30.6636 93.9146H17.4348C17.314 93.9146 17.2053 93.9507 17.1207 94.0349C17.0361 94.1191 16.9878 94.2153 16.9878 94.3356C16.9878 94.456 17.0361 94.5522 17.1207 94.6364C17.2053 94.7206 17.314 94.7567 17.4348 94.7567H30.6636C30.7844 94.7567 30.8931 94.7206 30.9777 94.6364C31.0622 94.5522 31.1106 94.456 31.1106 94.3356C31.1106 94.2153 31.0622 94.1191 30.9777 94.0349C30.8931 93.9507 30.7844 93.9146 30.6636 93.9146Z" fill="#01352C" stroke="#02352C" stroke-width="0.5" stroke-miterlimit="10"/>
<path d="M31.1105 97.4515H1.80184C1.66895 97.4275 1.54814 97.4516 1.45149 97.5478C1.34276 97.632 1.29443 97.7403 1.29443 97.8726C1.29443 98.005 1.34276 98.1133 1.45149 98.1975C1.56022 98.2817 1.66895 98.3178 1.80184 98.2937H31.0984C31.34 98.2576 31.4608 98.1133 31.4608 97.8726C31.4608 97.632 31.34 97.4876 31.0984 97.4515" fill="#01352C"/>
<path d="M31.1105 97.4515H1.80184C1.66895 97.4275 1.54814 97.4516 1.45149 97.5478C1.34276 97.632 1.29443 97.7403 1.29443 97.8726C1.29443 98.005 1.34276 98.1133 1.45149 98.1975C1.56022 98.2817 1.66895 98.3178 1.80184 98.2937H31.0984C31.34 98.2576 31.4608 98.1133 31.4608 97.8726C31.4608 97.632 31.34 97.4876 31.0984 97.4515" stroke="#02352C" stroke-width="0.5" stroke-miterlimit="10"/>
<path d="M3.51751 100.941H1.85032C1.72951 100.941 1.62078 100.977 1.53621 101.061C1.45164 101.145 1.40332 101.241 1.40332 101.362C1.40332 101.482 1.45164 101.578 1.53621 101.663C1.62078 101.747 1.72951 101.783 1.85032 101.783H3.51751C3.63832 101.783 3.74705 101.735 3.83161 101.663C3.91618 101.578 3.9645 101.482 3.9645 101.362C3.9645 101.241 3.91618 101.145 3.83161 101.061C3.74705 100.977 3.63832 100.941 3.51751 100.941Z" fill="#01352C" stroke="#02352C" stroke-width="0.5" stroke-miterlimit="10"/>
<path d="M1.83811 101.831H20.5396C20.6604 101.831 20.7691 101.795 20.8537 101.711C20.9383 101.626 20.9866 101.53 20.9866 101.41C20.9866 101.29 20.9383 101.193 20.8537 101.109C20.7691 101.025 20.6604 100.989 20.5396 100.989H1.83811C1.7173 100.989 1.60857 101.025 1.524 101.109C1.43944 101.193 1.39111 101.29 1.39111 101.41C1.39111 101.53 1.43944 101.626 1.524 101.711C1.60857 101.795 1.7173 101.831 1.83811 101.831Z" fill="#01352C" stroke="#02352C" stroke-width="0.5" stroke-miterlimit="10"/>
<path d="M8.3137 104.526H1.89866C1.77785 104.526 1.66912 104.562 1.58455 104.646C1.49998 104.73 1.45166 104.827 1.45166 104.947C1.45166 105.067 1.49998 105.163 1.58455 105.248C1.66912 105.332 1.77785 105.368 1.89866 105.368H8.3137C8.43451 105.368 8.53116 105.32 8.61573 105.236C8.7003 105.151 8.73654 105.055 8.73654 104.935C8.73654 104.815 8.7003 104.718 8.61573 104.634C8.53116 104.55 8.43451 104.502 8.3137 104.502" fill="#01352C"/>
<path d="M8.3137 104.526H1.89866C1.77785 104.526 1.66912 104.562 1.58455 104.646C1.49998 104.73 1.45166 104.827 1.45166 104.947C1.45166 105.067 1.49998 105.163 1.58455 105.248C1.66912 105.332 1.77785 105.368 1.89866 105.368H8.3137C8.43451 105.368 8.53116 105.32 8.61573 105.236C8.7003 105.151 8.73654 105.055 8.73654 104.935C8.73654 104.815 8.7003 104.718 8.61573 104.634C8.53116 104.55 8.43451 104.502 8.3137 104.502" stroke="#02352C" stroke-width="0.5" stroke-miterlimit="10"/>
<path d="M31.0019 104.526H22.1706C22.0498 104.526 21.9411 104.562 21.8565 104.646C21.772 104.73 21.7236 104.827 21.7236 104.947C21.7236 105.067 21.772 105.164 21.8565 105.248C21.9411 105.332 22.0498 105.368 22.1706 105.368H31.0019C31.1227 105.368 31.2314 105.332 31.316 105.248C31.4006 105.164 31.4489 105.067 31.4489 104.947C31.4489 104.827 31.4006 104.73 31.316 104.646C31.2314 104.562 31.1227 104.526 31.0019 104.526Z" fill="#01352C" stroke="#02352C" stroke-width="0.5" stroke-miterlimit="10"/>
<path d="M29.7696 34.2885V33.8554H3.14293V34.2885H3.56576C3.66241 33.0974 3.75906 31.9545 3.85571 30.8356V30.7514H3.42079V31.1725H29.4555V30.7514H29.0206V30.8356C29.1172 31.9545 29.2139 33.1095 29.2984 34.2885H30.1562C30.0716 33.0974 29.975 31.9545 29.8783 30.8356V30.7634C29.8542 30.5108 29.7092 30.3784 29.4555 30.3784H3.43287C3.17917 30.3784 3.0342 30.5108 2.99795 30.7634V30.8356C2.88922 31.9545 2.79258 33.1215 2.70801 34.2885L2.82882 34.6134L3.14293 34.7577H29.7696L30.0837 34.6134L30.1924 34.2885H29.7696Z" fill="#01352C"/>
<path d="M3.85571 30.8356C3.75906 31.9545 3.66241 33.0974 3.56576 34.2885H3.14293V33.8554H29.7696V34.2885H30.1924L30.0837 34.6134L29.7696 34.7577H3.14293L2.82882 34.6134L2.70801 34.2885C2.79258 33.1215 2.88922 31.9545 2.99795 30.8356V30.7634C3.0342 30.5108 3.17917 30.3784 3.43287 30.3784H29.4555C29.7092 30.3784 29.8542 30.5108 29.8783 30.7634V30.8356C29.975 31.9545 30.0716 33.0974 30.1562 34.2885H29.2984C29.2139 33.1095 29.1172 31.9545 29.0206 30.8356M3.85571 30.8356H3.42079M3.85571 30.8356V30.7514H3.42079V31.1725H29.4555V30.7514H29.0206V30.8356M29.0206 30.8356H29.4555" stroke="#02352C" stroke-width="0.5" stroke-miterlimit="10"/>
<path d="M31.183 83.7483H30.7601V87.3335H31.1951V86.9004H1.71727V87.3335H2.15219V83.7483H1.71727V84.2175H31.1709V83.3633H1.71727L1.41524 83.4956L1.29443 83.7964V87.3817C1.29443 87.502 1.33068 87.5982 1.41524 87.6824C1.49981 87.7666 1.59646 87.8148 1.71727 87.8148H31.1709C31.2917 87.8148 31.3884 87.7666 31.4729 87.6824C31.5575 87.5982 31.5937 87.502 31.5937 87.3817V83.7964L31.4729 83.4956L31.1588 83.3633V83.7603L31.183 83.7483Z" fill="#01352C" stroke="#02352C" stroke-width="0.5" stroke-miterlimit="10"/>
<path d="M14.8855 41.7838H17.5433C17.6641 41.7838 17.7728 41.7477 17.8574 41.6635C17.942 41.5793 17.9903 41.4831 17.9903 41.3627C17.9903 41.2424 17.942 41.1462 17.8574 41.062C17.7728 40.9777 17.6641 40.9417 17.5433 40.9417H14.8855C14.7647 40.9417 14.668 40.9777 14.5714 41.062C14.4747 41.1462 14.4385 41.2424 14.4385 41.3627C14.4385 41.4831 14.4868 41.5793 14.5714 41.6635C14.6559 41.7477 14.7647 41.7838 14.8855 41.7838Z" fill="#01352C" stroke="#02352C" stroke-width="0.5" stroke-miterlimit="10"/>
<path d="M20.5758 52.3833H23.2336C23.4752 52.3472 23.596 52.2029 23.596 51.9622C23.596 51.7216 23.4752 51.5772 23.2336 51.5411H20.5758C20.4429 51.5171 20.3221 51.5411 20.2254 51.6374C20.1167 51.7216 20.0684 51.8299 20.0684 51.9622C20.0684 52.0946 20.1167 52.2029 20.2254 52.2871C20.3341 52.3713 20.4429 52.4074 20.5758 52.3833Z" fill="#01352C" stroke="#02352C" stroke-width="0.5" stroke-miterlimit="10"/>
<path d="M21.6872 91.2435H24.3451C24.4659 91.2435 24.5746 91.2074 24.6592 91.1232C24.7437 91.039 24.7921 90.9428 24.7921 90.8225C24.7921 90.7021 24.7437 90.6059 24.6592 90.5217C24.5746 90.4375 24.4659 90.4014 24.3451 90.4014H21.6872C21.5664 90.4014 21.4577 90.4375 21.3731 90.5217C21.2886 90.6059 21.2402 90.7021 21.2402 90.8225C21.2402 90.9428 21.2886 91.039 21.3731 91.1232C21.4577 91.2074 21.5664 91.2435 21.6872 91.2435Z" fill="#01352C" stroke="#02352C" stroke-width="0.5" stroke-miterlimit="10"/>
<path d="M25.6496 101.831H28.3075C28.4283 101.831 28.537 101.795 28.6216 101.711C28.7061 101.626 28.7545 101.53 28.7545 101.41C28.7545 101.29 28.7061 101.193 28.6216 101.109C28.537 101.025 28.4283 100.989 28.3075 100.989H25.6496C25.5288 100.989 25.4201 101.025 25.3355 101.109C25.251 101.193 25.2026 101.29 25.2026 101.41C25.2026 101.53 25.251 101.626 25.3355 101.711C25.4201 101.795 25.5288 101.831 25.6496 101.831Z" fill="#01352C" stroke="#02352C" stroke-width="0.5" stroke-miterlimit="10"/>
<path d="M13.7864 24.1222H16.4442C16.565 24.1222 16.6737 24.0861 16.7583 24.0019C16.8429 23.9177 16.8912 23.8214 16.8912 23.7011C16.8912 23.5808 16.8429 23.4846 16.7583 23.4003C16.6737 23.3161 16.565 23.28 16.4442 23.28H13.7864C13.6655 23.28 13.5568 23.3161 13.4722 23.4003C13.3877 23.4846 13.3394 23.5808 13.3394 23.7011C13.3394 23.8214 13.3877 23.9177 13.4722 24.0019C13.5568 24.0861 13.6655 24.1222 13.7864 24.1222Z" fill="#01352C" stroke="#02352C" stroke-width="0.5" stroke-miterlimit="10"/>
<path d="M20.7329 20.5852H23.3786C23.5115 20.6093 23.6323 20.5852 23.729 20.489C23.8377 20.4048 23.886 20.2965 23.886 20.1641C23.886 20.0318 23.8377 19.9235 23.729 19.8393C23.6202 19.7551 23.5115 19.719 23.3786 19.7431H20.7208C20.5879 19.719 20.4671 19.7431 20.3704 19.8393C20.2617 19.9235 20.2134 20.0318 20.2134 20.1641C20.2134 20.2965 20.2617 20.4048 20.3704 20.489C20.4792 20.5732 20.5879 20.6093 20.7208 20.5852" fill="#01352C"/>
<path d="M20.7329 20.5852H23.3786C23.5115 20.6093 23.6323 20.5852 23.729 20.489C23.8377 20.4048 23.886 20.2965 23.886 20.1641C23.886 20.0318 23.8377 19.9235 23.729 19.8393C23.6202 19.7551 23.5115 19.719 23.3786 19.7431H20.7208C20.5879 19.719 20.4671 19.7431 20.3704 19.8393C20.2617 19.9235 20.2134 20.0318 20.2134 20.1641C20.2134 20.2965 20.2617 20.4048 20.3704 20.489C20.4792 20.5732 20.5879 20.6093 20.7208 20.5852" stroke="#02352C" stroke-width="0.5" stroke-miterlimit="10"/>
<path d="M7.68528 66.5078H10.3431C10.4639 66.5078 10.5606 66.4717 10.6451 66.3875C10.7297 66.3032 10.766 66.207 10.766 66.0867C10.766 65.9664 10.7297 65.8701 10.6451 65.7859C10.5606 65.7017 10.4639 65.6536 10.3431 65.6536H7.68528C7.56447 65.6536 7.45574 65.6897 7.37117 65.7739C7.28661 65.8581 7.23828 65.9543 7.23828 66.0746C7.23828 66.195 7.28661 66.2912 7.37117 66.3754C7.45574 66.4596 7.56447 66.4957 7.68528 66.4957" fill="#01352C"/>
<path d="M7.68528 66.5078H10.3431C10.4639 66.5078 10.5606 66.4717 10.6451 66.3875C10.7297 66.3032 10.766 66.207 10.766 66.0867C10.766 65.9664 10.7297 65.8701 10.6451 65.7859C10.5606 65.7017 10.4639 65.6536 10.3431 65.6536H7.68528C7.56447 65.6536 7.45574 65.6897 7.37117 65.7739C7.28661 65.8581 7.23828 65.9543 7.23828 66.0746C7.23828 66.195 7.28661 66.2912 7.37117 66.3754C7.45574 66.4596 7.56447 66.4957 7.68528 66.4957" stroke="#02352C" stroke-width="0.5" stroke-miterlimit="10"/>
<path d="M10.3673 94.7686H13.0251C13.2667 94.7325 13.3875 94.5881 13.3875 94.3475C13.3875 94.1069 13.2667 93.9625 13.0251 93.9264H10.3673C10.2344 93.9023 10.1136 93.9264 10.0169 94.0227C9.92027 94.1189 9.85986 94.2151 9.85986 94.3475C9.85986 94.4798 9.90819 94.5881 10.0169 94.6723C10.1256 94.7565 10.2344 94.7926 10.3673 94.7686Z" fill="#01352C" stroke="#02352C" stroke-width="0.5" stroke-miterlimit="10"/>
<path d="M13.0251 105.368H15.683C15.8038 105.368 15.9125 105.332 15.9971 105.248C16.0816 105.164 16.13 105.067 16.13 104.947C16.13 104.827 16.0816 104.73 15.9971 104.646C15.9125 104.562 15.8038 104.526 15.683 104.526H13.0251C12.9043 104.526 12.7956 104.562 12.711 104.646C12.6264 104.73 12.5781 104.827 12.5781 104.947C12.5781 105.067 12.6264 105.164 12.711 105.248C12.7956 105.332 12.9043 105.368 13.0251 105.368Z" fill="#01352C" stroke="#02352C" stroke-width="0.5" stroke-miterlimit="10"/>
<path d="M6.23557 45.3209H8.89341C9.01422 45.3209 9.12295 45.2728 9.20751 45.2006C9.29208 45.1164 9.34041 45.0202 9.34041 44.8998C9.34041 44.7795 9.29208 44.6833 9.20751 44.5991C9.12295 44.5149 9.01422 44.4788 8.89341 44.4788H6.23557C6.11476 44.4788 6.00603 44.5149 5.92147 44.5991C5.8369 44.6833 5.78857 44.7795 5.78857 44.8998C5.78857 45.0202 5.8369 45.1164 5.92147 45.2006C6.00603 45.2848 6.11476 45.3209 6.23557 45.3209Z" fill="#01352C" stroke="#02352C" stroke-width="0.5" stroke-miterlimit="10"/>
</g>
<defs>
<clipPath id="clip0_44_1356">
<rect width="31" height="110" fill="white" transform="translate(0.919922)"/>
</clipPath>
</defs>
</svg>
