<svg width="40" height="39" viewBox="0 0 40 39" fill="none" xmlns="http://www.w3.org/2000/svg">
<g opacity="0.71">
<mask id="mask0_44_714" style="mask-type:luminance" maskUnits="userSpaceOnUse" x="1" y="1" width="38" height="38">
<path d="M38.86 1.09009H1.27002V38.6801H38.86V1.09009Z" fill="white"/>
</mask>
<g mask="url(#mask0_44_714)">
<mask id="mask1_44_714" style="mask-type:luminance" maskUnits="userSpaceOnUse" x="0" y="0" width="40" height="39">
<path d="M39.1802 0.77002H0.950195V39H39.1802V0.77002Z" fill="white"/>
</mask>
<g mask="url(#mask1_44_714)">
<path d="M38.4004 1.43994H1.40039V38.4099H38.4004V1.43994Z" fill="#01352C"/>
<path d="M21.1604 29.37L22.6504 12.62C22.7204 11.55 22.5304 10.53 22.0804 9.55997L21.2304 7.27997C21.1104 7.02997 20.9404 6.82997 20.7104 6.68997C20.4804 6.53997 20.2304 6.46997 19.9504 6.46997C19.6704 6.46997 19.4204 6.53997 19.1904 6.68997C18.9604 6.83997 18.7904 7.03997 18.6704 7.27997L17.8204 9.55997C17.3604 10.53 17.1704 11.55 17.2404 12.62L18.7004 29.03L15.7104 32.02C15.4904 32.23 15.3804 32.49 15.3804 32.79V33.06C15.3804 33.17 15.4404 33.26 15.5304 33.32C15.6204 33.38 15.7204 33.39 15.8304 33.35L19.0904 31.85C19.2604 32.07 19.4804 32.18 19.7504 32.18H20.1204C20.3304 32.18 20.5204 32.11 20.6804 31.97L23.6904 33.36C23.7904 33.4 23.8904 33.39 23.9904 33.33C24.0804 33.27 24.1304 33.18 24.1404 33.07V32.8C24.1404 32.5 24.0304 32.24 23.8104 32.03L21.1704 29.37H21.1604Z" fill="white"/>
<path d="M16.5603 16.0999L8.52027 21.9599C8.19027 22.1999 8.03027 22.5199 8.03027 22.9299V23.5199C8.03027 23.6299 8.08027 23.7099 8.17027 23.7699C8.26027 23.8299 8.35027 23.8499 8.45027 23.8199L16.9703 20.7999L16.5503 16.0999H16.5603Z" fill="white"/>
<path d="M31.2906 21.9599L23.3206 16.1499L22.8906 20.8299L31.3406 23.8199C31.4406 23.8499 31.5406 23.8299 31.6206 23.7699C31.7006 23.7099 31.7506 23.6199 31.7606 23.5199V22.9299C31.7606 22.5299 31.6106 22.2099 31.2806 21.9599H31.2906Z" fill="white"/>
</g>
</g>
</g>
</svg>
