<svg width="51" height="91" viewBox="0 0 51 91" fill="none" xmlns="http://www.w3.org/2000/svg">
<g clip-path="url(#clip0_44_618)">
<path d="M49.7295 3.98999H28.4995V88.75H49.7295V3.98999Z" fill="white" stroke="#02352C" stroke-width="0.3" stroke-miterlimit="10"/>
<path d="M28.4997 88.7499V88.8099H49.7797V3.93994H28.4497V88.8099H28.4997V88.7499H28.5497V4.04994H49.6697V88.6999H28.4997V88.7499H28.5497H28.4997Z" fill="#1E1F1C"/>
<path d="M28.4997 88.7499V88.8099H49.7797V3.93994H28.4497V88.8099H28.4997V88.7499ZM28.4997 88.7499H28.5497V4.04994H49.6697V88.6999H28.4997V88.7499ZM28.4997 88.7499H28.5497H28.4997Z" stroke="#02352C" stroke-width="0.3" stroke-miterlimit="10"/>
<path fill-rule="evenodd" clip-rule="evenodd" d="M27.7598 1.26001H50.2998V90.39H27.7598V1.26001ZM28.7298 7.39001H49.3498V5.77001H28.7298V7.39001ZM28.7298 10.89H49.3498V9.27001H28.7298V10.89ZM28.7298 14.4H49.3498V12.78H28.7298V14.4ZM28.7298 17.89H49.3498V16.28H28.7298V17.89ZM28.7298 21.4H49.3498V19.78H28.7298V21.4ZM28.7298 24.9H49.3498V23.28H28.7298V24.9ZM28.7298 28.41H49.3498V26.79H28.7298V28.41ZM28.7298 31.91H49.3498V30.29H28.7298V31.91ZM28.7298 35.41H49.3498V33.79H28.7298V35.41ZM28.7298 38.91H49.3498V37.29H28.7298V38.91ZM28.7298 42.41H49.3498V40.79H28.7298V42.41ZM28.7298 45.91H49.3498V44.29H28.7298V45.91ZM28.7298 49.41H49.3498V47.8H28.7298V49.41ZM28.7298 52.91H49.3498V51.29H28.7298V52.91ZM28.7298 56.42H49.3498V54.81H28.7298V56.42ZM28.7298 59.92H49.3498V58.31H28.7298V59.92ZM28.7298 63.43H49.3498V61.81H28.7298V63.43ZM28.7298 66.93H49.3498V65.31H28.7298V66.93ZM28.7298 70.43H49.3498V68.81H28.7298V70.43ZM28.7298 73.93H49.3498V72.31H28.7298V73.93ZM28.7298 77.43H49.3498V75.81H28.7298V77.43ZM28.7298 80.93H49.3498V79.31H28.7298V80.93ZM28.7298 84.43H49.3498V82.81H28.7298V84.43ZM28.7298 87.94H49.3498V86.28H28.7298V87.94Z" fill="#CBDAD8" stroke="#02352C" stroke-width="0.3" stroke-miterlimit="10"/>
<path fill-rule="evenodd" clip-rule="evenodd" d="M27.7596 1.01001H50.2995L50.5196 1.23001V90.36L50.2995 90.59H27.7596L27.5396 90.36V1.26001L27.7596 1.01001ZM50.0695 1.46001H28.0296V90.14H50.1496L50.0695 1.46001ZM28.7295 5.52001L28.4995 5.74001V7.36001L28.7295 7.59001H49.3495L49.5695 7.36001V5.74001L49.3495 5.52001H28.7295ZM49.1195 5.97001H28.9895V7.14001H49.1796L49.1096 5.97001H49.1195ZM28.7295 9.02001L28.4995 9.25001V10.86L28.7295 11.09H49.3495L49.5695 10.86V9.25001L49.3495 9.02001H28.7295ZM49.1195 9.47001H28.9895V10.7H49.1796L49.1096 9.47001H49.1195ZM28.7295 12.53L28.4995 12.76V14.38L28.7295 14.6H49.3495L49.5695 14.38V12.76L49.3495 12.53H28.7295ZM49.1195 12.98H28.9895V14.15H49.1796L49.1096 12.98H49.1195ZM28.7295 16.03L28.4995 16.26V17.87L28.7295 18.1H49.3495L49.5695 17.87V16.26L49.3495 16.03H28.7295ZM49.1195 16.48H28.9895V17.65H49.1796L49.1096 16.48H49.1195ZM28.7295 19.53L28.4995 19.76V21.38L28.7295 21.6H49.3495L49.5695 21.38V19.76L49.3495 19.53H28.7295ZM49.1195 19.98H28.9895V21.15H49.1796L49.1096 19.98H49.1195ZM28.7295 23.03L28.4995 23.26V24.88L28.7295 25.1H49.3495L49.5695 24.88V23.26L49.3495 23.03H28.7295ZM49.1195 23.48H28.9895V24.65H49.1796L49.1096 23.48H49.1195ZM28.7295 26.53L28.4995 26.76V28.38L28.7295 28.6H49.3495L49.5695 28.38V26.76L49.3495 26.53H28.7295ZM49.1195 26.98H28.9895V28.15H49.1796L49.1096 26.98H49.1195ZM28.7295 30.04L28.4995 30.26V31.88L28.7295 32.1H49.3495L49.5695 31.88V30.26L49.3495 30.04H28.7295ZM49.1195 30.48H28.9895V31.65H49.1796L49.1096 30.48H49.1195ZM28.7295 33.53L28.4995 33.76V35.38L28.7295 35.6H49.3495L49.5695 35.38V33.76L49.3495 33.53H28.7295ZM49.1195 33.98H28.9895V35.16H49.1796L49.1096 33.98H49.1195ZM28.7295 37.04L28.4995 37.26V38.88L28.7295 39.1H49.3495L49.5695 38.88V37.26L49.3495 37.04H28.7295ZM49.1195 37.49H28.9895V38.65H49.1796L49.1096 37.49H49.1195ZM28.7295 40.56L28.4995 40.78V42.4L28.7295 42.63H49.3495L49.5695 42.4V40.78L49.3495 40.56H28.7295ZM49.1195 41.01H28.9895V42.18H49.1796L49.1096 41.01H49.1195ZM28.7295 44.07L28.4995 44.29V45.91L28.7295 46.13H49.3495L49.5695 45.91V44.29L49.3495 44.07H28.7295ZM49.1195 44.52H28.9895V45.69H49.1796L49.1096 44.52H49.1195ZM28.7295 47.57L28.4995 47.79V49.41L28.7295 49.64H49.3495L49.5695 49.41V47.79L49.3495 47.57H28.7295ZM49.1195 48.02H28.9895V49.19H49.1796L49.1096 48.02H49.1195ZM28.7295 51.09L28.4995 51.31V52.93L28.7295 53.16H49.3495L49.5695 52.93V51.31L49.3495 51.09H28.7295ZM49.1195 51.54H28.9895V52.71H49.1796L49.1096 51.54H49.1195ZM28.7295 54.59L28.4995 54.81V56.43L28.7295 56.66H49.3495L49.5695 56.43V54.81L49.3495 54.59H28.7295ZM49.1195 55.04H28.9895V56.21H49.1796L49.1096 55.04H49.1195ZM28.7295 58.09L28.4995 58.32V59.93L28.7295 60.16H49.3495L49.5695 59.93V58.32L49.3495 58.09H28.7295ZM49.1195 58.54H28.9895V59.71H49.1796L49.1096 58.54H49.1195ZM28.7295 61.58L28.4995 61.81V63.43L28.7295 63.65H49.3495L49.5695 63.43V61.81L49.3495 61.58H28.7295ZM49.1195 62.03H28.9895V63.2H49.1796L49.1096 62.03H49.1195ZM28.7295 65.08L28.4995 65.31V66.93L28.7295 67.15H49.3495L49.5695 66.93V65.31L49.3495 65.08H28.7295ZM49.1195 65.53H28.9895V66.7H49.1796L49.1096 65.53H49.1195ZM28.7295 68.58L28.4995 68.81V70.43L28.7295 70.65H49.3495L49.5695 70.43V68.81L49.3495 68.58H28.7295ZM49.1195 69.03H28.9895V70.2H49.1796L49.1096 69.03H49.1195ZM28.7295 72.09L28.4995 72.31V73.93L28.7295 74.15H49.3495L49.5695 73.93V72.31L49.3495 72.09H28.7295ZM49.1195 72.53H28.9895V73.7H49.1796L49.1096 72.53H49.1195ZM28.7295 75.59L28.4995 75.82V77.44L28.7295 77.66H49.3495L49.5695 77.44V75.82L49.3495 75.59H28.7295ZM49.1195 76.04H28.9895V77.22H49.1796L49.1096 76.04H49.1195ZM28.7295 79.1L28.4995 79.32V80.94L28.7295 81.16H49.3495L49.5695 80.94V79.32L49.3495 79.1H28.7295ZM49.1195 79.54H28.9895V80.71H49.1796L49.1096 79.54H49.1195ZM28.7295 82.6L28.4995 82.82V84.44L28.7295 84.67H49.3495L49.5695 84.44V82.82L49.3495 82.6H28.7295ZM49.1195 83.04H28.9895V84.21H49.1796L49.1096 83.04H49.1195ZM28.7295 86.1L28.4995 86.32V87.94L28.7295 88.16H49.3495L49.5695 87.94V86.28L49.3495 86.06L28.7295 86.1ZM49.1195 86.55H28.9895V87.72H49.1796L49.1096 86.55H49.1195Z" fill="#01352C" stroke="#02352C" stroke-width="0.3" stroke-miterlimit="10"/>
<path fill-rule="evenodd" clip-rule="evenodd" d="M0.55957 2.02002H22.9096V90.37H0.55957V2.02002ZM20.4996 5.30002H21.7796V3.93002H20.4996V5.30002ZM21.7796 5.93002H20.4996V8.01002H21.7796V5.93002ZM21.7796 8.63002H20.4996V10H21.7796V8.63002ZM2.95957 3.94002H1.67957V5.31002H2.95957V3.94002ZM1.67957 8.01002H2.95957V5.92002H1.67957V8.01002ZM1.67957 10H2.95957V8.63002H1.67957V10ZM20.4996 12.43H21.7796V11.07H20.4996V12.43ZM21.7796 13.06H20.4996V15.14H21.7796V13.06ZM21.7796 15.77H20.4996V17.13H21.7796V15.77ZM2.95957 11.07H1.67957V12.43H2.95957V11.07ZM1.67957 15.14H2.95957V13.06H1.67957V15.14ZM1.67957 17.13H2.95957V15.78H1.67957V17.13ZM20.4996 19.57H21.7796V18.21H20.4996V19.57ZM21.7796 20.2H20.4996V22.28H21.7796V20.2ZM21.7796 22.9H20.4996V24.27H21.7796V22.9ZM2.95957 18.2H1.67957V19.57H2.95957V18.2ZM1.67957 22.27H2.95957V20.19H1.67957V22.27ZM1.67957 24.26H2.95957V22.89H1.67957V24.26ZM20.4996 26.7H21.7796V25.34H20.4996V26.7ZM21.7796 27.32H20.4996V29.41H21.7796V27.32ZM21.7796 30.03H20.4996V31.4H21.7796V30.03ZM2.95957 25.33H1.67957V26.7H2.95957V25.33ZM1.67957 29.41H2.95957V27.32H1.67957V29.41ZM1.67957 31.4H2.95957V30.03H1.67957V31.4ZM20.4996 33.84H21.7796V32.47H20.4996V33.84ZM21.7796 34.46H20.4996V36.54H21.7796V34.46ZM21.7796 37.17H20.4996V38.53H21.7796V37.17ZM2.95957 32.47H1.67957V33.84H2.95957V32.47ZM1.67957 36.54H2.95957V34.46H1.67957V36.54ZM1.67957 38.53H2.95957V37.17H1.67957V38.53ZM20.4996 40.97H21.7796V39.61H20.4996V40.97ZM21.7796 41.6H20.4996V43.68H21.7796V41.6ZM21.7796 44.3H20.4996V45.67H21.7796V44.3ZM2.95957 39.61H1.67957V40.97H2.95957V39.61ZM1.67957 43.67H2.95957V41.6H1.67957V43.67ZM1.67957 45.66H2.95957V44.29H1.67957V45.66ZM20.4996 48.1H21.7796V46.73H20.4996V48.1ZM21.7796 48.72H20.4996V50.81H21.7796V48.72ZM21.7796 51.43H20.4996V52.8H21.7796V51.43ZM2.95957 46.73H1.67957V48.1H2.95957V46.73ZM1.67957 50.81H2.95957V48.72H1.67957V50.81ZM1.67957 52.8H2.95957V51.43H1.67957V52.8ZM20.4996 55.21H21.7796V53.84H20.4996V55.21ZM21.7796 55.83H20.4996V57.91H21.7796V55.83ZM21.7796 58.54H20.4996V59.9H21.7796V58.54ZM2.95957 53.93H1.67957V55.3H2.95957V53.93ZM1.67957 57.99H2.95957V55.91H1.67957V57.99ZM1.67957 59.98H2.95957V58.54H1.67957V59.98ZM20.4996 62.42H21.7796V61.06H20.4996V62.42ZM21.7796 63.05H20.4996V65.13H21.7796V63.05ZM21.7796 65.75H20.4996V67.12H21.7796V65.75ZM2.95957 61.06H1.67957V62.36H2.95957V61.06ZM1.67957 65.13H2.95957V63.05H1.67957V65.13ZM1.67957 67.12H2.95957V65.71H1.67957V67.12ZM20.4996 69.56H21.7796V68.2H20.4996V69.56ZM21.7796 70.18H20.4996V72.27H21.7796V70.18ZM21.7796 72.89H20.4996V74.26H21.7796V72.89ZM2.95957 68.14H1.67957V69.51H2.95957V68.14ZM1.67957 72.22H2.95957V70.14H1.67957V72.22ZM1.67957 74.21H2.95957V72.89H1.67957V74.21ZM20.4996 76.65H21.7796V75.28H20.4996V76.65ZM21.7796 77.27H20.4996V79.35H21.7796V77.27ZM21.7796 79.98H20.4996V81.34H21.7796V79.98ZM2.95957 75.28H1.67957V76.65H2.95957V75.28ZM1.67957 79.35H2.95957V77.27H1.67957V79.35ZM1.67957 81.34H2.95957V79.98H1.67957V81.34ZM20.4996 83.78H21.7796V82.45H20.4996V83.78ZM21.7796 84.41H20.4996V86.49H21.7796V84.41ZM21.7796 87.11H20.4996V88.47H21.7796V87.11ZM2.95957 82.42H1.67957V83.78H2.95957V82.42ZM1.67957 86.48H2.95957V84.37H1.67957V86.48ZM1.67957 88.47H2.95957V87.11H1.67957V88.47Z" fill="#CBDAD8" stroke="#02352C" stroke-width="0.3" stroke-miterlimit="10"/>
<path fill-rule="evenodd" clip-rule="evenodd" d="M0.55959 1.81982H22.8996L23.1296 2.03982V90.3898L22.8996 90.6198H0.55959L0.32959 90.3898V2.02982L0.55959 1.81982ZM22.6796 2.26982H0.77959V90.1698H22.6796V2.26982ZM20.4996 3.72982L20.2796 3.94982V5.31982L20.4996 5.53982H21.7796L21.9996 5.31982V3.94982L21.7796 3.72982H20.4996ZM21.5496 4.17982H20.7196V5.08982H21.5496V4.17982ZM21.9996 5.93982L21.7796 5.71982H20.4996L20.2796 5.93982V8.01982L20.4996 8.24982H21.7796L21.9996 8.01982V5.93982ZM21.5496 6.16982H20.7196V7.82982H21.5496V6.16982ZM21.9996 8.64982L21.7796 8.42982H20.4996L20.2796 8.64982V10.0098L20.4996 10.2398H21.7796L21.9996 10.0098V8.64982ZM21.5496 8.86982H20.7196V9.82982H21.5496V8.86982ZM2.72959 4.17982H1.89959V5.08982H2.72959V4.17982ZM1.67959 3.72982L1.45959 3.94982V5.31982L1.67959 5.53982H2.95959L3.18959 5.31982V3.94982L2.95959 3.72982H1.67959ZM1.90959 7.79982H2.73959V6.16982H1.90959V7.79982ZM1.45959 8.01982L1.67959 8.24982H2.95959L3.18959 8.01982V5.92982L2.95959 5.70982H1.67959L1.45959 5.92982V8.01982ZM1.90959 9.78982H2.73959V8.82982H1.90959V9.78982ZM1.45959 10.0098L1.67959 10.2398H2.95959L3.18959 10.0098V8.64982L2.95959 8.42982H1.67959L1.45959 8.64982V10.0098ZM20.4996 10.8598L20.2796 11.0898V12.4598L20.4996 12.6798H21.7796L21.9996 12.4598V11.0898L21.7796 10.8598H20.4996ZM21.5496 11.3098H20.7196V12.2698H21.5496V11.3098ZM21.9996 13.0798L21.7796 12.8498H20.4996L20.2796 13.0798V15.1598L20.4996 15.3798H21.7796L21.9996 15.1598V13.0798ZM21.5496 13.2998H20.7196V14.9298H21.5496V13.2998ZM21.9996 15.7798L21.7796 15.5598H20.4996L20.2796 15.7798V17.1498L20.4996 17.3798H21.7796L21.9996 17.1498V15.7798ZM21.5496 16.0098H20.7196V16.9698H21.5496V16.0098ZM2.72959 11.3098H1.89959V12.2698H2.72959V11.3098ZM1.67959 10.8598L1.45959 11.0898V12.4598L1.67959 12.6798H2.95959L3.18959 12.4598V11.0898L2.95959 10.8598H1.67959ZM1.90959 14.9398H2.73959V13.3098H1.90959V14.9398ZM1.45959 15.1598L1.67959 15.3798H2.95959L3.18959 15.1598V13.0798L2.95959 12.8498H1.67959L1.45959 13.0798V15.1598ZM1.90959 16.9298H2.73959V15.9698H1.90959V16.9298ZM1.45959 17.1498L1.67959 17.3798H2.95959L3.18959 17.1498V15.7798L2.95959 15.5598H1.67959L1.45959 15.7798V17.1498ZM20.4996 17.9998L20.2796 18.2298V19.5898L20.4996 19.8098H21.7796L21.9996 19.5898V18.2298L21.7796 17.9998H20.4996ZM21.5496 18.4498H20.7196V19.4098H21.5496V18.4498ZM21.9996 20.2198L21.7796 19.9898H20.4996L20.2796 20.2198V22.2998L20.4996 22.5198H21.7796L21.9996 22.2998V20.2198ZM21.5496 20.4398H20.7196V22.0698H21.5496V20.4398ZM21.9996 22.9098L21.7796 22.6898H20.4996L20.2796 22.9098V24.2798L20.4996 24.4998H21.7796L21.9996 24.2798V22.9098ZM21.5496 23.1398H20.7196V24.0498H21.5496V23.1398ZM2.72959 18.4298H1.89959V19.3898H2.72959V18.4298ZM1.67959 17.9798L1.45959 18.2098V19.5698L1.67959 19.7898H2.95959L3.18959 19.5698V18.2098L2.95959 17.9798H1.67959ZM1.90959 22.0398H2.73959V20.4098H1.90959V22.0398ZM1.45959 22.2698L1.67959 22.4898H2.95959L3.18959 22.2698V20.1898L2.95959 19.9598H1.67959L1.45959 20.1898V22.2698ZM1.90959 24.0298H2.73959V23.1398H1.90959V24.0298ZM1.45959 24.2598L1.67959 24.4798H2.95959L3.18959 24.2598V22.8898L2.95959 22.6698H1.67959L1.45959 22.8898V24.2598ZM20.4996 25.1098L20.2796 25.3298V26.6998L20.4996 26.9198H21.7796L21.9996 26.6998V25.3398L21.7796 25.1198H20.4996V25.1098ZM21.5496 25.5598H20.7196V26.5198H21.5496V25.5598ZM21.9996 27.3198L21.7796 27.0998H20.4996L20.2796 27.3198V29.3998L20.4996 29.6298H21.7796L21.9996 29.3998V27.3198ZM21.5496 27.5498H20.7196V29.1798H21.5496V27.5498ZM21.9996 30.0298L21.7796 29.8098H20.4996L20.2796 30.0298V31.3898L20.4996 31.6198H21.7796L21.9996 31.3898V30.0298ZM21.5496 30.2498H20.7196V31.2098H21.5496V30.2498ZM2.72959 25.5598H1.89959V26.5198H2.72959V25.5598ZM1.67959 25.1098L1.45959 25.3298V26.6998L1.67959 26.9198H2.95959L3.18959 26.6998V25.3398L2.95959 25.1198H1.67959V25.1098ZM1.90959 29.1798H2.73959V27.5498H1.90959V29.1798ZM1.45959 29.3998L1.67959 29.6298H2.95959L3.18959 29.3998V27.3198L2.95959 27.0998H1.67959L1.45959 27.3198V29.3998ZM1.90959 31.1698H2.73959V30.2098H1.90959V31.1698ZM1.45959 31.3898L1.67959 31.6198H2.95959L3.18959 31.3898V30.0298L2.95959 29.8098H1.67959L1.45959 30.0298V31.3898ZM20.4996 32.2498L20.2796 32.4698V33.8398L20.4996 34.0598H21.7796L21.9996 33.8398V32.4698L21.7796 32.2498H20.4996ZM21.5496 32.6998H20.7196V33.6698H21.5496V32.6998ZM21.9996 34.4598L21.7796 34.2398H20.4996L20.2796 34.4598V36.5398L20.4996 36.7698H21.7796L21.9996 36.5398V34.4598ZM21.5496 34.6798H20.7196V36.3198H21.5496V34.6798ZM21.9996 37.1698L21.7796 36.9398H20.4996L20.2796 37.1698V38.5298L20.4996 38.7598H21.7796L21.9996 38.5298V37.1698ZM21.5496 37.3898H20.7196V38.3498H21.5496V37.3898ZM2.72959 32.6998H1.89959V33.6698H2.72959V32.6998ZM1.67959 32.2498L1.45959 32.4698V33.8398L1.67959 34.0598H2.95959L3.18959 33.8398V32.4698L2.95959 32.2498H1.67959ZM1.90959 36.3198H2.73959V34.6798H1.90959V36.3198ZM1.45959 36.5398L1.67959 36.7698H2.95959L3.18959 36.5398V34.4598L2.95959 34.2398H1.67959L1.45959 34.4598V36.5398ZM1.90959 38.3098H2.73959V37.3498H1.90959V38.3098ZM1.45959 38.5298L1.67959 38.7598H2.95959L3.18959 38.5298V37.1698L2.95959 36.9398H1.67959L1.45959 37.1698V38.5298ZM20.4996 39.3798L20.2796 39.6098V40.9698L20.4996 41.1998H21.7796L21.9996 40.9698V39.6098L21.7796 39.3798H20.4996ZM21.5496 39.8298H20.7196V40.7898H21.5496V39.8298ZM21.9996 41.5998L21.7796 41.3698H20.4996L20.2796 41.5998V43.6798L20.4996 43.8998H21.7796L21.9996 43.6798V41.5998ZM21.5496 41.8198H20.7196V43.4498H21.5496V41.8198ZM21.9996 44.2998L21.7796 44.0798H20.4996L20.2796 44.2998V45.6698L20.4996 45.8898H21.7796L21.9996 45.6698V44.2998ZM21.5496 44.5198H20.7196V45.4298H21.5496V44.5198ZM2.72959 39.8298H1.89959V40.7898H2.72959V39.8298ZM1.67959 39.3798L1.45959 39.6098V40.9698L1.67959 41.1998H2.95959L3.18959 40.9698V39.6098L2.95959 39.3798H1.67959ZM1.90959 43.4398H2.73959V41.8098H1.90959V43.4398ZM1.45959 43.6698L1.67959 43.8898H2.95959L3.18959 43.6698V41.5998L2.95959 41.3698H1.67959L1.45959 41.5998V43.6698ZM1.90959 45.4298H2.73959V44.5198H1.90959V45.4298ZM1.45959 45.6598L1.67959 45.8798H2.95959L3.18959 45.6598V44.2898L2.95959 44.0698H1.67959L1.45959 44.2898V45.6598ZM20.4996 46.5098L20.2796 46.7298V48.0998L20.4996 48.3198H21.7796L21.9996 48.0998V46.7298L21.7796 46.5098H20.4996ZM21.5496 46.9598H20.7196V47.9198H21.5496V46.9598ZM21.9996 48.7298L21.7796 48.4998H20.4996L20.2796 48.7298V50.8098L20.4996 51.0298H21.7796L21.9996 50.8098V48.7298ZM21.5496 48.9498H20.7196V50.5798H21.5496V48.9498ZM21.9996 51.4298L21.7796 51.2098H20.4996L20.2796 51.4298V52.7998L20.4996 53.0198H21.7796L21.9996 52.7998V51.4298ZM21.5496 51.6498H20.7196V52.6098H21.5496V51.6498ZM2.72959 46.9598H1.89959V47.9198H2.72959V46.9598ZM1.67959 46.5098L1.45959 46.7298V48.0998L1.67959 48.3198H2.95959L3.18959 48.0998V46.7298L2.95959 46.5098H1.67959ZM1.90959 50.5798H2.73959V48.9698H1.90959V50.5798ZM1.45959 50.8098L1.67959 51.0298H2.95959L3.18959 50.8098V48.7298L2.95959 48.4998H1.67959L1.45959 48.7298V50.8098ZM1.90959 52.5698H2.73959V51.6098H1.90959V52.5698ZM1.45959 52.7998L1.67959 53.0198H2.95959L3.18959 52.7998V51.4298L2.95959 51.2098H1.67959L1.45959 51.4298V52.7998ZM20.4996 53.6598L20.2796 53.8798V55.2498L20.4996 55.4698H21.7796L21.9996 55.2498V53.8798L21.7796 53.6598H20.4996ZM21.5496 54.0998H20.7196V55.0598H21.5496V54.0998ZM21.9996 55.8698L21.7796 55.6498H20.4996L20.2796 55.8698V57.9498L20.4996 58.1798H21.7796L21.9996 57.9498V55.8698ZM21.5496 56.0898H20.7196V57.7298H21.5496V56.0898ZM21.9996 58.5798L21.7796 58.3498H20.4996L20.2796 58.5798V59.9398L20.4996 60.1698H21.7796L21.9996 59.9398V58.5798ZM21.5496 58.7998H20.7196V59.7598H21.5496V58.7998ZM2.72959 54.0998H1.89959V55.0598H2.72959V54.0998ZM1.67959 53.6598L1.45959 53.8798V55.2498L1.67959 55.4698H2.95959L3.18959 55.2498V53.8798L2.95959 53.6598H1.67959ZM1.90959 57.7298H2.73959V56.0898H1.90959V57.7298ZM1.45959 57.9498L1.67959 58.1798H2.95959L3.18959 57.9498V55.8698L2.95959 55.6498H1.67959L1.45959 55.8698V57.9498ZM1.90959 59.7198H2.73959V58.7598H1.90959V59.7198ZM1.45959 59.9398L1.67959 60.1698H2.95959L3.18959 59.9398V58.5398L2.95959 58.3098H1.67959L1.45959 58.5398V59.9398ZM20.4996 60.7898L20.2796 61.0198V62.3698L20.4996 62.5998H21.7796L21.9996 62.3698V61.0098L21.7796 60.7798H20.4996V60.7898ZM21.5496 61.2398H20.7196V62.1998H21.5496V61.2398ZM21.9996 63.0098L21.7796 62.7798H20.4996L20.2796 63.0098V65.0898L20.4996 65.3098H21.7796L21.9996 65.0898V63.0098ZM21.5496 63.2298H20.7196V64.8598H21.5496V63.2298ZM21.9996 65.6998L21.7796 65.4798H20.4996L20.2796 65.6998V67.0698L20.4996 67.2998H21.7796L21.9996 67.0698V65.6998ZM21.5496 65.9298H20.7196V66.8398H21.5496V65.9298ZM2.72959 61.2398H1.89959V62.1998H2.72959V61.2398ZM1.67959 60.7898L1.45959 61.0198V62.3698L1.67959 62.5998H2.95959L3.18959 62.3698V61.0098L2.95959 60.7798H1.67959V60.7898ZM1.90959 64.8498H2.73959V63.2198H1.90959V64.8498ZM1.45959 65.0798L1.67959 65.2998H2.95959L3.18959 65.0798V62.9998L2.95959 62.7698H1.67959L1.45959 62.9998V65.0798ZM1.90959 66.8398H2.73959V65.9298H1.90959V66.8398ZM1.45959 67.0698L1.67959 67.2998H2.95959L3.18959 67.0698V65.6998L2.95959 65.4798H1.67959L1.45959 65.6998V67.0698ZM20.4996 67.9198L20.2796 68.1498V69.5098L20.4996 69.7298H21.7796L21.9996 69.5098V68.1498L21.7796 67.9198H20.4996ZM21.5496 68.3698H20.7196V69.3298H21.5496V68.3698ZM21.9996 70.1398L21.7796 69.9098H20.4996L20.2796 70.1398V72.2198L20.4996 72.4398H21.7796L21.9996 72.2198V70.1398ZM21.5496 70.3598H20.7196V71.9898H21.5496V70.3598ZM21.9996 72.8398L21.7796 72.6198H20.4996L20.2796 72.8398V74.2098L20.4996 74.4298H21.7796L21.9996 74.2098V72.8398ZM21.5496 73.0698H20.7196V73.9798H21.5496V73.0698ZM2.72959 68.3698H1.89959V69.3298H2.72959V68.3698ZM1.67959 67.9198L1.45959 68.1498V69.5098L1.67959 69.7298H2.95959L3.18959 69.5098V68.1498L2.95959 67.9198H1.67959ZM1.90959 71.9898H2.73959V70.3598H1.90959V71.9898ZM1.45959 72.2198L1.67959 72.4398H2.95959L3.18959 72.2198V70.1398L2.95959 69.9098H1.67959L1.45959 70.1398V72.2198ZM1.90959 73.9798H2.73959V73.0698H1.90959V73.9798ZM1.45959 74.2098L1.67959 74.4298H2.95959L3.18959 74.2098V72.8898L2.95959 72.6698H1.67959L1.45959 72.8898V74.2098ZM20.4996 75.0598L20.2796 75.2798V76.6498L20.4996 76.8698H21.7796L21.9996 76.6498V75.2798L21.7796 75.0598H20.4996ZM21.5496 75.4998H20.7196V76.4598H21.5496V75.4998ZM21.9996 77.2698L21.7796 77.0498H20.4996L20.2796 77.2698V79.3498L20.4996 79.5798H21.7796L21.9996 79.3498V77.2698ZM21.5496 77.4898H20.7196V79.1298H21.5496V77.4898ZM21.9996 79.9798L21.7796 79.7498H20.4996L20.2796 79.9798V81.3398L20.4996 81.5698H21.7796L21.9996 81.3398V79.9798ZM21.5496 80.1998H20.7196V81.1598H21.5496V80.1998ZM2.72959 75.4998H1.89959V76.4598H2.72959V75.4998ZM1.67959 75.0598L1.45959 75.2798V76.6498L1.67959 76.8698H2.95959L3.18959 76.6498V75.2798L2.95959 75.0598H1.67959ZM1.90959 79.1298H2.73959V77.4998H1.90959V79.1298ZM1.45959 79.3498L1.67959 79.5798H2.95959L3.18959 79.3498V77.2698L2.95959 77.0498H1.67959L1.45959 77.2698V79.3498ZM1.90959 81.1198H2.73959V80.1598H1.90959V81.1198ZM1.45959 81.3398L1.67959 81.5698H2.95959L3.18959 81.3398V79.9798L2.95959 79.7498H1.67959L1.45959 79.9798V81.3398ZM20.4996 82.1998L20.2796 82.4198V83.7798L20.4996 84.0098H21.7796L21.9996 83.7798V82.4598L21.7796 82.2398L20.4996 82.1998ZM21.5496 82.6398H20.7196V83.5998H21.5496V82.6398ZM21.9996 84.4098L21.7796 84.1898H20.4996L20.2796 84.4098V86.4898L20.4996 86.7198H21.7796L21.9996 86.4898V84.4098ZM21.5496 84.6298H20.7196V86.2798H21.5496V84.6298ZM21.9996 87.0998L21.7796 86.8798H20.4996L20.2796 87.0998V88.4698L20.4996 88.6998H21.7796L21.9996 88.4698V87.0998ZM21.5496 87.3298H20.7196V88.2898H21.5496V87.3298ZM2.72959 82.6398H1.89959V83.5998H2.72959V82.6398ZM1.67959 82.1998L1.45959 82.4198V83.7798L1.67959 84.0098H2.95959L3.18959 83.7798V82.4598L2.95959 82.2398L1.67959 82.1998ZM1.90959 86.2598H2.73959V84.6198H1.90959V86.2598ZM1.45959 86.4798L1.67959 86.7098H2.95959L3.18959 86.4798V84.3698L2.95959 84.1498H1.67959L1.45959 84.3698V86.4798ZM1.90959 88.2498H2.73959V87.2898H1.90959V88.2498ZM1.45959 88.4698L1.67959 88.6998H2.95959L3.18959 88.4698V87.0998L2.95959 86.8798H1.67959L1.45959 87.0998V88.4698Z" fill="#01352C" stroke="#02352C" stroke-width="0.3" stroke-miterlimit="10"/>
<path d="M7.36975 3.93994H3.98975V9.67994H7.36975V3.93994Z" fill="white" stroke="#02352C" stroke-width="0.3" stroke-miterlimit="10"/>
<path d="M14.5596 3.93994H8.88965V9.67994H14.5596V3.93994Z" fill="#CBDAD8" stroke="#02352C" stroke-width="0.3" stroke-miterlimit="10"/>
<path d="M19.4498 3.93994H16.0698V9.67994H19.4498V3.93994Z" fill="white" stroke="#02352C" stroke-width="0.3" stroke-miterlimit="10"/>
<path fill-rule="evenodd" clip-rule="evenodd" d="M19.4598 9.90997H16.0798L15.8598 9.67997V3.93997L16.0798 3.71997H19.4598L19.6898 3.93997V9.67997L19.4598 9.90997ZM16.2998 9.45997H19.2298V4.16997H16.2998V9.45997ZM14.5598 9.90997H8.89979L8.66979 9.67997V3.93997L8.89979 3.71997H14.5698L14.7998 3.93997V9.67997L14.5598 9.90997ZM9.11978 9.45997H14.3398V4.16997H9.11978V9.45997ZM7.38979 9.90997H3.99979L3.77979 9.67997V3.93997L3.99979 3.71997H7.38979L7.60979 3.93997V9.67997L7.38979 9.90997ZM4.21979 9.45997H7.14979V4.16997H4.21979V9.45997Z" fill="#01352C" stroke="#02352C" stroke-width="0.3" stroke-miterlimit="10"/>
<path fill-rule="evenodd" clip-rule="evenodd" d="M3.7998 9.57984L5.4298 6.80984L3.7998 4.05984L4.1998 3.83984L5.6998 6.36984L7.18981 3.83984L7.5698 4.05984L5.9498 6.80984L7.5698 9.57984L7.18981 9.79984L5.6998 7.25984L4.1998 9.79984L3.7998 9.57984Z" fill="#01352C" stroke="#02352C" stroke-width="0.3" stroke-miterlimit="10"/>
<path fill-rule="evenodd" clip-rule="evenodd" d="M15.8799 9.57984L17.4999 6.80984L15.8799 4.05984L16.2599 3.83984L17.7599 6.36984L19.2599 3.83984L19.6499 4.05984L18.0199 6.80984L19.6499 9.57984L19.2599 9.79984L17.7599 7.25984L16.2599 9.79984L15.8799 9.57984Z" fill="#01352C" stroke="#02352C" stroke-width="0.3" stroke-miterlimit="10"/>
<path fill-rule="evenodd" clip-rule="evenodd" d="M8.85986 9.46979L14.4099 3.78979L14.7299 4.10979L9.17986 9.78979L8.85986 9.46979Z" fill="#01352C" stroke="#02352C" stroke-width="0.3" stroke-miterlimit="10"/>
<path fill-rule="evenodd" clip-rule="evenodd" d="M14.7299 9.46979L9.18986 3.78979L8.85986 4.10979L14.4099 9.78979L14.7299 9.46979Z" fill="#01352C" stroke="#02352C" stroke-width="0.3" stroke-miterlimit="10"/>
<path d="M7.36975 11.8398H3.98975V17.5798H7.36975V11.8398Z" fill="white" stroke="#02352C" stroke-width="0.3" stroke-miterlimit="10"/>
<path d="M14.5596 11.8398H8.88965V17.5798H14.5596V11.8398Z" fill="#CBDAD8" stroke="#02352C" stroke-width="0.3" stroke-miterlimit="10"/>
<path d="M19.4498 11.8398H16.0698V17.5798H19.4498V11.8398Z" fill="white" stroke="#02352C" stroke-width="0.3" stroke-miterlimit="10"/>
<path fill-rule="evenodd" clip-rule="evenodd" d="M19.4598 17.8499H16.0798L15.8598 17.6199V11.8799L16.0798 11.6599H19.4598L19.6898 11.8799V17.6199L19.4598 17.8499ZM16.2998 17.3999H19.2298V12.0999H16.2998V17.3999ZM14.5598 17.8499H8.89979L8.66979 17.6199V11.8799L8.89979 11.6599H14.5698L14.7998 11.8799V17.6199L14.5598 17.8499ZM9.11978 17.3999H14.3398V12.0999H9.11978V17.3999ZM7.38979 17.8499H3.99979L3.77979 17.6199V11.8799L3.99979 11.6599H7.38979L7.60979 11.8799V17.6199L7.38979 17.8499ZM4.21979 17.3999H7.14979V12.0999H4.21979V17.3999Z" fill="#01352C" stroke="#02352C" stroke-width="0.3" stroke-miterlimit="10"/>
<path fill-rule="evenodd" clip-rule="evenodd" d="M3.80957 17.46C4.34957 16.5 4.88957 15.62 5.43957 14.7C4.88957 13.74 4.34957 12.86 3.80957 11.94L4.18957 11.71L5.68957 14.25L7.18957 11.71L7.56957 11.94C7.01957 12.9 6.47957 13.78 5.93957 14.7C6.47957 15.66 7.01957 16.54 7.56957 17.46L7.18957 17.69L5.68957 15.15L4.18957 17.69L3.80957 17.46Z" fill="#01352C" stroke="#02352C" stroke-width="0.3" stroke-miterlimit="10"/>
<path fill-rule="evenodd" clip-rule="evenodd" d="M15.8799 17.46C16.4299 16.5 16.9699 15.62 17.5099 14.7C16.9699 13.74 16.4299 12.86 15.8799 11.94L16.2699 11.71L17.7699 14.25C18.2599 13.4 18.7299 12.56 19.2599 11.71L19.6499 11.94C19.0999 12.9 18.5599 13.78 18.0199 14.7C18.5599 15.66 19.0999 16.54 19.6499 17.46L19.2599 17.69C18.7699 16.84 18.2999 16 17.7699 15.15L16.2699 17.69L15.8799 17.46Z" fill="#01352C" stroke="#02352C" stroke-width="0.3" stroke-miterlimit="10"/>
<path fill-rule="evenodd" clip-rule="evenodd" d="M8.85986 17.4L14.4099 11.72L14.7299 12.03L9.18986 17.71L8.85986 17.4Z" fill="#01352C" stroke="#02352C" stroke-width="0.3" stroke-miterlimit="10"/>
<path fill-rule="evenodd" clip-rule="evenodd" d="M14.7299 17.3999L9.18986 11.6599L8.85986 11.9699L14.4099 17.6499L14.7299 17.3999Z" fill="#01352C" stroke="#02352C" stroke-width="0.3" stroke-miterlimit="10"/>
<path d="M7.36975 19.73H3.98975V25.47H7.36975V19.73Z" fill="white" stroke="#02352C" stroke-width="0.3" stroke-miterlimit="10"/>
<path d="M14.5596 19.73H8.88965V25.47H14.5596V19.73Z" fill="#CBDAD8" stroke="#02352C" stroke-width="0.3" stroke-miterlimit="10"/>
<path d="M19.4498 19.73H16.0698V25.47H19.4498V19.73Z" fill="white" stroke="#02352C" stroke-width="0.3" stroke-miterlimit="10"/>
<path fill-rule="evenodd" clip-rule="evenodd" d="M19.4598 25.69H16.0798L15.8598 25.47V19.73L16.0798 19.5H19.4598L19.6898 19.73V25.47L19.4598 25.69ZM16.2998 25.25H19.2298V19.95H16.2998V25.25ZM14.5598 25.69H8.89979L8.66979 25.47V19.73L8.89979 19.5H14.5698L14.7998 19.73V25.47L14.5598 25.69ZM9.11978 25.25H14.3398V19.95H9.11978V25.25ZM7.38979 25.69H3.99979L3.77979 25.47V19.73L3.99979 19.5H7.38979L7.60979 19.73V25.47L7.38979 25.69ZM4.21979 25.25H7.14979V19.95H4.21979V25.25Z" fill="#01352C" stroke="#02352C" stroke-width="0.3" stroke-miterlimit="10"/>
<path fill-rule="evenodd" clip-rule="evenodd" d="M3.80957 25.3499C4.34957 24.3899 4.88957 23.5099 5.43957 22.5899C4.88957 21.6299 4.34957 20.7499 3.80957 19.8299L4.18957 19.5999L5.68957 22.1399L7.18957 19.5999L7.56957 19.8299C7.01957 20.7899 6.47957 21.6699 5.93957 22.5899C6.47957 23.5499 7.01957 24.4299 7.56957 25.3499L7.18957 25.5799L5.68957 23.0399L4.18957 25.5799L3.80957 25.3499Z" fill="#01352C" stroke="#02352C" stroke-width="0.3" stroke-miterlimit="10"/>
<path fill-rule="evenodd" clip-rule="evenodd" d="M15.8799 25.3499C16.4299 24.3899 16.9699 23.5099 17.5099 22.5899C16.9699 21.6299 16.4299 20.7499 15.8799 19.8299L16.2699 19.5999L17.7699 22.1399C18.2599 21.2899 18.7299 20.4399 19.2599 19.5999L19.6499 19.8299C19.0999 20.7899 18.5599 21.6699 18.0199 22.5899C18.5599 23.5499 19.0999 24.4299 19.6499 25.3499L19.2599 25.5799C18.7699 24.7299 18.2999 23.8899 17.7699 23.0399L16.2699 25.5799L15.8799 25.3499Z" fill="#01352C" stroke="#02352C" stroke-width="0.3" stroke-miterlimit="10"/>
<path fill-rule="evenodd" clip-rule="evenodd" d="M8.85986 25.2598L14.4099 19.5798L14.7299 19.8798L9.18986 25.5598L8.85986 25.2598Z" fill="#01352C" stroke="#02352C" stroke-width="0.3" stroke-miterlimit="10"/>
<path fill-rule="evenodd" clip-rule="evenodd" d="M14.7299 25.2598L9.18986 19.5798L8.85986 19.8798L14.4099 25.5598L14.7299 25.2598Z" fill="#01352C" stroke="#02352C" stroke-width="0.3" stroke-miterlimit="10"/>
<path d="M7.36975 27.6199H3.98975V33.3599H7.36975V27.6199Z" fill="white" stroke="#02352C" stroke-width="0.3" stroke-miterlimit="10"/>
<path d="M14.5596 27.6199H8.88965V33.3599H14.5596V27.6199Z" fill="#CBDAD8" stroke="#02352C" stroke-width="0.3" stroke-miterlimit="10"/>
<path d="M19.4498 27.6199H16.0698V33.3599H19.4498V27.6199Z" fill="white" stroke="#02352C" stroke-width="0.3" stroke-miterlimit="10"/>
<path fill-rule="evenodd" clip-rule="evenodd" d="M19.4598 33.5799H16.0798L15.8598 33.3599V27.6199L16.0798 27.3899H19.4598L19.6898 27.6199V33.3599L19.4598 33.5799ZM16.2998 33.1299H19.2298V27.8399H16.2998V33.1299ZM14.5598 33.5799H8.89979L8.66979 33.3599V27.6199L8.89979 27.3899H14.5698L14.7998 27.6199V33.3599L14.5598 33.5799ZM9.11978 33.1299H14.3398V27.8399H9.11978V33.1299ZM7.38979 33.5799H3.99979L3.77979 33.3599V27.6199L3.99979 27.3899H7.38979L7.60979 27.6199V33.3599L7.38979 33.5799ZM4.21979 33.1299H7.14979V27.8399H4.21979V33.1299Z" fill="#01352C" stroke="#02352C" stroke-width="0.3" stroke-miterlimit="10"/>
<path fill-rule="evenodd" clip-rule="evenodd" d="M3.80957 33.25C4.34957 32.29 4.88957 31.41 5.43957 30.49C4.88957 29.53 4.34957 28.65 3.80957 27.73L4.18957 27.5L5.68957 30.04L7.18957 27.5L7.56957 27.73C7.01957 28.69 6.47957 29.57 5.93957 30.49C6.47957 31.45 7.01957 32.33 7.56957 33.25L7.18957 33.48L5.68957 30.94L4.18957 33.48L3.80957 33.25Z" fill="#01352C" stroke="#02352C" stroke-width="0.3" stroke-miterlimit="10"/>
<path fill-rule="evenodd" clip-rule="evenodd" d="M15.8799 33.25C16.4299 32.29 16.9699 31.41 17.5099 30.49C16.9699 29.53 16.4299 28.65 15.8799 27.73L16.2699 27.5L17.7699 30.04C18.2599 29.19 18.7299 28.35 19.2599 27.5L19.6499 27.73C19.0999 28.69 18.5599 29.57 18.0199 30.49C18.5599 31.45 19.0999 32.33 19.6499 33.25L19.2599 33.48C18.7699 32.63 18.2999 31.79 17.7699 30.94L16.2699 33.48L15.8799 33.25Z" fill="#01352C" stroke="#02352C" stroke-width="0.3" stroke-miterlimit="10"/>
<path fill-rule="evenodd" clip-rule="evenodd" d="M8.85986 33.14L14.4099 27.46L14.7299 27.77L9.18986 33.46L8.85986 33.14Z" fill="#01352C" stroke="#02352C" stroke-width="0.3" stroke-miterlimit="10"/>
<path fill-rule="evenodd" clip-rule="evenodd" d="M14.7299 33.14L9.18986 27.46L8.85986 27.77L14.4099 33.46L14.7299 33.14Z" fill="#01352C" stroke="#02352C" stroke-width="0.3" stroke-miterlimit="10"/>
<path d="M7.36975 35.51H3.98975V41.25H7.36975V35.51Z" fill="white" stroke="#02352C" stroke-width="0.3" stroke-miterlimit="10"/>
<path d="M14.5596 35.51H8.88965V41.25H14.5596V35.51Z" fill="#CBDAD8" stroke="#02352C" stroke-width="0.3" stroke-miterlimit="10"/>
<path d="M19.4498 35.51H16.0698V41.25H19.4498V35.51Z" fill="white" stroke="#02352C" stroke-width="0.3" stroke-miterlimit="10"/>
<path fill-rule="evenodd" clip-rule="evenodd" d="M19.4598 41.4698H16.0798L15.8598 41.2498V35.5098L16.0798 35.2898H19.4598L19.6898 35.5098V41.2498L19.4598 41.4698ZM16.2998 41.0198H19.2298V35.7298H16.2998V41.0198ZM14.5598 41.4698H8.89979L8.66979 41.2498V35.5098L8.89979 35.2898H14.5698L14.7998 35.5098V41.2498L14.5598 41.4698ZM9.11978 41.0198H14.3398V35.7298H9.11978V41.0198ZM7.38979 41.4698H3.99979L3.77979 41.2498V35.5098L3.99979 35.2898H7.38979L7.60979 35.5098V41.2498L7.38979 41.4698ZM4.21979 41.0198H7.14979V35.7298H4.21979V41.0198Z" fill="#01352C" stroke="#02352C" stroke-width="0.3" stroke-miterlimit="10"/>
<path fill-rule="evenodd" clip-rule="evenodd" d="M3.80957 41.1399L5.43957 38.3799C4.88957 37.4199 4.34957 36.5399 3.80957 35.6199L4.18957 35.3999L5.68957 37.9399L7.18957 35.3999L7.56957 35.6199C7.01957 36.5799 6.47957 37.4599 5.93957 38.3799C6.47957 39.3399 7.01957 40.2299 7.56957 41.1399L7.18957 41.3599L5.68957 38.8199L4.18957 41.3199L3.80957 41.1399Z" fill="#01352C" stroke="#02352C" stroke-width="0.3" stroke-miterlimit="10"/>
<path fill-rule="evenodd" clip-rule="evenodd" d="M15.8799 41.1399C16.4299 40.1799 16.9699 39.2999 17.5099 38.3799C16.9699 37.4199 16.4299 36.5399 15.8799 35.6199L16.2699 35.3999L17.7699 37.9399C18.2599 37.0899 18.7299 36.2399 19.2599 35.3999L19.6499 35.6199C19.0999 36.5799 18.5599 37.4599 18.0199 38.3799C18.5599 39.3399 19.0999 40.2299 19.6499 41.1399L19.2599 41.3599L17.7699 38.8199L16.2699 41.3199L15.8799 41.1399Z" fill="#01352C" stroke="#02352C" stroke-width="0.3" stroke-miterlimit="10"/>
<path fill-rule="evenodd" clip-rule="evenodd" d="M8.85986 41.0299L14.4099 35.3499L14.7299 35.6699L9.18986 41.3199L8.85986 41.0299Z" fill="#01352C" stroke="#02352C" stroke-width="0.3" stroke-miterlimit="10"/>
<path fill-rule="evenodd" clip-rule="evenodd" d="M14.7299 41.0299L9.18986 35.3499L8.85986 35.6699L14.4099 41.3499L14.7299 41.0299Z" fill="#01352C" stroke="#02352C" stroke-width="0.3" stroke-miterlimit="10"/>
<path d="M7.36975 43.4099H3.98975V49.1499H7.36975V43.4099Z" fill="white" stroke="#02352C" stroke-width="0.3" stroke-miterlimit="10"/>
<path d="M14.5596 43.4099H8.88965V49.1499H14.5596V43.4099Z" fill="#CBDAD8" stroke="#02352C" stroke-width="0.3" stroke-miterlimit="10"/>
<path d="M19.4498 43.4099H16.0698V49.1499H19.4498V43.4099Z" fill="white" stroke="#02352C" stroke-width="0.3" stroke-miterlimit="10"/>
<path fill-rule="evenodd" clip-rule="evenodd" d="M19.4598 49.3699H16.0798L15.8598 49.1499V43.4099L16.0798 43.1899H19.4598L19.6898 43.4099V49.1499L19.4598 49.3699ZM16.2998 48.9199H19.2298V43.6299H16.2998V48.9199ZM14.5598 49.3699H8.89979L8.66979 49.1499V43.4099L8.89979 43.1899H14.5698L14.7998 43.4099V49.1499L14.5598 49.3699ZM9.11978 48.9199H14.3398V43.6299H9.11978V48.9199ZM7.38979 49.3699H3.99979L3.77979 49.1499V43.4099L3.99979 43.1899H7.38979L7.60979 43.4099V49.1499L7.38979 49.3699ZM4.21979 48.9199H7.14979V43.6299H4.21979V48.9199Z" fill="#01352C" stroke="#02352C" stroke-width="0.3" stroke-miterlimit="10"/>
<path fill-rule="evenodd" clip-rule="evenodd" d="M3.80957 49.0298L5.43957 46.2698C4.88957 45.3098 4.34957 44.4298 3.80957 43.5098L4.18957 43.2898L5.68957 45.8298L7.18957 43.2898L7.56957 43.5098C7.01957 44.4698 6.47957 45.3498 5.93957 46.2698C6.47957 47.2298 7.01957 48.1198 7.56957 49.0298L7.18957 49.2498L5.68957 46.7098L4.18957 49.2498L3.80957 49.0298Z" fill="#01352C" stroke="#02352C" stroke-width="0.3" stroke-miterlimit="10"/>
<path fill-rule="evenodd" clip-rule="evenodd" d="M15.8799 49.0298C16.4299 48.0698 16.9699 47.1898 17.5099 46.2698C16.9699 45.3098 16.4299 44.4298 15.8799 43.5098L16.2699 43.2898L17.7699 45.8298L19.2599 43.2898L19.6499 43.5098C19.0999 44.4698 18.5599 45.3498 18.0199 46.2698C18.5599 47.2298 19.0999 48.1198 19.6499 49.0298L19.2599 49.2498L17.7699 46.7098L16.2699 49.2498L15.8799 49.0298Z" fill="#01352C" stroke="#02352C" stroke-width="0.3" stroke-miterlimit="10"/>
<path fill-rule="evenodd" clip-rule="evenodd" d="M8.85986 48.9698L14.4099 43.2898L14.7299 43.6098L9.18986 49.2898L8.85986 48.9698Z" fill="#01352C" stroke="#02352C" stroke-width="0.3" stroke-miterlimit="10"/>
<path fill-rule="evenodd" clip-rule="evenodd" d="M14.7299 48.97L9.18986 43.23L8.85986 43.55L14.4099 49.23L14.7299 48.97Z" fill="#01352C" stroke="#02352C" stroke-width="0.3" stroke-miterlimit="10"/>
<path d="M7.36975 51.2998H3.98975V57.0398H7.36975V51.2998Z" fill="white" stroke="#02352C" stroke-width="0.3" stroke-miterlimit="10"/>
<path d="M14.5596 51.2998H8.88965V57.0398H14.5596V51.2998Z" fill="#CBDAD8" stroke="#02352C" stroke-width="0.3" stroke-miterlimit="10"/>
<path d="M19.4498 51.2998H16.0698V57.0398H19.4498V51.2998Z" fill="white" stroke="#02352C" stroke-width="0.3" stroke-miterlimit="10"/>
<path fill-rule="evenodd" clip-rule="evenodd" d="M19.4598 57.2598H16.0798L15.8598 57.0398V51.2998L16.0798 51.0798H19.4598L19.6898 51.2998V57.0398L19.4598 57.2598ZM16.2998 56.8098H19.2298V51.5198H16.2998V56.8098ZM14.5598 57.2598H8.89979L8.66979 57.0398V51.2998L8.89979 51.0798H14.5698L14.7998 51.2998V57.0398L14.5598 57.2598ZM9.11978 56.8098H14.3398V51.5198H9.11978V56.8098ZM7.38979 57.2598H3.99979L3.77979 57.0398V51.2998L3.99979 51.0798H7.38979L7.60979 51.2998V57.0398L7.38979 57.2598ZM4.21979 56.8098H7.14979V51.5198H4.21979V56.8098Z" fill="#01352C" stroke="#02352C" stroke-width="0.3" stroke-miterlimit="10"/>
<path fill-rule="evenodd" clip-rule="evenodd" d="M3.80957 56.9199C4.34957 55.9599 4.88957 55.0699 5.43957 54.1599C4.88957 53.1999 4.34957 52.3199 3.80957 51.3999L4.18957 51.1699L5.68957 53.7099L7.18957 51.1699L7.56957 51.3999C7.01957 52.3599 6.47957 53.2399 5.93957 54.1599C6.47957 55.1199 7.01957 56.0099 7.56957 56.9199L7.18957 57.1399L5.68957 54.5999L4.18957 57.1399L3.80957 56.9199Z" fill="#01352C" stroke="#02352C" stroke-width="0.3" stroke-miterlimit="10"/>
<path fill-rule="evenodd" clip-rule="evenodd" d="M15.8799 56.9199C16.4299 55.9599 16.9699 55.0699 17.5099 54.1599C16.9699 53.1999 16.4299 52.3199 15.8799 51.3999L16.2699 51.1699L17.7699 53.7099C18.2599 52.8699 18.7299 52.0199 19.2599 51.1699L19.6499 51.3999C19.0999 52.3599 18.5599 53.2399 18.0199 54.1599C18.5599 55.1199 19.0999 56.0099 19.6499 56.9199L19.2599 57.1399C18.7699 56.2899 18.2999 55.4499 17.7699 54.5999L16.2699 57.1399L15.8799 56.9199Z" fill="#01352C" stroke="#02352C" stroke-width="0.3" stroke-miterlimit="10"/>
<path fill-rule="evenodd" clip-rule="evenodd" d="M8.85986 56.8199L14.4099 51.1299L14.7299 51.4399L9.18986 57.1199L8.85986 56.8199Z" fill="#01352C" stroke="#02352C" stroke-width="0.3" stroke-miterlimit="10"/>
<path fill-rule="evenodd" clip-rule="evenodd" d="M14.7299 56.8199L9.18986 51.1299L8.85986 51.4399L14.4099 57.1199L14.7299 56.8199Z" fill="#01352C" stroke="#02352C" stroke-width="0.3" stroke-miterlimit="10"/>
<path d="M7.36975 59.1799H3.98975V64.9199H7.36975V59.1799Z" fill="white" stroke="#02352C" stroke-width="0.3" stroke-miterlimit="10"/>
<path d="M14.5596 59.1799H8.88965V64.9199H14.5596V59.1799Z" fill="#CBDAD8" stroke="#02352C" stroke-width="0.3" stroke-miterlimit="10"/>
<path d="M19.4498 59.1799H16.0698V64.9199H19.4498V59.1799Z" fill="white" stroke="#02352C" stroke-width="0.3" stroke-miterlimit="10"/>
<path fill-rule="evenodd" clip-rule="evenodd" d="M19.4598 65.15H16.0798L15.8598 64.92V59.18L16.0798 58.96H19.4598L19.6898 59.18V64.92L19.4598 65.15ZM16.2998 64.7H19.2298V59.4H16.2998V64.7ZM14.5598 65.15H8.89979L8.66979 64.92V59.18L8.89979 58.96H14.5698L14.7998 59.18V64.92L14.5598 65.15ZM9.11978 64.7H14.3398V59.4H9.11978V64.7ZM7.38979 65.15H3.99979L3.77979 64.92V59.18L3.99979 58.96H7.38979L7.60979 59.18V64.92L7.38979 65.15ZM4.21979 64.7H7.14979V59.4H4.21979V64.7Z" fill="#01352C" stroke="#02352C" stroke-width="0.3" stroke-miterlimit="10"/>
<path fill-rule="evenodd" clip-rule="evenodd" d="M3.80957 64.8098C4.34957 63.8498 4.88957 62.9698 5.43957 62.0498C4.88957 61.0898 4.34957 60.2098 3.80957 59.2898L4.18957 59.0598L5.68957 61.5998L7.18957 59.0598L7.56957 59.2898C7.01957 60.2498 6.47957 61.1298 5.93957 62.0498C6.47957 63.0098 7.01957 63.8898 7.56957 64.8098L7.18957 65.0398L5.68957 62.4998L4.18957 65.0398L3.80957 64.8098Z" fill="#01352C" stroke="#02352C" stroke-width="0.3" stroke-miterlimit="10"/>
<path fill-rule="evenodd" clip-rule="evenodd" d="M15.8799 64.8098C16.4299 63.8498 16.9699 62.9698 17.5099 62.0498C16.9699 61.0898 16.4299 60.2098 15.8799 59.2898L16.2699 59.0598L17.7699 61.5998C18.2599 60.7498 18.7299 59.9098 19.2599 59.0598L19.6499 59.2898C19.0999 60.2498 18.5599 61.1298 18.0199 62.0498C18.5599 63.0098 19.0999 63.8898 19.6499 64.8098L19.2599 65.0398C18.7699 64.1898 18.2999 63.3498 17.7699 62.4998L16.2699 65.0398L15.8799 64.8098Z" fill="#01352C" stroke="#02352C" stroke-width="0.3" stroke-miterlimit="10"/>
<path fill-rule="evenodd" clip-rule="evenodd" d="M8.85986 64.7098L14.4099 59.0298L14.7299 59.3298L9.18986 65.0198L8.85986 64.7098Z" fill="#01352C" stroke="#02352C" stroke-width="0.3" stroke-miterlimit="10"/>
<path fill-rule="evenodd" clip-rule="evenodd" d="M14.7299 64.7098L9.18986 59.0298L8.85986 59.3298L14.4099 65.0198L14.7299 64.7098Z" fill="#01352C" stroke="#02352C" stroke-width="0.3" stroke-miterlimit="10"/>
<path d="M7.36975 67.0698H3.98975V72.8098H7.36975V67.0698Z" fill="white" stroke="#02352C" stroke-width="0.3" stroke-miterlimit="10"/>
<path d="M14.5596 67.0698H8.88965V72.8098H14.5596V67.0698Z" fill="#CBDAD8" stroke="#02352C" stroke-width="0.3" stroke-miterlimit="10"/>
<path d="M19.4498 67.0698H16.0698V72.8098H19.4498V67.0698Z" fill="white" stroke="#02352C" stroke-width="0.3" stroke-miterlimit="10"/>
<path fill-rule="evenodd" clip-rule="evenodd" d="M19.4598 73.0298H16.0798L15.8598 72.8098V67.0698L16.0798 66.8398H19.4598L19.6898 67.0698V72.8098L19.4598 73.0298ZM16.2998 72.5898H19.2298V67.2898H16.2998V72.5898ZM14.5598 73.0298H8.89979L8.66979 72.8098V67.0698L8.89979 66.8398H14.5698L14.7998 67.0698V72.8098L14.5598 73.0298ZM9.11978 72.5898H14.3398V67.2898H9.11978V72.5898ZM7.38979 73.0298H3.99979L3.77979 72.8098V67.0698L3.99979 66.8398H7.38979L7.60979 67.0698V72.8098L7.38979 73.0298ZM4.21979 72.5898H7.14979V67.2898H4.21979V72.5898Z" fill="#01352C" stroke="#02352C" stroke-width="0.3" stroke-miterlimit="10"/>
<path fill-rule="evenodd" clip-rule="evenodd" d="M3.80957 72.7C4.34957 71.74 4.88957 70.8599 5.43957 69.9399C4.88957 68.9799 4.34957 68.0999 3.80957 67.1799L4.18957 66.95L5.68957 69.4899L7.18957 66.95L7.56957 67.1799C7.01957 68.1399 6.47957 69.0199 5.93957 69.9399C6.47957 70.8999 7.01957 71.78 7.56957 72.7L7.18957 72.9299L5.68957 70.3899L4.18957 72.8999L3.80957 72.7099V72.7Z" fill="#01352C" stroke="#02352C" stroke-width="0.3" stroke-miterlimit="10"/>
<path fill-rule="evenodd" clip-rule="evenodd" d="M15.8799 72.7C16.4299 71.74 16.9699 70.8599 17.5099 69.9399C16.9699 68.9799 16.4299 68.0999 15.8799 67.1799L16.2699 66.95L17.7699 69.4899C18.2599 68.6399 18.7299 67.8 19.2599 66.95L19.6499 67.1799C19.0999 68.1399 18.5599 69.0199 18.0199 69.9399C18.5599 70.8999 19.0999 71.78 19.6499 72.7L19.2599 72.9299C18.7699 72.0799 18.2999 71.2399 17.7699 70.3899L16.2699 72.8999L15.8799 72.7099V72.7Z" fill="#01352C" stroke="#02352C" stroke-width="0.3" stroke-miterlimit="10"/>
<path fill-rule="evenodd" clip-rule="evenodd" d="M8.85986 72.5999L14.4099 66.9199L14.7299 67.2299L9.18986 72.8899L8.85986 72.5999Z" fill="#01352C" stroke="#02352C" stroke-width="0.3" stroke-miterlimit="10"/>
<path fill-rule="evenodd" clip-rule="evenodd" d="M14.7299 72.5999L9.18986 66.9199L8.85986 67.2299L14.4099 72.9099L14.7299 72.5999Z" fill="#01352C" stroke="#02352C" stroke-width="0.3" stroke-miterlimit="10"/>
<path d="M7.36975 74.96H3.98975V80.7H7.36975V74.96Z" fill="white" stroke="#02352C" stroke-width="0.3" stroke-miterlimit="10"/>
<path d="M14.5596 74.96H8.88965V80.7H14.5596V74.96Z" fill="#CBDAD8" stroke="#02352C" stroke-width="0.3" stroke-miterlimit="10"/>
<path d="M19.4498 74.96H16.0698V80.7H19.4498V74.96Z" fill="white" stroke="#02352C" stroke-width="0.3" stroke-miterlimit="10"/>
<path fill-rule="evenodd" clip-rule="evenodd" d="M19.4598 80.92H16.0798L15.8598 80.7V74.96L16.0798 74.73H19.4598L19.6898 74.96V80.7L19.4598 80.92ZM16.2998 80.47H19.2298V75.18H16.2998V80.47ZM14.5598 80.92H8.89979L8.66979 80.7V74.96L8.89979 74.73H14.5698L14.7998 74.96V80.7L14.5598 80.92ZM9.11978 80.47H14.3398V75.18H9.11978V80.47ZM7.38979 80.92H3.99979L3.77979 80.7V74.96L3.99979 74.73H7.38979L7.60979 74.96V80.7L7.38979 80.92ZM4.21979 80.47H7.14979V75.18H4.21979V80.47Z" fill="#01352C" stroke="#02352C" stroke-width="0.3" stroke-miterlimit="10"/>
<path fill-rule="evenodd" clip-rule="evenodd" d="M3.80957 80.5898C4.34957 79.6298 4.88957 78.7498 5.43957 77.8298C4.88957 76.8698 4.34957 75.9898 3.80957 75.0698L4.18957 74.8398L5.68957 77.3798L7.18957 74.8398L7.56957 75.0698C7.01957 76.0298 6.47957 76.9098 5.93957 77.8298C6.47957 78.7898 7.01957 79.6698 7.56957 80.5898L7.18957 80.8198L5.68957 78.2798L4.18957 80.8198L3.80957 80.5898Z" fill="#01352C" stroke="#02352C" stroke-width="0.3" stroke-miterlimit="10"/>
<path fill-rule="evenodd" clip-rule="evenodd" d="M15.8799 80.5898C16.4299 79.6298 16.9699 78.7498 17.5099 77.8298C16.9699 76.8698 16.4299 75.9898 15.8799 75.0698L16.2699 74.8398L17.7699 77.3798C18.2599 76.5298 18.7299 75.6798 19.2599 74.8398L19.6499 75.0698C19.0999 76.0298 18.5599 76.9098 18.0199 77.8298C18.5599 78.7898 19.0999 79.6698 19.6499 80.5898L19.2599 80.8198C18.7699 79.9698 18.2999 79.1298 17.7699 78.2798L16.2699 80.8198L15.8799 80.5898Z" fill="#01352C" stroke="#02352C" stroke-width="0.3" stroke-miterlimit="10"/>
<path fill-rule="evenodd" clip-rule="evenodd" d="M8.85986 80.4798L14.4099 74.7998L14.7299 75.1198L9.18986 80.7998L8.85986 80.4798Z" fill="#01352C" stroke="#02352C" stroke-width="0.3" stroke-miterlimit="10"/>
<path fill-rule="evenodd" clip-rule="evenodd" d="M14.7299 80.4798L9.18986 74.7998L8.85986 75.1198L14.4099 80.7998L14.7299 80.4798Z" fill="#01352C" stroke="#02352C" stroke-width="0.3" stroke-miterlimit="10"/>
<path d="M7.36975 82.8599H3.98975V88.5999H7.36975V82.8599Z" fill="white" stroke="#02352C" stroke-width="0.3" stroke-miterlimit="10"/>
<path d="M14.5596 82.8599H8.88965V88.5999H14.5596V82.8599Z" fill="#CBDAD8" stroke="#02352C" stroke-width="0.3" stroke-miterlimit="10"/>
<path d="M19.4498 82.8599H16.0698V88.5999H19.4498V82.8599Z" fill="white" stroke="#02352C" stroke-width="0.3" stroke-miterlimit="10"/>
<path fill-rule="evenodd" clip-rule="evenodd" d="M19.4598 88.8199H16.0798L15.8598 88.5999V82.8599L16.0798 82.6399H19.4598L19.6898 82.8599V88.5999L19.4598 88.8199ZM16.2998 88.3699H19.2298V83.0799H16.2998V88.3699ZM14.5598 88.8199H8.89979L8.66979 88.5999V82.8599L8.89979 82.6399H14.5698L14.7998 82.8599V88.5999L14.5598 88.8199ZM9.11978 88.3699H14.3398V83.0799H9.11978V88.3699ZM7.38979 88.8199H3.99979L3.77979 88.5999V82.8599L3.99979 82.6399H7.38979L7.60979 82.8599V88.5999L7.38979 88.8199ZM4.21979 88.3699H7.14979V83.0799H4.21979V88.3699Z" fill="#01352C" stroke="#02352C" stroke-width="0.3" stroke-miterlimit="10"/>
<path fill-rule="evenodd" clip-rule="evenodd" d="M3.7998 88.48L5.4298 85.73L3.7998 82.97L4.1998 82.74L5.6998 85.29L7.18981 82.74L7.5698 82.97L5.9498 85.73L7.5698 88.48L7.18981 88.71L5.6998 86.17L4.1998 88.71L3.7998 88.48Z" fill="#01352C" stroke="#02352C" stroke-width="0.3" stroke-miterlimit="10"/>
<path fill-rule="evenodd" clip-rule="evenodd" d="M15.8799 88.48L17.4999 85.73L15.8799 82.97L16.2599 82.74L17.7599 85.29L19.2599 82.74L19.6499 82.97L18.0199 85.73L19.6499 88.48L19.2599 88.71L17.7599 86.17L16.2599 88.71L15.8799 88.48Z" fill="#01352C" stroke="#02352C" stroke-width="0.3" stroke-miterlimit="10"/>
<path fill-rule="evenodd" clip-rule="evenodd" d="M8.85986 88.3899L14.4099 82.7L14.7299 83.0099L9.17986 88.6899L8.85986 88.3899Z" fill="#01352C" stroke="#02352C" stroke-width="0.3" stroke-miterlimit="10"/>
<path fill-rule="evenodd" clip-rule="evenodd" d="M14.7299 88.3899L9.18986 82.7L8.85986 83.0099L14.4099 88.6899L14.7299 88.3899Z" fill="#01352C" stroke="#02352C" stroke-width="0.3" stroke-miterlimit="10"/>
</g>
<defs>
<clipPath id="clip0_44_618">
<rect width="50.5" height="90.35" fill="white" transform="translate(0.179688 0.649902)"/>
</clipPath>
</defs>
</svg>
