<svg width="73" height="101" viewBox="0 0 73 101" fill="none" xmlns="http://www.w3.org/2000/svg">
<g clip-path="url(#clip0_44_736)">
<path fill-rule="evenodd" clip-rule="evenodd" d="M11.2101 0.63001L14.3101 6.21001L17.4001 11.79C17.5001 12 17.4601 12.16 17.2501 12.28L17.0701 12.33H4.7201C4.6201 12.33 4.5301 12.3 4.4601 12.23C4.3901 12.16 4.3501 12.08 4.3501 11.98L4.4001 11.8L7.4901 6.23001L10.5701 0.65001C10.6201 0.56001 10.6901 0.51001 10.7801 0.48001C10.8701 0.45001 10.9701 0.46001 11.0501 0.51001L11.2101 0.64001V0.63001ZM13.6801 6.55001L10.9001 1.53001L8.1401 6.52001L5.3401 11.58H16.5001L13.6801 6.55001Z" fill="#01352C" stroke="#02352C" stroke-width="0.6" stroke-miterlimit="10"/>
<path fill-rule="evenodd" clip-rule="evenodd" d="M17.6799 14.8798L18.3799 12.3098H3.41986L4.10986 14.8798V17.8898H17.6499V14.8798H17.6799ZM19.1999 12.0298L18.3899 14.9998V18.1898C18.3899 18.2898 18.3599 18.3798 18.2899 18.4498C18.2199 18.5198 18.1399 18.5598 18.0299 18.5598H3.76986C3.66986 18.5598 3.57986 18.5198 3.50986 18.4498C3.43986 18.3798 3.40986 18.2898 3.40986 18.1898V14.9998L2.60986 12.0398V11.9298C2.60986 11.6998 2.73986 11.5798 2.96986 11.5698H18.9499C19.0499 11.5898 19.1199 11.6498 19.1699 11.7298C19.2199 11.8198 19.2299 11.9098 19.2099 11.9998" fill="#01352C"/>
<path d="M19.1999 12.0298L18.3899 14.9998V18.1898C18.3899 18.2898 18.3599 18.3798 18.2899 18.4498C18.2199 18.5198 18.1399 18.5598 18.0299 18.5598H3.76986C3.66986 18.5598 3.57986 18.5198 3.50986 18.4498C3.43986 18.3798 3.40986 18.2898 3.40986 18.1898V14.9998L2.60986 12.0398V11.9298C2.60986 11.6998 2.73986 11.5798 2.96986 11.5698H18.9499C19.0499 11.5898 19.1199 11.6498 19.1699 11.7298C19.2199 11.8198 19.2299 11.9098 19.2099 11.9998M17.6799 14.8798L18.3799 12.3098H3.41986L4.10986 14.8798V17.8898H17.6499V14.8798H17.6799Z" stroke="#02352C" stroke-width="0.6" stroke-miterlimit="10"/>
<path fill-rule="evenodd" clip-rule="evenodd" d="M17.7799 14.5898L18.3999 12.2798H3.41986L4.03986 14.5898H17.7699H17.7799ZM19.1999 12.0298L18.3799 15.0298C18.3399 15.2198 18.2299 15.3198 18.0299 15.3098H3.76986L3.41986 15.0498L2.60986 12.0398V11.9298C2.60986 11.8298 2.64986 11.7498 2.71986 11.6798C2.78986 11.6098 2.87986 11.5698 2.96986 11.5698H18.9499C19.0499 11.5898 19.1199 11.6498 19.1699 11.7298C19.2199 11.8098 19.2299 11.9098 19.2099 11.9998" fill="#01352C"/>
<path d="M19.1999 12.0298L18.3799 15.0298C18.3399 15.2198 18.2299 15.3198 18.0299 15.3098H3.76986L3.41986 15.0498L2.60986 12.0398V11.9298C2.60986 11.8298 2.64986 11.7498 2.71986 11.6798C2.78986 11.6098 2.87986 11.5698 2.96986 11.5698H18.9499C19.0499 11.5898 19.1199 11.6498 19.1699 11.7298C19.2199 11.8098 19.2299 11.9098 19.2099 11.9998M17.7799 14.5898L18.3999 12.2798H3.41986L4.03986 14.5898H17.7699H17.7799Z" stroke="#02352C" stroke-width="0.6" stroke-miterlimit="10"/>
<path fill-rule="evenodd" clip-rule="evenodd" d="M18.9199 21.2598L19.7499 18.4898H2.05994L2.88994 21.2598V26.6098H5.26994V24.1398C5.26994 23.7698 5.37994 23.4498 5.61994 23.1698C5.87994 22.8798 6.19994 22.7398 6.58994 22.7498C6.93994 22.7598 7.23994 22.8998 7.46994 23.1698C7.69994 23.4298 7.81994 23.7298 7.81994 24.0698V26.5598H8.15994V24.0898C8.13994 23.7198 8.25994 23.3998 8.50994 23.1198C8.74994 22.8398 9.05994 22.6998 9.42994 22.6998H9.47994C9.82994 22.7098 10.1299 22.8498 10.3599 23.1198C10.5799 23.3698 10.6899 23.6698 10.6899 23.9998V26.4898H11.0199V24.0198C11.0199 23.6498 11.1299 23.3298 11.3699 23.0498C11.6199 22.7698 11.9199 22.6398 12.2899 22.6298H12.3399C12.6899 22.6398 12.9899 22.7798 13.2199 23.0498C13.4399 23.2998 13.5499 23.5998 13.5499 23.9298V26.4198H13.8899V23.9498C13.8699 23.5798 13.9899 23.2598 14.2399 22.9798C14.4799 22.6998 14.7899 22.5598 15.1599 22.5598C15.5199 22.5698 15.8099 22.7098 16.0399 22.9798C16.2799 23.2298 16.3999 23.5398 16.3899 23.8798V26.3798H18.7799V21.0198L18.8899 21.2498L18.9199 21.2598ZM20.5599 18.2298L19.5899 21.4098V26.9598C19.5899 27.0598 19.5599 27.1398 19.4899 27.2098C19.4199 27.2798 19.3399 27.3198 19.2399 27.3198H16.1899C16.0899 27.3198 15.9999 27.2898 15.9299 27.2198C15.8599 27.1498 15.8199 27.0598 15.8299 26.9598V24.1298L15.6599 23.7098L15.2899 23.5398L14.8899 23.7098C14.7799 23.8398 14.7199 23.9898 14.7199 24.1698V26.9898C14.7199 27.0898 14.6799 27.1798 14.6099 27.2498C14.5399 27.3198 14.4499 27.3498 14.3499 27.3498H13.2599C13.1599 27.3498 13.0799 27.3098 13.0099 27.2398C12.9399 27.1698 12.8999 27.0898 12.8999 26.9898V24.1598L12.7499 23.7598L12.3699 23.5898L11.9799 23.7598C11.8599 23.8898 11.8099 24.0398 11.8099 24.2198V27.0398C11.8099 27.1398 11.7699 27.2198 11.6999 27.2898C11.6299 27.3598 11.5399 27.3998 11.4499 27.3998H10.3299C10.2299 27.3998 10.1399 27.3698 10.0699 27.2998C9.99994 27.2298 9.95994 27.1398 9.96994 27.0398V24.2098L9.81994 23.8098L9.44994 23.6398L9.04994 23.8098C8.93994 23.9398 8.87994 24.0898 8.87994 24.2698V27.0898C8.87994 27.1898 8.83994 27.2698 8.76994 27.3398C8.69994 27.4098 8.60994 27.4498 8.51994 27.4498H7.45994C7.35994 27.4498 7.27994 27.4098 7.20994 27.3398C7.13994 27.2698 7.10994 27.1798 7.10994 27.0898V24.2598L6.93994 23.8398L6.55994 23.6698L6.15994 23.8398C6.03994 23.9698 5.98994 24.1198 5.98994 24.2998V27.1198C5.98994 27.2198 5.95994 27.3098 5.88994 27.3798C5.81994 27.4498 5.72994 27.4898 5.62994 27.4798H2.56994C2.46994 27.4798 2.38994 27.4398 2.31994 27.3698C2.24994 27.2998 2.21994 27.2098 2.21994 27.1198V21.5598L1.24994 18.3798V18.2798C1.19994 18.1598 1.21994 18.0498 1.28994 17.9398C1.36994 17.8398 1.46994 17.7898 1.59994 17.7898H20.3299C20.4299 17.8198 20.4999 17.8698 20.5499 17.9598C20.5999 18.0498 20.6099 18.1398 20.5799 18.2398" fill="#01352C"/>
<path d="M20.5599 18.2298L19.5899 21.4098V26.9598C19.5899 27.0598 19.5599 27.1398 19.4899 27.2098C19.4199 27.2798 19.3399 27.3198 19.2399 27.3198H16.1899C16.0899 27.3198 15.9999 27.2898 15.9299 27.2198C15.8599 27.1498 15.8199 27.0598 15.8299 26.9598V24.1298L15.6599 23.7098L15.2899 23.5398L14.8899 23.7098C14.7799 23.8398 14.7199 23.9898 14.7199 24.1698V26.9898C14.7199 27.0898 14.6799 27.1798 14.6099 27.2498C14.5399 27.3198 14.4499 27.3498 14.3499 27.3498H13.2599C13.1599 27.3498 13.0799 27.3098 13.0099 27.2398C12.9399 27.1698 12.8999 27.0898 12.8999 26.9898V24.1598L12.7499 23.7598L12.3699 23.5898L11.9799 23.7598C11.8599 23.8898 11.8099 24.0398 11.8099 24.2198V27.0398C11.8099 27.1398 11.7699 27.2198 11.6999 27.2898C11.6299 27.3598 11.5399 27.3998 11.4499 27.3998H10.3299C10.2299 27.3998 10.1399 27.3698 10.0699 27.2998C9.99994 27.2298 9.95994 27.1398 9.96994 27.0398V24.2098L9.81994 23.8098L9.44994 23.6398L9.04994 23.8098C8.93994 23.9398 8.87994 24.0898 8.87994 24.2698V27.0898C8.87994 27.1898 8.83994 27.2698 8.76994 27.3398C8.69994 27.4098 8.60994 27.4498 8.51994 27.4498H7.45994C7.35994 27.4498 7.27994 27.4098 7.20994 27.3398C7.13994 27.2698 7.10994 27.1798 7.10994 27.0898V24.2598L6.93994 23.8398L6.55994 23.6698L6.15994 23.8398C6.03994 23.9698 5.98994 24.1198 5.98994 24.2998V27.1198C5.98994 27.2198 5.95994 27.3098 5.88994 27.3798C5.81994 27.4498 5.72994 27.4898 5.62994 27.4798H2.56994C2.46994 27.4798 2.38994 27.4398 2.31994 27.3698C2.24994 27.2998 2.21994 27.2098 2.21994 27.1198V21.5598L1.24994 18.3798V18.2798C1.19994 18.1598 1.21994 18.0498 1.28994 17.9398C1.36994 17.8398 1.46994 17.7898 1.59994 17.7898H20.3299C20.4299 17.8198 20.4999 17.8698 20.5499 17.9598C20.5999 18.0498 20.6099 18.1398 20.5799 18.2398M18.9199 21.2598L19.7499 18.4898H2.05994L2.88994 21.2598V26.6098H5.26994V24.1398C5.26994 23.7698 5.37994 23.4498 5.61994 23.1698C5.87994 22.8798 6.19994 22.7398 6.58994 22.7498C6.93994 22.7598 7.23994 22.8998 7.46994 23.1698C7.69994 23.4298 7.81994 23.7298 7.81994 24.0698V26.5598H8.15994V24.0898C8.13994 23.7198 8.25994 23.3998 8.50994 23.1198C8.74994 22.8398 9.05994 22.6998 9.42994 22.6998H9.47994C9.82994 22.7098 10.1299 22.8498 10.3599 23.1198C10.5799 23.3698 10.6899 23.6698 10.6899 23.9998V26.4898H11.0199V24.0198C11.0199 23.6498 11.1299 23.3298 11.3699 23.0498C11.6199 22.7698 11.9199 22.6398 12.2899 22.6298H12.3399C12.6899 22.6398 12.9899 22.7798 13.2199 23.0498C13.4399 23.2998 13.5499 23.5998 13.5499 23.9298V26.4198H13.8899V23.9498C13.8699 23.5798 13.9899 23.2598 14.2399 22.9798C14.4799 22.6998 14.7899 22.5598 15.1599 22.5598C15.5199 22.5698 15.8099 22.7098 16.0399 22.9798C16.2799 23.2298 16.3999 23.5398 16.3899 23.8798V26.3798H18.7799V21.0198L18.8899 21.2498L18.9199 21.2598Z" stroke="#02352C" stroke-width="0.6" stroke-miterlimit="10"/>
<path fill-rule="evenodd" clip-rule="evenodd" d="M19 21.0099L19.75 18.4899H2.05998L2.80998 21.0099H19ZM20.56 18.2299L19.59 21.4499C19.53 21.6199 19.42 21.6999 19.24 21.6999H2.56998C2.37998 21.7099 2.25998 21.6299 2.19998 21.4499L1.22998 18.2299V18.1199C1.24998 17.8899 1.36998 17.7799 1.59998 17.7899H20.33C20.43 17.8199 20.5 17.8699 20.55 17.9599C20.6 18.0499 20.61 18.1399 20.58 18.2399" fill="#01352C"/>
<path d="M20.56 18.2299L19.59 21.4499C19.53 21.6199 19.42 21.6999 19.24 21.6999H2.56998C2.37998 21.7099 2.25998 21.6299 2.19998 21.4499L1.22998 18.2299V18.1199C1.24998 17.8899 1.36998 17.7799 1.59998 17.7899H20.33C20.43 17.8199 20.5 17.8699 20.55 17.9599C20.6 18.0499 20.61 18.1399 20.58 18.2399M19 21.0099L19.75 18.4899H2.05998L2.80998 21.0099H19Z" stroke="#02352C" stroke-width="0.6" stroke-miterlimit="10"/>
<path fill-rule="evenodd" clip-rule="evenodd" d="M2.88982 32.1499H18.9198C19.0198 32.1499 19.0998 32.1799 19.1698 32.2499C19.2398 32.3199 19.2798 32.3999 19.2798 32.4999V100.34C19.2798 100.44 19.2398 100.52 19.1698 100.59C19.0998 100.66 19.0098 100.7 18.9198 100.7H2.88982C2.66982 100.68 2.56982 100.56 2.56982 100.34V32.4999C2.56982 32.3999 2.60982 32.3199 2.67982 32.2499C2.74982 32.1799 2.82982 32.1499 2.92982 32.1499M18.5498 32.8699H3.24982V99.9399H18.5598V32.8699H18.5498Z" fill="#01352C"/>
<path d="M2.88982 32.1499H18.9198C19.0198 32.1499 19.0998 32.1799 19.1698 32.2499C19.2398 32.3199 19.2798 32.3999 19.2798 32.4999V100.34C19.2798 100.44 19.2398 100.52 19.1698 100.59C19.0998 100.66 19.0098 100.7 18.9198 100.7H2.88982C2.66982 100.68 2.56982 100.56 2.56982 100.34V32.4999C2.56982 32.3999 2.60982 32.3199 2.67982 32.2499C2.74982 32.1799 2.82982 32.1499 2.92982 32.1499M18.5498 32.8699H3.24982V99.9399H18.5598V32.8699H18.5498Z" stroke="#02352C" stroke-width="0.6" stroke-miterlimit="10"/>
<path fill-rule="evenodd" clip-rule="evenodd" d="M18.9097 29.76L19.8297 26.74H1.96973L2.88973 29.76V32.97H18.9097V29.76Z" fill="#CBDAD8" stroke="#02352C" stroke-width="0.6" stroke-miterlimit="10"/>
<path fill-rule="evenodd" clip-rule="evenodd" d="M18.6001 29.5598L19.3701 27.0298H2.45014L3.23014 29.5798V32.5398H18.5401V29.6698L18.6101 29.5398L18.6001 29.5598ZM20.1801 26.8398L19.2801 29.7498V32.9198C19.2801 33.0198 19.2501 33.1098 19.1801 33.1798C19.1101 33.2498 19.0201 33.2898 18.9201 33.2798H2.89014C2.79014 33.2798 2.71014 33.2398 2.64014 33.1698C2.57014 33.0998 2.53014 33.0198 2.53014 32.9198V29.7398L1.64014 26.8298V26.6898C1.64014 26.5898 1.68014 26.5098 1.75014 26.4398C1.82014 26.3698 1.91014 26.3298 2.00014 26.3298H19.9601C20.0601 26.3598 20.1301 26.4098 20.1801 26.4998C20.2301 26.5898 20.2401 26.6798 20.2101 26.7798" fill="#01352C"/>
<path d="M20.1801 26.8398L19.2801 29.7498V32.9198C19.2801 33.0198 19.2501 33.1098 19.1801 33.1798C19.1101 33.2498 19.0201 33.2898 18.9201 33.2798H2.89014C2.79014 33.2798 2.71014 33.2398 2.64014 33.1698C2.57014 33.0998 2.53014 33.0198 2.53014 32.9198V29.7398L1.64014 26.8298V26.6898C1.64014 26.5898 1.68014 26.5098 1.75014 26.4398C1.82014 26.3698 1.91014 26.3298 2.00014 26.3298H19.9601C20.0601 26.3598 20.1301 26.4098 20.1801 26.4998C20.2301 26.5898 20.2401 26.6798 20.2101 26.7798M18.6001 29.5598L19.3701 27.0298H2.45014L3.23014 29.5798V32.5398H18.5401V29.6698L18.6101 29.5398L18.6001 29.5598Z" stroke="#02352C" stroke-width="0.6" stroke-miterlimit="10"/>
<path fill-rule="evenodd" clip-rule="evenodd" d="M18.9097 29.76L19.8297 26.74H1.96973L2.88973 29.76H18.9097Z" fill="#CBDAD8" stroke="#02352C" stroke-width="0.6" stroke-miterlimit="10"/>
<path fill-rule="evenodd" clip-rule="evenodd" d="M18.6701 29.3699L19.3701 27.0799H2.45014L3.15014 29.3699H18.6701ZM20.1801 26.8399L19.2701 29.8199C19.2301 30.0099 19.1101 30.0999 18.9201 30.0999H2.89014L2.55014 29.8499L1.64014 26.8699V26.7299C1.64014 26.6299 1.67014 26.5499 1.74014 26.4799C1.81014 26.4099 1.89014 26.3699 1.99014 26.3699H19.9601C20.0601 26.3999 20.1301 26.4499 20.1801 26.5399C20.2301 26.6299 20.2401 26.7199 20.2101 26.8199" fill="#01352C"/>
<path d="M20.1801 26.8399L19.2701 29.8199C19.2301 30.0099 19.1101 30.0999 18.9201 30.0999H2.89014L2.55014 29.8499L1.64014 26.8699V26.7299C1.64014 26.6299 1.67014 26.5499 1.74014 26.4799C1.81014 26.4099 1.89014 26.3699 1.99014 26.3699H19.9601C20.0601 26.3999 20.1301 26.4499 20.1801 26.5399C20.2301 26.6299 20.2401 26.7199 20.2101 26.8199M18.6701 29.3699L19.3701 27.0799H2.45014L3.15014 29.3699H18.6701Z" stroke="#02352C" stroke-width="0.6" stroke-miterlimit="10"/>
<path fill-rule="evenodd" clip-rule="evenodd" d="M5.62988 51.2199C5.62988 51.0099 5.72988 50.8499 5.97988 50.8499C6.22988 50.8499 6.32988 51.0099 6.34988 51.2199V54.1299C6.34988 54.3399 6.22988 54.4999 5.97988 54.4999C5.72988 54.4999 5.63988 54.3399 5.62988 54.1299V51.2199ZM5.62988 37.5099C5.62988 37.2999 5.72988 37.1399 5.97988 37.1399C6.22988 37.1399 6.32988 37.2999 6.34988 37.5199V40.4299C6.34988 40.6399 6.22988 40.7999 5.97988 40.7999C5.72988 40.7999 5.63988 40.6399 5.62988 40.4299V37.5099ZM15.4499 37.5099C15.4499 37.2999 15.5599 37.1399 15.8099 37.1399C16.0599 37.1399 16.1499 37.2999 16.1699 37.5199V40.4299C16.1699 40.6399 16.0599 40.7999 15.8099 40.7999C15.5599 40.7999 15.4699 40.6399 15.4499 40.4299V37.5099ZM5.62988 64.9199C5.62988 64.7099 5.72988 64.5499 5.97988 64.5499C6.22988 64.5499 6.32988 64.7099 6.34988 64.9199V67.8299C6.34988 68.0399 6.22988 68.1999 5.97988 68.1999C5.72988 68.1999 5.63988 68.0399 5.62988 67.8299V64.9199ZM5.62988 78.6299C5.62988 78.4199 5.72988 78.2599 5.97988 78.2599C6.22988 78.2599 6.32988 78.4199 6.34988 78.6299V81.5399C6.34988 81.7599 6.22988 81.9099 5.97988 81.9099C5.72988 81.9099 5.63988 81.7599 5.62988 81.5399V78.6299ZM5.62988 92.3399C5.62988 92.1199 5.72988 91.9699 5.97988 91.9699C6.22988 91.9699 6.32988 92.1199 6.34988 92.3399V95.2499C6.34988 95.4699 6.22988 95.6299 5.97988 95.6299C5.72988 95.6299 5.63988 95.4699 5.62988 95.2599V92.3399ZM15.4499 92.3399C15.4499 92.1199 15.5599 91.9699 15.8099 91.9699C16.0599 91.9699 16.1499 92.1199 16.1699 92.3399V95.2499C16.1699 95.4699 16.0599 95.6299 15.8099 95.6299C15.5599 95.6299 15.4699 95.4699 15.4499 95.2599V92.3399ZM15.4499 78.6299C15.4499 78.4199 15.5599 78.2599 15.8099 78.2599C16.0599 78.2599 16.1499 78.4199 16.1699 78.6299V81.5399C16.1699 81.7599 16.0599 81.9099 15.8099 81.9099C15.5599 81.9099 15.4699 81.7599 15.4499 81.5399V78.6299ZM15.4499 64.9199C15.4499 64.7099 15.5599 64.5499 15.8099 64.5499C16.0599 64.5499 16.1499 64.7099 16.1699 64.9199V67.8299C16.1699 68.0399 16.0599 68.1999 15.8099 68.1999C15.5599 68.1999 15.4699 68.0399 15.4499 67.8299V64.9199ZM15.4499 51.2199C15.4499 51.0099 15.5599 50.8499 15.8099 50.8499C16.0599 50.8499 16.1499 51.0099 16.1699 51.2199V54.1299C16.1699 54.3399 16.0599 54.4999 15.8099 54.4999C15.5599 54.4999 15.4699 54.3399 15.4499 54.1299V51.2199Z" fill="#01352C" stroke="#02352C" stroke-width="0.6" stroke-miterlimit="10"/>
<path fill-rule="evenodd" clip-rule="evenodd" d="M63.1498 0.63001L66.2398 6.21001L69.3298 11.79C69.3798 11.88 69.3898 11.97 69.3598 12.06C69.3298 12.15 69.2698 12.23 69.1898 12.27L69.0198 12.32H56.6398C56.5398 12.32 56.4598 12.28 56.3898 12.21C56.3198 12.14 56.2798 12.06 56.2798 11.96L56.3298 11.78L59.4198 6.21001L62.4998 0.65001C62.5498 0.56001 62.6198 0.51001 62.7098 0.48001C62.7998 0.45001 62.8998 0.46001 62.9798 0.51001L63.1398 0.64001L63.1498 0.63001ZM65.6098 6.55001L62.8598 1.53001L60.0998 6.52001L57.2998 11.58H68.4598L65.6098 6.55001Z" fill="#01352C" stroke="#02352C" stroke-width="0.6" stroke-miterlimit="10"/>
<path fill-rule="evenodd" clip-rule="evenodd" d="M69.6598 14.8798L70.3498 12.3098H55.3498L56.0498 14.8798V17.8898H69.5998V14.8798H69.6698H69.6598ZM71.1198 12.0298L70.3098 14.9998V18.1898C70.3098 18.2898 70.2798 18.3798 70.2098 18.4498C70.1398 18.5198 70.0498 18.5598 69.9498 18.5598H55.6898C55.5898 18.5598 55.4998 18.5198 55.4298 18.4498C55.3598 18.3798 55.3298 18.2898 55.3298 18.1898V14.9998L54.5298 12.0398V11.9298C54.5298 11.6998 54.6598 11.5798 54.8898 11.5698H70.8798C70.9698 11.5998 71.0498 11.6498 71.0998 11.7398C71.1498 11.8298 71.1598 11.9198 71.1398 12.0098" fill="#01352C"/>
<path d="M71.1198 12.0298L70.3098 14.9998V18.1898C70.3098 18.2898 70.2798 18.3798 70.2098 18.4498C70.1398 18.5198 70.0498 18.5598 69.9498 18.5598H55.6898C55.5898 18.5598 55.4998 18.5198 55.4298 18.4498C55.3598 18.3798 55.3298 18.2898 55.3298 18.1898V14.9998L54.5298 12.0398V11.9298C54.5298 11.6998 54.6598 11.5798 54.8898 11.5698H70.8798C70.9698 11.5998 71.0498 11.6498 71.0998 11.7398C71.1498 11.8298 71.1598 11.9198 71.1398 12.0098M69.6598 14.8798L70.3498 12.3098H55.3498L56.0498 14.8798V17.8898H69.5998V14.8798H69.6698H69.6598Z" stroke="#02352C" stroke-width="0.6" stroke-miterlimit="10"/>
<path fill-rule="evenodd" clip-rule="evenodd" d="M69.6598 14.6098L70.2798 12.2998H55.3398L55.9598 14.6098H69.6498H69.6598ZM71.1198 12.0298L70.3098 15.0298C70.2598 15.2198 70.1398 15.3098 69.9498 15.3098H55.6898L55.3398 15.0498L54.5298 12.0398V11.9298C54.5298 11.6998 54.6598 11.5798 54.8898 11.5698H70.8798C70.9698 11.5998 71.0498 11.6498 71.0998 11.7398C71.1498 11.8298 71.1598 11.9198 71.1398 12.0098" fill="#01352C"/>
<path d="M71.1198 12.0298L70.3098 15.0298C70.2598 15.2198 70.1398 15.3098 69.9498 15.3098H55.6898L55.3398 15.0498L54.5298 12.0398V11.9298C54.5298 11.6998 54.6598 11.5798 54.8898 11.5698H70.8798C70.9698 11.5998 71.0498 11.6498 71.0998 11.7398C71.1498 11.8298 71.1598 11.9198 71.1398 12.0098M69.6598 14.6098L70.2798 12.2998H55.3398L55.9598 14.6098H69.6498H69.6598Z" stroke="#02352C" stroke-width="0.6" stroke-miterlimit="10"/>
<path fill-rule="evenodd" clip-rule="evenodd" d="M70.9197 21.3799L71.7497 18.6099H53.9997L54.8197 21.3799V26.7299H57.2097V24.2599C57.1897 23.8899 57.3097 23.5699 57.5597 23.2899C57.7997 23.0099 58.1097 22.8699 58.4797 22.8699C58.8397 22.8799 59.1297 23.0199 59.3597 23.2899C59.5997 23.5399 59.7197 23.8499 59.7197 24.1899V26.6799H60.0497V24.2099C60.0497 23.8399 60.1597 23.5199 60.3997 23.2399C60.6597 22.9399 60.9797 22.7999 61.3697 22.8199C61.7197 22.8299 62.0197 22.9699 62.2497 23.2399C62.4697 23.4899 62.5797 23.7899 62.5797 24.1199V26.6099H62.9097V24.1399C62.8997 23.7699 63.0097 23.4499 63.2497 23.1699C63.5097 22.8799 63.8297 22.7399 64.2197 22.7499C64.5797 22.7599 64.8697 22.8999 65.0997 23.1699C65.3197 23.4199 65.4297 23.7199 65.4297 24.0499V26.5399H65.7697V24.0699C65.7497 23.6999 65.8697 23.3799 66.1197 23.0999C66.3597 22.8199 66.6697 22.6799 67.0397 22.6799H67.0897C67.4397 22.6899 67.7397 22.8299 67.9697 23.0999C68.1997 23.3599 68.3197 23.6599 68.3197 23.9999V26.4999H70.6997V21.1399L70.8797 21.3699L70.9197 21.3799ZM72.4897 18.2299L71.5197 21.4099V26.9599C71.5197 27.0599 71.4797 27.1399 71.4097 27.2099C71.3397 27.2799 71.2497 27.3199 71.1597 27.3199H68.0597C67.9597 27.3199 67.8797 27.2799 67.8097 27.2099C67.7397 27.1399 67.6997 27.0599 67.6997 26.9599V24.1299L67.5297 23.7099L67.1597 23.5399L66.7697 23.7099C66.6497 23.8399 66.5897 23.9899 66.5897 24.1699V26.9899C66.5897 27.0899 66.5497 27.1699 66.4797 27.2399C66.4097 27.3099 66.3197 27.3499 66.2297 27.3499H65.1797C65.0797 27.3499 64.9897 27.3199 64.9197 27.2499C64.8497 27.1799 64.8097 27.0899 64.8197 26.9899V24.1599L64.6597 23.7599L64.2897 23.5899L63.8897 23.7599C63.7697 23.8899 63.7197 24.0399 63.7197 24.2199V27.0399C63.7197 27.1399 63.6897 27.2299 63.6197 27.2999C63.5497 27.3699 63.4597 27.4099 63.3597 27.3999H62.3097C62.2097 27.3999 62.1297 27.3599 62.0597 27.2899C61.9897 27.2199 61.9497 27.1399 61.9497 27.0399V24.2099L61.7997 23.8099L61.4297 23.6399L61.0397 23.8099C60.9197 23.9399 60.8697 24.0899 60.8697 24.2699V27.0899C60.8697 27.1899 60.8297 27.2699 60.7597 27.3399C60.6897 27.4099 60.5997 27.4499 60.5097 27.4499H59.4597C59.3597 27.4499 59.2697 27.4199 59.1997 27.3499C59.1297 27.2799 59.0897 27.1899 59.0997 27.0899V24.2599L58.9297 23.8399L58.5497 23.6699L58.1497 23.8399C58.0397 23.9699 57.9797 24.1199 57.9797 24.2999V27.1199C57.9797 27.2199 57.9497 27.2999 57.8797 27.3699C57.8097 27.4399 57.7297 27.4799 57.6297 27.4799H54.5297C54.4297 27.4799 54.3397 27.4499 54.2697 27.3799C54.1997 27.3099 54.1597 27.2199 54.1697 27.1199V21.5599L53.1997 18.3799V18.2799C53.1997 18.1799 53.2297 18.0999 53.2997 18.0299C53.3697 17.9599 53.4497 17.9199 53.5497 17.9199H72.2897C72.5097 17.9899 72.5897 18.1399 72.5297 18.3699" fill="#01352C"/>
<path d="M72.4897 18.2299L71.5197 21.4099V26.9599C71.5197 27.0599 71.4797 27.1399 71.4097 27.2099C71.3397 27.2799 71.2497 27.3199 71.1597 27.3199H68.0597C67.9597 27.3199 67.8797 27.2799 67.8097 27.2099C67.7397 27.1399 67.6997 27.0599 67.6997 26.9599V24.1299L67.5297 23.7099L67.1597 23.5399L66.7697 23.7099C66.6497 23.8399 66.5897 23.9899 66.5897 24.1699V26.9899C66.5897 27.0899 66.5497 27.1699 66.4797 27.2399C66.4097 27.3099 66.3197 27.3499 66.2297 27.3499H65.1797C65.0797 27.3499 64.9897 27.3199 64.9197 27.2499C64.8497 27.1799 64.8097 27.0899 64.8197 26.9899V24.1599L64.6597 23.7599L64.2897 23.5899L63.8897 23.7599C63.7697 23.8899 63.7197 24.0399 63.7197 24.2199V27.0399C63.7197 27.1399 63.6897 27.2299 63.6197 27.2999C63.5497 27.3699 63.4597 27.4099 63.3597 27.3999H62.3097C62.2097 27.3999 62.1297 27.3599 62.0597 27.2899C61.9897 27.2199 61.9497 27.1399 61.9497 27.0399V24.2099L61.7997 23.8099L61.4297 23.6399L61.0397 23.8099C60.9197 23.9399 60.8697 24.0899 60.8697 24.2699V27.0899C60.8697 27.1899 60.8297 27.2699 60.7597 27.3399C60.6897 27.4099 60.5997 27.4499 60.5097 27.4499H59.4597C59.3597 27.4499 59.2697 27.4199 59.1997 27.3499C59.1297 27.2799 59.0897 27.1899 59.0997 27.0899V24.2599L58.9297 23.8399L58.5497 23.6699L58.1497 23.8399C58.0397 23.9699 57.9797 24.1199 57.9797 24.2999V27.1199C57.9797 27.2199 57.9497 27.2999 57.8797 27.3699C57.8097 27.4399 57.7297 27.4799 57.6297 27.4799H54.5297C54.4297 27.4799 54.3397 27.4499 54.2697 27.3799C54.1997 27.3099 54.1597 27.2199 54.1697 27.1199V21.5599L53.1997 18.3799V18.2799C53.1997 18.1799 53.2297 18.0999 53.2997 18.0299C53.3697 17.9599 53.4497 17.9199 53.5497 17.9199H72.2897C72.5097 17.9899 72.5897 18.1399 72.5297 18.3699M70.9197 21.3799L71.7497 18.6099H53.9997L54.8197 21.3799V26.7299H57.2097V24.2599C57.1897 23.8899 57.3097 23.5699 57.5597 23.2899C57.7997 23.0099 58.1097 22.8699 58.4797 22.8699C58.8397 22.8799 59.1297 23.0199 59.3597 23.2899C59.5997 23.5399 59.7197 23.8499 59.7197 24.1899V26.6799H60.0497V24.2099C60.0497 23.8399 60.1597 23.5199 60.3997 23.2399C60.6597 22.9399 60.9797 22.7999 61.3697 22.8199C61.7197 22.8299 62.0197 22.9699 62.2497 23.2399C62.4697 23.4899 62.5797 23.7899 62.5797 24.1199V26.6099H62.9097V24.1399C62.8997 23.7699 63.0097 23.4499 63.2497 23.1699C63.5097 22.8799 63.8297 22.7399 64.2197 22.7499C64.5797 22.7599 64.8697 22.8999 65.0997 23.1699C65.3197 23.4199 65.4297 23.7199 65.4297 24.0499V26.5399H65.7697V24.0699C65.7497 23.6999 65.8697 23.3799 66.1197 23.0999C66.3597 22.8199 66.6697 22.6799 67.0397 22.6799H67.0897C67.4397 22.6899 67.7397 22.8299 67.9697 23.0999C68.1997 23.3599 68.3197 23.6599 68.3197 23.9999V26.4999H70.6997V21.1399L70.8797 21.3699L70.9197 21.3799Z" stroke="#02352C" stroke-width="0.6" stroke-miterlimit="10"/>
<path fill-rule="evenodd" clip-rule="evenodd" d="M70.9199 20.99L71.6699 18.47H53.9899L54.7399 20.99H70.9199ZM72.4799 18.23L71.5099 21.45C71.4599 21.62 71.3399 21.7 71.1699 21.7H54.4899C54.2999 21.71 54.1799 21.63 54.1199 21.45L53.1499 18.23V18.12C53.1499 18.02 53.1899 17.94 53.2599 17.87C53.3299 17.8 53.4099 17.77 53.5099 17.77H72.2499C72.3399 17.8 72.4099 17.86 72.4599 17.95C72.5099 18.04 72.5099 18.13 72.4899 18.22" fill="#01352C"/>
<path d="M72.4799 18.23L71.5099 21.45C71.4599 21.62 71.3399 21.7 71.1699 21.7H54.4899C54.2999 21.71 54.1799 21.63 54.1199 21.45L53.1499 18.23V18.12C53.1499 18.02 53.1899 17.94 53.2599 17.87C53.3299 17.8 53.4099 17.77 53.5099 17.77H72.2499C72.3399 17.8 72.4099 17.86 72.4599 17.95C72.5099 18.04 72.5099 18.13 72.4899 18.22M70.9199 20.99L71.6699 18.47H53.9899L54.7399 20.99H70.9199Z" stroke="#02352C" stroke-width="0.6" stroke-miterlimit="10"/>
<path fill-rule="evenodd" clip-rule="evenodd" d="M54.8197 32.1499H70.8497C70.9497 32.1499 71.0297 32.1799 71.0997 32.2499C71.1697 32.3199 71.2097 32.3999 71.2097 32.4999V100.34C71.2097 100.44 71.1797 100.53 71.1097 100.6C71.0397 100.67 70.9497 100.71 70.8497 100.7H54.8197C54.7197 100.7 54.6397 100.66 54.5697 100.59C54.4997 100.52 54.4697 100.43 54.4697 100.34V32.4999C54.4697 32.3999 54.4997 32.3199 54.5697 32.2499C54.6397 32.1799 54.7197 32.1499 54.8197 32.1499ZM70.4797 32.8699H55.1697V99.9399H70.4797V32.8699Z" fill="#01352C" stroke="#02352C" stroke-width="0.6" stroke-miterlimit="10"/>
<path fill-rule="evenodd" clip-rule="evenodd" d="M70.8399 29.76L71.7499 26.74H53.8999L54.8199 29.76V32.97H70.8399V29.76Z" fill="#CBDAD8" stroke="#02352C" stroke-width="0.6" stroke-miterlimit="10"/>
<path fill-rule="evenodd" clip-rule="evenodd" d="M70.5301 29.5598L71.3001 27.0298H54.3801L55.1601 29.5798V32.5398H70.4701V29.6698L70.5401 29.5398L70.5301 29.5598ZM72.1001 26.8398L71.2001 29.7498V32.9198C71.2001 33.0198 71.1701 33.1098 71.1001 33.1798C71.0301 33.2498 70.9401 33.2898 70.8401 33.2798H54.8101C54.7101 33.2798 54.6301 33.2398 54.5601 33.1698C54.4901 33.0998 54.4501 33.0198 54.4501 32.9198V29.7398L53.5601 26.8298V26.6898C53.5601 26.5898 53.6001 26.5098 53.6701 26.4398C53.7401 26.3698 53.8301 26.3298 53.9201 26.3298H71.8801C71.9801 26.3598 72.0501 26.4098 72.1001 26.4998C72.1501 26.5898 72.1601 26.6798 72.1301 26.7798" fill="#01352C"/>
<path d="M72.1001 26.8398L71.2001 29.7498V32.9198C71.2001 33.0198 71.1701 33.1098 71.1001 33.1798C71.0301 33.2498 70.9401 33.2898 70.8401 33.2798H54.8101C54.7101 33.2798 54.6301 33.2398 54.5601 33.1698C54.4901 33.0998 54.4501 33.0198 54.4501 32.9198V29.7398L53.5601 26.8298V26.6898C53.5601 26.5898 53.6001 26.5098 53.6701 26.4398C53.7401 26.3698 53.8301 26.3298 53.9201 26.3298H71.8801C71.9801 26.3598 72.0501 26.4098 72.1001 26.4998C72.1501 26.5898 72.1601 26.6798 72.1301 26.7798M70.5301 29.5598L71.3001 27.0298H54.3801L55.1601 29.5798V32.5398H70.4701V29.6698L70.5401 29.5398L70.5301 29.5598Z" stroke="#02352C" stroke-width="0.6" stroke-miterlimit="10"/>
<path fill-rule="evenodd" clip-rule="evenodd" d="M70.8399 29.76L71.7499 26.74H53.8999L54.8199 29.76H70.8399Z" fill="#CBDAD8" stroke="#02352C" stroke-width="0.6" stroke-miterlimit="10"/>
<path fill-rule="evenodd" clip-rule="evenodd" d="M70.6001 29.3699L71.3001 27.0799H54.3801L55.0801 29.3699H70.6001ZM72.1001 26.8399L71.2001 29.8199C71.1601 29.9999 71.0401 30.0999 70.8501 30.0999H54.8101L54.4701 29.8499L53.5601 26.8699V26.7299C53.5601 26.6299 53.6001 26.5499 53.6701 26.4799C53.7401 26.4099 53.8301 26.3699 53.9201 26.3699H71.8801C71.9801 26.3999 72.0501 26.4499 72.1001 26.5399C72.1501 26.6299 72.1601 26.7199 72.1301 26.8199" fill="#01352C"/>
<path d="M72.1001 26.8399L71.2001 29.8199C71.1601 29.9999 71.0401 30.0999 70.8501 30.0999H54.8101L54.4701 29.8499L53.5601 26.8699V26.7299C53.5601 26.6299 53.6001 26.5499 53.6701 26.4799C53.7401 26.4099 53.8301 26.3699 53.9201 26.3699H71.8801C71.9801 26.3999 72.0501 26.4499 72.1001 26.5399C72.1501 26.6299 72.1601 26.7199 72.1301 26.8199M70.6001 29.3699L71.3001 27.0799H54.3801L55.0801 29.3699H70.6001Z" stroke="#02352C" stroke-width="0.6" stroke-miterlimit="10"/>
<path fill-rule="evenodd" clip-rule="evenodd" d="M57.5601 51.2199C57.5601 51.0099 57.6601 50.8499 57.9101 50.8499C58.1601 50.8499 58.2601 51.0099 58.2801 51.2199V54.1299C58.2801 54.3399 58.1601 54.4999 57.9101 54.4999C57.6601 54.4999 57.5801 54.3399 57.5601 54.1299V51.2199ZM57.5601 37.5099C57.5601 37.2999 57.6601 37.1399 57.9101 37.1399C58.1601 37.1399 58.2601 37.2999 58.2801 37.5199V40.4299C58.2801 40.6399 58.1601 40.7999 57.9101 40.7999C57.6601 40.7999 57.5801 40.6399 57.5601 40.4299V37.5099ZM67.3901 37.5099C67.3901 37.2999 67.4901 37.1399 67.7401 37.1399C67.9901 37.1399 68.0901 37.2999 68.1101 37.5199V40.4299C68.1101 40.6399 67.9901 40.7999 67.7401 40.7999C67.4901 40.7999 67.4101 40.6399 67.3901 40.4299V37.5099ZM57.5601 64.9199C57.5601 64.7099 57.6601 64.5499 57.9101 64.5499C58.1601 64.5499 58.2601 64.7099 58.2801 64.9199V67.8299C58.2801 68.0399 58.1601 68.1999 57.9101 68.1999C57.6601 68.1999 57.5801 68.0399 57.5601 67.8299V64.9199ZM57.5601 78.6299C57.5601 78.4199 57.6601 78.2599 57.9101 78.2599C58.1601 78.2599 58.2601 78.4199 58.2801 78.6299V81.5399C58.2801 81.7599 58.1601 81.9099 57.9101 81.9099C57.6601 81.9099 57.5801 81.7599 57.5601 81.5399V78.6299ZM57.5601 92.3399C57.5601 92.1199 57.6601 91.9699 57.9101 91.9699C58.1601 91.9699 58.2601 92.1199 58.2801 92.3399V95.2499C58.2801 95.4699 58.1601 95.6299 57.9101 95.6299C57.6601 95.6299 57.5801 95.4699 57.5601 95.2599V92.3399ZM67.3901 92.3399C67.3901 92.1199 67.4901 91.9699 67.7401 91.9699C67.9901 91.9699 68.0901 92.1199 68.1101 92.3399V95.2499C68.1101 95.4699 67.9901 95.6299 67.7401 95.6299C67.4901 95.6299 67.4101 95.4699 67.3901 95.2599V92.3399ZM67.3901 78.6299C67.3901 78.4199 67.4901 78.2599 67.7401 78.2599C67.9901 78.2599 68.0901 78.4199 68.1101 78.6299V81.5399C68.1101 81.7599 67.9901 81.9099 67.7401 81.9099C67.4901 81.9099 67.4101 81.7599 67.3901 81.5399V78.6299ZM67.3901 64.9199C67.3901 64.7099 67.4901 64.5499 67.7401 64.5499C67.9901 64.5499 68.0901 64.7099 68.1101 64.9199V67.8299C68.1101 68.0399 67.9901 68.1999 67.7401 68.1999C67.4901 68.1999 67.4101 68.0399 67.3901 67.8299V64.9199ZM67.3901 51.2199C67.3901 51.0099 67.4901 50.8499 67.7401 50.8499C67.9901 50.8499 68.0901 51.0099 68.1101 51.2199V54.1299C68.1101 54.3399 67.9901 54.4999 67.7401 54.4999C67.4901 54.4999 67.4101 54.3399 67.3901 54.1299V51.2199Z" fill="#01352C" stroke="#02352C" stroke-width="0.6" stroke-miterlimit="10"/>
</g>
<defs>
<clipPath id="clip0_44_736">
<rect width="71.97" height="100.84" fill="white" transform="translate(0.919922 0.159912)"/>
</clipPath>
</defs>
</svg>
