<svg width="63" height="118" viewBox="0 0 63 118" fill="none" xmlns="http://www.w3.org/2000/svg">
<g clip-path="url(#clip0_44_1573)">
<path d="M0.65 117.74H62.11C62.22 117.74 62.31 117.7 62.38 117.63C62.46 117.56 62.49 117.47 62.49 117.36C62.49 117.25 62.45 117.16 62.38 117.09C62.31 117.01 62.21 116.97 62.11 116.97H0.65C0.54 116.97 0.45 117.01 0.37 117.08C0.29 117.16 0.25 117.25 0.25 117.36C0.25 117.47 0.29 117.56 0.37 117.63C0.45 117.7 0.54 117.74 0.65 117.74Z" fill="#01352C" stroke="#02352C" stroke-width="0.5" stroke-miterlimit="10"/>
<path d="M23.8002 3.08011H23.4102C23.4102 3.34011 23.3602 3.59011 23.2602 3.83011C23.1602 4.07011 23.0202 4.28011 22.8302 4.47011C22.6402 4.65011 22.4302 4.80011 22.1902 4.89011C21.9502 4.99011 21.7002 5.04011 21.4302 5.04011C21.1702 5.04011 20.9202 4.99011 20.6702 4.89011C20.4302 4.79011 20.2102 4.65011 20.0302 4.47011C19.8402 4.29011 19.7002 4.07011 19.6002 3.83011C19.5002 3.59011 19.4502 3.34011 19.4502 3.08011C19.4502 2.82011 19.5002 2.57011 19.6002 2.33011C19.7002 2.09011 19.8402 1.88011 20.0302 1.69011C20.2202 1.51011 20.4302 1.36011 20.6702 1.27011C20.9102 1.17011 21.1602 1.12011 21.4302 1.12011C21.7002 1.12011 21.9402 1.17011 22.1902 1.27011C22.4302 1.37011 22.6502 1.51011 22.8302 1.69011C23.0202 1.87011 23.1602 2.09011 23.2602 2.33011C23.3602 2.57011 23.4102 2.82011 23.4102 3.08011H24.1602C24.1602 2.72011 24.0902 2.38011 23.9502 2.04011C23.8102 1.71011 23.6102 1.42011 23.3602 1.16011C23.1002 0.910107 22.8102 0.710107 22.4702 0.570107C22.1402 0.430107 21.7902 0.360107 21.4302 0.360107C21.0702 0.360107 20.7202 0.430107 20.3902 0.570107C20.0602 0.710107 19.7602 0.900107 19.5002 1.16011C19.2402 1.42011 19.0502 1.71011 18.9102 2.04011C18.7702 2.37011 18.7002 2.72011 18.7002 3.08011C18.7002 3.44011 18.7702 3.78011 18.9102 4.12011C19.0502 4.46011 19.2502 4.74011 19.5002 5.00011C19.7502 5.26011 20.0502 5.45011 20.3902 5.59011C20.7202 5.73011 21.0702 5.80011 21.4302 5.80011C21.7902 5.80011 22.1402 5.73011 22.4702 5.59011C22.8002 5.45011 23.1002 5.26011 23.3502 5.00011C23.6102 4.75011 23.8002 4.45011 23.9402 4.12011C24.0802 3.79011 24.1502 3.44011 24.1502 3.09011H23.7802L23.8002 3.08011Z" fill="#01352C"/>
<path d="M23.4102 3.08011H23.8002L23.7802 3.09011H24.1502C24.1502 3.44011 24.0802 3.79011 23.9402 4.12011C23.8002 4.45011 23.6102 4.75011 23.3502 5.00011C23.1002 5.26011 22.8002 5.45011 22.4702 5.59011C22.1402 5.73011 21.7902 5.80011 21.4302 5.80011C21.0702 5.80011 20.7202 5.73011 20.3902 5.59011C20.0502 5.45011 19.7502 5.26011 19.5002 5.00011C19.2502 4.74011 19.0502 4.46011 18.9102 4.12011C18.7702 3.78011 18.7002 3.44011 18.7002 3.08011C18.7002 2.72011 18.7702 2.37011 18.9102 2.04011C19.0502 1.71011 19.2402 1.42011 19.5002 1.16011C19.7602 0.900107 20.0602 0.710107 20.3902 0.570107C20.7202 0.430107 21.0702 0.360107 21.4302 0.360107C21.7902 0.360107 22.1402 0.430107 22.4702 0.570107C22.8102 0.710107 23.1002 0.910107 23.3602 1.16011C23.6102 1.42011 23.8102 1.71011 23.9502 2.04011C24.0902 2.38011 24.1602 2.72011 24.1602 3.08011H23.4102ZM23.4102 3.08011C23.4102 3.34011 23.3602 3.59011 23.2602 3.83011C23.1602 4.07011 23.0202 4.28011 22.8302 4.47011C22.6402 4.65011 22.4302 4.80011 22.1902 4.89011C21.9502 4.99011 21.7002 5.04011 21.4302 5.04011C21.1702 5.04011 20.9202 4.99011 20.6702 4.89011C20.4302 4.79011 20.2102 4.65011 20.0302 4.47011C19.8402 4.29011 19.7002 4.07011 19.6002 3.83011C19.5002 3.59011 19.4502 3.34011 19.4502 3.08011C19.4502 2.82011 19.5002 2.57011 19.6002 2.33011C19.7002 2.09011 19.8402 1.88011 20.0302 1.69011C20.2202 1.51011 20.4302 1.36011 20.6702 1.27011C20.9102 1.17011 21.1602 1.12011 21.4302 1.12011C21.7002 1.12011 21.9402 1.17011 22.1902 1.27011C22.4302 1.37011 22.6502 1.51011 22.8302 1.69011C23.0202 1.87011 23.1602 2.09011 23.2602 2.33011C23.3602 2.57011 23.4102 2.82011 23.4102 3.08011Z" stroke="#02352C" stroke-width="0.5" stroke-miterlimit="10"/>
<path d="M20.5099 5.26007C17.6499 18.0801 15.4899 50.3901 15.1099 60.4001C15.1099 61.3801 15.0499 62.1701 15.0499 62.6901V66.6101C15.0299 66.7301 15.0599 66.8301 15.1399 66.9301C15.2199 67.0301 15.3199 67.0701 15.4399 67.0701C15.5599 67.0701 15.6599 67.0201 15.7399 66.9301C15.8199 66.8401 15.8499 66.7301 15.8299 66.6101V62.6901C15.8299 62.1901 15.8299 61.4201 15.8799 60.4301C16.2599 50.4701 18.4399 18.1101 21.2699 5.43007C21.2899 5.33007 21.2699 5.23007 21.2199 5.14007C21.1599 5.05007 21.0799 4.99007 20.9699 4.97007C20.8699 4.95007 20.7699 4.97007 20.6799 5.02007C20.5899 5.08007 20.5299 5.16007 20.5099 5.26007Z" fill="#01352C" stroke="#02352C" stroke-width="0.5" stroke-miterlimit="10"/>
<path d="M21.7401 5.46005C24.0401 16.1201 25.9201 42.2801 26.7401 55.2301C27.0301 59.8301 27.1901 62.7601 27.1901 62.7701V77.0101C27.1901 77.1201 27.2201 77.2101 27.3001 77.2901C27.3801 77.3701 27.4701 77.4101 27.5801 77.4101C27.6901 77.4101 27.7801 77.3701 27.8601 77.3001C27.9401 77.2201 27.9801 77.1301 27.9801 77.0201V62.6901C27.9801 62.6901 27.8101 59.7501 27.5301 55.1401C26.7101 42.1701 24.8401 16.0501 22.5101 5.26005C22.4901 5.16005 22.4301 5.08005 22.3401 5.02005C22.2501 4.96005 22.1501 4.95005 22.0501 4.97005C21.9401 4.99005 21.8601 5.04005 21.8001 5.13005C21.7401 5.22005 21.7201 5.31005 21.7501 5.42005" fill="#01352C"/>
<path d="M21.7401 5.46005C24.0401 16.1201 25.9201 42.2801 26.7401 55.2301C27.0301 59.8301 27.1901 62.7601 27.1901 62.7701M27.1901 62.7701H27.5801M27.1901 62.7701V77.0101C27.1901 77.1201 27.2201 77.2101 27.3001 77.2901C27.3801 77.3701 27.4701 77.4101 27.5801 77.4101C27.6901 77.4101 27.7801 77.3701 27.8601 77.3001C27.9401 77.2201 27.9801 77.1301 27.9801 77.0201V62.6901C27.9801 62.6901 27.8101 59.7501 27.5301 55.1401C26.7101 42.1701 24.8401 16.0501 22.5101 5.26005C22.4901 5.16005 22.4301 5.08005 22.3401 5.02005C22.2501 4.96005 22.1501 4.95005 22.0501 4.97005C21.9401 4.99005 21.8601 5.04005 21.8001 5.13005C21.7401 5.22005 21.7201 5.31005 21.7501 5.42005" stroke="#02352C" stroke-width="0.5" stroke-miterlimit="10"/>
<path d="M17.5401 34.0301H25.4501C25.6701 33.9901 25.7801 33.8701 25.7801 33.6401C25.7801 33.4101 25.6701 33.2901 25.4501 33.2501H17.5401C17.4201 33.2301 17.3101 33.2601 17.2201 33.3401C17.1301 33.4201 17.0801 33.5201 17.0801 33.6401C17.0801 33.7601 17.1301 33.8601 17.2201 33.9401C17.3101 34.0201 17.4201 34.0501 17.5401 34.0301Z" fill="#01352C" stroke="#02352C" stroke-width="0.5" stroke-miterlimit="10"/>
<path d="M13.4602 38.78H5.55016C5.44016 38.78 5.35016 38.81 5.27016 38.89C5.19016 38.97 5.16016 39.06 5.16016 39.16C5.16016 39.27 5.19016 39.36 5.27016 39.44C5.35016 39.52 5.44016 39.56 5.55016 39.56H13.4602C13.5702 39.56 13.6602 39.52 13.7402 39.44C13.8202 39.36 13.8502 39.27 13.8502 39.16C13.8502 39.05 13.8202 38.96 13.7402 38.89C13.6602 38.81 13.5702 38.78 13.4602 38.78Z" fill="#01352C" stroke="#02352C" stroke-width="0.5" stroke-miterlimit="10"/>
<path d="M11.82 11.77H11.43C11.43 12.03 11.38 12.28 11.28 12.52C11.18 12.76 11.04 12.97 10.85 13.16C10.66 13.34 10.45 13.49 10.21 13.58C9.96998 13.68 9.71998 13.73 9.44998 13.73C9.18998 13.73 8.93998 13.68 8.68998 13.58C8.43998 13.48 8.22998 13.34 8.04998 13.16C7.85998 12.98 7.71998 12.76 7.61998 12.52C7.51998 12.28 7.46998 12.03 7.46998 11.77C7.46998 11.51 7.51998 11.26 7.61998 11.02C7.71998 10.78 7.85998 10.57 8.04998 10.38C8.23998 10.2 8.44998 10.05 8.68998 9.96005C8.92998 9.86005 9.17998 9.81005 9.44998 9.81005C9.71998 9.81005 9.95998 9.86005 10.21 9.96005C10.45 10.06 10.67 10.2 10.85 10.38C11.04 10.56 11.18 10.78 11.28 11.02C11.38 11.26 11.43 11.51 11.43 11.77H12.21C12.21 11.41 12.14 11.06 12 10.73C11.86 10.4 11.66 10.1 11.41 9.85005C11.15 9.59005 10.86 9.40005 10.52 9.26005C10.18 9.12005 9.82998 9.05005 9.46998 9.05005C9.10998 9.05005 8.75998 9.12005 8.41998 9.26005C8.07998 9.40005 7.78998 9.59005 7.52998 9.85005C7.26998 10.1 7.06998 10.4 6.93998 10.73C6.79998 11.06 6.72998 11.41 6.72998 11.77C6.72998 12.13 6.79998 12.48 6.93998 12.81C7.07998 13.14 7.27998 13.44 7.53998 13.69C7.79998 13.94 8.08998 14.14 8.42998 14.28C8.76998 14.42 9.11998 14.48 9.47998 14.48C9.83998 14.48 10.19 14.41 10.52 14.27C10.85 14.13 11.15 13.94 11.4 13.68C11.66 13.43 11.85 13.13 11.99 12.8C12.13 12.47 12.2 12.12 12.2 11.77H11.8H11.82Z" fill="#01352C"/>
<path d="M11.43 11.77H11.82H11.8H12.2C12.2 12.12 12.13 12.47 11.99 12.8C11.85 13.13 11.66 13.43 11.4 13.68C11.15 13.94 10.85 14.13 10.52 14.27C10.19 14.41 9.83998 14.48 9.47998 14.48C9.11998 14.48 8.76998 14.42 8.42998 14.28C8.08998 14.14 7.79998 13.94 7.53998 13.69C7.27998 13.44 7.07998 13.14 6.93998 12.81C6.79998 12.48 6.72998 12.13 6.72998 11.77C6.72998 11.41 6.79998 11.06 6.93998 10.73C7.06998 10.4 7.26998 10.1 7.52998 9.85005C7.78998 9.59005 8.07998 9.40005 8.41998 9.26005C8.75998 9.12005 9.10998 9.05005 9.46998 9.05005C9.82998 9.05005 10.18 9.12005 10.52 9.26005C10.86 9.40005 11.15 9.59005 11.41 9.85005C11.66 10.1 11.86 10.4 12 10.73C12.14 11.06 12.21 11.41 12.21 11.77H11.43ZM11.43 11.77C11.43 12.03 11.38 12.28 11.28 12.52C11.18 12.76 11.04 12.97 10.85 13.16C10.66 13.34 10.45 13.49 10.21 13.58C9.96998 13.68 9.71998 13.73 9.44998 13.73C9.18998 13.73 8.93998 13.68 8.68998 13.58C8.43998 13.48 8.22998 13.34 8.04998 13.16C7.85998 12.98 7.71998 12.76 7.61998 12.52C7.51998 12.28 7.46998 12.03 7.46998 11.77C7.46998 11.51 7.51998 11.26 7.61998 11.02C7.71998 10.78 7.85998 10.57 8.04998 10.38C8.23998 10.2 8.44998 10.05 8.68998 9.96005C8.92998 9.86005 9.17998 9.81005 9.44998 9.81005C9.71998 9.81005 9.95998 9.86005 10.21 9.96005C10.45 10.06 10.67 10.2 10.85 10.38C11.04 10.56 11.18 10.78 11.28 11.02C11.38 11.26 11.43 11.51 11.43 11.77Z" stroke="#02352C" stroke-width="0.5" stroke-miterlimit="10"/>
<path d="M8.52006 13.95C7.23006 19.68 6.10006 29.31 5.20006 39.11C3.88006 53.39 3.06006 68.01 3.06006 71.37V117.35C3.06006 117.46 3.09006 117.55 3.17006 117.62C3.25006 117.7 3.34006 117.73 3.45006 117.73C3.56006 117.73 3.65006 117.7 3.73006 117.62C3.81006 117.54 3.85006 117.45 3.85006 117.35V71.37C3.85006 68.07 4.66006 53.43 5.98006 39.17C6.89006 29.37 8.03006 19.77 9.29006 14.11C9.31006 14.01 9.29006 13.91 9.24006 13.82C9.18006 13.73 9.10006 13.67 9.00006 13.65C8.90006 13.63 8.80006 13.65 8.71006 13.7C8.62006 13.76 8.56006 13.84 8.54006 13.94L8.52006 13.95Z" fill="#01352C" stroke="#02352C" stroke-width="0.5" stroke-miterlimit="10"/>
<path d="M15.9901 84.7001V71.3801C15.9901 70.4901 15.9401 68.8401 15.8301 66.6201C15.7501 64.9101 15.6301 62.8801 15.4901 60.5901C14.6501 46.7501 12.8001 24.1601 10.5501 13.9501C10.5501 13.8301 10.4901 13.7301 10.3901 13.6601C10.2901 13.5901 10.1801 13.5701 10.0701 13.5901C9.95008 13.6201 9.87008 13.6801 9.81008 13.7901C9.75008 13.9001 9.75008 14.0101 9.79008 14.1201C12.0401 24.2101 13.8901 46.8301 14.7301 60.6301C14.8701 62.9101 14.9901 64.9501 15.0701 66.6601C15.1801 68.8701 15.2401 70.5201 15.2401 71.3801V84.7001C15.2401 84.8101 15.2801 84.9001 15.3501 84.9701C15.4301 85.0401 15.5201 85.0801 15.6201 85.0801C15.7301 85.0801 15.8201 85.0401 15.8901 84.9701C15.9701 84.9001 16.0001 84.8101 16.0001 84.7001" fill="#01352C"/>
<path d="M15.9901 84.7001V71.3801C15.9901 70.4901 15.9401 68.8401 15.8301 66.6201M15.8301 66.6201H15.4401M15.8301 66.6201C15.7501 64.9101 15.6301 62.8801 15.4901 60.5901C14.6501 46.7501 12.8001 24.1601 10.5501 13.9501C10.5501 13.8301 10.4901 13.7301 10.3901 13.6601C10.2901 13.5901 10.1801 13.5701 10.0701 13.5901C9.95008 13.6201 9.87008 13.6801 9.81008 13.7901C9.75008 13.9001 9.75008 14.0101 9.79008 14.1201C12.0401 24.2101 13.8901 46.8301 14.7301 60.6301C14.8701 62.9101 14.9901 64.9501 15.0701 66.6601M15.0701 66.6601H15.4701M15.0701 66.6601C15.1801 68.8701 15.2401 70.5201 15.2401 71.3801V84.7001C15.2401 84.8101 15.2801 84.9001 15.3501 84.9701C15.4301 85.0401 15.5201 85.0801 15.6201 85.0801C15.7301 85.0801 15.8201 85.0401 15.8901 84.9701C15.9701 84.9001 16.0001 84.8101 16.0001 84.7001" stroke="#02352C" stroke-width="0.5" stroke-miterlimit="10"/>
<path d="M29.5301 53.6502L3.56008 65.4102C3.46008 65.4502 3.39008 65.5302 3.36008 65.6202C3.32008 65.7202 3.32008 65.8202 3.36008 65.9102C3.40008 66.0102 3.48008 66.0702 3.58008 66.1102C3.68008 66.1502 3.78008 66.1502 3.88008 66.1102L29.8601 54.3502C29.9601 54.3102 30.0201 54.2302 30.0601 54.1302C30.1001 54.0302 30.0901 53.9302 30.0501 53.8402C30.0001 53.7402 29.9301 53.6802 29.8301 53.6402C29.7301 53.6002 29.6301 53.6102 29.5301 53.6502Z" fill="#01352C" stroke="#02352C" stroke-width="0.5" stroke-miterlimit="10"/>
<path d="M8.85994 117.43L15.5999 86.55L19.8099 106.31C19.8299 106.41 19.8899 106.49 19.9799 106.55C20.0699 106.61 20.1699 106.63 20.2699 106.61C20.3699 106.59 20.4599 106.53 20.5099 106.44C20.5699 106.35 20.5899 106.25 20.5599 106.15L15.9699 84.59C15.9199 84.39 15.7899 84.29 15.5799 84.29C15.3699 84.29 15.2499 84.39 15.1999 84.59L8.06994 117.24C8.03994 117.34 8.05994 117.44 8.11994 117.53C8.17994 117.62 8.25994 117.68 8.36994 117.7C8.46994 117.72 8.56994 117.7 8.65994 117.65C8.74994 117.6 8.80994 117.51 8.82994 117.41" fill="#01352C"/>
<path d="M8.85994 117.43L15.5999 86.55L19.8099 106.31C19.8299 106.41 19.8899 106.49 19.9799 106.55C20.0699 106.61 20.1699 106.63 20.2699 106.61C20.3699 106.59 20.4599 106.53 20.5099 106.44C20.5699 106.35 20.5899 106.25 20.5599 106.15L15.9699 84.59C15.9199 84.39 15.7899 84.29 15.5799 84.29C15.3699 84.29 15.2499 84.39 15.1999 84.59L8.06994 117.24C8.03994 117.34 8.05994 117.44 8.11994 117.53C8.17994 117.62 8.25994 117.68 8.36994 117.7C8.46994 117.72 8.56994 117.7 8.65994 117.65C8.74994 117.6 8.80994 117.51 8.82994 117.41" stroke="#02352C" stroke-width="0.5" stroke-miterlimit="10"/>
<path d="M17.93 117.44L31.5 63.08L44.76 117.44C44.79 117.54 44.85 117.62 44.94 117.68C45.03 117.74 45.13 117.75 45.24 117.73C45.34 117.7 45.42 117.64 45.48 117.55C45.54 117.46 45.55 117.36 45.53 117.26L31.9 61.39C31.85 61.19 31.72 61.09 31.51 61.1C31.31 61.1 31.18 61.2 31.13 61.39L17.18 117.26C17.15 117.36 17.16 117.46 17.22 117.55C17.28 117.64 17.35 117.7 17.46 117.73C17.56 117.75 17.66 117.73 17.76 117.68C17.85 117.62 17.91 117.55 17.94 117.44H17.93Z" fill="#01352C" stroke="#02352C" stroke-width="0.5" stroke-miterlimit="10"/>
<path d="M12.0302 116.92C12.2402 114.69 12.7202 112.52 13.4602 110.4C13.7502 109.56 14.0202 108.87 14.2202 108.39C14.4202 107.91 14.5602 107.66 14.5602 107.66L14.6502 107.5C14.7602 107.29 14.8902 107.1 15.0502 106.93C15.1502 106.79 15.2802 106.7 15.4502 106.68C15.5602 106.68 15.6502 106.64 15.7302 106.57C15.8102 106.49 15.8502 106.4 15.8502 106.29C15.8502 106.18 15.8102 106.09 15.7302 106.02C15.6502 105.94 15.5602 105.91 15.4502 105.91C14.9202 105.97 14.5302 106.22 14.2602 106.67C14.1002 106.88 13.9702 107.11 13.8502 107.35L14.2102 107.51L13.8602 107.34C12.4602 110.37 11.5902 113.55 11.2602 116.87C11.2502 116.98 11.2802 117.07 11.3502 117.16C11.4202 117.24 11.5102 117.29 11.6202 117.3C11.7302 117.31 11.8202 117.28 11.9002 117.21C11.9802 117.14 12.0302 117.05 12.0302 116.94" fill="#01352C"/>
<path d="M12.0302 116.92C12.2402 114.69 12.7202 112.52 13.4602 110.4C13.7502 109.56 14.0202 108.87 14.2202 108.39C14.4202 107.91 14.5602 107.66 14.5602 107.66L14.6502 107.5C14.7602 107.29 14.8902 107.1 15.0502 106.93C15.1502 106.79 15.2802 106.7 15.4502 106.68C15.5602 106.68 15.6502 106.64 15.7302 106.57C15.8102 106.49 15.8502 106.4 15.8502 106.29C15.8502 106.18 15.8102 106.09 15.7302 106.02C15.6502 105.94 15.5602 105.91 15.4502 105.91C14.9202 105.97 14.5302 106.22 14.2602 106.67C14.1002 106.88 13.9702 107.11 13.8502 107.35L14.2102 107.51L13.8602 107.34C12.4602 110.37 11.5902 113.55 11.2602 116.87C11.2502 116.98 11.2802 117.07 11.3502 117.16C11.4202 117.24 11.5102 117.29 11.6202 117.3C11.7302 117.31 11.8202 117.28 11.9002 117.21C11.9802 117.14 12.0302 117.05 12.0302 116.94" stroke="#02352C" stroke-width="0.5" stroke-miterlimit="10"/>
<path d="M15.44 106.67C15.54 106.67 15.81 106.84 16 107.11L16.24 107.49L16.32 107.65L16.49 108.03C17.18 109.62 17.74 111.25 18.16 112.93C18.18 113.03 18.24 113.11 18.33 113.17C18.42 113.23 18.52 113.24 18.62 113.22C18.73 113.2 18.81 113.14 18.86 113.05C18.92 112.96 18.93 112.86 18.9 112.75C18.45 110.89 17.81 109.09 17 107.35L16.65 107.52L17.01 107.36C16.9 107.12 16.76 106.9 16.6 106.68C16.34 106.22 15.94 105.97 15.41 105.92C15.3 105.92 15.21 105.95 15.13 106.03C15.05 106.11 15.02 106.2 15.02 106.3C15.02 106.41 15.06 106.49 15.14 106.57C15.22 106.64 15.31 106.68 15.42 106.67H15.44Z" fill="#01352C" stroke="#02352C" stroke-width="0.5" stroke-miterlimit="10"/>
<path d="M38.9898 3.08012H38.5898C38.5898 3.44012 38.6598 3.79012 38.7998 4.12012C38.9398 4.45012 39.1398 4.75012 39.3898 5.00012C39.6398 5.25012 39.9398 5.45012 40.2798 5.59012C40.6198 5.73012 40.9698 5.80012 41.3298 5.80012C41.6898 5.80012 42.0398 5.73012 42.3798 5.59012C42.7198 5.45012 43.0098 5.26012 43.2698 5.00012C43.5298 4.75012 43.7298 4.45012 43.8598 4.12012C43.9898 3.79012 44.0698 3.44012 44.0698 3.08012C44.0698 2.72012 43.9998 2.37012 43.8598 2.04012C43.7198 1.71012 43.5198 1.41012 43.2598 1.16012C42.9998 0.910117 42.7098 0.710117 42.3698 0.570117C42.0298 0.430117 41.6798 0.370117 41.3198 0.370117C40.9598 0.370117 40.6098 0.440117 40.2798 0.580117C39.9498 0.720117 39.6498 0.910117 39.3898 1.17012C39.1298 1.42012 38.9398 1.72012 38.7998 2.05012C38.6598 2.38012 38.5898 2.73012 38.5898 3.09012H39.3698C39.3698 2.83012 39.4198 2.58012 39.5198 2.34012C39.6198 2.10012 39.7598 1.89012 39.9498 1.70012C40.1398 1.52012 40.3498 1.37012 40.5898 1.28012C40.8298 1.18012 41.0798 1.13012 41.3498 1.13012C41.6198 1.13012 41.8598 1.18012 42.1098 1.28012C42.3498 1.38012 42.5698 1.52012 42.7498 1.70012C42.9398 1.88012 43.0798 2.10012 43.1798 2.34012C43.2798 2.58012 43.3298 2.83012 43.3298 3.09012C43.3298 3.35012 43.2798 3.60012 43.1798 3.84012C43.0798 4.08012 42.9398 4.29012 42.7498 4.48012C42.5598 4.66012 42.3498 4.81012 42.1098 4.90012C41.8698 5.00012 41.6198 5.05012 41.3498 5.05012C41.0798 5.05012 40.8398 5.00012 40.5898 4.90012C40.3498 4.80012 40.1298 4.66012 39.9498 4.48012C39.7598 4.30012 39.6198 4.08012 39.5198 3.84012C39.4198 3.60012 39.3698 3.35012 39.3698 3.09012H38.9798L38.9898 3.08012Z" fill="#01352C"/>
<path d="M39.3698 3.09012H38.5898C38.5898 2.73012 38.6598 2.38012 38.7998 2.05012C38.9398 1.72012 39.1298 1.42012 39.3898 1.17012C39.6498 0.910117 39.9498 0.720117 40.2798 0.580117C40.6098 0.440117 40.9598 0.370117 41.3198 0.370117C41.6798 0.370117 42.0298 0.430117 42.3698 0.570117C42.7098 0.710117 42.9998 0.910117 43.2598 1.16012C43.5198 1.41012 43.7198 1.71012 43.8598 2.04012C43.9998 2.37012 44.0698 2.72012 44.0698 3.08012C44.0698 3.44012 43.9898 3.79012 43.8598 4.12012C43.7298 4.45012 43.5298 4.75012 43.2698 5.00012C43.0098 5.26012 42.7198 5.45012 42.3798 5.59012C42.0398 5.73012 41.6898 5.80012 41.3298 5.80012C40.9698 5.80012 40.6198 5.73012 40.2798 5.59012C39.9398 5.45012 39.6398 5.25012 39.3898 5.00012C39.1398 4.75012 38.9398 4.45012 38.7998 4.12012C38.6598 3.79012 38.5898 3.44012 38.5898 3.08012H38.9898L38.9798 3.09012H39.3698ZM39.3698 3.09012C39.3698 2.83012 39.4198 2.58012 39.5198 2.34012C39.6198 2.10012 39.7598 1.89012 39.9498 1.70012C40.1398 1.52012 40.3498 1.37012 40.5898 1.28012C40.8298 1.18012 41.0798 1.13012 41.3498 1.13012C41.6198 1.13012 41.8598 1.18012 42.1098 1.28012C42.3498 1.38012 42.5698 1.52012 42.7498 1.70012C42.9398 1.88012 43.0798 2.10012 43.1798 2.34012C43.2798 2.58012 43.3298 2.83012 43.3298 3.09012C43.3298 3.35012 43.2798 3.60012 43.1798 3.84012C43.0798 4.08012 42.9398 4.29012 42.7498 4.48012C42.5598 4.66012 42.3498 4.81012 42.1098 4.90012C41.8698 5.00012 41.6198 5.05012 41.3498 5.05012C41.0798 5.05012 40.8398 5.00012 40.5898 4.90012C40.3498 4.80012 40.1298 4.66012 39.9498 4.48012C39.7598 4.30012 39.6198 4.08012 39.5198 3.84012C39.4198 3.60012 39.3698 3.35012 39.3698 3.09012Z" stroke="#02352C" stroke-width="0.5" stroke-miterlimit="10"/>
<path d="M47.6901 66.6201V62.7001C47.6901 62.1801 47.6901 61.4001 47.6401 60.4101C47.2601 50.4001 45.1001 18.0901 42.2301 5.27006C42.2101 5.17006 42.1501 5.09006 42.0601 5.03006C41.9701 4.97006 41.8701 4.96006 41.7701 4.98006C41.6701 5.00006 41.5801 5.06006 41.5301 5.15006C41.4701 5.24006 41.4501 5.34006 41.4801 5.44006C44.3201 18.1201 46.5001 50.5201 46.8701 60.4401C46.8701 61.4201 46.9201 62.2001 46.9201 62.7001V66.6201C46.9201 66.7301 46.9601 66.8201 47.0401 66.9001C47.1201 66.9801 47.2101 67.0101 47.3201 67.0101C47.4301 67.0101 47.5201 66.9701 47.6001 66.8901C47.6801 66.8101 47.7101 66.7201 47.7101 66.6101L47.6901 66.6201Z" fill="#01352C" stroke="#02352C" stroke-width="0.5" stroke-miterlimit="10"/>
<path d="M40.24 5.23005C37.77 16.27 35.82 41.8 35.08 55.06C34.88 58.73 34.77 61.45 34.77 62.69V76.41C34.77 76.52 34.8 76.61 34.88 76.69C34.96 76.77 35.05 76.8101 35.16 76.8101C35.27 76.8101 35.36 76.7701 35.44 76.7001C35.52 76.6301 35.56 76.5301 35.56 76.4201V62.7001C35.56 61.5001 35.67 58.7801 35.87 55.1101C36.6 41.8801 38.56 16.32 41.01 5.41005C41.03 5.31005 41.01 5.21005 40.96 5.12005C40.9 5.03005 40.82 4.97005 40.72 4.95005C40.61 4.93005 40.52 4.95005 40.43 5.00005C40.34 5.06005 40.28 5.14005 40.26 5.24005" fill="#01352C"/>
<path d="M40.24 5.23005C37.77 16.27 35.82 41.8 35.08 55.06C34.88 58.73 34.77 61.45 34.77 62.69V76.41C34.77 76.52 34.8 76.61 34.88 76.69C34.96 76.77 35.05 76.8101 35.16 76.8101C35.27 76.8101 35.36 76.7701 35.44 76.7001C35.52 76.6301 35.56 76.5301 35.56 76.4201V62.7001C35.56 61.5001 35.67 58.7801 35.87 55.1101C36.6 41.8801 38.56 16.32 41.01 5.41005C41.03 5.31005 41.01 5.21005 40.96 5.12005C40.9 5.03005 40.82 4.97005 40.72 4.95005C40.61 4.93005 40.52 4.95005 40.43 5.00005C40.34 5.06005 40.28 5.14005 40.26 5.24005" stroke="#02352C" stroke-width="0.5" stroke-miterlimit="10"/>
<path d="M45.2098 33.2401H37.2998C37.1798 33.2201 37.0698 33.2501 36.9798 33.3301C36.8898 33.4101 36.8398 33.5101 36.8398 33.6301C36.8398 33.7501 36.8898 33.8501 36.9798 33.9301C37.0698 34.0101 37.1798 34.0401 37.2998 34.0201H45.2098C45.4298 33.9801 45.5398 33.8601 45.5398 33.6301C45.5398 33.4001 45.4298 33.2801 45.2098 33.2401Z" fill="#01352C" stroke="#02352C" stroke-width="0.5" stroke-miterlimit="10"/>
<path d="M57.1501 38.78H49.2901C49.1801 38.78 49.0901 38.81 49.0101 38.89C48.9301 38.97 48.8901 39.06 48.8901 39.16C48.8901 39.26 48.9301 39.36 49.0101 39.44C49.0901 39.52 49.1801 39.55 49.2901 39.55H57.1501C57.2601 39.55 57.3501 39.51 57.4301 39.44C57.5101 39.36 57.5501 39.27 57.5501 39.16C57.5501 39.05 57.5101 38.96 57.4301 38.89C57.3501 38.81 57.2601 38.78 57.1501 38.78Z" fill="#01352C" stroke="#02352C" stroke-width="0.5" stroke-miterlimit="10"/>
<path d="M50.9298 11.76H50.5398C50.5398 12.12 50.6098 12.46 50.7498 12.8C50.8898 13.13 51.0898 13.42 51.3398 13.68C51.5998 13.93 51.8898 14.13 52.2298 14.27C52.5598 14.41 52.9098 14.48 53.2698 14.48C53.6298 14.48 53.9798 14.41 54.3098 14.27C54.6398 14.13 54.9398 13.94 55.1998 13.68C55.4598 13.43 55.6498 13.13 55.7898 12.8C55.9298 12.47 55.9998 12.12 55.9998 11.76C55.9998 11.4 55.9298 11.06 55.7898 10.72C55.6498 10.39 55.4498 10.1 55.1998 9.84004C54.9398 9.59004 54.6498 9.39004 54.3098 9.25004C53.9798 9.11004 53.6298 9.04004 53.2698 9.04004C52.9098 9.04004 52.5598 9.11004 52.2198 9.24004C51.8898 9.38004 51.5898 9.57004 51.3298 9.83004C51.0698 10.08 50.8798 10.38 50.7398 10.71C50.5998 11.04 50.5298 11.39 50.5298 11.75H51.3098C51.3098 11.49 51.3598 11.24 51.4598 11C51.5598 10.76 51.6998 10.55 51.8898 10.36C52.0798 10.18 52.2898 10.03 52.5298 9.94004C52.7698 9.84004 53.0198 9.79004 53.2898 9.79004C53.5598 9.79004 53.7998 9.84004 54.0498 9.94004C54.2898 10.04 54.5098 10.18 54.6898 10.36C54.8798 10.54 55.0198 10.76 55.1198 11C55.2198 11.24 55.2698 11.49 55.2698 11.75C55.2698 12.01 55.2198 12.26 55.1198 12.5C55.0198 12.74 54.8798 12.95 54.6898 13.14C54.4998 13.32 54.2898 13.47 54.0498 13.56C53.8098 13.66 53.5598 13.71 53.2898 13.71C53.0198 13.71 52.7798 13.66 52.5298 13.56C52.2898 13.46 52.0698 13.32 51.8898 13.14C51.6998 12.96 51.5598 12.74 51.4598 12.5C51.3598 12.26 51.3098 12.01 51.3098 11.75H50.9098L50.9298 11.76Z" fill="#01352C"/>
<path d="M51.3098 11.75H50.5298C50.5298 11.39 50.5998 11.04 50.7398 10.71C50.8798 10.38 51.0698 10.08 51.3298 9.83004C51.5898 9.57004 51.8898 9.38004 52.2198 9.24004C52.5598 9.11004 52.9098 9.04004 53.2698 9.04004C53.6298 9.04004 53.9798 9.11004 54.3098 9.25004C54.6498 9.39004 54.9398 9.59004 55.1998 9.84004C55.4498 10.1 55.6498 10.39 55.7898 10.72C55.9298 11.06 55.9998 11.4 55.9998 11.76C55.9998 12.12 55.9298 12.47 55.7898 12.8C55.6498 13.13 55.4598 13.43 55.1998 13.68C54.9398 13.94 54.6398 14.13 54.3098 14.27C53.9798 14.41 53.6298 14.48 53.2698 14.48C52.9098 14.48 52.5598 14.41 52.2298 14.27C51.8898 14.13 51.5998 13.93 51.3398 13.68C51.0898 13.42 50.8898 13.13 50.7498 12.8C50.6098 12.46 50.5398 12.12 50.5398 11.76H50.9298L50.9098 11.75H51.3098ZM51.3098 11.75C51.3098 11.49 51.3598 11.24 51.4598 11C51.5598 10.76 51.6998 10.55 51.8898 10.36C52.0798 10.18 52.2898 10.03 52.5298 9.94004C52.7698 9.84004 53.0198 9.79004 53.2898 9.79004C53.5598 9.79004 53.7998 9.84004 54.0498 9.94004C54.2898 10.04 54.5098 10.18 54.6898 10.36C54.8798 10.54 55.0198 10.76 55.1198 11C55.2198 11.24 55.2698 11.49 55.2698 11.75C55.2698 12.01 55.2198 12.26 55.1198 12.5C55.0198 12.74 54.8798 12.95 54.6898 13.14C54.4998 13.32 54.2898 13.47 54.0498 13.56C53.8098 13.66 53.5598 13.71 53.2898 13.71C53.0198 13.71 52.7798 13.66 52.5298 13.56C52.2898 13.46 52.0698 13.32 51.8898 13.14C51.6998 12.96 51.5598 12.74 51.4598 12.5C51.3598 12.26 51.3098 12.01 51.3098 11.75Z" stroke="#02352C" stroke-width="0.5" stroke-miterlimit="10"/>
<path d="M53.4598 14.11C54.7298 19.77 55.8698 29.39 56.7698 39.17C58.0798 53.43 58.8998 68.06 58.8998 71.37V117.35C58.8998 117.46 58.9398 117.55 59.0198 117.62C59.0998 117.69 59.1898 117.73 59.2998 117.73C59.4098 117.73 59.4998 117.69 59.5698 117.62C59.6498 117.55 59.6798 117.46 59.6798 117.35V71.37C59.6798 68.01 58.8698 53.39 57.5398 39.11C56.6398 29.31 55.4998 19.68 54.2198 13.95C54.1998 13.85 54.1398 13.77 54.0498 13.71C53.9598 13.65 53.8598 13.64 53.7598 13.66C53.6598 13.68 53.5698 13.74 53.5198 13.83C53.4598 13.92 53.4398 14.02 53.4698 14.12L53.4598 14.11Z" fill="#01352C" stroke="#02352C" stroke-width="0.5" stroke-miterlimit="10"/>
<path d="M52.22 13.9102C49.94 24.1202 48.1 46.7102 47.28 60.5502C46.96 65.8002 46.79 69.7902 46.79 71.3302V84.6602C46.83 84.8802 46.96 84.9902 47.18 84.9902C47.4 84.9902 47.54 84.8802 47.57 84.6602V71.3302C47.57 69.8102 47.75 65.8202 48.06 60.5502C48.9 46.7502 50.75 24.1302 53 14.0402C53.02 13.9302 53 13.8402 52.95 13.7502C52.89 13.6602 52.81 13.6002 52.71 13.5702C52.61 13.5502 52.51 13.5702 52.42 13.6202C52.33 13.6802 52.27 13.7602 52.25 13.8602" fill="#01352C"/>
<path d="M52.22 13.9102C49.94 24.1202 48.1 46.7102 47.28 60.5502C46.96 65.8002 46.79 69.7902 46.79 71.3302V84.6602C46.83 84.8802 46.96 84.9902 47.18 84.9902C47.4 84.9902 47.54 84.8802 47.57 84.6602V71.3302C47.57 69.8102 47.75 65.8202 48.06 60.5502C48.9 46.7502 50.75 24.1302 53 14.0402C53.02 13.9302 53 13.8402 52.95 13.7502C52.89 13.6602 52.81 13.6002 52.71 13.5702C52.61 13.5502 52.51 13.5702 52.42 13.6202C52.33 13.6802 52.27 13.7602 52.25 13.8602" stroke="#02352C" stroke-width="0.5" stroke-miterlimit="10"/>
<path d="M59.1902 65.3701L33.2102 53.6101C33.1102 53.5701 33.0102 53.5701 32.9102 53.6101C32.8102 53.6501 32.7402 53.7201 32.6902 53.8101C32.6402 53.9101 32.6402 54.0101 32.6802 54.1101C32.7202 54.2101 32.7902 54.2801 32.8902 54.3201L58.8602 66.0801C59.0802 66.1401 59.2402 66.0801 59.3302 65.8701C59.4302 65.6601 59.3802 65.5001 59.1802 65.3801" fill="#01352C"/>
<path d="M59.1902 65.3701L33.2102 53.6101C33.1102 53.5701 33.0102 53.5701 32.9102 53.6101C32.8102 53.6501 32.7402 53.7201 32.6902 53.8101C32.6402 53.9101 32.6402 54.0101 32.6802 54.1101C32.7202 54.2101 32.7902 54.2801 32.8902 54.3201L58.8602 66.0801C59.0802 66.1401 59.2402 66.0801 59.3302 65.8701C59.4302 65.6601 59.3802 65.5001 59.1802 65.3801" stroke="#02352C" stroke-width="0.5" stroke-miterlimit="10"/>
<path d="M42.9498 106.3L47.1598 86.5401L53.8998 117.42C53.9198 117.52 53.9798 117.61 54.0698 117.66C54.1598 117.72 54.2598 117.73 54.3598 117.71C54.4698 117.69 54.5498 117.63 54.6098 117.54C54.6698 117.45 54.6798 117.35 54.6598 117.25L47.5298 84.5901C47.4898 84.3801 47.3598 84.2901 47.1398 84.3001C46.9298 84.3001 46.8098 84.4001 46.7598 84.6001L42.1598 106.16C42.1398 106.26 42.1598 106.36 42.2198 106.45C42.2798 106.54 42.3598 106.59 42.4698 106.61C42.5698 106.63 42.6698 106.61 42.7598 106.56C42.8498 106.51 42.9098 106.42 42.9298 106.32" fill="#01352C"/>
<path d="M42.9498 106.3L47.1598 86.5401L53.8998 117.42C53.9198 117.52 53.9798 117.61 54.0698 117.66C54.1598 117.72 54.2598 117.73 54.3598 117.71C54.4698 117.69 54.5498 117.63 54.6098 117.54C54.6698 117.45 54.6798 117.35 54.6598 117.25L47.5298 84.5901C47.4898 84.3801 47.3598 84.2901 47.1398 84.3001C46.9298 84.3001 46.8098 84.4001 46.7598 84.6001L42.1598 106.16C42.1398 106.26 42.1598 106.36 42.2198 106.45C42.2798 106.54 42.3598 106.59 42.4698 106.61C42.5698 106.63 42.6698 106.61 42.7598 106.56C42.8498 106.51 42.9098 106.42 42.9298 106.32" stroke="#02352C" stroke-width="0.5" stroke-miterlimit="10"/>
<path d="M39.5802 117.32C38.9002 110.54 37.1302 104.06 34.2802 97.8701L33.9202 98.0401L34.2902 97.8801C34.0602 97.4201 33.8002 96.98 33.5002 96.57C33.0302 95.76 32.3302 95.2901 31.3902 95.1601C31.2702 95.1401 31.1602 95.17 31.0702 95.25C30.9802 95.33 30.9302 95.4301 30.9302 95.5501C30.9302 95.6701 30.9802 95.7701 31.0702 95.8501C31.1602 95.9301 31.2702 95.9601 31.3902 95.9401C31.8302 95.9401 32.4402 96.4301 32.8602 97.0301C33.0502 97.2901 33.2202 97.5701 33.3702 97.8501C33.4402 97.9701 33.5002 98.09 33.5602 98.21C33.5602 98.21 33.8302 98.7501 34.2402 99.7301C36.6502 105.38 38.1702 111.26 38.7902 117.37C38.8202 117.61 38.9602 117.73 39.2102 117.72C39.3102 117.72 39.4002 117.67 39.4702 117.6C39.5402 117.52 39.5802 117.43 39.5702 117.33L39.5802 117.32Z" fill="#01352C" stroke="#02352C" stroke-width="0.5" stroke-miterlimit="10"/>
<path d="M23.9801 117.39C24.4301 112.77 25.4101 108.28 26.9501 103.89C27.5501 102.14 28.1201 100.71 28.5401 99.7301C28.9601 98.7501 29.2201 98.2001 29.2201 98.2001C29.2701 98.0701 29.3401 97.9501 29.4101 97.8401C29.6501 97.3901 29.9301 96.9802 30.2701 96.6002C30.5501 96.2202 30.9301 96.0001 31.4101 95.9301C31.6301 95.8901 31.7401 95.7701 31.7401 95.5401C31.7401 95.3101 31.6301 95.1901 31.4101 95.1501C30.4801 95.2901 29.7701 95.7602 29.2901 96.5602C28.9901 96.9802 28.7301 97.4201 28.5101 97.8801L28.8701 98.0401L28.5101 97.8601C25.6501 104.05 23.8701 110.53 23.1801 117.3C23.1701 117.41 23.2001 117.5 23.2701 117.59C23.3401 117.67 23.4301 117.72 23.5401 117.73C23.6501 117.74 23.7501 117.71 23.8401 117.64C23.9301 117.57 23.9801 117.48 23.9901 117.37L23.9801 117.39Z" fill="#01352C" stroke="#02352C" stroke-width="0.5" stroke-miterlimit="10"/>
<path d="M51.4899 116.84C51.1599 113.52 50.2899 110.34 48.8799 107.31L48.5299 107.48L48.8899 107.32C48.7799 107.08 48.6499 106.85 48.4799 106.64C48.2199 106.18 47.8199 105.93 47.2899 105.87C47.1799 105.87 47.0899 105.91 47.0099 105.99C46.9299 106.07 46.8999 106.16 46.8999 106.27C46.8999 106.38 46.9299 106.47 47.0099 106.54C47.0899 106.61 47.1799 106.65 47.2899 106.65C47.3899 106.65 47.6599 106.83 47.8499 107.1L48.0899 107.48L48.1699 107.64C48.1699 107.64 48.2899 107.89 48.4999 108.38C49.6699 111.11 50.3999 113.95 50.6899 116.91C50.6899 117.02 50.7399 117.11 50.8299 117.18C50.9099 117.25 51.0099 117.28 51.1199 117.27C51.3699 117.25 51.4899 117.11 51.4899 116.86V116.84Z" fill="#01352C" stroke="#02352C" stroke-width="0.5" stroke-miterlimit="10"/>
<path d="M44.5801 112.9C44.9001 111.61 45.3001 110.35 45.7901 109.12C45.9801 108.65 46.1301 108.29 46.2401 108.03C46.3601 107.78 46.4201 107.66 46.4201 107.65L46.5101 107.49C46.6201 107.28 46.7501 107.09 46.9101 106.92C47.0101 106.78 47.1401 106.69 47.3101 106.66C47.4201 106.66 47.5101 106.63 47.5901 106.55C47.6701 106.47 47.7101 106.38 47.7101 106.28C47.7101 106.17 47.6701 106.08 47.5901 106C47.5101 105.92 47.4201 105.89 47.3101 105.89C46.7901 105.96 46.3901 106.22 46.1201 106.66C45.9701 106.88 45.8301 107.1 45.7101 107.34L46.0701 107.5L45.7201 107.33C44.9101 109.07 44.2801 110.87 43.8201 112.73C43.7901 112.96 43.8901 113.1 44.1201 113.15C44.3401 113.2 44.5001 113.13 44.5801 112.91V112.9Z" fill="#01352C" stroke="#02352C" stroke-width="0.5" stroke-miterlimit="10"/>
<path d="M28.7802 57.9601C28.5602 58.3401 28.4502 58.7501 28.4502 59.1901C28.5002 59.5401 28.6202 59.8601 28.7902 60.1701C28.9602 60.4801 29.1802 60.7401 29.4502 60.9701C29.7202 61.2001 30.0202 61.3701 30.3502 61.5001C30.6802 61.6201 31.0302 61.6801 31.3802 61.6801C31.7302 61.6801 32.0802 61.6201 32.4102 61.5001C32.7402 61.3801 33.0402 61.2001 33.3102 60.9701C33.5802 60.7401 33.8002 60.4701 33.9702 60.1701C34.1402 59.8601 34.2502 59.5401 34.3102 59.1901C34.3102 58.9601 34.2802 58.7401 34.2202 58.5201C34.1902 58.4201 34.1302 58.3401 34.0402 58.2801C33.9502 58.2301 33.8502 58.2101 33.7402 58.2401C33.6402 58.2701 33.5602 58.3301 33.5002 58.4201C33.4502 58.5101 33.4302 58.6101 33.4602 58.7201L33.5202 59.1801C33.5202 59.7101 33.3102 60.1501 32.9102 60.5001C32.4702 60.8801 31.9602 61.0701 31.3802 61.0701C30.8002 61.0701 30.2902 60.8901 29.8502 60.5001C29.4502 60.1501 29.2402 59.7101 29.2302 59.1801C29.2302 58.8801 29.3102 58.6001 29.4602 58.3401C29.5302 58.2501 29.5602 58.1401 29.5302 58.0201C29.5102 57.9001 29.4402 57.8201 29.3402 57.7601C29.2402 57.7001 29.1302 57.6901 29.0102 57.7301C28.8902 57.7701 28.8202 57.8401 28.7702 57.9501L28.7802 57.9601Z" fill="#01352C" stroke="#02352C" stroke-width="0.5" stroke-miterlimit="10"/>
<path d="M34.2301 58.5501L32.0701 48.0101C32.0401 47.8001 31.9101 47.6901 31.6901 47.7001C31.4901 47.7001 31.3601 47.8001 31.3001 47.9901L28.7701 58.0601C28.7301 58.1701 28.7301 58.2801 28.7901 58.3801C28.8401 58.4901 28.9301 58.5501 29.0501 58.5801C29.1701 58.6101 29.2701 58.5801 29.3701 58.5201C29.4701 58.4601 29.5201 58.3601 29.5401 58.2401L31.6601 49.8201L33.5101 58.7001C33.5301 58.8001 33.5901 58.8901 33.6801 58.9401C33.7701 59.0001 33.8701 59.0101 33.9701 58.9901C34.0701 58.9601 34.1401 58.9001 34.1901 58.8201C34.2401 58.7301 34.2501 58.6401 34.2301 58.5401V58.5501Z" fill="#01352C" stroke="#02352C" stroke-width="0.5" stroke-miterlimit="10"/>
<path d="M6.52002 58.3102V60.8702C6.52002 60.9802 6.55002 61.0702 6.63002 61.1502C6.71002 61.2302 6.80002 61.2702 6.91002 61.2702C7.02002 61.2702 7.11002 61.2302 7.19002 61.1602C7.27002 61.0802 7.31002 60.9902 7.31002 60.8802V58.3202C7.31002 58.2102 7.27002 58.1202 7.19002 58.0402C7.11002 57.9602 7.02002 57.9302 6.91002 57.9302C6.80002 57.9302 6.71002 57.9702 6.63002 58.0502C6.55002 58.1302 6.52002 58.2202 6.52002 58.3302" fill="#01352C"/>
<path d="M6.52002 58.3102V60.8702C6.52002 60.9802 6.55002 61.0702 6.63002 61.1502C6.71002 61.2302 6.80002 61.2702 6.91002 61.2702C7.02002 61.2702 7.11002 61.2302 7.19002 61.1602C7.27002 61.0802 7.31002 60.9902 7.31002 60.8802V58.3202C7.31002 58.2102 7.27002 58.1202 7.19002 58.0402C7.11002 57.9602 7.02002 57.9302 6.91002 57.9302C6.80002 57.9302 6.71002 57.9702 6.63002 58.0502C6.55002 58.1302 6.52002 58.2202 6.52002 58.3302" stroke="#02352C" stroke-width="0.5" stroke-miterlimit="10"/>
<path d="M9.12012 56.7401V59.3001C9.12012 59.4101 9.16012 59.5001 9.24012 59.5701C9.32012 59.6501 9.41012 59.6801 9.52012 59.6801C9.63012 59.6801 9.72012 59.6501 9.80012 59.5701C9.88012 59.4901 9.91012 59.4001 9.91012 59.3001V56.7401C9.91012 56.6301 9.88012 56.5401 9.80012 56.4601C9.72012 56.3801 9.63012 56.3401 9.52012 56.3401C9.41012 56.3401 9.32012 56.3801 9.24012 56.4501C9.16012 56.5301 9.12012 56.6201 9.12012 56.7301" fill="#01352C"/>
<path d="M9.12012 56.7401V59.3001C9.12012 59.4101 9.16012 59.5001 9.24012 59.5701C9.32012 59.6501 9.41012 59.6801 9.52012 59.6801C9.63012 59.6801 9.72012 59.6501 9.80012 59.5701C9.88012 59.4901 9.91012 59.4001 9.91012 59.3001V56.7401C9.91012 56.6301 9.88012 56.5401 9.80012 56.4601C9.72012 56.3801 9.63012 56.3401 9.52012 56.3401C9.41012 56.3401 9.32012 56.3801 9.24012 56.4501C9.16012 56.5301 9.12012 56.6201 9.12012 56.7301" stroke="#02352C" stroke-width="0.5" stroke-miterlimit="10"/>
<path d="M9.12012 51.5902V54.1502C9.12012 54.2602 9.16012 54.3502 9.24012 54.4302C9.32012 54.5102 9.41012 54.5402 9.52012 54.5402C9.63012 54.5402 9.72012 54.5002 9.80012 54.4202C9.88012 54.3402 9.91012 54.2502 9.91012 54.1402V51.5802C9.91012 51.4702 9.88012 51.3802 9.80012 51.3002C9.72012 51.2202 9.63012 51.1802 9.52012 51.1802C9.41012 51.1802 9.32012 51.2202 9.24012 51.2902C9.16012 51.3702 9.12012 51.4602 9.12012 51.5702" fill="#01352C"/>
<path d="M9.12012 51.5902V54.1502C9.12012 54.2602 9.16012 54.3502 9.24012 54.4302C9.32012 54.5102 9.41012 54.5402 9.52012 54.5402C9.63012 54.5402 9.72012 54.5002 9.80012 54.4202C9.88012 54.3402 9.91012 54.2502 9.91012 54.1402V51.5802C9.91012 51.4702 9.88012 51.3802 9.80012 51.3002C9.72012 51.2202 9.63012 51.1802 9.52012 51.1802C9.41012 51.1802 9.32012 51.2202 9.24012 51.2902C9.16012 51.3702 9.12012 51.4602 9.12012 51.5702" stroke="#02352C" stroke-width="0.5" stroke-miterlimit="10"/>
<path d="M9.12012 46.43V48.99C9.12012 49.1 9.16012 49.19 9.24012 49.27C9.32012 49.35 9.41012 49.38 9.52012 49.38C9.63012 49.38 9.72012 49.34 9.80012 49.26C9.88012 49.18 9.91012 49.09 9.91012 48.98V46.42C9.91012 46.31 9.88012 46.22 9.80012 46.15C9.72012 46.07 9.63012 46.04 9.52012 46.04C9.41012 46.04 9.32012 46.07 9.24012 46.15C9.16012 46.23 9.12012 46.32 9.12012 46.42" fill="#01352C"/>
<path d="M9.12012 46.43V48.99C9.12012 49.1 9.16012 49.19 9.24012 49.27C9.32012 49.35 9.41012 49.38 9.52012 49.38C9.63012 49.38 9.72012 49.34 9.80012 49.26C9.88012 49.18 9.91012 49.09 9.91012 48.98V46.42C9.91012 46.31 9.88012 46.22 9.80012 46.15C9.72012 46.07 9.63012 46.04 9.52012 46.04C9.41012 46.04 9.32012 46.07 9.24012 46.15C9.16012 46.23 9.12012 46.32 9.12012 46.42" stroke="#02352C" stroke-width="0.5" stroke-miterlimit="10"/>
<path d="M11.8102 55.4402V58.0002C11.7902 58.1202 11.8202 58.2202 11.9002 58.3202C11.9802 58.4102 12.0802 58.4602 12.2002 58.4602C12.3202 58.4602 12.4202 58.4102 12.5002 58.3202C12.5802 58.2302 12.6102 58.1202 12.5902 58.0002V55.4402C12.6102 55.3202 12.5802 55.2202 12.5002 55.1202C12.4202 55.0302 12.3202 54.9802 12.2002 54.9802C12.0802 54.9802 11.9802 55.0302 11.9002 55.1202C11.8202 55.2102 11.7902 55.3202 11.8102 55.4402Z" fill="#01352C" stroke="#02352C" stroke-width="0.5" stroke-miterlimit="10"/>
<path d="M11.8101 50.2802V52.8502C11.8501 53.0702 11.9801 53.1802 12.2001 53.1802C12.4201 53.1802 12.5601 53.0702 12.5901 52.8502V50.2802C12.5501 50.0602 12.4201 49.9502 12.2001 49.9502C11.9801 49.9502 11.8401 50.0602 11.8101 50.2802Z" fill="#01352C" stroke="#02352C" stroke-width="0.5" stroke-miterlimit="10"/>
<path d="M11.8101 45.12V47.69C11.8501 47.91 11.9801 48.02 12.2001 48.02C12.4201 48.02 12.5601 47.91 12.5901 47.69V45.12C12.5501 44.9 12.4201 44.79 12.2001 44.79C11.9801 44.79 11.8401 44.9 11.8101 45.12Z" fill="#01352C" stroke="#02352C" stroke-width="0.5" stroke-miterlimit="10"/>
<path d="M6.4601 53.1602V55.7202C6.4401 55.8402 6.4701 55.9402 6.5501 56.0402C6.6301 56.1302 6.7301 56.1802 6.8501 56.1802C6.9701 56.1802 7.0701 56.1302 7.1501 56.0402C7.2301 55.9502 7.2601 55.8402 7.2401 55.7202V53.1602C7.2601 53.0402 7.2301 52.9402 7.1501 52.8402C7.0701 52.7402 6.9701 52.7002 6.8501 52.7002C6.7301 52.7002 6.6301 52.7502 6.5501 52.8402C6.4701 52.9302 6.4401 53.0402 6.4601 53.1602Z" fill="#01352C" stroke="#02352C" stroke-width="0.5" stroke-miterlimit="10"/>
<path d="M6.45996 48.0001V50.5401C6.49996 50.7601 6.62996 50.8701 6.84996 50.8701C7.06996 50.8701 7.20996 50.7601 7.23996 50.5401V47.9701C7.19996 47.7501 7.06996 47.6401 6.84996 47.6401C6.62996 47.6401 6.48996 47.7501 6.45996 47.9701" fill="#01352C"/>
<path d="M6.45996 48.0001V50.5401C6.49996 50.7601 6.62996 50.8701 6.84996 50.8701C7.06996 50.8701 7.20996 50.7601 7.23996 50.5401V47.9701C7.19996 47.7501 7.06996 47.6401 6.84996 47.6401C6.62996 47.6401 6.48996 47.7501 6.45996 47.9701" stroke="#02352C" stroke-width="0.5" stroke-miterlimit="10"/>
<path d="M9.12012 67.2001V78.96C9.12012 79.07 9.16012 79.16 9.24012 79.23C9.32012 79.31 9.41012 79.34 9.52012 79.34C9.63012 79.34 9.72012 79.31 9.80012 79.23C9.88012 79.15 9.91012 79.06 9.91012 78.96V67.2001C9.91012 67.0901 9.88012 67.0001 9.80012 66.9201C9.72012 66.8401 9.63012 66.8 9.52012 66.8C9.41012 66.8 9.32012 66.84 9.24012 66.91C9.16012 66.99 9.12012 67.08 9.12012 67.19" fill="#01352C"/>
<path d="M9.12012 67.2001V78.96C9.12012 79.07 9.16012 79.16 9.24012 79.23C9.32012 79.31 9.41012 79.34 9.52012 79.34C9.63012 79.34 9.72012 79.31 9.80012 79.23C9.88012 79.15 9.91012 79.06 9.91012 78.96V67.2001C9.91012 67.0901 9.88012 67.0001 9.80012 66.9201C9.72012 66.8401 9.63012 66.8 9.52012 66.8C9.41012 66.8 9.32012 66.84 9.24012 66.91C9.16012 66.99 9.12012 67.08 9.12012 67.19" stroke="#02352C" stroke-width="0.5" stroke-miterlimit="10"/>
<path d="M11.8102 65.9001V77.6601C11.7902 77.7801 11.8202 77.8801 11.9002 77.9801C11.9802 78.0701 12.0802 78.1201 12.2002 78.1201C12.3202 78.1201 12.4202 78.0701 12.5002 77.9801C12.5802 77.8901 12.6102 77.7801 12.5902 77.6601V65.9001C12.5502 65.6801 12.4202 65.5701 12.2002 65.5701C11.9802 65.5701 11.8402 65.6801 11.8102 65.9001Z" fill="#01352C" stroke="#02352C" stroke-width="0.5" stroke-miterlimit="10"/>
<path d="M6.4601 68.7802V80.5402C6.4401 80.6602 6.4701 80.7602 6.5501 80.8602C6.6301 80.9502 6.7301 81.0002 6.8501 81.0002C6.9701 81.0002 7.0701 80.9502 7.1501 80.8602C7.2301 80.7702 7.2601 80.6602 7.2401 80.5402V68.7802C7.2001 68.5602 7.0701 68.4502 6.8501 68.4502C6.6301 68.4502 6.4901 68.5602 6.4601 68.7802Z" fill="#01352C" stroke="#02352C" stroke-width="0.5" stroke-miterlimit="10"/>
<path d="M18.5098 53.0101V55.5701C18.5098 55.6801 18.5398 55.7701 18.6198 55.8501C18.6998 55.9301 18.7898 55.9701 18.8998 55.9701C19.0098 55.9701 19.0998 55.9301 19.1798 55.8601C19.2598 55.7801 19.2998 55.6901 19.2998 55.5801V53.0201C19.2998 52.9101 19.2598 52.8201 19.1798 52.7401C19.0998 52.6601 19.0098 52.6301 18.8998 52.6301C18.7898 52.6301 18.6998 52.6701 18.6198 52.7501C18.5398 52.8301 18.5098 52.9201 18.5098 53.0301" fill="#01352C"/>
<path d="M18.5098 53.0101V55.5701C18.5098 55.6801 18.5398 55.7701 18.6198 55.8501C18.6998 55.9301 18.7898 55.9701 18.8998 55.9701C19.0098 55.9701 19.0998 55.9301 19.1798 55.8601C19.2598 55.7801 19.2998 55.6901 19.2998 55.5801V53.0201C19.2998 52.9101 19.2598 52.8201 19.1798 52.7401C19.0998 52.6601 19.0098 52.6301 18.8998 52.6301C18.7898 52.6301 18.6998 52.6701 18.6198 52.7501C18.5398 52.8301 18.5098 52.9201 18.5098 53.0301" stroke="#02352C" stroke-width="0.5" stroke-miterlimit="10"/>
<path d="M21.11 51.4402V54.0002C21.15 54.2202 21.28 54.3302 21.5 54.3302C21.72 54.3302 21.85 54.2202 21.89 54.0002V51.4402C21.91 51.3202 21.88 51.2202 21.8 51.1202C21.72 51.0302 21.62 50.9802 21.5 50.9802C21.38 50.9802 21.28 51.0302 21.2 51.1202C21.12 51.2102 21.09 51.3202 21.11 51.4402Z" fill="#01352C" stroke="#02352C" stroke-width="0.5" stroke-miterlimit="10"/>
<path d="M21.11 46.2901V48.8501C21.09 48.9701 21.12 49.0701 21.2 49.1701C21.28 49.2601 21.38 49.3101 21.5 49.3101C21.62 49.3101 21.72 49.2601 21.8 49.1701C21.88 49.0801 21.91 48.9701 21.89 48.8501V46.2901C21.91 46.1701 21.88 46.0701 21.8 45.9701C21.72 45.8801 21.62 45.8301 21.5 45.8301C21.38 45.8301 21.28 45.8801 21.2 45.9701C21.12 46.0601 21.09 46.1701 21.11 46.2901Z" fill="#01352C" stroke="#02352C" stroke-width="0.5" stroke-miterlimit="10"/>
<path d="M21.11 41.13V43.68C21.09 43.8 21.12 43.9 21.2 44C21.28 44.09 21.38 44.14 21.5 44.14C21.62 44.14 21.72 44.09 21.8 44C21.88 43.91 21.91 43.8 21.89 43.68V41.13C21.85 40.91 21.72 40.8 21.5 40.8C21.28 40.8 21.14 40.91 21.11 41.13Z" fill="#01352C" stroke="#02352C" stroke-width="0.5" stroke-miterlimit="10"/>
<path d="M23.7998 50.13V52.69C23.7998 52.8 23.8298 52.89 23.9098 52.97C23.9898 53.05 24.0798 53.09 24.1898 53.09C24.2998 53.09 24.3898 53.05 24.4698 52.98C24.5498 52.9 24.5898 52.81 24.5898 52.7V50.14C24.5898 50.03 24.5498 49.94 24.4698 49.87C24.3898 49.8 24.2998 49.76 24.1898 49.76C24.0798 49.76 23.9898 49.79 23.9098 49.87C23.8298 49.95 23.7998 50.04 23.7998 50.14" fill="#01352C"/>
<path d="M23.7998 50.13V52.69C23.7998 52.8 23.8298 52.89 23.9098 52.97C23.9898 53.05 24.0798 53.09 24.1898 53.09C24.2998 53.09 24.3898 53.05 24.4698 52.98C24.5498 52.9 24.5898 52.81 24.5898 52.7V50.14C24.5898 50.03 24.5498 49.94 24.4698 49.87C24.3898 49.8 24.2998 49.76 24.1898 49.76C24.0798 49.76 23.9898 49.79 23.9098 49.87C23.8298 49.95 23.7998 50.04 23.7998 50.14" stroke="#02352C" stroke-width="0.5" stroke-miterlimit="10"/>
<path d="M23.8 44.9701V47.5401C23.8 47.6501 23.84 47.7401 23.91 47.8101C23.99 47.8801 24.08 47.9201 24.18 47.9201C24.28 47.9201 24.38 47.8801 24.46 47.8101C24.54 47.7401 24.58 47.6501 24.58 47.5401V44.9701C24.58 44.8601 24.54 44.7701 24.46 44.7001C24.38 44.6301 24.29 44.5901 24.18 44.5901C24.07 44.5901 23.98 44.6201 23.9 44.7001C23.82 44.7801 23.79 44.8701 23.79 44.9701" fill="#01352C"/>
<path d="M23.8 44.9701V47.5401C23.8 47.6501 23.84 47.7401 23.91 47.8101C23.99 47.8801 24.08 47.9201 24.18 47.9201C24.28 47.9201 24.38 47.8801 24.46 47.8101C24.54 47.7401 24.58 47.6501 24.58 47.5401V44.9701C24.58 44.8601 24.54 44.7701 24.46 44.7001C24.38 44.6301 24.29 44.5901 24.18 44.5901C24.07 44.5901 23.98 44.6201 23.9 44.7001C23.82 44.7801 23.79 44.8701 23.79 44.9701" stroke="#02352C" stroke-width="0.5" stroke-miterlimit="10"/>
<path d="M23.7998 39.8302V42.3902C23.7998 42.5002 23.8298 42.5902 23.9098 42.6602C23.9898 42.7402 24.0798 42.7702 24.1898 42.7702C24.2998 42.7702 24.3898 42.7402 24.4698 42.6602C24.5498 42.5802 24.5898 42.4902 24.5898 42.3902V39.8302C24.5898 39.7202 24.5498 39.6302 24.4698 39.5502C24.3898 39.4702 24.2998 39.4402 24.1898 39.4402C24.0798 39.4402 23.9898 39.4802 23.9098 39.5602C23.8298 39.6402 23.7998 39.7302 23.7998 39.8402" fill="#01352C"/>
<path d="M23.7998 39.8302V42.3902C23.7998 42.5002 23.8298 42.5902 23.9098 42.6602C23.9898 42.7402 24.0798 42.7702 24.1898 42.7702C24.2998 42.7702 24.3898 42.7402 24.4698 42.6602C24.5498 42.5802 24.5898 42.4902 24.5898 42.3902V39.8302C24.5898 39.7202 24.5498 39.6302 24.4698 39.5502C24.3898 39.4702 24.2998 39.4402 24.1898 39.4402C24.0798 39.4402 23.9898 39.4802 23.9098 39.5602C23.8298 39.6402 23.7998 39.7302 23.7998 39.8402" stroke="#02352C" stroke-width="0.5" stroke-miterlimit="10"/>
<path d="M18.4498 47.86V50.42C18.4298 50.54 18.4598 50.64 18.5398 50.74C18.6198 50.83 18.7198 50.88 18.8398 50.88C18.9598 50.88 19.0598 50.83 19.1398 50.74C19.2198 50.65 19.2498 50.54 19.2298 50.42V47.86C19.1898 47.64 19.0598 47.53 18.8398 47.53C18.6198 47.53 18.4798 47.64 18.4498 47.86Z" fill="#01352C" stroke="#02352C" stroke-width="0.5" stroke-miterlimit="10"/>
<path d="M18.4502 42.7001V45.2701C18.4902 45.4901 18.6202 45.6001 18.8402 45.6001C19.0602 45.6001 19.2002 45.4901 19.2302 45.2701V42.7001C19.1902 42.4801 19.0602 42.3701 18.8402 42.3701C18.6202 42.3701 18.4802 42.4801 18.4502 42.7001Z" fill="#01352C" stroke="#02352C" stroke-width="0.5" stroke-miterlimit="10"/>
<path d="M21.11 61.9101V73.6701C21.09 73.7901 21.12 73.8901 21.2 73.9901C21.28 74.0801 21.38 74.1301 21.5 74.1301C21.62 74.1301 21.72 74.0801 21.8 73.9901C21.88 73.9001 21.91 73.7901 21.89 73.6701V61.9101C21.85 61.6901 21.72 61.5801 21.5 61.5801C21.28 61.5801 21.14 61.6901 21.11 61.9101Z" fill="#01352C" stroke="#02352C" stroke-width="0.5" stroke-miterlimit="10"/>
<path d="M23.7998 60.6002V72.3602C23.7998 72.4702 23.8298 72.5602 23.9098 72.6402C23.9898 72.7202 24.0798 72.7602 24.1898 72.7602C24.2998 72.7602 24.3898 72.7202 24.4698 72.6502C24.5498 72.5702 24.5898 72.4802 24.5898 72.3702V60.6102C24.5898 60.5002 24.5498 60.4102 24.4698 60.3402C24.3898 60.2702 24.2998 60.2302 24.1898 60.2302C24.0798 60.2302 23.9898 60.2702 23.9198 60.3402C23.8398 60.4102 23.8098 60.5002 23.8098 60.6102" fill="#01352C"/>
<path d="M23.7998 60.6002V72.3602C23.7998 72.4702 23.8298 72.5602 23.9098 72.6402C23.9898 72.7202 24.0798 72.7602 24.1898 72.7602C24.2998 72.7602 24.3898 72.7202 24.4698 72.6502C24.5498 72.5702 24.5898 72.4802 24.5898 72.3702V60.6102C24.5898 60.5002 24.5498 60.4102 24.4698 60.3402C24.3898 60.2702 24.2998 60.2302 24.1898 60.2302C24.0798 60.2302 23.9898 60.2702 23.9198 60.3402C23.8398 60.4102 23.8098 60.5002 23.8098 60.6102" stroke="#02352C" stroke-width="0.5" stroke-miterlimit="10"/>
<path d="M18.4498 63.4801V75.2402C18.4298 75.3602 18.4598 75.4602 18.5398 75.5602C18.6198 75.6502 18.7198 75.7001 18.8398 75.7001C18.9598 75.7001 19.0598 75.6502 19.1398 75.5602C19.2198 75.4702 19.2498 75.3602 19.2298 75.2402V63.4801C19.1898 63.2601 19.0598 63.1501 18.8398 63.1501C18.6198 63.1501 18.4798 63.2601 18.4498 63.4801Z" fill="#01352C" stroke="#02352C" stroke-width="0.5" stroke-miterlimit="10"/>
<path d="M55.52 58.3101V60.8701C55.52 60.9801 55.56 61.0701 55.64 61.1501C55.72 61.2301 55.81 61.2601 55.92 61.2601C56.03 61.2601 56.12 61.2201 56.2 61.1401C56.28 61.0601 56.31 60.9701 56.31 60.8601V58.3001C56.31 58.1901 56.28 58.1001 56.2 58.0201C56.12 57.9401 56.03 57.9001 55.92 57.9001C55.81 57.9001 55.72 57.9401 55.64 58.0101C55.56 58.0901 55.52 58.1801 55.52 58.2901" fill="#01352C"/>
<path d="M55.52 58.3101V60.8701C55.52 60.9801 55.56 61.0701 55.64 61.1501C55.72 61.2301 55.81 61.2601 55.92 61.2601C56.03 61.2601 56.12 61.2201 56.2 61.1401C56.28 61.0601 56.31 60.9701 56.31 60.8601V58.3001C56.31 58.1901 56.28 58.1001 56.2 58.0201C56.12 57.9401 56.03 57.9001 55.92 57.9001C55.81 57.9001 55.72 57.9401 55.64 58.0101C55.56 58.0901 55.52 58.1801 55.52 58.2901" stroke="#02352C" stroke-width="0.5" stroke-miterlimit="10"/>
<path d="M52.9201 56.74V59.3C52.9601 59.52 53.0901 59.63 53.3101 59.63C53.5301 59.63 53.6601 59.52 53.7001 59.3V56.74C53.7201 56.62 53.6901 56.52 53.6101 56.42C53.5301 56.33 53.4301 56.28 53.3101 56.28C53.1901 56.28 53.0901 56.33 53.0101 56.42C52.9301 56.51 52.9001 56.62 52.9201 56.74Z" fill="#01352C" stroke="#02352C" stroke-width="0.5" stroke-miterlimit="10"/>
<path d="M52.9201 51.5901V54.1501C52.9001 54.2701 52.9301 54.3701 53.0101 54.4701C53.0901 54.5601 53.1901 54.6101 53.3101 54.6101C53.4301 54.6101 53.5301 54.5601 53.6101 54.4701C53.6901 54.3801 53.7201 54.2701 53.7001 54.1501V51.5901C53.7201 51.4701 53.6901 51.3701 53.6101 51.2701C53.5301 51.1801 53.4301 51.1301 53.3101 51.1301C53.1901 51.1301 53.0901 51.1801 53.0101 51.2701C52.9301 51.3601 52.9001 51.4701 52.9201 51.5901Z" fill="#01352C" stroke="#02352C" stroke-width="0.5" stroke-miterlimit="10"/>
<path d="M52.9201 46.4301V48.9901C52.9001 49.1101 52.9301 49.2101 53.0101 49.3101C53.0901 49.4001 53.1901 49.4501 53.3101 49.4501C53.4301 49.4501 53.5301 49.4001 53.6101 49.3101C53.6901 49.2201 53.7201 49.1101 53.7001 48.9901V46.4301C53.6601 46.2101 53.5301 46.1001 53.3101 46.1001C53.0901 46.1001 52.9501 46.2101 52.9201 46.4301Z" fill="#01352C" stroke="#02352C" stroke-width="0.5" stroke-miterlimit="10"/>
<path d="M50.23 55.44V58C50.23 58.11 50.27 58.2 50.35 58.28C50.43 58.36 50.52 58.39 50.63 58.39C50.74 58.39 50.83 58.35 50.91 58.27C50.99 58.19 51.02 58.1 51.02 57.99V55.43C51.02 55.32 50.99 55.23 50.91 55.15C50.83 55.07 50.74 55.03 50.63 55.03C50.52 55.03 50.43 55.07 50.35 55.14C50.27 55.22 50.23 55.31 50.23 55.42" fill="#01352C"/>
<path d="M50.23 55.44V58C50.23 58.11 50.27 58.2 50.35 58.28C50.43 58.36 50.52 58.39 50.63 58.39C50.74 58.39 50.83 58.35 50.91 58.27C50.99 58.19 51.02 58.1 51.02 57.99V55.43C51.02 55.32 50.99 55.23 50.91 55.15C50.83 55.07 50.74 55.03 50.63 55.03C50.52 55.03 50.43 55.07 50.35 55.14C50.27 55.22 50.23 55.31 50.23 55.42" stroke="#02352C" stroke-width="0.5" stroke-miterlimit="10"/>
<path d="M50.2302 50.2801V52.8501C50.2302 52.9601 50.2702 53.0501 50.3502 53.1201C50.4302 53.1901 50.5202 53.2301 50.6302 53.2301C50.7402 53.2301 50.8302 53.1901 50.9002 53.1201C50.9802 53.0501 51.0102 52.9601 51.0102 52.8501V50.2801C51.0102 50.1701 50.9802 50.0801 50.9002 50.0101C50.8202 49.9401 50.7302 49.9001 50.6202 49.9001C50.5102 49.9001 50.4202 49.9301 50.3402 50.0101C50.2602 50.0901 50.2202 50.1801 50.2202 50.2801" fill="#01352C"/>
<path d="M50.2302 50.2801V52.8501C50.2302 52.9601 50.2702 53.0501 50.3502 53.1201C50.4302 53.1901 50.5202 53.2301 50.6302 53.2301C50.7402 53.2301 50.8302 53.1901 50.9002 53.1201C50.9802 53.0501 51.0102 52.9601 51.0102 52.8501V50.2801C51.0102 50.1701 50.9802 50.0801 50.9002 50.0101C50.8202 49.9401 50.7302 49.9001 50.6202 49.9001C50.5102 49.9001 50.4202 49.9301 50.3402 50.0101C50.2602 50.0901 50.2202 50.1801 50.2202 50.2801" stroke="#02352C" stroke-width="0.5" stroke-miterlimit="10"/>
<path d="M50.23 45.1202V47.6902C50.23 47.8002 50.27 47.8902 50.35 47.9602C50.43 48.0302 50.52 48.0702 50.63 48.0702C50.74 48.0702 50.83 48.0402 50.91 47.9602C50.99 47.8802 51.02 47.7902 51.02 47.6902V45.1202C51.02 45.0102 50.98 44.9202 50.91 44.8502C50.83 44.7802 50.74 44.7402 50.64 44.7402C50.53 44.7402 50.44 44.7802 50.36 44.8502C50.28 44.9202 50.24 45.0102 50.24 45.1202" fill="#01352C"/>
<path d="M50.23 45.1202V47.6902C50.23 47.8002 50.27 47.8902 50.35 47.9602C50.43 48.0302 50.52 48.0702 50.63 48.0702C50.74 48.0702 50.83 48.0402 50.91 47.9602C50.99 47.8802 51.02 47.7902 51.02 47.6902V45.1202C51.02 45.0102 50.98 44.9202 50.91 44.8502C50.83 44.7802 50.74 44.7402 50.64 44.7402C50.53 44.7402 50.44 44.7802 50.36 44.8502C50.28 44.9202 50.24 45.0102 50.24 45.1202" stroke="#02352C" stroke-width="0.5" stroke-miterlimit="10"/>
<path d="M55.5802 53.1602V55.7202C55.5602 55.8402 55.5902 55.9402 55.6702 56.0402C55.7502 56.1302 55.8502 56.1802 55.9702 56.1802C56.0902 56.1802 56.1902 56.1302 56.2702 56.0402C56.3502 55.9502 56.3802 55.8402 56.3602 55.7202V53.1602C56.3802 53.0402 56.3502 52.9402 56.2702 52.8402C56.1902 52.7502 56.0902 52.7002 55.9702 52.7002C55.8502 52.7002 55.7502 52.7502 55.6702 52.8402C55.5902 52.9302 55.5602 53.0402 55.5802 53.1602Z" fill="#01352C" stroke="#02352C" stroke-width="0.5" stroke-miterlimit="10"/>
<path d="M55.5801 48.0001V50.5401C55.6201 50.7601 55.7501 50.8701 55.9701 50.8701C56.1901 50.8701 56.3301 50.7601 56.3601 50.5401V47.9701C56.3201 47.7501 56.1901 47.6401 55.9701 47.6401C55.7501 47.6401 55.6101 47.7501 55.5801 47.9701" fill="#01352C"/>
<path d="M55.5801 48.0001V50.5401C55.6201 50.7601 55.7501 50.8701 55.9701 50.8701C56.1901 50.8701 56.3301 50.7601 56.3601 50.5401V47.9701C56.3201 47.7501 56.1901 47.6401 55.9701 47.6401C55.7501 47.6401 55.6101 47.7501 55.5801 47.9701" stroke="#02352C" stroke-width="0.5" stroke-miterlimit="10"/>
<path d="M52.9201 67.2002V78.9602C52.9601 79.1802 53.0901 79.2902 53.3101 79.2902C53.5301 79.2902 53.6701 79.1802 53.7001 78.9602V67.2002C53.7201 67.0802 53.6901 66.9802 53.6101 66.8802C53.5301 66.7902 53.4301 66.7402 53.3101 66.7402C53.1901 66.7402 53.0901 66.7902 53.0101 66.8802C52.9301 66.9702 52.9001 67.0802 52.9201 67.2002Z" fill="#01352C" stroke="#02352C" stroke-width="0.5" stroke-miterlimit="10"/>
<path d="M50.23 65.9V77.66C50.23 77.77 50.27 77.86 50.35 77.94C50.43 78.02 50.52 78.05 50.63 78.05C50.74 78.05 50.83 78.01 50.91 77.93C50.99 77.85 51.02 77.76 51.02 77.65V65.89C51.02 65.78 50.98 65.69 50.91 65.62C50.83 65.55 50.74 65.51 50.64 65.51C50.53 65.51 50.44 65.55 50.36 65.62C50.28 65.69 50.24 65.78 50.24 65.89" fill="#01352C"/>
<path d="M50.23 65.9V77.66C50.23 77.77 50.27 77.86 50.35 77.94C50.43 78.02 50.52 78.05 50.63 78.05C50.74 78.05 50.83 78.01 50.91 77.93C50.99 77.85 51.02 77.76 51.02 77.65V65.89C51.02 65.78 50.98 65.69 50.91 65.62C50.83 65.55 50.74 65.51 50.64 65.51C50.53 65.51 50.44 65.55 50.36 65.62C50.28 65.69 50.24 65.78 50.24 65.89" stroke="#02352C" stroke-width="0.5" stroke-miterlimit="10"/>
<path d="M55.5802 68.7802V80.5402C55.5602 80.6602 55.5902 80.7602 55.6702 80.8602C55.7502 80.9502 55.8502 81.0002 55.9702 81.0002C56.0902 81.0002 56.1902 80.9502 56.2702 80.8602C56.3502 80.7702 56.3802 80.6602 56.3602 80.5402V68.7802C56.3202 68.5602 56.1902 68.4502 55.9702 68.4502C55.7502 68.4502 55.6102 68.5602 55.5802 68.7802Z" fill="#01352C" stroke="#02352C" stroke-width="0.5" stroke-miterlimit="10"/>
<path d="M43.54 53.0101V55.5701C43.54 55.6801 43.57 55.7701 43.65 55.8501C43.73 55.9301 43.82 55.9701 43.93 55.9701C44.04 55.9701 44.13 55.9301 44.21 55.8601C44.29 55.7801 44.33 55.6901 44.33 55.5801V53.0201C44.33 52.9101 44.29 52.8201 44.21 52.7401C44.13 52.6601 44.04 52.6301 43.93 52.6301C43.82 52.6301 43.73 52.6701 43.65 52.7501C43.57 52.8301 43.54 52.9201 43.54 53.0301" fill="#01352C"/>
<path d="M43.54 53.0101V55.5701C43.54 55.6801 43.57 55.7701 43.65 55.8501C43.73 55.9301 43.82 55.9701 43.93 55.9701C44.04 55.9701 44.13 55.9301 44.21 55.8601C44.29 55.7801 44.33 55.6901 44.33 55.5801V53.0201C44.33 52.9101 44.29 52.8201 44.21 52.7401C44.13 52.6601 44.04 52.6301 43.93 52.6301C43.82 52.6301 43.73 52.6701 43.65 52.7501C43.57 52.8301 43.54 52.9201 43.54 53.0301" stroke="#02352C" stroke-width="0.5" stroke-miterlimit="10"/>
<path d="M40.9699 51.4402V54.0002C41.0099 54.2202 41.1399 54.3302 41.3599 54.3302C41.5799 54.3302 41.7199 54.2202 41.7499 54.0002V51.4402C41.7699 51.3202 41.7399 51.2202 41.6599 51.1202C41.5799 51.0302 41.4799 50.9802 41.3599 50.9802C41.2399 50.9802 41.1399 51.0302 41.0599 51.1202C40.9799 51.2102 40.9499 51.3202 40.9699 51.4402Z" fill="#01352C" stroke="#02352C" stroke-width="0.5" stroke-miterlimit="10"/>
<path d="M40.9699 46.2901V48.8501C40.9499 48.9701 40.9799 49.0701 41.0599 49.1701C41.1399 49.2601 41.2399 49.3101 41.3599 49.3101C41.4799 49.3101 41.5799 49.2601 41.6599 49.1701C41.7399 49.0801 41.7699 48.9701 41.7499 48.8501V46.2901C41.7699 46.1701 41.7399 46.0701 41.6599 45.9701C41.5799 45.8801 41.4799 45.8301 41.3599 45.8301C41.2399 45.8301 41.1399 45.8801 41.0599 45.9701C40.9799 46.0601 40.9499 46.1701 40.9699 46.2901Z" fill="#01352C" stroke="#02352C" stroke-width="0.5" stroke-miterlimit="10"/>
<path d="M40.9699 41.13V43.68C40.9499 43.8 40.9799 43.9 41.0599 44C41.1399 44.09 41.2399 44.14 41.3599 44.14C41.4799 44.14 41.5799 44.09 41.6599 44C41.7399 43.91 41.7699 43.8 41.7499 43.68V41.13C41.7099 40.91 41.5799 40.8 41.3599 40.8C41.1399 40.8 40.9999 40.91 40.9699 41.13Z" fill="#01352C" stroke="#02352C" stroke-width="0.5" stroke-miterlimit="10"/>
<path d="M38.2402 50.1302V52.6902C38.2402 52.8002 38.2802 52.8902 38.3602 52.9702C38.4402 53.0502 38.5302 53.0802 38.6402 53.0802C38.7502 53.0802 38.8402 53.0402 38.9202 52.9602C39.0002 52.8802 39.0302 52.7902 39.0302 52.6802V50.1202C39.0302 50.0102 39.0002 49.9202 38.9202 49.8502C38.8402 49.7702 38.7502 49.7402 38.6402 49.7402C38.5302 49.7402 38.4402 49.7702 38.3602 49.8502C38.2802 49.9302 38.2402 50.0202 38.2402 50.1202" fill="#01352C"/>
<path d="M38.2402 50.1302V52.6902C38.2402 52.8002 38.2802 52.8902 38.3602 52.9702C38.4402 53.0502 38.5302 53.0802 38.6402 53.0802C38.7502 53.0802 38.8402 53.0402 38.9202 52.9602C39.0002 52.8802 39.0302 52.7902 39.0302 52.6802V50.1202C39.0302 50.0102 39.0002 49.9202 38.9202 49.8502C38.8402 49.7702 38.7502 49.7402 38.6402 49.7402C38.5302 49.7402 38.4402 49.7702 38.3602 49.8502C38.2802 49.9302 38.2402 50.0202 38.2402 50.1202" stroke="#02352C" stroke-width="0.5" stroke-miterlimit="10"/>
<path d="M38.24 44.9701V47.5401C38.24 47.6501 38.28 47.7401 38.36 47.8101C38.44 47.8801 38.53 47.9201 38.64 47.9201C38.75 47.9201 38.84 47.8801 38.91 47.8101C38.99 47.7401 39.02 47.6501 39.02 47.5401V44.9701C39.02 44.8601 38.99 44.7701 38.91 44.7001C38.83 44.6301 38.74 44.5901 38.63 44.5901C38.52 44.5901 38.43 44.6201 38.35 44.7001C38.27 44.7701 38.23 44.8701 38.23 44.9701" fill="#01352C"/>
<path d="M38.24 44.9701V47.5401C38.24 47.6501 38.28 47.7401 38.36 47.8101C38.44 47.8801 38.53 47.9201 38.64 47.9201C38.75 47.9201 38.84 47.8801 38.91 47.8101C38.99 47.7401 39.02 47.6501 39.02 47.5401V44.9701C39.02 44.8601 38.99 44.7701 38.91 44.7001C38.83 44.6301 38.74 44.5901 38.63 44.5901C38.52 44.5901 38.43 44.6201 38.35 44.7001C38.27 44.7701 38.23 44.8701 38.23 44.9701" stroke="#02352C" stroke-width="0.5" stroke-miterlimit="10"/>
<path d="M38.2402 39.8302V42.3902C38.2402 42.5002 38.2802 42.5902 38.3602 42.6602C38.4402 42.7402 38.5302 42.7702 38.6402 42.7702C38.7502 42.7702 38.8402 42.7402 38.9202 42.6602C39.0002 42.5802 39.0302 42.4902 39.0302 42.3902V39.8302C39.0302 39.7202 39.0002 39.6302 38.9202 39.5502C38.8402 39.4702 38.7502 39.4302 38.6402 39.4302C38.5302 39.4302 38.4402 39.4702 38.3602 39.5402C38.2802 39.6202 38.2402 39.7102 38.2402 39.8202" fill="#01352C"/>
<path d="M38.2402 39.8302V42.3902C38.2402 42.5002 38.2802 42.5902 38.3602 42.6602C38.4402 42.7402 38.5302 42.7702 38.6402 42.7702C38.7502 42.7702 38.8402 42.7402 38.9202 42.6602C39.0002 42.5802 39.0302 42.4902 39.0302 42.3902V39.8302C39.0302 39.7202 39.0002 39.6302 38.9202 39.5502C38.8402 39.4702 38.7502 39.4302 38.6402 39.4302C38.5302 39.4302 38.4402 39.4702 38.3602 39.5402C38.2802 39.6202 38.2402 39.7102 38.2402 39.8202" stroke="#02352C" stroke-width="0.5" stroke-miterlimit="10"/>
<path d="M43.5898 47.8602V50.4202C43.5898 50.5302 43.6298 50.6202 43.7098 50.7002C43.7898 50.7802 43.8798 50.8102 43.9898 50.8102C44.0998 50.8102 44.1898 50.7702 44.2698 50.6902C44.3498 50.6102 44.3798 50.5202 44.3798 50.4102V47.8502C44.3798 47.7402 44.3498 47.6502 44.2698 47.5802C44.1898 47.5002 44.0998 47.4702 43.9898 47.4702C43.8798 47.4702 43.7898 47.5002 43.7098 47.5802C43.6298 47.6602 43.5898 47.7502 43.5898 47.8502" fill="#01352C"/>
<path d="M43.5898 47.8602V50.4202C43.5898 50.5302 43.6298 50.6202 43.7098 50.7002C43.7898 50.7802 43.8798 50.8102 43.9898 50.8102C44.0998 50.8102 44.1898 50.7702 44.2698 50.6902C44.3498 50.6102 44.3798 50.5202 44.3798 50.4102V47.8502C44.3798 47.7402 44.3498 47.6502 44.2698 47.5802C44.1898 47.5002 44.0998 47.4702 43.9898 47.4702C43.8798 47.4702 43.7898 47.5002 43.7098 47.5802C43.6298 47.6602 43.5898 47.7502 43.5898 47.8502" stroke="#02352C" stroke-width="0.5" stroke-miterlimit="10"/>
<path d="M43.5898 42.7001V45.2701C43.5898 45.3801 43.6298 45.4701 43.7098 45.5401C43.7898 45.6101 43.8798 45.6501 43.9898 45.6501C44.0998 45.6501 44.1898 45.6101 44.2598 45.5401C44.3398 45.4701 44.3698 45.3801 44.3698 45.2701V42.7001C44.3698 42.5901 44.3298 42.5001 44.2598 42.4301C44.1798 42.3601 44.0898 42.3201 43.9898 42.3201C43.8798 42.3201 43.7898 42.3601 43.7098 42.4301C43.6298 42.5001 43.5898 42.5901 43.5898 42.7001Z" fill="#01352C" stroke="#02352C" stroke-width="0.5" stroke-miterlimit="10"/>
<path d="M40.9699 61.9101V73.6701C40.9499 73.7901 40.9799 73.8901 41.0599 73.9901C41.1399 74.0801 41.2399 74.1301 41.3599 74.1301C41.4799 74.1301 41.5799 74.0801 41.6599 73.9901C41.7399 73.9001 41.7699 73.7901 41.7499 73.6701V61.9101C41.7099 61.6901 41.5799 61.5801 41.3599 61.5801C41.1399 61.5801 40.9999 61.6901 40.9699 61.9101Z" fill="#01352C" stroke="#02352C" stroke-width="0.5" stroke-miterlimit="10"/>
<path d="M38.2402 60.6002V72.3602C38.2402 72.4702 38.2802 72.5602 38.3602 72.6402C38.4402 72.7202 38.5302 72.7502 38.6402 72.7502C38.7502 72.7502 38.8402 72.7102 38.9202 72.6302C39.0002 72.5502 39.0302 72.4602 39.0302 72.3502V60.5902C39.0302 60.4802 38.9902 60.3902 38.9202 60.3202C38.8402 60.2502 38.7502 60.2102 38.6502 60.2102C38.5402 60.2102 38.4502 60.2502 38.3702 60.3202C38.2902 60.3902 38.2502 60.4802 38.2502 60.5902" fill="#01352C"/>
<path d="M38.2402 60.6002V72.3602C38.2402 72.4702 38.2802 72.5602 38.3602 72.6402C38.4402 72.7202 38.5302 72.7502 38.6402 72.7502C38.7502 72.7502 38.8402 72.7102 38.9202 72.6302C39.0002 72.5502 39.0302 72.4602 39.0302 72.3502V60.5902C39.0302 60.4802 38.9902 60.3902 38.9202 60.3202C38.8402 60.2502 38.7502 60.2102 38.6502 60.2102C38.5402 60.2102 38.4502 60.2502 38.3702 60.3202C38.2902 60.3902 38.2502 60.4802 38.2502 60.5902" stroke="#02352C" stroke-width="0.5" stroke-miterlimit="10"/>
<path d="M43.5898 63.4801V75.2401C43.5898 75.3501 43.6298 75.4401 43.7098 75.5201C43.7898 75.6001 43.8798 75.6301 43.9898 75.6301C44.0998 75.6301 44.1898 75.5901 44.2698 75.5101C44.3498 75.4301 44.3798 75.3401 44.3798 75.2301V63.4701C44.3798 63.3601 44.3498 63.2701 44.2698 63.2001C44.1898 63.1201 44.0998 63.0901 43.9898 63.0901C43.8798 63.0901 43.7898 63.1201 43.7098 63.2001C43.6298 63.2801 43.5898 63.3701 43.5898 63.4701" fill="#01352C"/>
<path d="M43.5898 63.4801V75.2401C43.5898 75.3501 43.6298 75.4401 43.7098 75.5201C43.7898 75.6001 43.8798 75.6301 43.9898 75.6301C44.0998 75.6301 44.1898 75.5901 44.2698 75.5101C44.3498 75.4301 44.3798 75.3401 44.3798 75.2301V63.4701C44.3798 63.3601 44.3498 63.2701 44.2698 63.2001C44.1898 63.1201 44.0998 63.0901 43.9898 63.0901C43.8798 63.0901 43.7898 63.1201 43.7098 63.2001C43.6298 63.2801 43.5898 63.3701 43.5898 63.4701" stroke="#02352C" stroke-width="0.5" stroke-miterlimit="10"/>
</g>
<defs>
<clipPath id="clip0_44_1573">
<rect width="62.74" height="117.88" fill="white" transform="translate(0 0.120117)"/>
</clipPath>
</defs>
</svg>
